G04 #@! TF.FileFunction,Copper,L1,Top,Signal*
%FSLAX46Y46*%
G04 Gerber Fmt 4.6, Leading zero omitted, Abs format (unit mm)*
G04 Created by KiCad (PCBNEW 4.0.7) date 06/25/18 20:53:05*
%MOMM*%
%LPD*%
G01*
G04 APERTURE LIST*
%ADD10C,0.100000*%
%ADD11R,1.300000X1.300000*%
%ADD12C,1.300000*%
%ADD13R,1.800000X1.800000*%
%ADD14C,1.800000*%
%ADD15R,2.032000X2.032000*%
%ADD16O,2.032000X2.032000*%
%ADD17R,3.500000X2.500000*%
%ADD18O,1.750000X3.500000*%
%ADD19C,1.998980*%
%ADD20C,4.000500*%
%ADD21O,1.501140X2.199640*%
%ADD22C,0.350000*%
%ADD23C,0.254000*%
G04 APERTURE END LIST*
D10*
D11*
X32918400Y-57302400D03*
D12*
X35418400Y-57302400D03*
D11*
X66548000Y-53441600D03*
D12*
X64048000Y-53441600D03*
D11*
X93065600Y-45821600D03*
D12*
X95565600Y-45821600D03*
D13*
X35661600Y-48056800D03*
D14*
X35661600Y-50596800D03*
D13*
X87528400Y-29870400D03*
D14*
X90068400Y-29870400D03*
D15*
X34290000Y-39217600D03*
D16*
X34290000Y-41757600D03*
D15*
X79654400Y-34340800D03*
D16*
X82194400Y-34340800D03*
D17*
X80873600Y-62911600D03*
D18*
X75873600Y-57905600D03*
X85873600Y-57905600D03*
X78373600Y-57905600D03*
X83373600Y-57905600D03*
D19*
X40335200Y-32207200D03*
X55575200Y-32207200D03*
X62687200Y-29768800D03*
X77927200Y-29768800D03*
X55321200Y-53644800D03*
X40081200Y-53644800D03*
X40335200Y-25400000D03*
X55575200Y-25400000D03*
X63500000Y-21894800D03*
X78740000Y-21894800D03*
X71882000Y-63804800D03*
X56642000Y-63804800D03*
X39674800Y-59944000D03*
X54914800Y-59944000D03*
X101041200Y-45669200D03*
X101041200Y-30429200D03*
X101000560Y-55552340D03*
X98501200Y-65554860D03*
X96001840Y-55552340D03*
D20*
X98501200Y-60553600D03*
D21*
X44805600Y-46380400D03*
X47345600Y-46380400D03*
X49885600Y-46380400D03*
X52425600Y-46380400D03*
X52425600Y-38760400D03*
X49885600Y-38760400D03*
X47345600Y-38760400D03*
X44805600Y-38760400D03*
X61489701Y-46266710D03*
X64029701Y-46266710D03*
X66569701Y-46266710D03*
X69109701Y-46266710D03*
X69109701Y-38646710D03*
X66569701Y-38646710D03*
X64029701Y-38646710D03*
X61489701Y-38646710D03*
X86664800Y-38963600D03*
X84124800Y-38963600D03*
X81584800Y-38963600D03*
X79044800Y-38963600D03*
X79044800Y-46583600D03*
X81584800Y-46583600D03*
X84124800Y-46583600D03*
X86664800Y-46583600D03*
D22*
X101000560Y-55552340D02*
X100965000Y-55499000D01*
X100965000Y-55499000D02*
X101092000Y-55372000D01*
X101092000Y-55372000D02*
X101092000Y-45720000D01*
X101092000Y-45720000D02*
X101041200Y-45669200D01*
X84124800Y-38963600D02*
X84074000Y-38989000D01*
X84074000Y-38989000D02*
X82931000Y-40132000D01*
X82931000Y-40132000D02*
X82931000Y-48133000D01*
X82931000Y-48133000D02*
X83312000Y-48514000D01*
X83312000Y-48514000D02*
X83312000Y-57912000D01*
X83312000Y-57912000D02*
X83373600Y-57905600D01*
X35661600Y-48056800D02*
X35687000Y-48006000D01*
X35687000Y-48006000D02*
X35687000Y-40259000D01*
X35687000Y-40259000D02*
X35306000Y-40259000D01*
X35306000Y-40259000D02*
X34290000Y-39243000D01*
X34290000Y-39243000D02*
X34290000Y-39217600D01*
X84124800Y-38963600D02*
X84074000Y-38989000D01*
X84074000Y-38989000D02*
X82804000Y-37719000D01*
X82804000Y-37719000D02*
X82804000Y-37465000D01*
X82804000Y-37465000D02*
X82169000Y-36830000D01*
X82169000Y-36830000D02*
X82169000Y-34290000D01*
X82169000Y-34290000D02*
X82194400Y-34340800D01*
X35661600Y-48056800D02*
X35687000Y-48006000D01*
X35687000Y-48006000D02*
X34290000Y-49403000D01*
X34290000Y-49403000D02*
X34290000Y-50927000D01*
X34290000Y-50927000D02*
X34417000Y-51054000D01*
X34417000Y-51054000D02*
X34417000Y-51308000D01*
X34417000Y-51308000D02*
X35433000Y-52324000D01*
X35433000Y-52324000D02*
X35433000Y-57277000D01*
X35433000Y-57277000D02*
X35418400Y-57302400D01*
X66548000Y-53441600D02*
X66548000Y-46228000D01*
X66548000Y-46228000D02*
X66569701Y-46266710D01*
X56642000Y-63804800D02*
X56642000Y-63754000D01*
X56642000Y-63754000D02*
X64008000Y-56388000D01*
X64008000Y-56388000D02*
X64008000Y-53467000D01*
X64008000Y-53467000D02*
X64048000Y-53441600D01*
X93065600Y-45821600D02*
X86614000Y-39370000D01*
X86614000Y-39370000D02*
X86614000Y-38989000D01*
X86614000Y-38989000D02*
X86664800Y-38963600D01*
X61489701Y-38646710D02*
X61468000Y-38608000D01*
X61468000Y-38608000D02*
X62865000Y-40005000D01*
X62865000Y-40005000D02*
X62865000Y-40132000D01*
X62865000Y-40132000D02*
X63246000Y-40132000D01*
X63246000Y-40132000D02*
X69088000Y-45974000D01*
X69088000Y-45974000D02*
X69088000Y-46228000D01*
X69088000Y-46228000D02*
X69109701Y-46266710D01*
X40335200Y-32207200D02*
X44831000Y-36703000D01*
X44831000Y-36703000D02*
X44831000Y-38735000D01*
X44831000Y-38735000D02*
X44805600Y-38760400D01*
X40335200Y-25400000D02*
X40386000Y-25400000D01*
X40386000Y-25400000D02*
X40386000Y-32258000D01*
X40386000Y-32258000D02*
X40335200Y-32207200D01*
X63500000Y-21894800D02*
X63500000Y-21844000D01*
X63500000Y-21844000D02*
X64135000Y-22479000D01*
X64135000Y-22479000D02*
X64135000Y-30226000D01*
X64135000Y-30226000D02*
X64008000Y-30353000D01*
X64008000Y-30353000D02*
X64008000Y-38608000D01*
X64008000Y-38608000D02*
X64029701Y-38646710D01*
X80873600Y-62911600D02*
X80899000Y-62865000D01*
X80899000Y-62865000D02*
X78359000Y-60325000D01*
X78359000Y-60325000D02*
X78359000Y-57912000D01*
X78359000Y-57912000D02*
X78373600Y-57905600D01*
X55575200Y-32207200D02*
X55499000Y-32385000D01*
X55499000Y-32385000D02*
X49911000Y-37973000D01*
X49911000Y-37973000D02*
X49911000Y-38735000D01*
X49911000Y-38735000D02*
X49885600Y-38760400D01*
X49885600Y-38760400D02*
X50038000Y-38862000D01*
X50038000Y-38862000D02*
X51181000Y-40005000D01*
X51181000Y-40005000D02*
X51181000Y-40259000D01*
X51181000Y-40259000D02*
X52451000Y-41529000D01*
X52451000Y-41529000D02*
X52451000Y-46355000D01*
X52451000Y-46355000D02*
X52425600Y-46380400D01*
X55321200Y-53644800D02*
X55245000Y-53467000D01*
X55245000Y-53467000D02*
X49911000Y-48133000D01*
X49911000Y-48133000D02*
X49911000Y-46355000D01*
X49911000Y-46355000D02*
X49885600Y-46380400D01*
X78740000Y-21894800D02*
X78740000Y-21844000D01*
X78740000Y-21844000D02*
X66548000Y-34036000D01*
X66548000Y-34036000D02*
X66548000Y-38608000D01*
X66548000Y-38608000D02*
X66569701Y-38646710D01*
X81584800Y-38963600D02*
X81534000Y-38989000D01*
X81534000Y-38989000D02*
X80264000Y-40259000D01*
X80264000Y-40259000D02*
X80264000Y-40513000D01*
X80264000Y-40513000D02*
X71882000Y-48895000D01*
X71882000Y-48895000D02*
X71882000Y-63804800D01*
D23*
G36*
X79295622Y-20355714D02*
X79066547Y-20260594D01*
X78416306Y-20260026D01*
X77815345Y-20508338D01*
X77355154Y-20967727D01*
X77105794Y-21568253D01*
X77105226Y-22218494D01*
X77138782Y-22299705D01*
X65975244Y-33463244D01*
X65799658Y-33726026D01*
X65738000Y-34036000D01*
X65738000Y-37184806D01*
X65589955Y-37283727D01*
X65299701Y-37718122D01*
X65009447Y-37283727D01*
X64818000Y-37155806D01*
X64818000Y-30633765D01*
X64883342Y-30535974D01*
X64945000Y-30226000D01*
X64945000Y-22677006D01*
X65134206Y-22221347D01*
X65134774Y-21571106D01*
X64886462Y-20970145D01*
X64427073Y-20509954D01*
X63826547Y-20260594D01*
X63176306Y-20260026D01*
X62575345Y-20508338D01*
X62115154Y-20967727D01*
X61865794Y-21568253D01*
X61865226Y-22218494D01*
X62113538Y-22819455D01*
X62572927Y-23279646D01*
X63173453Y-23529006D01*
X63325000Y-23529138D01*
X63325000Y-28263837D01*
X63013747Y-28134594D01*
X62363506Y-28134026D01*
X61762545Y-28382338D01*
X61302354Y-28841727D01*
X61052994Y-29442253D01*
X61052426Y-30092494D01*
X61300738Y-30693455D01*
X61760127Y-31153646D01*
X62360653Y-31403006D01*
X63010894Y-31403574D01*
X63198000Y-31326263D01*
X63198000Y-37184806D01*
X63049955Y-37283727D01*
X62759701Y-37718122D01*
X62469447Y-37283727D01*
X62019936Y-36983373D01*
X61489701Y-36877903D01*
X60959466Y-36983373D01*
X60509955Y-37283727D01*
X60209601Y-37733238D01*
X60104131Y-38263473D01*
X60104131Y-39029947D01*
X60209601Y-39560182D01*
X60509955Y-40009693D01*
X60959466Y-40310047D01*
X61489701Y-40415517D01*
X62019936Y-40310047D01*
X62022692Y-40308205D01*
X62106775Y-40392288D01*
X62116658Y-40441974D01*
X62292244Y-40704756D01*
X62555026Y-40880342D01*
X62865000Y-40942000D01*
X62910488Y-40942000D01*
X66483531Y-44515043D01*
X66039466Y-44603373D01*
X65589955Y-44903727D01*
X65299701Y-45338122D01*
X65009447Y-44903727D01*
X64559936Y-44603373D01*
X64029701Y-44497903D01*
X63499466Y-44603373D01*
X63049955Y-44903727D01*
X62759701Y-45338122D01*
X62469447Y-44903727D01*
X62019936Y-44603373D01*
X61489701Y-44497903D01*
X60959466Y-44603373D01*
X60509955Y-44903727D01*
X60209601Y-45353238D01*
X60104131Y-45883473D01*
X60104131Y-46649947D01*
X60209601Y-47180182D01*
X60509955Y-47629693D01*
X60959466Y-47930047D01*
X61489701Y-48035517D01*
X62019936Y-47930047D01*
X62469447Y-47629693D01*
X62759701Y-47195298D01*
X63049955Y-47629693D01*
X63499466Y-47930047D01*
X64029701Y-48035517D01*
X64559936Y-47930047D01*
X65009447Y-47629693D01*
X65299701Y-47195298D01*
X65589955Y-47629693D01*
X65738000Y-47728614D01*
X65738000Y-52174266D01*
X65662683Y-52188438D01*
X65446559Y-52327510D01*
X65301569Y-52539710D01*
X65250560Y-52791600D01*
X65250560Y-52987060D01*
X65138005Y-52714657D01*
X64776845Y-52352865D01*
X64304724Y-52156823D01*
X63793519Y-52156377D01*
X63321057Y-52351595D01*
X62959265Y-52712755D01*
X62763223Y-53184876D01*
X62762777Y-53696081D01*
X62957995Y-54168543D01*
X63198000Y-54408968D01*
X63198000Y-56052487D01*
X57047224Y-62203264D01*
X56968547Y-62170594D01*
X56318306Y-62170026D01*
X55717345Y-62418338D01*
X55257154Y-62877727D01*
X55007794Y-63478253D01*
X55007226Y-64128494D01*
X55255538Y-64729455D01*
X55714927Y-65189646D01*
X56315453Y-65439006D01*
X56965694Y-65439574D01*
X57566655Y-65191262D01*
X58026846Y-64731873D01*
X58276206Y-64131347D01*
X58276208Y-64128494D01*
X70247226Y-64128494D01*
X70495538Y-64729455D01*
X70954927Y-65189646D01*
X71555453Y-65439006D01*
X72205694Y-65439574D01*
X72806655Y-65191262D01*
X73266846Y-64731873D01*
X73516206Y-64131347D01*
X73516774Y-63481106D01*
X73268462Y-62880145D01*
X72809073Y-62419954D01*
X72692000Y-62371341D01*
X72692000Y-56983875D01*
X74363600Y-56983875D01*
X74363600Y-58827325D01*
X74478542Y-59405177D01*
X74805869Y-59895056D01*
X75295748Y-60222383D01*
X75873600Y-60337325D01*
X76451452Y-60222383D01*
X76941331Y-59895056D01*
X77123600Y-59622271D01*
X77305869Y-59895056D01*
X77549000Y-60057511D01*
X77549000Y-60325000D01*
X77610658Y-60634974D01*
X77766799Y-60868655D01*
X77786244Y-60897756D01*
X78488610Y-61600122D01*
X78476160Y-61661600D01*
X78476160Y-64161600D01*
X78520438Y-64396917D01*
X78659510Y-64613041D01*
X78871710Y-64758031D01*
X79123600Y-64809040D01*
X82623600Y-64809040D01*
X82858917Y-64764762D01*
X83075041Y-64625690D01*
X83220031Y-64413490D01*
X83271040Y-64161600D01*
X83271040Y-61661600D01*
X83226762Y-61426283D01*
X83087690Y-61210159D01*
X82875490Y-61065169D01*
X82623600Y-61014160D01*
X80193672Y-61014160D01*
X79221473Y-60041961D01*
X79441331Y-59895056D01*
X79768658Y-59405177D01*
X79883600Y-58827325D01*
X79883600Y-56983875D01*
X79768658Y-56406023D01*
X79441331Y-55916144D01*
X78951452Y-55588817D01*
X78373600Y-55473875D01*
X77795748Y-55588817D01*
X77305869Y-55916144D01*
X77123600Y-56188929D01*
X76941331Y-55916144D01*
X76451452Y-55588817D01*
X75873600Y-55473875D01*
X75295748Y-55588817D01*
X74805869Y-55916144D01*
X74478542Y-56406023D01*
X74363600Y-56983875D01*
X72692000Y-56983875D01*
X72692000Y-49230512D01*
X80836756Y-41085757D01*
X80973543Y-40881040D01*
X81012342Y-40822974D01*
X81051715Y-40625033D01*
X81054565Y-40626937D01*
X81584800Y-40732407D01*
X82115035Y-40626937D01*
X82121000Y-40622951D01*
X82121000Y-44924249D01*
X82115035Y-44920263D01*
X81584800Y-44814793D01*
X81054565Y-44920263D01*
X80605054Y-45220617D01*
X80393926Y-45536592D01*
X80353301Y-45586783D01*
X80347665Y-45605827D01*
X80314800Y-45655012D01*
X80281935Y-45605827D01*
X80276299Y-45586783D01*
X80235674Y-45536592D01*
X80024546Y-45220617D01*
X79575035Y-44920263D01*
X79044800Y-44814793D01*
X78514565Y-44920263D01*
X78065054Y-45220617D01*
X77853926Y-45536592D01*
X77813301Y-45586783D01*
X77807665Y-45605827D01*
X77764700Y-45670128D01*
X77715649Y-45916724D01*
X77659230Y-46107350D01*
X77659230Y-47059850D01*
X77715649Y-47250476D01*
X77764700Y-47497072D01*
X77807665Y-47561373D01*
X77813301Y-47580417D01*
X77853926Y-47630608D01*
X78065054Y-47946583D01*
X78514565Y-48246937D01*
X79044800Y-48352407D01*
X79575035Y-48246937D01*
X80024546Y-47946583D01*
X80235674Y-47630608D01*
X80276299Y-47580417D01*
X80281935Y-47561373D01*
X80314800Y-47512188D01*
X80347665Y-47561373D01*
X80353301Y-47580417D01*
X80393926Y-47630608D01*
X80605054Y-47946583D01*
X81054565Y-48246937D01*
X81584800Y-48352407D01*
X82115035Y-48246937D01*
X82140305Y-48230052D01*
X82182658Y-48442974D01*
X82282903Y-48593000D01*
X82358244Y-48705756D01*
X82502000Y-48849512D01*
X82502000Y-55785093D01*
X82305869Y-55916144D01*
X81978542Y-56406023D01*
X81863600Y-56983875D01*
X81863600Y-58827325D01*
X81978542Y-59405177D01*
X82305869Y-59895056D01*
X82795748Y-60222383D01*
X83373600Y-60337325D01*
X83951452Y-60222383D01*
X84441331Y-59895056D01*
X84623600Y-59622271D01*
X84805869Y-59895056D01*
X85295748Y-60222383D01*
X85873600Y-60337325D01*
X86451452Y-60222383D01*
X86708613Y-60050553D01*
X95861833Y-60050553D01*
X95865940Y-60563025D01*
X95865493Y-61075484D01*
X95870138Y-61086725D01*
X95870235Y-61098887D01*
X96255251Y-62028397D01*
X96260528Y-62031539D01*
X96265841Y-62044399D01*
X97006502Y-62786354D01*
X97022501Y-62792997D01*
X97026403Y-62799549D01*
X97501436Y-62991869D01*
X97974717Y-63188392D01*
X97986879Y-63188403D01*
X97998153Y-63192967D01*
X98510625Y-63188860D01*
X99023084Y-63189307D01*
X99034325Y-63184662D01*
X99046487Y-63184565D01*
X99975997Y-62799549D01*
X99979139Y-62794272D01*
X99991999Y-62788959D01*
X100733954Y-62048298D01*
X100740597Y-62032299D01*
X100747149Y-62028397D01*
X100939469Y-61553364D01*
X101135992Y-61080083D01*
X101136003Y-61067921D01*
X101140567Y-61056647D01*
X101136460Y-60544175D01*
X101136907Y-60031716D01*
X101132262Y-60020475D01*
X101132165Y-60008313D01*
X100747149Y-59078803D01*
X100741872Y-59075661D01*
X100736559Y-59062801D01*
X99995898Y-58320846D01*
X99979899Y-58314203D01*
X99975997Y-58307651D01*
X99500964Y-58115331D01*
X99027683Y-57918808D01*
X99015521Y-57918797D01*
X99004247Y-57914233D01*
X98491775Y-57918340D01*
X97979316Y-57917893D01*
X97968075Y-57922538D01*
X97955913Y-57922635D01*
X97026403Y-58307651D01*
X97023261Y-58312928D01*
X97010401Y-58318241D01*
X96268446Y-59058902D01*
X96261803Y-59074901D01*
X96255251Y-59078803D01*
X96062931Y-59553836D01*
X95866408Y-60027117D01*
X95866397Y-60039279D01*
X95861833Y-60050553D01*
X86708613Y-60050553D01*
X86941331Y-59895056D01*
X87268658Y-59405177D01*
X87383600Y-58827325D01*
X87383600Y-56983875D01*
X87268658Y-56406023D01*
X86941331Y-55916144D01*
X86881303Y-55876034D01*
X94367066Y-55876034D01*
X94615378Y-56476995D01*
X95074767Y-56937186D01*
X95675293Y-57186546D01*
X96325534Y-57187114D01*
X96926495Y-56938802D01*
X97386686Y-56479413D01*
X97636046Y-55878887D01*
X97636048Y-55876034D01*
X99365786Y-55876034D01*
X99614098Y-56476995D01*
X100073487Y-56937186D01*
X100674013Y-57186546D01*
X101324254Y-57187114D01*
X101925215Y-56938802D01*
X102385406Y-56479413D01*
X102634766Y-55878887D01*
X102635334Y-55228646D01*
X102387022Y-54627685D01*
X101927633Y-54167494D01*
X101902000Y-54156850D01*
X101902000Y-47082046D01*
X101965855Y-47055662D01*
X102426046Y-46596273D01*
X102675406Y-45995747D01*
X102675974Y-45345506D01*
X102427662Y-44744545D01*
X101968273Y-44284354D01*
X101367747Y-44034994D01*
X100717506Y-44034426D01*
X100116545Y-44282738D01*
X99656354Y-44742127D01*
X99406994Y-45342653D01*
X99406426Y-45992894D01*
X99654738Y-46593855D01*
X100114127Y-47054046D01*
X100282000Y-47123753D01*
X100282000Y-54080721D01*
X100075905Y-54165878D01*
X99615714Y-54625267D01*
X99366354Y-55225793D01*
X99365786Y-55876034D01*
X97636048Y-55876034D01*
X97636614Y-55228646D01*
X97388302Y-54627685D01*
X96928913Y-54167494D01*
X96328387Y-53918134D01*
X95678146Y-53917566D01*
X95077185Y-54165878D01*
X94616994Y-54625267D01*
X94367634Y-55225793D01*
X94367066Y-55876034D01*
X86881303Y-55876034D01*
X86451452Y-55588817D01*
X85873600Y-55473875D01*
X85295748Y-55588817D01*
X84805869Y-55916144D01*
X84623600Y-56188929D01*
X84441331Y-55916144D01*
X84122000Y-55702774D01*
X84122000Y-48514000D01*
X84088417Y-48345170D01*
X84124800Y-48352407D01*
X84655035Y-48246937D01*
X85104546Y-47946583D01*
X85315674Y-47630608D01*
X85356299Y-47580417D01*
X85361935Y-47561373D01*
X85394800Y-47512188D01*
X85685054Y-47946583D01*
X86134565Y-48246937D01*
X86664800Y-48352407D01*
X87195035Y-48246937D01*
X87644546Y-47946583D01*
X87944900Y-47497072D01*
X88050370Y-46966837D01*
X88050370Y-46200363D01*
X87944900Y-45670128D01*
X87644546Y-45220617D01*
X87195035Y-44920263D01*
X86664800Y-44814793D01*
X86134565Y-44920263D01*
X85685054Y-45220617D01*
X85394800Y-45655012D01*
X85361935Y-45605827D01*
X85356299Y-45586783D01*
X85315674Y-45536592D01*
X85104546Y-45220617D01*
X84655035Y-44920263D01*
X84124800Y-44814793D01*
X83741000Y-44891135D01*
X83741000Y-40656065D01*
X84124800Y-40732407D01*
X84655035Y-40626937D01*
X85104546Y-40326583D01*
X85394800Y-39892188D01*
X85685054Y-40326583D01*
X86134565Y-40626937D01*
X86664800Y-40732407D01*
X86803338Y-40704850D01*
X91768160Y-45669673D01*
X91768160Y-46471600D01*
X91812438Y-46706917D01*
X91951510Y-46923041D01*
X92163710Y-47068031D01*
X92415600Y-47119040D01*
X93715600Y-47119040D01*
X93950917Y-47074762D01*
X94167041Y-46935690D01*
X94312031Y-46723490D01*
X94363040Y-46471600D01*
X94363040Y-46276140D01*
X94475595Y-46548543D01*
X94836755Y-46910335D01*
X95308876Y-47106377D01*
X95820081Y-47106823D01*
X96292543Y-46911605D01*
X96654335Y-46550445D01*
X96850377Y-46078324D01*
X96850823Y-45567119D01*
X96655605Y-45094657D01*
X96294445Y-44732865D01*
X95822324Y-44536823D01*
X95311119Y-44536377D01*
X94838657Y-44731595D01*
X94476865Y-45092755D01*
X94363040Y-45366876D01*
X94363040Y-45171600D01*
X94318762Y-44936283D01*
X94179690Y-44720159D01*
X93967490Y-44575169D01*
X93715600Y-44524160D01*
X92913673Y-44524160D01*
X87998271Y-39608759D01*
X88050370Y-39346837D01*
X88050370Y-38580363D01*
X87944900Y-38050128D01*
X87644546Y-37600617D01*
X87195035Y-37300263D01*
X86664800Y-37194793D01*
X86134565Y-37300263D01*
X85685054Y-37600617D01*
X85394800Y-38035012D01*
X85104546Y-37600617D01*
X84655035Y-37300263D01*
X84124800Y-37194793D01*
X83594565Y-37300263D01*
X83582796Y-37308127D01*
X83552343Y-37155027D01*
X83376757Y-36892244D01*
X82979000Y-36494488D01*
X82979000Y-35785646D01*
X83394178Y-35508233D01*
X83752070Y-34972610D01*
X83877745Y-34340800D01*
X83752070Y-33708990D01*
X83394178Y-33173367D01*
X82858555Y-32815475D01*
X82226745Y-32689800D01*
X82162055Y-32689800D01*
X81530245Y-32815475D01*
X81227438Y-33017804D01*
X81134490Y-32873359D01*
X80922290Y-32728369D01*
X80670400Y-32677360D01*
X78638400Y-32677360D01*
X78403083Y-32721638D01*
X78186959Y-32860710D01*
X78041969Y-33072910D01*
X77990960Y-33324800D01*
X77990960Y-35356800D01*
X78035238Y-35592117D01*
X78174310Y-35808241D01*
X78386510Y-35953231D01*
X78638400Y-36004240D01*
X80670400Y-36004240D01*
X80905717Y-35959962D01*
X81121841Y-35820890D01*
X81228633Y-35664594D01*
X81359000Y-35751703D01*
X81359000Y-36830000D01*
X81420658Y-37139974D01*
X81472246Y-37217181D01*
X81054565Y-37300263D01*
X80605054Y-37600617D01*
X80314800Y-38035012D01*
X80024546Y-37600617D01*
X79575035Y-37300263D01*
X79044800Y-37194793D01*
X78514565Y-37300263D01*
X78065054Y-37600617D01*
X77764700Y-38050128D01*
X77659230Y-38580363D01*
X77659230Y-39346837D01*
X77764700Y-39877072D01*
X78065054Y-40326583D01*
X78514565Y-40626937D01*
X78923257Y-40708231D01*
X71309244Y-48322244D01*
X71133658Y-48585026D01*
X71072000Y-48895000D01*
X71072000Y-62370964D01*
X70957345Y-62418338D01*
X70497154Y-62877727D01*
X70247794Y-63478253D01*
X70247226Y-64128494D01*
X58276208Y-64128494D01*
X58276774Y-63481106D01*
X58213512Y-63328000D01*
X64580756Y-56960757D01*
X64668549Y-56829365D01*
X64756342Y-56697974D01*
X64818000Y-56388000D01*
X64818000Y-54488623D01*
X65136735Y-54170445D01*
X65250560Y-53896324D01*
X65250560Y-54091600D01*
X65294838Y-54326917D01*
X65433910Y-54543041D01*
X65646110Y-54688031D01*
X65898000Y-54739040D01*
X67198000Y-54739040D01*
X67433317Y-54694762D01*
X67649441Y-54555690D01*
X67794431Y-54343490D01*
X67845440Y-54091600D01*
X67845440Y-52791600D01*
X67801162Y-52556283D01*
X67662090Y-52340159D01*
X67449890Y-52195169D01*
X67358000Y-52176561D01*
X67358000Y-47757614D01*
X67549447Y-47629693D01*
X67839701Y-47195298D01*
X68129955Y-47629693D01*
X68579466Y-47930047D01*
X69109701Y-48035517D01*
X69639936Y-47930047D01*
X70089447Y-47629693D01*
X70389801Y-47180182D01*
X70495271Y-46649947D01*
X70495271Y-45883473D01*
X70389801Y-45353238D01*
X70089447Y-44903727D01*
X69639936Y-44603373D01*
X69109701Y-44497903D01*
X68815864Y-44556351D01*
X64565705Y-40306193D01*
X65009447Y-40009693D01*
X65299701Y-39575298D01*
X65589955Y-40009693D01*
X66039466Y-40310047D01*
X66569701Y-40415517D01*
X67099936Y-40310047D01*
X67549447Y-40009693D01*
X67839701Y-39575298D01*
X67872566Y-39624483D01*
X67878202Y-39643527D01*
X67918827Y-39693718D01*
X68129955Y-40009693D01*
X68579466Y-40310047D01*
X69109701Y-40415517D01*
X69639936Y-40310047D01*
X70089447Y-40009693D01*
X70300575Y-39693718D01*
X70341200Y-39643527D01*
X70346836Y-39624483D01*
X70389801Y-39560182D01*
X70438852Y-39313586D01*
X70495271Y-39122960D01*
X70495271Y-38170460D01*
X70438852Y-37979834D01*
X70389801Y-37733238D01*
X70346836Y-37668937D01*
X70341200Y-37649893D01*
X70300575Y-37599702D01*
X70089447Y-37283727D01*
X69639936Y-36983373D01*
X69109701Y-36877903D01*
X68579466Y-36983373D01*
X68129955Y-37283727D01*
X67918827Y-37599702D01*
X67878202Y-37649893D01*
X67872566Y-37668937D01*
X67839701Y-37718122D01*
X67549447Y-37283727D01*
X67358000Y-37155806D01*
X67358000Y-34371512D01*
X71637018Y-30092494D01*
X76292426Y-30092494D01*
X76540738Y-30693455D01*
X77000127Y-31153646D01*
X77600653Y-31403006D01*
X78250894Y-31403574D01*
X78851855Y-31155262D01*
X79312046Y-30695873D01*
X79561406Y-30095347D01*
X79561974Y-29445106D01*
X79365830Y-28970400D01*
X85980960Y-28970400D01*
X85980960Y-30770400D01*
X86025238Y-31005717D01*
X86164310Y-31221841D01*
X86376510Y-31366831D01*
X86628400Y-31417840D01*
X88428400Y-31417840D01*
X88663717Y-31373562D01*
X88879841Y-31234490D01*
X89024831Y-31022290D01*
X89028967Y-31001866D01*
X89197757Y-31170951D01*
X89761730Y-31405133D01*
X90372391Y-31405665D01*
X90936771Y-31172468D01*
X91357079Y-30752894D01*
X99406426Y-30752894D01*
X99654738Y-31353855D01*
X100114127Y-31814046D01*
X100714653Y-32063406D01*
X101364894Y-32063974D01*
X101965855Y-31815662D01*
X102426046Y-31356273D01*
X102675406Y-30755747D01*
X102675974Y-30105506D01*
X102427662Y-29504545D01*
X101968273Y-29044354D01*
X101367747Y-28794994D01*
X100717506Y-28794426D01*
X100116545Y-29042738D01*
X99656354Y-29502127D01*
X99406994Y-30102653D01*
X99406426Y-30752894D01*
X91357079Y-30752894D01*
X91368951Y-30741043D01*
X91603133Y-30177070D01*
X91603665Y-29566409D01*
X91370468Y-29002029D01*
X90939043Y-28569849D01*
X90375070Y-28335667D01*
X89764409Y-28335135D01*
X89200029Y-28568332D01*
X89031787Y-28736280D01*
X89031562Y-28735083D01*
X88892490Y-28518959D01*
X88680290Y-28373969D01*
X88428400Y-28322960D01*
X86628400Y-28322960D01*
X86393083Y-28367238D01*
X86176959Y-28506310D01*
X86031969Y-28718510D01*
X85980960Y-28970400D01*
X79365830Y-28970400D01*
X79313662Y-28844145D01*
X78854273Y-28383954D01*
X78253747Y-28134594D01*
X77603506Y-28134026D01*
X77002545Y-28382338D01*
X76542354Y-28841727D01*
X76292994Y-29442253D01*
X76292426Y-30092494D01*
X71637018Y-30092494D01*
X78262986Y-23466527D01*
X78413453Y-23529006D01*
X79063694Y-23529574D01*
X79664655Y-23281262D01*
X80124846Y-22821873D01*
X80374206Y-22221347D01*
X80374774Y-21571106D01*
X80278843Y-21338935D01*
X83724354Y-24784446D01*
X83954695Y-24938354D01*
X84226400Y-24992400D01*
X98511908Y-24992400D01*
X103277600Y-29758092D01*
X103277600Y-66660308D01*
X100239108Y-69698800D01*
X39918092Y-69698800D01*
X36097846Y-65878554D01*
X96866426Y-65878554D01*
X97114738Y-66479515D01*
X97574127Y-66939706D01*
X98174653Y-67189066D01*
X98824894Y-67189634D01*
X99425855Y-66941322D01*
X99886046Y-66481933D01*
X100135406Y-65881407D01*
X100135974Y-65231166D01*
X99887662Y-64630205D01*
X99428273Y-64170014D01*
X98827747Y-63920654D01*
X98177506Y-63920086D01*
X97576545Y-64168398D01*
X97116354Y-64627787D01*
X96866994Y-65228313D01*
X96866426Y-65878554D01*
X36097846Y-65878554D01*
X30486986Y-60267694D01*
X38040026Y-60267694D01*
X38288338Y-60868655D01*
X38747727Y-61328846D01*
X39348253Y-61578206D01*
X39998494Y-61578774D01*
X40599455Y-61330462D01*
X41059646Y-60871073D01*
X41309006Y-60270547D01*
X41309008Y-60267694D01*
X53280026Y-60267694D01*
X53528338Y-60868655D01*
X53987727Y-61328846D01*
X54588253Y-61578206D01*
X55238494Y-61578774D01*
X55839455Y-61330462D01*
X56299646Y-60871073D01*
X56549006Y-60270547D01*
X56549574Y-59620306D01*
X56301262Y-59019345D01*
X55841873Y-58559154D01*
X55241347Y-58309794D01*
X54591106Y-58309226D01*
X53990145Y-58557538D01*
X53529954Y-59016927D01*
X53280594Y-59617453D01*
X53280026Y-60267694D01*
X41309008Y-60267694D01*
X41309574Y-59620306D01*
X41061262Y-59019345D01*
X40601873Y-58559154D01*
X40001347Y-58309794D01*
X39351106Y-58309226D01*
X38750145Y-58557538D01*
X38289954Y-59016927D01*
X38040594Y-59617453D01*
X38040026Y-60267694D01*
X30486986Y-60267694D01*
X26871692Y-56652400D01*
X31620960Y-56652400D01*
X31620960Y-57952400D01*
X31665238Y-58187717D01*
X31804310Y-58403841D01*
X32016510Y-58548831D01*
X32268400Y-58599840D01*
X33568400Y-58599840D01*
X33803717Y-58555562D01*
X34019841Y-58416490D01*
X34164831Y-58204290D01*
X34215840Y-57952400D01*
X34215840Y-57756940D01*
X34328395Y-58029343D01*
X34689555Y-58391135D01*
X35161676Y-58587177D01*
X35672881Y-58587623D01*
X36145343Y-58392405D01*
X36507135Y-58031245D01*
X36703177Y-57559124D01*
X36703623Y-57047919D01*
X36508405Y-56575457D01*
X36243000Y-56309588D01*
X36243000Y-53968494D01*
X38446426Y-53968494D01*
X38694738Y-54569455D01*
X39154127Y-55029646D01*
X39754653Y-55279006D01*
X40404894Y-55279574D01*
X41005855Y-55031262D01*
X41466046Y-54571873D01*
X41715406Y-53971347D01*
X41715974Y-53321106D01*
X41467662Y-52720145D01*
X41008273Y-52259954D01*
X40407747Y-52010594D01*
X39757506Y-52010026D01*
X39156545Y-52258338D01*
X38696354Y-52717727D01*
X38446994Y-53318253D01*
X38446426Y-53968494D01*
X36243000Y-53968494D01*
X36243000Y-52324000D01*
X36186653Y-52040724D01*
X36529971Y-51898868D01*
X36962151Y-51467443D01*
X37196333Y-50903470D01*
X37196865Y-50292809D01*
X36963668Y-49728429D01*
X36795720Y-49560187D01*
X36796917Y-49559962D01*
X37013041Y-49420890D01*
X37158031Y-49208690D01*
X37209040Y-48956800D01*
X37209040Y-47156800D01*
X37164762Y-46921483D01*
X37025690Y-46705359D01*
X36813490Y-46560369D01*
X36561600Y-46509360D01*
X36497000Y-46509360D01*
X36497000Y-40259000D01*
X36435342Y-39949026D01*
X36259756Y-39686244D01*
X35996974Y-39510658D01*
X35953440Y-39501999D01*
X35953440Y-38201600D01*
X35909162Y-37966283D01*
X35770090Y-37750159D01*
X35557890Y-37605169D01*
X35306000Y-37554160D01*
X33274000Y-37554160D01*
X33038683Y-37598438D01*
X32822559Y-37737510D01*
X32677569Y-37949710D01*
X32626560Y-38201600D01*
X32626560Y-40233600D01*
X32670838Y-40468917D01*
X32809910Y-40685041D01*
X32966206Y-40791833D01*
X32764675Y-41093445D01*
X32639000Y-41725255D01*
X32639000Y-41789945D01*
X32764675Y-42421755D01*
X33122567Y-42957378D01*
X33658190Y-43315270D01*
X34290000Y-43440945D01*
X34877000Y-43324183D01*
X34877000Y-46509360D01*
X34761600Y-46509360D01*
X34526283Y-46553638D01*
X34310159Y-46692710D01*
X34165169Y-46904910D01*
X34114160Y-47156800D01*
X34114160Y-48433328D01*
X33717244Y-48830244D01*
X33541658Y-49093026D01*
X33480000Y-49403000D01*
X33480000Y-50927000D01*
X33541658Y-51236974D01*
X33614581Y-51346110D01*
X33668658Y-51617974D01*
X33748189Y-51737000D01*
X33844244Y-51880756D01*
X34623000Y-52659513D01*
X34623000Y-56280732D01*
X34329665Y-56573555D01*
X34215840Y-56847676D01*
X34215840Y-56652400D01*
X34171562Y-56417083D01*
X34032490Y-56200959D01*
X33820290Y-56055969D01*
X33568400Y-56004960D01*
X32268400Y-56004960D01*
X32033083Y-56049238D01*
X31816959Y-56188310D01*
X31671969Y-56400510D01*
X31620960Y-56652400D01*
X26871692Y-56652400D01*
X23773200Y-53553908D01*
X23773200Y-32552092D01*
X24576492Y-31748800D01*
X34290000Y-31748800D01*
X34561705Y-31694754D01*
X34792046Y-31540846D01*
X37789246Y-28543646D01*
X37943154Y-28313305D01*
X37997200Y-28041600D01*
X37997200Y-25723694D01*
X38700426Y-25723694D01*
X38948738Y-26324655D01*
X39408127Y-26784846D01*
X39576000Y-26854553D01*
X39576000Y-30752373D01*
X39410545Y-30820738D01*
X38950354Y-31280127D01*
X38700994Y-31880653D01*
X38700426Y-32530894D01*
X38948738Y-33131855D01*
X39408127Y-33592046D01*
X40008653Y-33841406D01*
X40658894Y-33841974D01*
X40776053Y-33793565D01*
X44021000Y-37038513D01*
X44021000Y-37267024D01*
X43825854Y-37397417D01*
X43525500Y-37846928D01*
X43420030Y-38377163D01*
X43420030Y-39143637D01*
X43525500Y-39673872D01*
X43825854Y-40123383D01*
X44275365Y-40423737D01*
X44805600Y-40529207D01*
X45335835Y-40423737D01*
X45785346Y-40123383D01*
X46075600Y-39688988D01*
X46365854Y-40123383D01*
X46815365Y-40423737D01*
X47345600Y-40529207D01*
X47875835Y-40423737D01*
X48325346Y-40123383D01*
X48615600Y-39688988D01*
X48905854Y-40123383D01*
X49355365Y-40423737D01*
X49885600Y-40529207D01*
X50404228Y-40426046D01*
X50432658Y-40568974D01*
X50471388Y-40626937D01*
X50608244Y-40831756D01*
X51641000Y-41864513D01*
X51641000Y-44887024D01*
X51445854Y-45017417D01*
X51155600Y-45451812D01*
X50865346Y-45017417D01*
X50415835Y-44717063D01*
X49885600Y-44611593D01*
X49355365Y-44717063D01*
X48905854Y-45017417D01*
X48615600Y-45451812D01*
X48325346Y-45017417D01*
X47875835Y-44717063D01*
X47345600Y-44611593D01*
X46815365Y-44717063D01*
X46365854Y-45017417D01*
X46075600Y-45451812D01*
X45785346Y-45017417D01*
X45335835Y-44717063D01*
X44805600Y-44611593D01*
X44275365Y-44717063D01*
X43825854Y-45017417D01*
X43525500Y-45466928D01*
X43420030Y-45997163D01*
X43420030Y-46763637D01*
X43525500Y-47293872D01*
X43825854Y-47743383D01*
X44275365Y-48043737D01*
X44805600Y-48149207D01*
X45335835Y-48043737D01*
X45785346Y-47743383D01*
X46075600Y-47308988D01*
X46365854Y-47743383D01*
X46815365Y-48043737D01*
X47345600Y-48149207D01*
X47875835Y-48043737D01*
X48325346Y-47743383D01*
X48615600Y-47308988D01*
X48905854Y-47743383D01*
X49101000Y-47873776D01*
X49101000Y-48133000D01*
X49162658Y-48442974D01*
X49262903Y-48593000D01*
X49338244Y-48705756D01*
X53764378Y-53131891D01*
X53686994Y-53318253D01*
X53686426Y-53968494D01*
X53934738Y-54569455D01*
X54394127Y-55029646D01*
X54994653Y-55279006D01*
X55644894Y-55279574D01*
X56245855Y-55031262D01*
X56706046Y-54571873D01*
X56955406Y-53971347D01*
X56955974Y-53321106D01*
X56707662Y-52720145D01*
X56248273Y-52259954D01*
X55647747Y-52010594D01*
X54997506Y-52010026D01*
X54952242Y-52028729D01*
X50746383Y-47822871D01*
X50865346Y-47743383D01*
X51155600Y-47308988D01*
X51445854Y-47743383D01*
X51895365Y-48043737D01*
X52425600Y-48149207D01*
X52955835Y-48043737D01*
X53405346Y-47743383D01*
X53705700Y-47293872D01*
X53811170Y-46763637D01*
X53811170Y-45997163D01*
X53705700Y-45466928D01*
X53405346Y-45017417D01*
X53261000Y-44920968D01*
X53261000Y-41529000D01*
X53199342Y-41219026D01*
X53110293Y-41085756D01*
X53023756Y-40956243D01*
X52568329Y-40500816D01*
X52955835Y-40423737D01*
X53405346Y-40123383D01*
X53616474Y-39807408D01*
X53657099Y-39757217D01*
X53662735Y-39738173D01*
X53705700Y-39673872D01*
X53754751Y-39427276D01*
X53811170Y-39236650D01*
X53811170Y-38284150D01*
X53754751Y-38093524D01*
X53705700Y-37846928D01*
X53662735Y-37782627D01*
X53657099Y-37763583D01*
X53616474Y-37713392D01*
X53405346Y-37397417D01*
X52955835Y-37097063D01*
X52425600Y-36991593D01*
X51941657Y-37087855D01*
X55205871Y-33823642D01*
X55248653Y-33841406D01*
X55898894Y-33841974D01*
X56499855Y-33593662D01*
X56960046Y-33134273D01*
X57209406Y-32533747D01*
X57209974Y-31883506D01*
X56961662Y-31282545D01*
X56502273Y-30822354D01*
X55901747Y-30572994D01*
X55251506Y-30572426D01*
X54650545Y-30820738D01*
X54190354Y-31280127D01*
X53940994Y-31880653D01*
X53940426Y-32530894D01*
X54018541Y-32719946D01*
X49712454Y-37026034D01*
X49355365Y-37097063D01*
X48905854Y-37397417D01*
X48615600Y-37831812D01*
X48325346Y-37397417D01*
X47875835Y-37097063D01*
X47345600Y-36991593D01*
X46815365Y-37097063D01*
X46365854Y-37397417D01*
X46075600Y-37831812D01*
X45785346Y-37397417D01*
X45641000Y-37300968D01*
X45641000Y-36703000D01*
X45579342Y-36393026D01*
X45488615Y-36257244D01*
X45403756Y-36130243D01*
X41921831Y-32648319D01*
X41969406Y-32533747D01*
X41969974Y-31883506D01*
X41721662Y-31282545D01*
X41262273Y-30822354D01*
X41196000Y-30794835D01*
X41196000Y-26812846D01*
X41259855Y-26786462D01*
X41720046Y-26327073D01*
X41969406Y-25726547D01*
X41969922Y-25135582D01*
X53929799Y-25135582D01*
X53940683Y-25429528D01*
X53940426Y-25723694D01*
X53952672Y-25753333D01*
X53953859Y-25785377D01*
X54156235Y-26273958D01*
X54169873Y-26278998D01*
X54188738Y-26324655D01*
X54648127Y-26784846D01*
X54695976Y-26804714D01*
X54701242Y-26818965D01*
X54976989Y-26921401D01*
X55248653Y-27034206D01*
X55280722Y-27034234D01*
X55310782Y-27045401D01*
X55604728Y-27034517D01*
X55898894Y-27034774D01*
X55928533Y-27022528D01*
X55960577Y-27021341D01*
X56449158Y-26818965D01*
X56454198Y-26805327D01*
X56499855Y-26786462D01*
X56960046Y-26327073D01*
X56979914Y-26279224D01*
X56994165Y-26273958D01*
X57096601Y-25998211D01*
X57209406Y-25726547D01*
X57209434Y-25694478D01*
X57220601Y-25664418D01*
X57209717Y-25370472D01*
X57209974Y-25076306D01*
X57197728Y-25046667D01*
X57196541Y-25014623D01*
X56994165Y-24526042D01*
X56980527Y-24521002D01*
X56961662Y-24475345D01*
X56502273Y-24015154D01*
X56454424Y-23995286D01*
X56449158Y-23981035D01*
X56173411Y-23878599D01*
X55901747Y-23765794D01*
X55869678Y-23765766D01*
X55839618Y-23754599D01*
X55545672Y-23765483D01*
X55251506Y-23765226D01*
X55221867Y-23777472D01*
X55189823Y-23778659D01*
X54701242Y-23981035D01*
X54696202Y-23994673D01*
X54650545Y-24013538D01*
X54190354Y-24472927D01*
X54170486Y-24520776D01*
X54156235Y-24526042D01*
X54053799Y-24801789D01*
X53940994Y-25073453D01*
X53940966Y-25105522D01*
X53929799Y-25135582D01*
X41969922Y-25135582D01*
X41969974Y-25076306D01*
X41721662Y-24475345D01*
X41262273Y-24015154D01*
X40661747Y-23765794D01*
X40011506Y-23765226D01*
X39410545Y-24013538D01*
X38950354Y-24472927D01*
X38700994Y-25073453D01*
X38700426Y-25723694D01*
X37997200Y-25723694D01*
X37997200Y-20207692D01*
X38851292Y-19353600D01*
X78293508Y-19353600D01*
X79295622Y-20355714D01*
X79295622Y-20355714D01*
G37*
X79295622Y-20355714D02*
X79066547Y-20260594D01*
X78416306Y-20260026D01*
X77815345Y-20508338D01*
X77355154Y-20967727D01*
X77105794Y-21568253D01*
X77105226Y-22218494D01*
X77138782Y-22299705D01*
X65975244Y-33463244D01*
X65799658Y-33726026D01*
X65738000Y-34036000D01*
X65738000Y-37184806D01*
X65589955Y-37283727D01*
X65299701Y-37718122D01*
X65009447Y-37283727D01*
X64818000Y-37155806D01*
X64818000Y-30633765D01*
X64883342Y-30535974D01*
X64945000Y-30226000D01*
X64945000Y-22677006D01*
X65134206Y-22221347D01*
X65134774Y-21571106D01*
X64886462Y-20970145D01*
X64427073Y-20509954D01*
X63826547Y-20260594D01*
X63176306Y-20260026D01*
X62575345Y-20508338D01*
X62115154Y-20967727D01*
X61865794Y-21568253D01*
X61865226Y-22218494D01*
X62113538Y-22819455D01*
X62572927Y-23279646D01*
X63173453Y-23529006D01*
X63325000Y-23529138D01*
X63325000Y-28263837D01*
X63013747Y-28134594D01*
X62363506Y-28134026D01*
X61762545Y-28382338D01*
X61302354Y-28841727D01*
X61052994Y-29442253D01*
X61052426Y-30092494D01*
X61300738Y-30693455D01*
X61760127Y-31153646D01*
X62360653Y-31403006D01*
X63010894Y-31403574D01*
X63198000Y-31326263D01*
X63198000Y-37184806D01*
X63049955Y-37283727D01*
X62759701Y-37718122D01*
X62469447Y-37283727D01*
X62019936Y-36983373D01*
X61489701Y-36877903D01*
X60959466Y-36983373D01*
X60509955Y-37283727D01*
X60209601Y-37733238D01*
X60104131Y-38263473D01*
X60104131Y-39029947D01*
X60209601Y-39560182D01*
X60509955Y-40009693D01*
X60959466Y-40310047D01*
X61489701Y-40415517D01*
X62019936Y-40310047D01*
X62022692Y-40308205D01*
X62106775Y-40392288D01*
X62116658Y-40441974D01*
X62292244Y-40704756D01*
X62555026Y-40880342D01*
X62865000Y-40942000D01*
X62910488Y-40942000D01*
X66483531Y-44515043D01*
X66039466Y-44603373D01*
X65589955Y-44903727D01*
X65299701Y-45338122D01*
X65009447Y-44903727D01*
X64559936Y-44603373D01*
X64029701Y-44497903D01*
X63499466Y-44603373D01*
X63049955Y-44903727D01*
X62759701Y-45338122D01*
X62469447Y-44903727D01*
X62019936Y-44603373D01*
X61489701Y-44497903D01*
X60959466Y-44603373D01*
X60509955Y-44903727D01*
X60209601Y-45353238D01*
X60104131Y-45883473D01*
X60104131Y-46649947D01*
X60209601Y-47180182D01*
X60509955Y-47629693D01*
X60959466Y-47930047D01*
X61489701Y-48035517D01*
X62019936Y-47930047D01*
X62469447Y-47629693D01*
X62759701Y-47195298D01*
X63049955Y-47629693D01*
X63499466Y-47930047D01*
X64029701Y-48035517D01*
X64559936Y-47930047D01*
X65009447Y-47629693D01*
X65299701Y-47195298D01*
X65589955Y-47629693D01*
X65738000Y-47728614D01*
X65738000Y-52174266D01*
X65662683Y-52188438D01*
X65446559Y-52327510D01*
X65301569Y-52539710D01*
X65250560Y-52791600D01*
X65250560Y-52987060D01*
X65138005Y-52714657D01*
X64776845Y-52352865D01*
X64304724Y-52156823D01*
X63793519Y-52156377D01*
X63321057Y-52351595D01*
X62959265Y-52712755D01*
X62763223Y-53184876D01*
X62762777Y-53696081D01*
X62957995Y-54168543D01*
X63198000Y-54408968D01*
X63198000Y-56052487D01*
X57047224Y-62203264D01*
X56968547Y-62170594D01*
X56318306Y-62170026D01*
X55717345Y-62418338D01*
X55257154Y-62877727D01*
X55007794Y-63478253D01*
X55007226Y-64128494D01*
X55255538Y-64729455D01*
X55714927Y-65189646D01*
X56315453Y-65439006D01*
X56965694Y-65439574D01*
X57566655Y-65191262D01*
X58026846Y-64731873D01*
X58276206Y-64131347D01*
X58276208Y-64128494D01*
X70247226Y-64128494D01*
X70495538Y-64729455D01*
X70954927Y-65189646D01*
X71555453Y-65439006D01*
X72205694Y-65439574D01*
X72806655Y-65191262D01*
X73266846Y-64731873D01*
X73516206Y-64131347D01*
X73516774Y-63481106D01*
X73268462Y-62880145D01*
X72809073Y-62419954D01*
X72692000Y-62371341D01*
X72692000Y-56983875D01*
X74363600Y-56983875D01*
X74363600Y-58827325D01*
X74478542Y-59405177D01*
X74805869Y-59895056D01*
X75295748Y-60222383D01*
X75873600Y-60337325D01*
X76451452Y-60222383D01*
X76941331Y-59895056D01*
X77123600Y-59622271D01*
X77305869Y-59895056D01*
X77549000Y-60057511D01*
X77549000Y-60325000D01*
X77610658Y-60634974D01*
X77766799Y-60868655D01*
X77786244Y-60897756D01*
X78488610Y-61600122D01*
X78476160Y-61661600D01*
X78476160Y-64161600D01*
X78520438Y-64396917D01*
X78659510Y-64613041D01*
X78871710Y-64758031D01*
X79123600Y-64809040D01*
X82623600Y-64809040D01*
X82858917Y-64764762D01*
X83075041Y-64625690D01*
X83220031Y-64413490D01*
X83271040Y-64161600D01*
X83271040Y-61661600D01*
X83226762Y-61426283D01*
X83087690Y-61210159D01*
X82875490Y-61065169D01*
X82623600Y-61014160D01*
X80193672Y-61014160D01*
X79221473Y-60041961D01*
X79441331Y-59895056D01*
X79768658Y-59405177D01*
X79883600Y-58827325D01*
X79883600Y-56983875D01*
X79768658Y-56406023D01*
X79441331Y-55916144D01*
X78951452Y-55588817D01*
X78373600Y-55473875D01*
X77795748Y-55588817D01*
X77305869Y-55916144D01*
X77123600Y-56188929D01*
X76941331Y-55916144D01*
X76451452Y-55588817D01*
X75873600Y-55473875D01*
X75295748Y-55588817D01*
X74805869Y-55916144D01*
X74478542Y-56406023D01*
X74363600Y-56983875D01*
X72692000Y-56983875D01*
X72692000Y-49230512D01*
X80836756Y-41085757D01*
X80973543Y-40881040D01*
X81012342Y-40822974D01*
X81051715Y-40625033D01*
X81054565Y-40626937D01*
X81584800Y-40732407D01*
X82115035Y-40626937D01*
X82121000Y-40622951D01*
X82121000Y-44924249D01*
X82115035Y-44920263D01*
X81584800Y-44814793D01*
X81054565Y-44920263D01*
X80605054Y-45220617D01*
X80393926Y-45536592D01*
X80353301Y-45586783D01*
X80347665Y-45605827D01*
X80314800Y-45655012D01*
X80281935Y-45605827D01*
X80276299Y-45586783D01*
X80235674Y-45536592D01*
X80024546Y-45220617D01*
X79575035Y-44920263D01*
X79044800Y-44814793D01*
X78514565Y-44920263D01*
X78065054Y-45220617D01*
X77853926Y-45536592D01*
X77813301Y-45586783D01*
X77807665Y-45605827D01*
X77764700Y-45670128D01*
X77715649Y-45916724D01*
X77659230Y-46107350D01*
X77659230Y-47059850D01*
X77715649Y-47250476D01*
X77764700Y-47497072D01*
X77807665Y-47561373D01*
X77813301Y-47580417D01*
X77853926Y-47630608D01*
X78065054Y-47946583D01*
X78514565Y-48246937D01*
X79044800Y-48352407D01*
X79575035Y-48246937D01*
X80024546Y-47946583D01*
X80235674Y-47630608D01*
X80276299Y-47580417D01*
X80281935Y-47561373D01*
X80314800Y-47512188D01*
X80347665Y-47561373D01*
X80353301Y-47580417D01*
X80393926Y-47630608D01*
X80605054Y-47946583D01*
X81054565Y-48246937D01*
X81584800Y-48352407D01*
X82115035Y-48246937D01*
X82140305Y-48230052D01*
X82182658Y-48442974D01*
X82282903Y-48593000D01*
X82358244Y-48705756D01*
X82502000Y-48849512D01*
X82502000Y-55785093D01*
X82305869Y-55916144D01*
X81978542Y-56406023D01*
X81863600Y-56983875D01*
X81863600Y-58827325D01*
X81978542Y-59405177D01*
X82305869Y-59895056D01*
X82795748Y-60222383D01*
X83373600Y-60337325D01*
X83951452Y-60222383D01*
X84441331Y-59895056D01*
X84623600Y-59622271D01*
X84805869Y-59895056D01*
X85295748Y-60222383D01*
X85873600Y-60337325D01*
X86451452Y-60222383D01*
X86708613Y-60050553D01*
X95861833Y-60050553D01*
X95865940Y-60563025D01*
X95865493Y-61075484D01*
X95870138Y-61086725D01*
X95870235Y-61098887D01*
X96255251Y-62028397D01*
X96260528Y-62031539D01*
X96265841Y-62044399D01*
X97006502Y-62786354D01*
X97022501Y-62792997D01*
X97026403Y-62799549D01*
X97501436Y-62991869D01*
X97974717Y-63188392D01*
X97986879Y-63188403D01*
X97998153Y-63192967D01*
X98510625Y-63188860D01*
X99023084Y-63189307D01*
X99034325Y-63184662D01*
X99046487Y-63184565D01*
X99975997Y-62799549D01*
X99979139Y-62794272D01*
X99991999Y-62788959D01*
X100733954Y-62048298D01*
X100740597Y-62032299D01*
X100747149Y-62028397D01*
X100939469Y-61553364D01*
X101135992Y-61080083D01*
X101136003Y-61067921D01*
X101140567Y-61056647D01*
X101136460Y-60544175D01*
X101136907Y-60031716D01*
X101132262Y-60020475D01*
X101132165Y-60008313D01*
X100747149Y-59078803D01*
X100741872Y-59075661D01*
X100736559Y-59062801D01*
X99995898Y-58320846D01*
X99979899Y-58314203D01*
X99975997Y-58307651D01*
X99500964Y-58115331D01*
X99027683Y-57918808D01*
X99015521Y-57918797D01*
X99004247Y-57914233D01*
X98491775Y-57918340D01*
X97979316Y-57917893D01*
X97968075Y-57922538D01*
X97955913Y-57922635D01*
X97026403Y-58307651D01*
X97023261Y-58312928D01*
X97010401Y-58318241D01*
X96268446Y-59058902D01*
X96261803Y-59074901D01*
X96255251Y-59078803D01*
X96062931Y-59553836D01*
X95866408Y-60027117D01*
X95866397Y-60039279D01*
X95861833Y-60050553D01*
X86708613Y-60050553D01*
X86941331Y-59895056D01*
X87268658Y-59405177D01*
X87383600Y-58827325D01*
X87383600Y-56983875D01*
X87268658Y-56406023D01*
X86941331Y-55916144D01*
X86881303Y-55876034D01*
X94367066Y-55876034D01*
X94615378Y-56476995D01*
X95074767Y-56937186D01*
X95675293Y-57186546D01*
X96325534Y-57187114D01*
X96926495Y-56938802D01*
X97386686Y-56479413D01*
X97636046Y-55878887D01*
X97636048Y-55876034D01*
X99365786Y-55876034D01*
X99614098Y-56476995D01*
X100073487Y-56937186D01*
X100674013Y-57186546D01*
X101324254Y-57187114D01*
X101925215Y-56938802D01*
X102385406Y-56479413D01*
X102634766Y-55878887D01*
X102635334Y-55228646D01*
X102387022Y-54627685D01*
X101927633Y-54167494D01*
X101902000Y-54156850D01*
X101902000Y-47082046D01*
X101965855Y-47055662D01*
X102426046Y-46596273D01*
X102675406Y-45995747D01*
X102675974Y-45345506D01*
X102427662Y-44744545D01*
X101968273Y-44284354D01*
X101367747Y-44034994D01*
X100717506Y-44034426D01*
X100116545Y-44282738D01*
X99656354Y-44742127D01*
X99406994Y-45342653D01*
X99406426Y-45992894D01*
X99654738Y-46593855D01*
X100114127Y-47054046D01*
X100282000Y-47123753D01*
X100282000Y-54080721D01*
X100075905Y-54165878D01*
X99615714Y-54625267D01*
X99366354Y-55225793D01*
X99365786Y-55876034D01*
X97636048Y-55876034D01*
X97636614Y-55228646D01*
X97388302Y-54627685D01*
X96928913Y-54167494D01*
X96328387Y-53918134D01*
X95678146Y-53917566D01*
X95077185Y-54165878D01*
X94616994Y-54625267D01*
X94367634Y-55225793D01*
X94367066Y-55876034D01*
X86881303Y-55876034D01*
X86451452Y-55588817D01*
X85873600Y-55473875D01*
X85295748Y-55588817D01*
X84805869Y-55916144D01*
X84623600Y-56188929D01*
X84441331Y-55916144D01*
X84122000Y-55702774D01*
X84122000Y-48514000D01*
X84088417Y-48345170D01*
X84124800Y-48352407D01*
X84655035Y-48246937D01*
X85104546Y-47946583D01*
X85315674Y-47630608D01*
X85356299Y-47580417D01*
X85361935Y-47561373D01*
X85394800Y-47512188D01*
X85685054Y-47946583D01*
X86134565Y-48246937D01*
X86664800Y-48352407D01*
X87195035Y-48246937D01*
X87644546Y-47946583D01*
X87944900Y-47497072D01*
X88050370Y-46966837D01*
X88050370Y-46200363D01*
X87944900Y-45670128D01*
X87644546Y-45220617D01*
X87195035Y-44920263D01*
X86664800Y-44814793D01*
X86134565Y-44920263D01*
X85685054Y-45220617D01*
X85394800Y-45655012D01*
X85361935Y-45605827D01*
X85356299Y-45586783D01*
X85315674Y-45536592D01*
X85104546Y-45220617D01*
X84655035Y-44920263D01*
X84124800Y-44814793D01*
X83741000Y-44891135D01*
X83741000Y-40656065D01*
X84124800Y-40732407D01*
X84655035Y-40626937D01*
X85104546Y-40326583D01*
X85394800Y-39892188D01*
X85685054Y-40326583D01*
X86134565Y-40626937D01*
X86664800Y-40732407D01*
X86803338Y-40704850D01*
X91768160Y-45669673D01*
X91768160Y-46471600D01*
X91812438Y-46706917D01*
X91951510Y-46923041D01*
X92163710Y-47068031D01*
X92415600Y-47119040D01*
X93715600Y-47119040D01*
X93950917Y-47074762D01*
X94167041Y-46935690D01*
X94312031Y-46723490D01*
X94363040Y-46471600D01*
X94363040Y-46276140D01*
X94475595Y-46548543D01*
X94836755Y-46910335D01*
X95308876Y-47106377D01*
X95820081Y-47106823D01*
X96292543Y-46911605D01*
X96654335Y-46550445D01*
X96850377Y-46078324D01*
X96850823Y-45567119D01*
X96655605Y-45094657D01*
X96294445Y-44732865D01*
X95822324Y-44536823D01*
X95311119Y-44536377D01*
X94838657Y-44731595D01*
X94476865Y-45092755D01*
X94363040Y-45366876D01*
X94363040Y-45171600D01*
X94318762Y-44936283D01*
X94179690Y-44720159D01*
X93967490Y-44575169D01*
X93715600Y-44524160D01*
X92913673Y-44524160D01*
X87998271Y-39608759D01*
X88050370Y-39346837D01*
X88050370Y-38580363D01*
X87944900Y-38050128D01*
X87644546Y-37600617D01*
X87195035Y-37300263D01*
X86664800Y-37194793D01*
X86134565Y-37300263D01*
X85685054Y-37600617D01*
X85394800Y-38035012D01*
X85104546Y-37600617D01*
X84655035Y-37300263D01*
X84124800Y-37194793D01*
X83594565Y-37300263D01*
X83582796Y-37308127D01*
X83552343Y-37155027D01*
X83376757Y-36892244D01*
X82979000Y-36494488D01*
X82979000Y-35785646D01*
X83394178Y-35508233D01*
X83752070Y-34972610D01*
X83877745Y-34340800D01*
X83752070Y-33708990D01*
X83394178Y-33173367D01*
X82858555Y-32815475D01*
X82226745Y-32689800D01*
X82162055Y-32689800D01*
X81530245Y-32815475D01*
X81227438Y-33017804D01*
X81134490Y-32873359D01*
X80922290Y-32728369D01*
X80670400Y-32677360D01*
X78638400Y-32677360D01*
X78403083Y-32721638D01*
X78186959Y-32860710D01*
X78041969Y-33072910D01*
X77990960Y-33324800D01*
X77990960Y-35356800D01*
X78035238Y-35592117D01*
X78174310Y-35808241D01*
X78386510Y-35953231D01*
X78638400Y-36004240D01*
X80670400Y-36004240D01*
X80905717Y-35959962D01*
X81121841Y-35820890D01*
X81228633Y-35664594D01*
X81359000Y-35751703D01*
X81359000Y-36830000D01*
X81420658Y-37139974D01*
X81472246Y-37217181D01*
X81054565Y-37300263D01*
X80605054Y-37600617D01*
X80314800Y-38035012D01*
X80024546Y-37600617D01*
X79575035Y-37300263D01*
X79044800Y-37194793D01*
X78514565Y-37300263D01*
X78065054Y-37600617D01*
X77764700Y-38050128D01*
X77659230Y-38580363D01*
X77659230Y-39346837D01*
X77764700Y-39877072D01*
X78065054Y-40326583D01*
X78514565Y-40626937D01*
X78923257Y-40708231D01*
X71309244Y-48322244D01*
X71133658Y-48585026D01*
X71072000Y-48895000D01*
X71072000Y-62370964D01*
X70957345Y-62418338D01*
X70497154Y-62877727D01*
X70247794Y-63478253D01*
X70247226Y-64128494D01*
X58276208Y-64128494D01*
X58276774Y-63481106D01*
X58213512Y-63328000D01*
X64580756Y-56960757D01*
X64668549Y-56829365D01*
X64756342Y-56697974D01*
X64818000Y-56388000D01*
X64818000Y-54488623D01*
X65136735Y-54170445D01*
X65250560Y-53896324D01*
X65250560Y-54091600D01*
X65294838Y-54326917D01*
X65433910Y-54543041D01*
X65646110Y-54688031D01*
X65898000Y-54739040D01*
X67198000Y-54739040D01*
X67433317Y-54694762D01*
X67649441Y-54555690D01*
X67794431Y-54343490D01*
X67845440Y-54091600D01*
X67845440Y-52791600D01*
X67801162Y-52556283D01*
X67662090Y-52340159D01*
X67449890Y-52195169D01*
X67358000Y-52176561D01*
X67358000Y-47757614D01*
X67549447Y-47629693D01*
X67839701Y-47195298D01*
X68129955Y-47629693D01*
X68579466Y-47930047D01*
X69109701Y-48035517D01*
X69639936Y-47930047D01*
X70089447Y-47629693D01*
X70389801Y-47180182D01*
X70495271Y-46649947D01*
X70495271Y-45883473D01*
X70389801Y-45353238D01*
X70089447Y-44903727D01*
X69639936Y-44603373D01*
X69109701Y-44497903D01*
X68815864Y-44556351D01*
X64565705Y-40306193D01*
X65009447Y-40009693D01*
X65299701Y-39575298D01*
X65589955Y-40009693D01*
X66039466Y-40310047D01*
X66569701Y-40415517D01*
X67099936Y-40310047D01*
X67549447Y-40009693D01*
X67839701Y-39575298D01*
X67872566Y-39624483D01*
X67878202Y-39643527D01*
X67918827Y-39693718D01*
X68129955Y-40009693D01*
X68579466Y-40310047D01*
X69109701Y-40415517D01*
X69639936Y-40310047D01*
X70089447Y-40009693D01*
X70300575Y-39693718D01*
X70341200Y-39643527D01*
X70346836Y-39624483D01*
X70389801Y-39560182D01*
X70438852Y-39313586D01*
X70495271Y-39122960D01*
X70495271Y-38170460D01*
X70438852Y-37979834D01*
X70389801Y-37733238D01*
X70346836Y-37668937D01*
X70341200Y-37649893D01*
X70300575Y-37599702D01*
X70089447Y-37283727D01*
X69639936Y-36983373D01*
X69109701Y-36877903D01*
X68579466Y-36983373D01*
X68129955Y-37283727D01*
X67918827Y-37599702D01*
X67878202Y-37649893D01*
X67872566Y-37668937D01*
X67839701Y-37718122D01*
X67549447Y-37283727D01*
X67358000Y-37155806D01*
X67358000Y-34371512D01*
X71637018Y-30092494D01*
X76292426Y-30092494D01*
X76540738Y-30693455D01*
X77000127Y-31153646D01*
X77600653Y-31403006D01*
X78250894Y-31403574D01*
X78851855Y-31155262D01*
X79312046Y-30695873D01*
X79561406Y-30095347D01*
X79561974Y-29445106D01*
X79365830Y-28970400D01*
X85980960Y-28970400D01*
X85980960Y-30770400D01*
X86025238Y-31005717D01*
X86164310Y-31221841D01*
X86376510Y-31366831D01*
X86628400Y-31417840D01*
X88428400Y-31417840D01*
X88663717Y-31373562D01*
X88879841Y-31234490D01*
X89024831Y-31022290D01*
X89028967Y-31001866D01*
X89197757Y-31170951D01*
X89761730Y-31405133D01*
X90372391Y-31405665D01*
X90936771Y-31172468D01*
X91357079Y-30752894D01*
X99406426Y-30752894D01*
X99654738Y-31353855D01*
X100114127Y-31814046D01*
X100714653Y-32063406D01*
X101364894Y-32063974D01*
X101965855Y-31815662D01*
X102426046Y-31356273D01*
X102675406Y-30755747D01*
X102675974Y-30105506D01*
X102427662Y-29504545D01*
X101968273Y-29044354D01*
X101367747Y-28794994D01*
X100717506Y-28794426D01*
X100116545Y-29042738D01*
X99656354Y-29502127D01*
X99406994Y-30102653D01*
X99406426Y-30752894D01*
X91357079Y-30752894D01*
X91368951Y-30741043D01*
X91603133Y-30177070D01*
X91603665Y-29566409D01*
X91370468Y-29002029D01*
X90939043Y-28569849D01*
X90375070Y-28335667D01*
X89764409Y-28335135D01*
X89200029Y-28568332D01*
X89031787Y-28736280D01*
X89031562Y-28735083D01*
X88892490Y-28518959D01*
X88680290Y-28373969D01*
X88428400Y-28322960D01*
X86628400Y-28322960D01*
X86393083Y-28367238D01*
X86176959Y-28506310D01*
X86031969Y-28718510D01*
X85980960Y-28970400D01*
X79365830Y-28970400D01*
X79313662Y-28844145D01*
X78854273Y-28383954D01*
X78253747Y-28134594D01*
X77603506Y-28134026D01*
X77002545Y-28382338D01*
X76542354Y-28841727D01*
X76292994Y-29442253D01*
X76292426Y-30092494D01*
X71637018Y-30092494D01*
X78262986Y-23466527D01*
X78413453Y-23529006D01*
X79063694Y-23529574D01*
X79664655Y-23281262D01*
X80124846Y-22821873D01*
X80374206Y-22221347D01*
X80374774Y-21571106D01*
X80278843Y-21338935D01*
X83724354Y-24784446D01*
X83954695Y-24938354D01*
X84226400Y-24992400D01*
X98511908Y-24992400D01*
X103277600Y-29758092D01*
X103277600Y-66660308D01*
X100239108Y-69698800D01*
X39918092Y-69698800D01*
X36097846Y-65878554D01*
X96866426Y-65878554D01*
X97114738Y-66479515D01*
X97574127Y-66939706D01*
X98174653Y-67189066D01*
X98824894Y-67189634D01*
X99425855Y-66941322D01*
X99886046Y-66481933D01*
X100135406Y-65881407D01*
X100135974Y-65231166D01*
X99887662Y-64630205D01*
X99428273Y-64170014D01*
X98827747Y-63920654D01*
X98177506Y-63920086D01*
X97576545Y-64168398D01*
X97116354Y-64627787D01*
X96866994Y-65228313D01*
X96866426Y-65878554D01*
X36097846Y-65878554D01*
X30486986Y-60267694D01*
X38040026Y-60267694D01*
X38288338Y-60868655D01*
X38747727Y-61328846D01*
X39348253Y-61578206D01*
X39998494Y-61578774D01*
X40599455Y-61330462D01*
X41059646Y-60871073D01*
X41309006Y-60270547D01*
X41309008Y-60267694D01*
X53280026Y-60267694D01*
X53528338Y-60868655D01*
X53987727Y-61328846D01*
X54588253Y-61578206D01*
X55238494Y-61578774D01*
X55839455Y-61330462D01*
X56299646Y-60871073D01*
X56549006Y-60270547D01*
X56549574Y-59620306D01*
X56301262Y-59019345D01*
X55841873Y-58559154D01*
X55241347Y-58309794D01*
X54591106Y-58309226D01*
X53990145Y-58557538D01*
X53529954Y-59016927D01*
X53280594Y-59617453D01*
X53280026Y-60267694D01*
X41309008Y-60267694D01*
X41309574Y-59620306D01*
X41061262Y-59019345D01*
X40601873Y-58559154D01*
X40001347Y-58309794D01*
X39351106Y-58309226D01*
X38750145Y-58557538D01*
X38289954Y-59016927D01*
X38040594Y-59617453D01*
X38040026Y-60267694D01*
X30486986Y-60267694D01*
X26871692Y-56652400D01*
X31620960Y-56652400D01*
X31620960Y-57952400D01*
X31665238Y-58187717D01*
X31804310Y-58403841D01*
X32016510Y-58548831D01*
X32268400Y-58599840D01*
X33568400Y-58599840D01*
X33803717Y-58555562D01*
X34019841Y-58416490D01*
X34164831Y-58204290D01*
X34215840Y-57952400D01*
X34215840Y-57756940D01*
X34328395Y-58029343D01*
X34689555Y-58391135D01*
X35161676Y-58587177D01*
X35672881Y-58587623D01*
X36145343Y-58392405D01*
X36507135Y-58031245D01*
X36703177Y-57559124D01*
X36703623Y-57047919D01*
X36508405Y-56575457D01*
X36243000Y-56309588D01*
X36243000Y-53968494D01*
X38446426Y-53968494D01*
X38694738Y-54569455D01*
X39154127Y-55029646D01*
X39754653Y-55279006D01*
X40404894Y-55279574D01*
X41005855Y-55031262D01*
X41466046Y-54571873D01*
X41715406Y-53971347D01*
X41715974Y-53321106D01*
X41467662Y-52720145D01*
X41008273Y-52259954D01*
X40407747Y-52010594D01*
X39757506Y-52010026D01*
X39156545Y-52258338D01*
X38696354Y-52717727D01*
X38446994Y-53318253D01*
X38446426Y-53968494D01*
X36243000Y-53968494D01*
X36243000Y-52324000D01*
X36186653Y-52040724D01*
X36529971Y-51898868D01*
X36962151Y-51467443D01*
X37196333Y-50903470D01*
X37196865Y-50292809D01*
X36963668Y-49728429D01*
X36795720Y-49560187D01*
X36796917Y-49559962D01*
X37013041Y-49420890D01*
X37158031Y-49208690D01*
X37209040Y-48956800D01*
X37209040Y-47156800D01*
X37164762Y-46921483D01*
X37025690Y-46705359D01*
X36813490Y-46560369D01*
X36561600Y-46509360D01*
X36497000Y-46509360D01*
X36497000Y-40259000D01*
X36435342Y-39949026D01*
X36259756Y-39686244D01*
X35996974Y-39510658D01*
X35953440Y-39501999D01*
X35953440Y-38201600D01*
X35909162Y-37966283D01*
X35770090Y-37750159D01*
X35557890Y-37605169D01*
X35306000Y-37554160D01*
X33274000Y-37554160D01*
X33038683Y-37598438D01*
X32822559Y-37737510D01*
X32677569Y-37949710D01*
X32626560Y-38201600D01*
X32626560Y-40233600D01*
X32670838Y-40468917D01*
X32809910Y-40685041D01*
X32966206Y-40791833D01*
X32764675Y-41093445D01*
X32639000Y-41725255D01*
X32639000Y-41789945D01*
X32764675Y-42421755D01*
X33122567Y-42957378D01*
X33658190Y-43315270D01*
X34290000Y-43440945D01*
X34877000Y-43324183D01*
X34877000Y-46509360D01*
X34761600Y-46509360D01*
X34526283Y-46553638D01*
X34310159Y-46692710D01*
X34165169Y-46904910D01*
X34114160Y-47156800D01*
X34114160Y-48433328D01*
X33717244Y-48830244D01*
X33541658Y-49093026D01*
X33480000Y-49403000D01*
X33480000Y-50927000D01*
X33541658Y-51236974D01*
X33614581Y-51346110D01*
X33668658Y-51617974D01*
X33748189Y-51737000D01*
X33844244Y-51880756D01*
X34623000Y-52659513D01*
X34623000Y-56280732D01*
X34329665Y-56573555D01*
X34215840Y-56847676D01*
X34215840Y-56652400D01*
X34171562Y-56417083D01*
X34032490Y-56200959D01*
X33820290Y-56055969D01*
X33568400Y-56004960D01*
X32268400Y-56004960D01*
X32033083Y-56049238D01*
X31816959Y-56188310D01*
X31671969Y-56400510D01*
X31620960Y-56652400D01*
X26871692Y-56652400D01*
X23773200Y-53553908D01*
X23773200Y-32552092D01*
X24576492Y-31748800D01*
X34290000Y-31748800D01*
X34561705Y-31694754D01*
X34792046Y-31540846D01*
X37789246Y-28543646D01*
X37943154Y-28313305D01*
X37997200Y-28041600D01*
X37997200Y-25723694D01*
X38700426Y-25723694D01*
X38948738Y-26324655D01*
X39408127Y-26784846D01*
X39576000Y-26854553D01*
X39576000Y-30752373D01*
X39410545Y-30820738D01*
X38950354Y-31280127D01*
X38700994Y-31880653D01*
X38700426Y-32530894D01*
X38948738Y-33131855D01*
X39408127Y-33592046D01*
X40008653Y-33841406D01*
X40658894Y-33841974D01*
X40776053Y-33793565D01*
X44021000Y-37038513D01*
X44021000Y-37267024D01*
X43825854Y-37397417D01*
X43525500Y-37846928D01*
X43420030Y-38377163D01*
X43420030Y-39143637D01*
X43525500Y-39673872D01*
X43825854Y-40123383D01*
X44275365Y-40423737D01*
X44805600Y-40529207D01*
X45335835Y-40423737D01*
X45785346Y-40123383D01*
X46075600Y-39688988D01*
X46365854Y-40123383D01*
X46815365Y-40423737D01*
X47345600Y-40529207D01*
X47875835Y-40423737D01*
X48325346Y-40123383D01*
X48615600Y-39688988D01*
X48905854Y-40123383D01*
X49355365Y-40423737D01*
X49885600Y-40529207D01*
X50404228Y-40426046D01*
X50432658Y-40568974D01*
X50471388Y-40626937D01*
X50608244Y-40831756D01*
X51641000Y-41864513D01*
X51641000Y-44887024D01*
X51445854Y-45017417D01*
X51155600Y-45451812D01*
X50865346Y-45017417D01*
X50415835Y-44717063D01*
X49885600Y-44611593D01*
X49355365Y-44717063D01*
X48905854Y-45017417D01*
X48615600Y-45451812D01*
X48325346Y-45017417D01*
X47875835Y-44717063D01*
X47345600Y-44611593D01*
X46815365Y-44717063D01*
X46365854Y-45017417D01*
X46075600Y-45451812D01*
X45785346Y-45017417D01*
X45335835Y-44717063D01*
X44805600Y-44611593D01*
X44275365Y-44717063D01*
X43825854Y-45017417D01*
X43525500Y-45466928D01*
X43420030Y-45997163D01*
X43420030Y-46763637D01*
X43525500Y-47293872D01*
X43825854Y-47743383D01*
X44275365Y-48043737D01*
X44805600Y-48149207D01*
X45335835Y-48043737D01*
X45785346Y-47743383D01*
X46075600Y-47308988D01*
X46365854Y-47743383D01*
X46815365Y-48043737D01*
X47345600Y-48149207D01*
X47875835Y-48043737D01*
X48325346Y-47743383D01*
X48615600Y-47308988D01*
X48905854Y-47743383D01*
X49101000Y-47873776D01*
X49101000Y-48133000D01*
X49162658Y-48442974D01*
X49262903Y-48593000D01*
X49338244Y-48705756D01*
X53764378Y-53131891D01*
X53686994Y-53318253D01*
X53686426Y-53968494D01*
X53934738Y-54569455D01*
X54394127Y-55029646D01*
X54994653Y-55279006D01*
X55644894Y-55279574D01*
X56245855Y-55031262D01*
X56706046Y-54571873D01*
X56955406Y-53971347D01*
X56955974Y-53321106D01*
X56707662Y-52720145D01*
X56248273Y-52259954D01*
X55647747Y-52010594D01*
X54997506Y-52010026D01*
X54952242Y-52028729D01*
X50746383Y-47822871D01*
X50865346Y-47743383D01*
X51155600Y-47308988D01*
X51445854Y-47743383D01*
X51895365Y-48043737D01*
X52425600Y-48149207D01*
X52955835Y-48043737D01*
X53405346Y-47743383D01*
X53705700Y-47293872D01*
X53811170Y-46763637D01*
X53811170Y-45997163D01*
X53705700Y-45466928D01*
X53405346Y-45017417D01*
X53261000Y-44920968D01*
X53261000Y-41529000D01*
X53199342Y-41219026D01*
X53110293Y-41085756D01*
X53023756Y-40956243D01*
X52568329Y-40500816D01*
X52955835Y-40423737D01*
X53405346Y-40123383D01*
X53616474Y-39807408D01*
X53657099Y-39757217D01*
X53662735Y-39738173D01*
X53705700Y-39673872D01*
X53754751Y-39427276D01*
X53811170Y-39236650D01*
X53811170Y-38284150D01*
X53754751Y-38093524D01*
X53705700Y-37846928D01*
X53662735Y-37782627D01*
X53657099Y-37763583D01*
X53616474Y-37713392D01*
X53405346Y-37397417D01*
X52955835Y-37097063D01*
X52425600Y-36991593D01*
X51941657Y-37087855D01*
X55205871Y-33823642D01*
X55248653Y-33841406D01*
X55898894Y-33841974D01*
X56499855Y-33593662D01*
X56960046Y-33134273D01*
X57209406Y-32533747D01*
X57209974Y-31883506D01*
X56961662Y-31282545D01*
X56502273Y-30822354D01*
X55901747Y-30572994D01*
X55251506Y-30572426D01*
X54650545Y-30820738D01*
X54190354Y-31280127D01*
X53940994Y-31880653D01*
X53940426Y-32530894D01*
X54018541Y-32719946D01*
X49712454Y-37026034D01*
X49355365Y-37097063D01*
X48905854Y-37397417D01*
X48615600Y-37831812D01*
X48325346Y-37397417D01*
X47875835Y-37097063D01*
X47345600Y-36991593D01*
X46815365Y-37097063D01*
X46365854Y-37397417D01*
X46075600Y-37831812D01*
X45785346Y-37397417D01*
X45641000Y-37300968D01*
X45641000Y-36703000D01*
X45579342Y-36393026D01*
X45488615Y-36257244D01*
X45403756Y-36130243D01*
X41921831Y-32648319D01*
X41969406Y-32533747D01*
X41969974Y-31883506D01*
X41721662Y-31282545D01*
X41262273Y-30822354D01*
X41196000Y-30794835D01*
X41196000Y-26812846D01*
X41259855Y-26786462D01*
X41720046Y-26327073D01*
X41969406Y-25726547D01*
X41969922Y-25135582D01*
X53929799Y-25135582D01*
X53940683Y-25429528D01*
X53940426Y-25723694D01*
X53952672Y-25753333D01*
X53953859Y-25785377D01*
X54156235Y-26273958D01*
X54169873Y-26278998D01*
X54188738Y-26324655D01*
X54648127Y-26784846D01*
X54695976Y-26804714D01*
X54701242Y-26818965D01*
X54976989Y-26921401D01*
X55248653Y-27034206D01*
X55280722Y-27034234D01*
X55310782Y-27045401D01*
X55604728Y-27034517D01*
X55898894Y-27034774D01*
X55928533Y-27022528D01*
X55960577Y-27021341D01*
X56449158Y-26818965D01*
X56454198Y-26805327D01*
X56499855Y-26786462D01*
X56960046Y-26327073D01*
X56979914Y-26279224D01*
X56994165Y-26273958D01*
X57096601Y-25998211D01*
X57209406Y-25726547D01*
X57209434Y-25694478D01*
X57220601Y-25664418D01*
X57209717Y-25370472D01*
X57209974Y-25076306D01*
X57197728Y-25046667D01*
X57196541Y-25014623D01*
X56994165Y-24526042D01*
X56980527Y-24521002D01*
X56961662Y-24475345D01*
X56502273Y-24015154D01*
X56454424Y-23995286D01*
X56449158Y-23981035D01*
X56173411Y-23878599D01*
X55901747Y-23765794D01*
X55869678Y-23765766D01*
X55839618Y-23754599D01*
X55545672Y-23765483D01*
X55251506Y-23765226D01*
X55221867Y-23777472D01*
X55189823Y-23778659D01*
X54701242Y-23981035D01*
X54696202Y-23994673D01*
X54650545Y-24013538D01*
X54190354Y-24472927D01*
X54170486Y-24520776D01*
X54156235Y-24526042D01*
X54053799Y-24801789D01*
X53940994Y-25073453D01*
X53940966Y-25105522D01*
X53929799Y-25135582D01*
X41969922Y-25135582D01*
X41969974Y-25076306D01*
X41721662Y-24475345D01*
X41262273Y-24015154D01*
X40661747Y-23765794D01*
X40011506Y-23765226D01*
X39410545Y-24013538D01*
X38950354Y-24472927D01*
X38700994Y-25073453D01*
X38700426Y-25723694D01*
X37997200Y-25723694D01*
X37997200Y-20207692D01*
X38851292Y-19353600D01*
X78293508Y-19353600D01*
X79295622Y-20355714D01*
M02*
