M48
;DRILL file {KiCad 4.0.7} date 06/28/18 23:49:46
;FORMAT={-:-/ absolute / metric / decimal}
FMAT,2
METRIC,TZ
T1C0.400
T2C0.800
T3C0.800
T4C0.900
T5C1.016
T6C1.200
T7C1.300
T8C4.000
%
G90
G05
M71
T1
X135.Y-105.75
X140.Y-115.5
X148.5Y-105.
X154.5Y-114.5
X157.Y-115.
X161.5Y-116.5
X162.5Y-106.5
X163.25Y-105.5
X164.5Y-119.5
X167.25Y-114.
T2
X131.Y-128.5
X133.5Y-128.5
X142.9Y-114.503
X145.4Y-114.503
X178.714Y-131.369
X178.714Y-133.869
T3
X121.031Y-99.009
X121.031Y-114.249
X124.816Y-93.98
X127.102Y-120.396
X130.048Y-102.311
X130.048Y-109.931
X132.588Y-102.311
X132.588Y-109.931
X135.128Y-102.311
X135.128Y-109.931
X137.668Y-102.311
X137.668Y-109.931
X140.056Y-93.98
X142.342Y-120.396
X145.288Y-93.878
X148.19Y-102.19
X148.19Y-109.81
X148.793Y-133.909
X149.403Y-118.415
X149.403Y-126.035
X150.73Y-102.19
X150.73Y-109.81
X151.943Y-118.415
X151.943Y-126.035
X153.27Y-102.19
X153.27Y-109.81
X154.483Y-118.415
X154.483Y-126.035
X155.81Y-102.19
X155.81Y-109.81
X157.023Y-118.415
X157.023Y-126.035
X160.528Y-93.878
X163.678Y-116.18
X163.678Y-131.42
X164.033Y-133.909
X169.926Y-97.79
X169.926Y-113.03
X169.926Y-116.84
X169.926Y-132.08
T4
X120.98Y-118.339
X120.98Y-120.879
X163.779Y-108.788
X163.779Y-111.328
T5
X124.Y-127.
X124.Y-129.54
X139.954Y-128.727
X142.494Y-128.727
T6
X181.223Y-112.805
X181.223Y-115.305
X181.223Y-120.305
X181.223Y-122.805
X186.229Y-117.805
T7
X179.784Y-100.04
X179.784Y-105.039
X189.786Y-102.54
T8
X184.785Y-102.54
T0
M30
