M48
;DRILL file {KiCad 4.0.7} date 06/25/18 20:52:54
;FORMAT={-:-/ absolute / metric / decimal}
FMAT,2
METRIC,TZ
T1C0.800
T2C0.800
T3C0.900
T4C1.016
T5C1.200
T6C1.300
T7C4.000
%
G90
G05
M71
T1
X32.918Y-57.302
X35.418Y-57.302
X64.048Y-53.442
X66.548Y-53.442
X93.066Y-45.822
X95.566Y-45.822
T2
X39.675Y-59.944
X40.081Y-53.645
X40.335Y-25.4
X40.335Y-32.207
X44.806Y-38.76
X44.806Y-46.38
X47.346Y-38.76
X47.346Y-46.38
X49.886Y-38.76
X49.886Y-46.38
X52.426Y-38.76
X52.426Y-46.38
X54.915Y-59.944
X55.321Y-53.645
X55.575Y-25.4
X55.575Y-32.207
X56.642Y-63.805
X61.49Y-38.647
X61.49Y-46.267
X62.687Y-29.769
X63.5Y-21.895
X64.03Y-38.647
X64.03Y-46.267
X66.57Y-38.647
X66.57Y-46.267
X69.11Y-38.647
X69.11Y-46.267
X71.882Y-63.805
X77.927Y-29.769
X78.74Y-21.895
X79.045Y-38.964
X79.045Y-46.584
X81.585Y-38.964
X81.585Y-46.584
X84.125Y-38.964
X84.125Y-46.584
X86.665Y-38.964
X86.665Y-46.584
X101.041Y-30.429
X101.041Y-45.669
T3
X35.662Y-48.057
X35.662Y-50.597
X87.528Y-29.87
X90.068Y-29.87
T4
X34.29Y-39.218
X34.29Y-41.758
X79.654Y-34.341
X82.194Y-34.341
T5
X75.874Y-57.906
X78.374Y-57.906
X80.874Y-62.912
X83.374Y-57.906
X85.874Y-57.906
T6
X96.002Y-55.552
X98.501Y-65.555
X101.001Y-55.552
T7
X98.501Y-60.554
T0
M30
