G04 #@! TF.FileFunction,Legend,Top*
%FSLAX46Y46*%
G04 Gerber Fmt 4.6, Leading zero omitted, Abs format (unit mm)*
G04 Created by KiCad (PCBNEW 4.0.7) date 06/28/18 23:50:01*
%MOMM*%
%LPD*%
G01*
G04 APERTURE LIST*
%ADD10C,0.100000*%
%ADD11C,0.225000*%
%ADD12C,0.150000*%
%ADD13C,0.120000*%
%ADD14C,0.010000*%
%ADD15C,0.254000*%
%ADD16C,0.381000*%
%ADD17C,0.203200*%
%ADD18C,0.304800*%
%ADD19C,0.285750*%
%ADD20C,0.287020*%
%ADD21C,0.235750*%
G04 APERTURE END LIST*
D10*
D11*
X124385714Y-92307143D02*
X124728571Y-92307143D01*
X124514286Y-92907143D02*
X124514286Y-92135714D01*
X124557143Y-92050000D01*
X124642857Y-92007143D01*
X124728571Y-92007143D01*
X125157143Y-92907143D02*
X125071429Y-92864286D01*
X125028572Y-92821429D01*
X124985715Y-92735714D01*
X124985715Y-92478571D01*
X125028572Y-92392857D01*
X125071429Y-92350000D01*
X125157143Y-92307143D01*
X125285715Y-92307143D01*
X125371429Y-92350000D01*
X125414286Y-92392857D01*
X125457143Y-92478571D01*
X125457143Y-92735714D01*
X125414286Y-92821429D01*
X125371429Y-92864286D01*
X125285715Y-92907143D01*
X125157143Y-92907143D01*
X125714286Y-92307143D02*
X126057143Y-92307143D01*
X125842858Y-92007143D02*
X125842858Y-92778571D01*
X125885715Y-92864286D01*
X125971429Y-92907143D01*
X126057143Y-92907143D01*
X126485715Y-92907143D02*
X126400001Y-92864286D01*
X126357144Y-92821429D01*
X126314287Y-92735714D01*
X126314287Y-92478571D01*
X126357144Y-92392857D01*
X126400001Y-92350000D01*
X126485715Y-92307143D01*
X126614287Y-92307143D01*
X126700001Y-92350000D01*
X126742858Y-92392857D01*
X126785715Y-92478571D01*
X126785715Y-92735714D01*
X126742858Y-92821429D01*
X126700001Y-92864286D01*
X126614287Y-92907143D01*
X126485715Y-92907143D01*
X126957144Y-92992857D02*
X127642858Y-92992857D01*
X127857144Y-92907143D02*
X127857144Y-92307143D01*
X127857144Y-92478571D02*
X127900001Y-92392857D01*
X127942858Y-92350000D01*
X128028572Y-92307143D01*
X128114287Y-92307143D01*
X128757144Y-92864286D02*
X128671430Y-92907143D01*
X128500001Y-92907143D01*
X128414287Y-92864286D01*
X128371430Y-92778571D01*
X128371430Y-92435714D01*
X128414287Y-92350000D01*
X128500001Y-92307143D01*
X128671430Y-92307143D01*
X128757144Y-92350000D01*
X128800001Y-92435714D01*
X128800001Y-92521429D01*
X128371430Y-92607143D01*
X129142859Y-92864286D02*
X129228573Y-92907143D01*
X129400001Y-92907143D01*
X129485716Y-92864286D01*
X129528573Y-92778571D01*
X129528573Y-92735714D01*
X129485716Y-92650000D01*
X129400001Y-92607143D01*
X129271430Y-92607143D01*
X129185716Y-92564286D01*
X129142859Y-92478571D01*
X129142859Y-92435714D01*
X129185716Y-92350000D01*
X129271430Y-92307143D01*
X129400001Y-92307143D01*
X129485716Y-92350000D01*
X171710119Y-128514284D02*
X171710119Y-128304761D01*
X171762500Y-128199999D01*
X171867262Y-128095237D01*
X172076786Y-128042856D01*
X172443452Y-128042856D01*
X172652976Y-128095237D01*
X172757738Y-128199999D01*
X172810119Y-128304761D01*
X172810119Y-128514284D01*
X172757738Y-128619046D01*
X172652976Y-128723808D01*
X172443452Y-128776189D01*
X172076786Y-128776189D01*
X171867262Y-128723808D01*
X171762500Y-128619046D01*
X171710119Y-128514284D01*
X172076786Y-127571427D02*
X172810119Y-127571427D01*
X172181548Y-127571427D02*
X172129167Y-127519046D01*
X172076786Y-127414284D01*
X172076786Y-127257142D01*
X172129167Y-127152380D01*
X172233929Y-127099999D01*
X172810119Y-127099999D01*
X172076786Y-126733332D02*
X172076786Y-126314284D01*
X171710119Y-126576189D02*
X172652976Y-126576189D01*
X172757738Y-126523808D01*
X172810119Y-126419046D01*
X172810119Y-126314284D01*
X172076786Y-126052380D02*
X172810119Y-125842856D01*
X172286310Y-125633333D01*
X172810119Y-125423809D01*
X172076786Y-125214285D01*
X172757738Y-124376190D02*
X172810119Y-124480952D01*
X172810119Y-124690475D01*
X172757738Y-124795237D01*
X172652976Y-124847618D01*
X172233929Y-124847618D01*
X172129167Y-124795237D01*
X172076786Y-124690475D01*
X172076786Y-124480952D01*
X172129167Y-124376190D01*
X172233929Y-124323809D01*
X172338690Y-124323809D01*
X172443452Y-124847618D01*
X172810119Y-123852380D02*
X172076786Y-123852380D01*
X172286310Y-123852380D02*
X172181548Y-123799999D01*
X172129167Y-123747618D01*
X172076786Y-123642856D01*
X172076786Y-123538095D01*
X172076786Y-123171428D02*
X173176786Y-123171428D01*
X172129167Y-123171428D02*
X172076786Y-123066666D01*
X172076786Y-122857143D01*
X172129167Y-122752381D01*
X172181548Y-122700000D01*
X172286310Y-122647619D01*
X172600595Y-122647619D01*
X172705357Y-122700000D01*
X172757738Y-122752381D01*
X172810119Y-122857143D01*
X172810119Y-123066666D01*
X172757738Y-123171428D01*
X172705357Y-122176190D02*
X172757738Y-122123809D01*
X172810119Y-122176190D01*
X172757738Y-122228571D01*
X172705357Y-122176190D01*
X172810119Y-122176190D01*
X172129167Y-122176190D02*
X172181548Y-122123809D01*
X172233929Y-122176190D01*
X172181548Y-122228571D01*
X172129167Y-122176190D01*
X172233929Y-122176190D01*
X172810119Y-120814285D02*
X172076786Y-120814285D01*
X172181548Y-120814285D02*
X172129167Y-120761904D01*
X172076786Y-120657142D01*
X172076786Y-120500000D01*
X172129167Y-120395238D01*
X172233929Y-120342857D01*
X172810119Y-120342857D01*
X172233929Y-120342857D02*
X172129167Y-120290476D01*
X172076786Y-120185714D01*
X172076786Y-120028571D01*
X172129167Y-119923809D01*
X172233929Y-119871428D01*
X172810119Y-119871428D01*
X172810119Y-119347618D02*
X172076786Y-119347618D01*
X171710119Y-119347618D02*
X171762500Y-119399999D01*
X171814881Y-119347618D01*
X171762500Y-119295237D01*
X171710119Y-119347618D01*
X171814881Y-119347618D01*
X172757738Y-118352380D02*
X172810119Y-118457142D01*
X172810119Y-118666665D01*
X172757738Y-118771427D01*
X172705357Y-118823808D01*
X172600595Y-118876189D01*
X172286310Y-118876189D01*
X172181548Y-118823808D01*
X172129167Y-118771427D01*
X172076786Y-118666665D01*
X172076786Y-118457142D01*
X172129167Y-118352380D01*
X172810119Y-117880951D02*
X171710119Y-117880951D01*
X172810119Y-117409523D02*
X172233929Y-117409523D01*
X172129167Y-117461904D01*
X172076786Y-117566666D01*
X172076786Y-117723808D01*
X172129167Y-117828570D01*
X172181548Y-117880951D01*
X172810119Y-116885713D02*
X172076786Y-116885713D01*
X171710119Y-116885713D02*
X171762500Y-116938094D01*
X171814881Y-116885713D01*
X171762500Y-116833332D01*
X171710119Y-116885713D01*
X171814881Y-116885713D01*
X172757738Y-115942856D02*
X172810119Y-116047618D01*
X172810119Y-116257141D01*
X172757738Y-116361903D01*
X172652976Y-116414284D01*
X172233929Y-116414284D01*
X172129167Y-116361903D01*
X172076786Y-116257141D01*
X172076786Y-116047618D01*
X172129167Y-115942856D01*
X172233929Y-115890475D01*
X172338690Y-115890475D01*
X172443452Y-116414284D01*
X172810119Y-115261903D02*
X172757738Y-115366665D01*
X172652976Y-115419046D01*
X171710119Y-115419046D01*
X172286310Y-114161904D02*
X172233929Y-114214285D01*
X172181548Y-114319047D01*
X172181548Y-114423809D01*
X172233929Y-114528571D01*
X172286310Y-114580951D01*
X172391071Y-114633332D01*
X172495833Y-114633332D01*
X172600595Y-114580951D01*
X172652976Y-114528571D01*
X172705357Y-114423809D01*
X172705357Y-114319047D01*
X172652976Y-114214285D01*
X172600595Y-114161904D01*
X172181548Y-114161904D02*
X172600595Y-114161904D01*
X172652976Y-114109523D01*
X172652976Y-114057142D01*
X172600595Y-113952380D01*
X172495833Y-113899999D01*
X172233929Y-113899999D01*
X172076786Y-114004761D01*
X171972024Y-114161904D01*
X171919643Y-114371428D01*
X171972024Y-114580951D01*
X172076786Y-114738094D01*
X172233929Y-114842856D01*
X172443452Y-114895237D01*
X172652976Y-114842856D01*
X172810119Y-114738094D01*
X172914881Y-114580951D01*
X172967262Y-114371428D01*
X172914881Y-114161904D01*
X172810119Y-114004761D01*
X172757738Y-113009523D02*
X172810119Y-113114285D01*
X172810119Y-113323808D01*
X172757738Y-113428570D01*
X172652976Y-113480951D01*
X172233929Y-113480951D01*
X172129167Y-113428570D01*
X172076786Y-113323808D01*
X172076786Y-113114285D01*
X172129167Y-113009523D01*
X172233929Y-112957142D01*
X172338690Y-112957142D01*
X172443452Y-113480951D01*
X172810119Y-112014285D02*
X172233929Y-112014285D01*
X172129167Y-112066666D01*
X172076786Y-112171428D01*
X172076786Y-112380951D01*
X172129167Y-112485713D01*
X172757738Y-112014285D02*
X172810119Y-112119047D01*
X172810119Y-112380951D01*
X172757738Y-112485713D01*
X172652976Y-112538094D01*
X172548214Y-112538094D01*
X172443452Y-112485713D01*
X172391071Y-112380951D01*
X172391071Y-112119047D01*
X172338690Y-112014285D01*
X172757738Y-111542856D02*
X172810119Y-111438094D01*
X172810119Y-111228570D01*
X172757738Y-111123809D01*
X172652976Y-111071428D01*
X172600595Y-111071428D01*
X172495833Y-111123809D01*
X172443452Y-111228570D01*
X172443452Y-111385713D01*
X172391071Y-111490475D01*
X172286310Y-111542856D01*
X172233929Y-111542856D01*
X172129167Y-111490475D01*
X172076786Y-111385713D01*
X172076786Y-111228570D01*
X172129167Y-111123809D01*
X172076786Y-110704761D02*
X172810119Y-110442856D01*
X172076786Y-110180952D02*
X172810119Y-110442856D01*
X173072024Y-110547618D01*
X173124405Y-110599999D01*
X173176786Y-110704761D01*
X172810119Y-109604761D02*
X172757738Y-109709523D01*
X172652976Y-109761904D01*
X171710119Y-109761904D01*
X172810119Y-108714286D02*
X172233929Y-108714286D01*
X172129167Y-108766667D01*
X172076786Y-108871429D01*
X172076786Y-109080952D01*
X172129167Y-109185714D01*
X172757738Y-108714286D02*
X172810119Y-108819048D01*
X172810119Y-109080952D01*
X172757738Y-109185714D01*
X172652976Y-109238095D01*
X172548214Y-109238095D01*
X172443452Y-109185714D01*
X172391071Y-109080952D01*
X172391071Y-108819048D01*
X172338690Y-108714286D01*
X172810119Y-108190476D02*
X171710119Y-108190476D01*
X172129167Y-108190476D02*
X172076786Y-108085714D01*
X172076786Y-107876191D01*
X172129167Y-107771429D01*
X172181548Y-107719048D01*
X172286310Y-107666667D01*
X172600595Y-107666667D01*
X172705357Y-107719048D01*
X172757738Y-107771429D01*
X172810119Y-107876191D01*
X172810119Y-108085714D01*
X172757738Y-108190476D01*
X172076786Y-106723810D02*
X172810119Y-106723810D01*
X171657738Y-106985714D02*
X172443452Y-107247619D01*
X172443452Y-106566667D01*
X172810119Y-106147619D02*
X171710119Y-106147619D01*
X172391071Y-106042857D02*
X172810119Y-105728572D01*
X172076786Y-105728572D02*
X172495833Y-106147619D01*
X172810119Y-105257143D02*
X172076786Y-105257143D01*
X171710119Y-105257143D02*
X171762500Y-105309524D01*
X171814881Y-105257143D01*
X171762500Y-105204762D01*
X171710119Y-105257143D01*
X171814881Y-105257143D01*
X172810119Y-104261905D02*
X171710119Y-104261905D01*
X172757738Y-104261905D02*
X172810119Y-104366667D01*
X172810119Y-104576190D01*
X172757738Y-104680952D01*
X172705357Y-104733333D01*
X172600595Y-104785714D01*
X172286310Y-104785714D01*
X172181548Y-104733333D01*
X172129167Y-104680952D01*
X172076786Y-104576190D01*
X172076786Y-104366667D01*
X172129167Y-104261905D01*
X172757738Y-103790476D02*
X172810119Y-103685714D01*
X172810119Y-103476190D01*
X172757738Y-103371429D01*
X172652976Y-103319048D01*
X172600595Y-103319048D01*
X172495833Y-103371429D01*
X172443452Y-103476190D01*
X172443452Y-103633333D01*
X172391071Y-103738095D01*
X172286310Y-103790476D01*
X172233929Y-103790476D01*
X172129167Y-103738095D01*
X172076786Y-103633333D01*
X172076786Y-103476190D01*
X172129167Y-103371429D01*
X172705357Y-102847619D02*
X172757738Y-102795238D01*
X172810119Y-102847619D01*
X172757738Y-102900000D01*
X172705357Y-102847619D01*
X172810119Y-102847619D01*
X172076786Y-102323809D02*
X172810119Y-102323809D01*
X172181548Y-102323809D02*
X172129167Y-102271428D01*
X172076786Y-102166666D01*
X172076786Y-102009524D01*
X172129167Y-101904762D01*
X172233929Y-101852381D01*
X172810119Y-101852381D01*
X172810119Y-101171428D02*
X172757738Y-101276190D01*
X172652976Y-101328571D01*
X171710119Y-101328571D01*
X174685119Y-124114284D02*
X173585119Y-124114284D01*
X174685119Y-123642856D02*
X174108929Y-123642856D01*
X174004167Y-123695237D01*
X173951786Y-123799999D01*
X173951786Y-123957141D01*
X174004167Y-124061903D01*
X174056548Y-124114284D01*
X173951786Y-123276189D02*
X173951786Y-122857141D01*
X173585119Y-123119046D02*
X174527976Y-123119046D01*
X174632738Y-123066665D01*
X174685119Y-122961903D01*
X174685119Y-122857141D01*
X173951786Y-122647618D02*
X173951786Y-122228570D01*
X173585119Y-122490475D02*
X174527976Y-122490475D01*
X174632738Y-122438094D01*
X174685119Y-122333332D01*
X174685119Y-122228570D01*
X173951786Y-121861904D02*
X175051786Y-121861904D01*
X174004167Y-121861904D02*
X173951786Y-121757142D01*
X173951786Y-121547619D01*
X174004167Y-121442857D01*
X174056548Y-121390476D01*
X174161310Y-121338095D01*
X174475595Y-121338095D01*
X174580357Y-121390476D01*
X174632738Y-121442857D01*
X174685119Y-121547619D01*
X174685119Y-121757142D01*
X174632738Y-121861904D01*
X174580357Y-120866666D02*
X174632738Y-120814285D01*
X174685119Y-120866666D01*
X174632738Y-120919047D01*
X174580357Y-120866666D01*
X174685119Y-120866666D01*
X174004167Y-120866666D02*
X174056548Y-120814285D01*
X174108929Y-120866666D01*
X174056548Y-120919047D01*
X174004167Y-120866666D01*
X174108929Y-120866666D01*
X173532738Y-119557142D02*
X174947024Y-120499999D01*
X173532738Y-118404761D02*
X174947024Y-119347618D01*
X174632738Y-117619047D02*
X174685119Y-117723809D01*
X174685119Y-117933332D01*
X174632738Y-118038094D01*
X174527976Y-118090475D01*
X174108929Y-118090475D01*
X174004167Y-118038094D01*
X173951786Y-117933332D01*
X173951786Y-117723809D01*
X174004167Y-117619047D01*
X174108929Y-117566666D01*
X174213690Y-117566666D01*
X174318452Y-118090475D01*
X174685119Y-116623809D02*
X174108929Y-116623809D01*
X174004167Y-116676190D01*
X173951786Y-116780952D01*
X173951786Y-116990475D01*
X174004167Y-117095237D01*
X174632738Y-116623809D02*
X174685119Y-116728571D01*
X174685119Y-116990475D01*
X174632738Y-117095237D01*
X174527976Y-117147618D01*
X174423214Y-117147618D01*
X174318452Y-117095237D01*
X174266071Y-116990475D01*
X174266071Y-116728571D01*
X174213690Y-116623809D01*
X174632738Y-116152380D02*
X174685119Y-116047618D01*
X174685119Y-115838094D01*
X174632738Y-115733333D01*
X174527976Y-115680952D01*
X174475595Y-115680952D01*
X174370833Y-115733333D01*
X174318452Y-115838094D01*
X174318452Y-115995237D01*
X174266071Y-116099999D01*
X174161310Y-116152380D01*
X174108929Y-116152380D01*
X174004167Y-116099999D01*
X173951786Y-115995237D01*
X173951786Y-115838094D01*
X174004167Y-115733333D01*
X173951786Y-115314285D02*
X174685119Y-115052380D01*
X173951786Y-114790476D02*
X174685119Y-115052380D01*
X174947024Y-115157142D01*
X174999405Y-115209523D01*
X175051786Y-115314285D01*
X174685119Y-114214285D02*
X174632738Y-114319047D01*
X174527976Y-114371428D01*
X173585119Y-114371428D01*
X174685119Y-113323810D02*
X174108929Y-113323810D01*
X174004167Y-113376191D01*
X173951786Y-113480953D01*
X173951786Y-113690476D01*
X174004167Y-113795238D01*
X174632738Y-113323810D02*
X174685119Y-113428572D01*
X174685119Y-113690476D01*
X174632738Y-113795238D01*
X174527976Y-113847619D01*
X174423214Y-113847619D01*
X174318452Y-113795238D01*
X174266071Y-113690476D01*
X174266071Y-113428572D01*
X174213690Y-113323810D01*
X174685119Y-112800000D02*
X173585119Y-112800000D01*
X174004167Y-112800000D02*
X173951786Y-112695238D01*
X173951786Y-112485715D01*
X174004167Y-112380953D01*
X174056548Y-112328572D01*
X174161310Y-112276191D01*
X174475595Y-112276191D01*
X174580357Y-112328572D01*
X174632738Y-112380953D01*
X174685119Y-112485715D01*
X174685119Y-112695238D01*
X174632738Y-112800000D01*
X173951786Y-111333334D02*
X174685119Y-111333334D01*
X173532738Y-111595238D02*
X174318452Y-111857143D01*
X174318452Y-111176191D01*
X174685119Y-110757143D02*
X173585119Y-110757143D01*
X174266071Y-110652381D02*
X174685119Y-110338096D01*
X173951786Y-110338096D02*
X174370833Y-110757143D01*
X174685119Y-109866667D02*
X173951786Y-109866667D01*
X173585119Y-109866667D02*
X173637500Y-109919048D01*
X173689881Y-109866667D01*
X173637500Y-109814286D01*
X173585119Y-109866667D01*
X173689881Y-109866667D01*
X174685119Y-108871429D02*
X173585119Y-108871429D01*
X174632738Y-108871429D02*
X174685119Y-108976191D01*
X174685119Y-109185714D01*
X174632738Y-109290476D01*
X174580357Y-109342857D01*
X174475595Y-109395238D01*
X174161310Y-109395238D01*
X174056548Y-109342857D01*
X174004167Y-109290476D01*
X173951786Y-109185714D01*
X173951786Y-108976191D01*
X174004167Y-108871429D01*
X174632738Y-108400000D02*
X174685119Y-108295238D01*
X174685119Y-108085714D01*
X174632738Y-107980953D01*
X174527976Y-107928572D01*
X174475595Y-107928572D01*
X174370833Y-107980953D01*
X174318452Y-108085714D01*
X174318452Y-108242857D01*
X174266071Y-108347619D01*
X174161310Y-108400000D01*
X174108929Y-108400000D01*
X174004167Y-108347619D01*
X173951786Y-108242857D01*
X173951786Y-108085714D01*
X174004167Y-107980953D01*
X174580357Y-107457143D02*
X174632738Y-107404762D01*
X174685119Y-107457143D01*
X174632738Y-107509524D01*
X174580357Y-107457143D01*
X174685119Y-107457143D01*
X173951786Y-106933333D02*
X174685119Y-106933333D01*
X174056548Y-106933333D02*
X174004167Y-106880952D01*
X173951786Y-106776190D01*
X173951786Y-106619048D01*
X174004167Y-106514286D01*
X174108929Y-106461905D01*
X174685119Y-106461905D01*
X174685119Y-105780952D02*
X174632738Y-105885714D01*
X174527976Y-105938095D01*
X173585119Y-105938095D01*
X147119049Y-137695238D02*
X147276192Y-137747619D01*
X147538096Y-137747619D01*
X147642858Y-137695238D01*
X147695239Y-137642857D01*
X147747620Y-137538095D01*
X147747620Y-137433333D01*
X147695239Y-137328571D01*
X147642858Y-137276190D01*
X147538096Y-137223810D01*
X147328573Y-137171429D01*
X147223811Y-137119048D01*
X147171430Y-137066667D01*
X147119049Y-136961905D01*
X147119049Y-136857143D01*
X147171430Y-136752381D01*
X147223811Y-136700000D01*
X147328573Y-136647619D01*
X147590477Y-136647619D01*
X147747620Y-136700000D01*
X148219049Y-137747619D02*
X148219049Y-137014286D01*
X148219049Y-136647619D02*
X148166668Y-136700000D01*
X148219049Y-136752381D01*
X148271430Y-136700000D01*
X148219049Y-136647619D01*
X148219049Y-136752381D01*
X148742859Y-137747619D02*
X148742859Y-137014286D01*
X148742859Y-137119048D02*
X148795240Y-137066667D01*
X148900002Y-137014286D01*
X149057144Y-137014286D01*
X149161906Y-137066667D01*
X149214287Y-137171429D01*
X149214287Y-137747619D01*
X149214287Y-137171429D02*
X149266668Y-137066667D01*
X149371430Y-137014286D01*
X149528573Y-137014286D01*
X149633335Y-137066667D01*
X149685716Y-137171429D01*
X149685716Y-137747619D01*
X150209526Y-137014286D02*
X150209526Y-138114286D01*
X150209526Y-137066667D02*
X150314288Y-137014286D01*
X150523811Y-137014286D01*
X150628573Y-137066667D01*
X150680954Y-137119048D01*
X150733335Y-137223810D01*
X150733335Y-137538095D01*
X150680954Y-137642857D01*
X150628573Y-137695238D01*
X150523811Y-137747619D01*
X150314288Y-137747619D01*
X150209526Y-137695238D01*
X151361907Y-137747619D02*
X151257145Y-137695238D01*
X151204764Y-137590476D01*
X151204764Y-136647619D01*
X152200001Y-137695238D02*
X152095239Y-137747619D01*
X151885716Y-137747619D01*
X151780954Y-137695238D01*
X151728573Y-137590476D01*
X151728573Y-137171429D01*
X151780954Y-137066667D01*
X151885716Y-137014286D01*
X152095239Y-137014286D01*
X152200001Y-137066667D01*
X152252382Y-137171429D01*
X152252382Y-137276190D01*
X151728573Y-137380952D01*
X154085715Y-136647619D02*
X153561906Y-136647619D01*
X153509525Y-137171429D01*
X153561906Y-137119048D01*
X153666668Y-137066667D01*
X153928572Y-137066667D01*
X154033334Y-137119048D01*
X154085715Y-137171429D01*
X154138096Y-137276190D01*
X154138096Y-137538095D01*
X154085715Y-137642857D01*
X154033334Y-137695238D01*
X153928572Y-137747619D01*
X153666668Y-137747619D01*
X153561906Y-137695238D01*
X153509525Y-137642857D01*
X155133334Y-136647619D02*
X154609525Y-136647619D01*
X154557144Y-137171429D01*
X154609525Y-137119048D01*
X154714287Y-137066667D01*
X154976191Y-137066667D01*
X155080953Y-137119048D01*
X155133334Y-137171429D01*
X155185715Y-137276190D01*
X155185715Y-137538095D01*
X155133334Y-137642857D01*
X155080953Y-137695238D01*
X154976191Y-137747619D01*
X154714287Y-137747619D01*
X154609525Y-137695238D01*
X154557144Y-137642857D01*
X156180953Y-136647619D02*
X155657144Y-136647619D01*
X155604763Y-137171429D01*
X155657144Y-137119048D01*
X155761906Y-137066667D01*
X156023810Y-137066667D01*
X156128572Y-137119048D01*
X156180953Y-137171429D01*
X156233334Y-137276190D01*
X156233334Y-137538095D01*
X156180953Y-137642857D01*
X156128572Y-137695238D01*
X156023810Y-137747619D01*
X155761906Y-137747619D01*
X155657144Y-137695238D01*
X155604763Y-137642857D01*
X156704763Y-137328571D02*
X157542858Y-137328571D01*
X158014287Y-137695238D02*
X158119049Y-137747619D01*
X158328573Y-137747619D01*
X158433334Y-137695238D01*
X158485715Y-137590476D01*
X158485715Y-137538095D01*
X158433334Y-137433333D01*
X158328573Y-137380952D01*
X158171430Y-137380952D01*
X158066668Y-137328571D01*
X158014287Y-137223810D01*
X158014287Y-137171429D01*
X158066668Y-137066667D01*
X158171430Y-137014286D01*
X158328573Y-137014286D01*
X158433334Y-137066667D01*
X158852382Y-137014286D02*
X159114287Y-137747619D01*
X159376191Y-137014286D02*
X159114287Y-137747619D01*
X159009525Y-138009524D01*
X158957144Y-138061905D01*
X158852382Y-138114286D01*
X159795239Y-137014286D02*
X159795239Y-137747619D01*
X159795239Y-137119048D02*
X159847620Y-137066667D01*
X159952382Y-137014286D01*
X160109524Y-137014286D01*
X160214286Y-137066667D01*
X160266667Y-137171429D01*
X160266667Y-137747619D01*
X160633334Y-137014286D02*
X161052382Y-137014286D01*
X160790477Y-136647619D02*
X160790477Y-137590476D01*
X160842858Y-137695238D01*
X160947620Y-137747619D01*
X161052382Y-137747619D01*
X161419048Y-137747619D02*
X161419048Y-136647619D01*
X161890476Y-137747619D02*
X161890476Y-137171429D01*
X161838095Y-137066667D01*
X161733333Y-137014286D01*
X161576191Y-137014286D01*
X161471429Y-137066667D01*
X161419048Y-137119048D01*
X163095238Y-136647619D02*
X163461905Y-137747619D01*
X163828571Y-136647619D01*
X164614285Y-137695238D02*
X164509523Y-137747619D01*
X164300000Y-137747619D01*
X164195238Y-137695238D01*
X164142857Y-137590476D01*
X164142857Y-137171429D01*
X164195238Y-137066667D01*
X164300000Y-137014286D01*
X164509523Y-137014286D01*
X164614285Y-137066667D01*
X164666666Y-137171429D01*
X164666666Y-137276190D01*
X164142857Y-137380952D01*
X165138095Y-137747619D02*
X165138095Y-137014286D01*
X165138095Y-137223810D02*
X165190476Y-137119048D01*
X165242857Y-137066667D01*
X165347619Y-137014286D01*
X165452380Y-137014286D01*
X165766666Y-137695238D02*
X165871428Y-137747619D01*
X166080952Y-137747619D01*
X166185713Y-137695238D01*
X166238094Y-137590476D01*
X166238094Y-137538095D01*
X166185713Y-137433333D01*
X166080952Y-137380952D01*
X165923809Y-137380952D01*
X165819047Y-137328571D01*
X165766666Y-137223810D01*
X165766666Y-137171429D01*
X165819047Y-137066667D01*
X165923809Y-137014286D01*
X166080952Y-137014286D01*
X166185713Y-137066667D01*
X166709523Y-137747619D02*
X166709523Y-137014286D01*
X166709523Y-136647619D02*
X166657142Y-136700000D01*
X166709523Y-136752381D01*
X166761904Y-136700000D01*
X166709523Y-136647619D01*
X166709523Y-136752381D01*
X167652380Y-137695238D02*
X167547618Y-137747619D01*
X167338095Y-137747619D01*
X167233333Y-137695238D01*
X167180952Y-137590476D01*
X167180952Y-137171429D01*
X167233333Y-137066667D01*
X167338095Y-137014286D01*
X167547618Y-137014286D01*
X167652380Y-137066667D01*
X167704761Y-137171429D01*
X167704761Y-137276190D01*
X167180952Y-137380952D01*
X168961904Y-136752381D02*
X169014285Y-136700000D01*
X169119047Y-136647619D01*
X169380951Y-136647619D01*
X169485713Y-136700000D01*
X169538094Y-136752381D01*
X169590475Y-136857143D01*
X169590475Y-136961905D01*
X169538094Y-137119048D01*
X168909523Y-137747619D01*
X169590475Y-137747619D01*
X170271428Y-136647619D02*
X170376189Y-136647619D01*
X170480951Y-136700000D01*
X170533332Y-136752381D01*
X170585713Y-136857143D01*
X170638094Y-137066667D01*
X170638094Y-137328571D01*
X170585713Y-137538095D01*
X170533332Y-137642857D01*
X170480951Y-137695238D01*
X170376189Y-137747619D01*
X170271428Y-137747619D01*
X170166666Y-137695238D01*
X170114285Y-137642857D01*
X170061904Y-137538095D01*
X170009523Y-137328571D01*
X170009523Y-137066667D01*
X170061904Y-136857143D01*
X170114285Y-136752381D01*
X170166666Y-136700000D01*
X170271428Y-136647619D01*
X171685713Y-137747619D02*
X171057142Y-137747619D01*
X171371428Y-137747619D02*
X171371428Y-136647619D01*
X171266666Y-136804762D01*
X171161904Y-136909524D01*
X171057142Y-136961905D01*
X172314285Y-137119048D02*
X172209523Y-137066667D01*
X172157142Y-137014286D01*
X172104761Y-136909524D01*
X172104761Y-136857143D01*
X172157142Y-136752381D01*
X172209523Y-136700000D01*
X172314285Y-136647619D01*
X172523808Y-136647619D01*
X172628570Y-136700000D01*
X172680951Y-136752381D01*
X172733332Y-136857143D01*
X172733332Y-136909524D01*
X172680951Y-137014286D01*
X172628570Y-137066667D01*
X172523808Y-137119048D01*
X172314285Y-137119048D01*
X172209523Y-137171429D01*
X172157142Y-137223810D01*
X172104761Y-137328571D01*
X172104761Y-137538095D01*
X172157142Y-137642857D01*
X172209523Y-137695238D01*
X172314285Y-137747619D01*
X172523808Y-137747619D01*
X172628570Y-137695238D01*
X172680951Y-137642857D01*
X172733332Y-137538095D01*
X172733332Y-137328571D01*
X172680951Y-137223810D01*
X172628570Y-137171429D01*
X172523808Y-137119048D01*
X173414285Y-136647619D02*
X173519046Y-136647619D01*
X173623808Y-136700000D01*
X173676189Y-136752381D01*
X173728570Y-136857143D01*
X173780951Y-137066667D01*
X173780951Y-137328571D01*
X173728570Y-137538095D01*
X173676189Y-137642857D01*
X173623808Y-137695238D01*
X173519046Y-137747619D01*
X173414285Y-137747619D01*
X173309523Y-137695238D01*
X173257142Y-137642857D01*
X173204761Y-137538095D01*
X173152380Y-137328571D01*
X173152380Y-137066667D01*
X173204761Y-136857143D01*
X173257142Y-136752381D01*
X173309523Y-136700000D01*
X173414285Y-136647619D01*
X174723808Y-136647619D02*
X174514285Y-136647619D01*
X174409523Y-136700000D01*
X174357142Y-136752381D01*
X174252380Y-136909524D01*
X174199999Y-137119048D01*
X174199999Y-137538095D01*
X174252380Y-137642857D01*
X174304761Y-137695238D01*
X174409523Y-137747619D01*
X174619046Y-137747619D01*
X174723808Y-137695238D01*
X174776189Y-137642857D01*
X174828570Y-137538095D01*
X174828570Y-137276190D01*
X174776189Y-137171429D01*
X174723808Y-137119048D01*
X174619046Y-137066667D01*
X174409523Y-137066667D01*
X174304761Y-137119048D01*
X174252380Y-137171429D01*
X174199999Y-137276190D01*
X175247618Y-136752381D02*
X175299999Y-136700000D01*
X175404761Y-136647619D01*
X175666665Y-136647619D01*
X175771427Y-136700000D01*
X175823808Y-136752381D01*
X175876189Y-136857143D01*
X175876189Y-136961905D01*
X175823808Y-137119048D01*
X175195237Y-137747619D01*
X175876189Y-137747619D01*
X176242856Y-136647619D02*
X176976189Y-136647619D01*
X176504761Y-137747619D01*
X178442856Y-136647619D02*
X178547617Y-136647619D01*
X178652379Y-136700000D01*
X178704760Y-136752381D01*
X178757141Y-136857143D01*
X178809522Y-137066667D01*
X178809522Y-137328571D01*
X178757141Y-137538095D01*
X178704760Y-137642857D01*
X178652379Y-137695238D01*
X178547617Y-137747619D01*
X178442856Y-137747619D01*
X178338094Y-137695238D01*
X178285713Y-137642857D01*
X178233332Y-137538095D01*
X178180951Y-137328571D01*
X178180951Y-137066667D01*
X178233332Y-136857143D01*
X178285713Y-136752381D01*
X178338094Y-136700000D01*
X178442856Y-136647619D01*
X179280951Y-137642857D02*
X179333332Y-137695238D01*
X179280951Y-137747619D01*
X179228570Y-137695238D01*
X179280951Y-137642857D01*
X179280951Y-137747619D01*
X180276189Y-136647619D02*
X180066666Y-136647619D01*
X179961904Y-136700000D01*
X179909523Y-136752381D01*
X179804761Y-136909524D01*
X179752380Y-137119048D01*
X179752380Y-137538095D01*
X179804761Y-137642857D01*
X179857142Y-137695238D01*
X179961904Y-137747619D01*
X180171427Y-137747619D01*
X180276189Y-137695238D01*
X180328570Y-137642857D01*
X180380951Y-137538095D01*
X180380951Y-137276190D01*
X180328570Y-137171429D01*
X180276189Y-137119048D01*
X180171427Y-137066667D01*
X179961904Y-137066667D01*
X179857142Y-137119048D01*
X179804761Y-137171429D01*
X179752380Y-137276190D01*
X141800000Y-118369643D02*
X141800000Y-117469643D01*
X142185714Y-118369643D02*
X142185714Y-117898214D01*
X142142857Y-117812500D01*
X142057143Y-117769643D01*
X141928571Y-117769643D01*
X141842857Y-117812500D01*
X141800000Y-117855357D01*
X143000000Y-118369643D02*
X143000000Y-117469643D01*
X143000000Y-118326786D02*
X142914286Y-118369643D01*
X142742857Y-118369643D01*
X142657143Y-118326786D01*
X142614286Y-118283929D01*
X142571429Y-118198214D01*
X142571429Y-117941071D01*
X142614286Y-117855357D01*
X142657143Y-117812500D01*
X142742857Y-117769643D01*
X142914286Y-117769643D01*
X143000000Y-117812500D01*
X143428572Y-118369643D02*
X143428572Y-117769643D01*
X143428572Y-117941071D02*
X143471429Y-117855357D01*
X143514286Y-117812500D01*
X143600000Y-117769643D01*
X143685715Y-117769643D01*
X143985715Y-118369643D02*
X143985715Y-117469643D01*
X144328572Y-117469643D01*
X144414286Y-117512500D01*
X144457143Y-117555357D01*
X144500000Y-117641071D01*
X144500000Y-117769643D01*
X144457143Y-117855357D01*
X144414286Y-117898214D01*
X144328572Y-117941071D01*
X143985715Y-117941071D01*
X144885715Y-118369643D02*
X144885715Y-117769643D01*
X144885715Y-117469643D02*
X144842858Y-117512500D01*
X144885715Y-117555357D01*
X144928572Y-117512500D01*
X144885715Y-117469643D01*
X144885715Y-117555357D01*
X145314286Y-117769643D02*
X145314286Y-118369643D01*
X145314286Y-117855357D02*
X145357143Y-117812500D01*
X145442857Y-117769643D01*
X145571429Y-117769643D01*
X145657143Y-117812500D01*
X145700000Y-117898214D01*
X145700000Y-118369643D01*
X141778571Y-119944643D02*
X141692857Y-119901786D01*
X141650000Y-119858929D01*
X141607143Y-119773214D01*
X141607143Y-119516071D01*
X141650000Y-119430357D01*
X141692857Y-119387500D01*
X141778571Y-119344643D01*
X141907143Y-119344643D01*
X141992857Y-119387500D01*
X142035714Y-119430357D01*
X142078571Y-119516071D01*
X142078571Y-119773214D01*
X142035714Y-119858929D01*
X141992857Y-119901786D01*
X141907143Y-119944643D01*
X141778571Y-119944643D01*
X142335714Y-119344643D02*
X142678571Y-119344643D01*
X142464286Y-119944643D02*
X142464286Y-119173214D01*
X142507143Y-119087500D01*
X142592857Y-119044643D01*
X142678571Y-119044643D01*
X144135714Y-119944643D02*
X143621429Y-119944643D01*
X143878571Y-119944643D02*
X143878571Y-119044643D01*
X143792857Y-119173214D01*
X143707143Y-119258929D01*
X143621429Y-119301786D01*
X144692857Y-119044643D02*
X144778572Y-119044643D01*
X144864286Y-119087500D01*
X144907143Y-119130357D01*
X144950000Y-119216071D01*
X144992857Y-119387500D01*
X144992857Y-119601786D01*
X144950000Y-119773214D01*
X144907143Y-119858929D01*
X144864286Y-119901786D01*
X144778572Y-119944643D01*
X144692857Y-119944643D01*
X144607143Y-119901786D01*
X144564286Y-119858929D01*
X144521429Y-119773214D01*
X144478572Y-119601786D01*
X144478572Y-119387500D01*
X144521429Y-119216071D01*
X144564286Y-119130357D01*
X144607143Y-119087500D01*
X144692857Y-119044643D01*
X145764286Y-119344643D02*
X145764286Y-119944643D01*
X145378572Y-119344643D02*
X145378572Y-119816071D01*
X145421429Y-119901786D01*
X145507143Y-119944643D01*
X145635715Y-119944643D01*
X145721429Y-119901786D01*
X145764286Y-119858929D01*
X146492858Y-119473214D02*
X146192858Y-119473214D01*
X146192858Y-119944643D02*
X146192858Y-119044643D01*
X146621429Y-119044643D01*
X125757143Y-131200000D02*
X126657143Y-130900000D01*
X125757143Y-130600000D01*
X126571429Y-129785714D02*
X126614286Y-129828571D01*
X126657143Y-129957142D01*
X126657143Y-130042856D01*
X126614286Y-130171428D01*
X126528571Y-130257142D01*
X126442857Y-130299999D01*
X126271429Y-130342856D01*
X126142857Y-130342856D01*
X125971429Y-130299999D01*
X125885714Y-130257142D01*
X125800000Y-130171428D01*
X125757143Y-130042856D01*
X125757143Y-129957142D01*
X125800000Y-129828571D01*
X125842857Y-129785714D01*
X126571429Y-128885714D02*
X126614286Y-128928571D01*
X126657143Y-129057142D01*
X126657143Y-129142856D01*
X126614286Y-129271428D01*
X126528571Y-129357142D01*
X126442857Y-129399999D01*
X126271429Y-129442856D01*
X126142857Y-129442856D01*
X125971429Y-129399999D01*
X125885714Y-129357142D01*
X125800000Y-129271428D01*
X125757143Y-129142856D01*
X125757143Y-129057142D01*
X125800000Y-128928571D01*
X125842857Y-128885714D01*
X125800000Y-127435714D02*
X125757143Y-127521428D01*
X125757143Y-127649999D01*
X125800000Y-127778571D01*
X125885714Y-127864285D01*
X125971429Y-127907142D01*
X126142857Y-127949999D01*
X126271429Y-127949999D01*
X126442857Y-127907142D01*
X126528571Y-127864285D01*
X126614286Y-127778571D01*
X126657143Y-127649999D01*
X126657143Y-127564285D01*
X126614286Y-127435714D01*
X126571429Y-127392857D01*
X126271429Y-127392857D01*
X126271429Y-127564285D01*
X126657143Y-127007142D02*
X125757143Y-127007142D01*
X126657143Y-126492857D01*
X125757143Y-126492857D01*
X126657143Y-126064285D02*
X125757143Y-126064285D01*
X125757143Y-125850000D01*
X125800000Y-125721428D01*
X125885714Y-125635714D01*
X125971429Y-125592857D01*
X126142857Y-125550000D01*
X126271429Y-125550000D01*
X126442857Y-125592857D01*
X126528571Y-125635714D01*
X126614286Y-125721428D01*
X126657143Y-125850000D01*
X126657143Y-126064285D01*
X120314286Y-122300000D02*
X120228572Y-122257143D01*
X120100001Y-122257143D01*
X119971429Y-122300000D01*
X119885715Y-122385714D01*
X119842858Y-122471429D01*
X119800001Y-122642857D01*
X119800001Y-122771429D01*
X119842858Y-122942857D01*
X119885715Y-123028571D01*
X119971429Y-123114286D01*
X120100001Y-123157143D01*
X120185715Y-123157143D01*
X120314286Y-123114286D01*
X120357143Y-123071429D01*
X120357143Y-122771429D01*
X120185715Y-122771429D01*
X120742858Y-123157143D02*
X120742858Y-122257143D01*
X121257143Y-123157143D01*
X121257143Y-122257143D01*
X121685715Y-123157143D02*
X121685715Y-122257143D01*
X121900000Y-122257143D01*
X122028572Y-122300000D01*
X122114286Y-122385714D01*
X122157143Y-122471429D01*
X122200000Y-122642857D01*
X122200000Y-122771429D01*
X122157143Y-122942857D01*
X122114286Y-123028571D01*
X122028572Y-123114286D01*
X121900000Y-123157143D01*
X121685715Y-123157143D01*
X124407143Y-120328571D02*
X124407143Y-120757142D01*
X123507143Y-120757142D01*
X123935714Y-120028571D02*
X123935714Y-119728571D01*
X124407143Y-119600000D02*
X124407143Y-120028571D01*
X123507143Y-120028571D01*
X123507143Y-119600000D01*
X124407143Y-119214285D02*
X123507143Y-119214285D01*
X123507143Y-119000000D01*
X123550000Y-118871428D01*
X123635714Y-118785714D01*
X123721429Y-118742857D01*
X123892857Y-118700000D01*
X124021429Y-118700000D01*
X124192857Y-118742857D01*
X124278571Y-118785714D01*
X124364286Y-118871428D01*
X124407143Y-119000000D01*
X124407143Y-119214285D01*
X122657143Y-110850000D02*
X122228571Y-111150000D01*
X122657143Y-111364285D02*
X121757143Y-111364285D01*
X121757143Y-111021428D01*
X121800000Y-110935714D01*
X121842857Y-110892857D01*
X121928571Y-110850000D01*
X122057143Y-110850000D01*
X122142857Y-110892857D01*
X122185714Y-110935714D01*
X122228571Y-111021428D01*
X122228571Y-111364285D01*
X122657143Y-109992857D02*
X122657143Y-110507142D01*
X122657143Y-110250000D02*
X121757143Y-110250000D01*
X121885714Y-110335714D01*
X121971429Y-110421428D01*
X122014286Y-110507142D01*
X122657143Y-109607142D02*
X121757143Y-109607142D01*
X122657143Y-109092857D02*
X122142857Y-109478571D01*
X121757143Y-109092857D02*
X122271429Y-109607142D01*
X162907143Y-128100000D02*
X162478571Y-128400000D01*
X162907143Y-128614285D02*
X162007143Y-128614285D01*
X162007143Y-128271428D01*
X162050000Y-128185714D01*
X162092857Y-128142857D01*
X162178571Y-128100000D01*
X162307143Y-128100000D01*
X162392857Y-128142857D01*
X162435714Y-128185714D01*
X162478571Y-128271428D01*
X162478571Y-128614285D01*
X162907143Y-127242857D02*
X162907143Y-127757142D01*
X162907143Y-127500000D02*
X162007143Y-127500000D01*
X162135714Y-127585714D01*
X162221429Y-127671428D01*
X162264286Y-127757142D01*
X162907143Y-126857142D02*
X162007143Y-126857142D01*
X162907143Y-126342857D02*
X162392857Y-126728571D01*
X162007143Y-126342857D02*
X162521429Y-126857142D01*
X169157143Y-128871429D02*
X168728571Y-129171429D01*
X169157143Y-129385714D02*
X168257143Y-129385714D01*
X168257143Y-129042857D01*
X168300000Y-128957143D01*
X168342857Y-128914286D01*
X168428571Y-128871429D01*
X168557143Y-128871429D01*
X168642857Y-128914286D01*
X168685714Y-128957143D01*
X168728571Y-129042857D01*
X168728571Y-129385714D01*
X168557143Y-128100000D02*
X169157143Y-128100000D01*
X168214286Y-128314286D02*
X168857143Y-128528571D01*
X168857143Y-127971429D01*
X168257143Y-127714286D02*
X168257143Y-127114286D01*
X169157143Y-127500000D01*
X168257143Y-126600000D02*
X168257143Y-126514285D01*
X168300000Y-126428571D01*
X168342857Y-126385714D01*
X168428571Y-126342857D01*
X168600000Y-126300000D01*
X168814286Y-126300000D01*
X168985714Y-126342857D01*
X169071429Y-126385714D01*
X169114286Y-126428571D01*
X169157143Y-126514285D01*
X169157143Y-126600000D01*
X169114286Y-126685714D01*
X169071429Y-126728571D01*
X168985714Y-126771428D01*
X168814286Y-126814285D01*
X168600000Y-126814285D01*
X168428571Y-126771428D01*
X168342857Y-126728571D01*
X168300000Y-126685714D01*
X168257143Y-126600000D01*
X169157143Y-125914285D02*
X168257143Y-125914285D01*
X168814286Y-125828571D02*
X169157143Y-125571428D01*
X168557143Y-125571428D02*
X168900000Y-125914285D01*
X182114285Y-124300000D02*
X182028571Y-124257143D01*
X181900000Y-124257143D01*
X181771428Y-124300000D01*
X181685714Y-124385714D01*
X181642857Y-124471429D01*
X181600000Y-124642857D01*
X181600000Y-124771429D01*
X181642857Y-124942857D01*
X181685714Y-125028571D01*
X181771428Y-125114286D01*
X181900000Y-125157143D01*
X181985714Y-125157143D01*
X182114285Y-125114286D01*
X182157142Y-125071429D01*
X182157142Y-124771429D01*
X181985714Y-124771429D01*
X182885714Y-125114286D02*
X182800000Y-125157143D01*
X182628571Y-125157143D01*
X182542857Y-125114286D01*
X182500000Y-125028571D01*
X182500000Y-124685714D01*
X182542857Y-124600000D01*
X182628571Y-124557143D01*
X182800000Y-124557143D01*
X182885714Y-124600000D01*
X182928571Y-124685714D01*
X182928571Y-124771429D01*
X182500000Y-124857143D01*
X183442857Y-125157143D02*
X183357143Y-125114286D01*
X183314286Y-125028571D01*
X183314286Y-124257143D01*
X184171429Y-124557143D02*
X184171429Y-125157143D01*
X183785715Y-124557143D02*
X183785715Y-125028571D01*
X183828572Y-125114286D01*
X183914286Y-125157143D01*
X184042858Y-125157143D01*
X184128572Y-125114286D01*
X184171429Y-125071429D01*
X184600001Y-125157143D02*
X184600001Y-124557143D01*
X184600001Y-124257143D02*
X184557144Y-124300000D01*
X184600001Y-124342857D01*
X184642858Y-124300000D01*
X184600001Y-124257143D01*
X184600001Y-124342857D01*
X185414286Y-125157143D02*
X185414286Y-124257143D01*
X185414286Y-125114286D02*
X185328572Y-125157143D01*
X185157143Y-125157143D01*
X185071429Y-125114286D01*
X185028572Y-125071429D01*
X184985715Y-124985714D01*
X184985715Y-124728571D01*
X185028572Y-124642857D01*
X185071429Y-124600000D01*
X185157143Y-124557143D01*
X185328572Y-124557143D01*
X185414286Y-124600000D01*
X185628572Y-125242857D02*
X186314286Y-125242857D01*
X186914286Y-124557143D02*
X186914286Y-125157143D01*
X186528572Y-124557143D02*
X186528572Y-125028571D01*
X186571429Y-125114286D01*
X186657143Y-125157143D01*
X186785715Y-125157143D01*
X186871429Y-125114286D01*
X186914286Y-125071429D01*
X187342858Y-125157143D02*
X187342858Y-124557143D01*
X187342858Y-124257143D02*
X187300001Y-124300000D01*
X187342858Y-124342857D01*
X187385715Y-124300000D01*
X187342858Y-124257143D01*
X187342858Y-124342857D01*
X187642857Y-124557143D02*
X187985714Y-124557143D01*
X187771429Y-124257143D02*
X187771429Y-125028571D01*
X187814286Y-125114286D01*
X187900000Y-125157143D01*
X187985714Y-125157143D01*
X177785714Y-129407143D02*
X177271429Y-129407143D01*
X177528571Y-129407143D02*
X177528571Y-128507143D01*
X177442857Y-128635714D01*
X177357143Y-128721429D01*
X177271429Y-128764286D01*
X178342857Y-128507143D02*
X178428572Y-128507143D01*
X178514286Y-128550000D01*
X178557143Y-128592857D01*
X178600000Y-128678571D01*
X178642857Y-128850000D01*
X178642857Y-129064286D01*
X178600000Y-129235714D01*
X178557143Y-129321429D01*
X178514286Y-129364286D01*
X178428572Y-129407143D01*
X178342857Y-129407143D01*
X178257143Y-129364286D01*
X178214286Y-129321429D01*
X178171429Y-129235714D01*
X178128572Y-129064286D01*
X178128572Y-128850000D01*
X178171429Y-128678571D01*
X178214286Y-128592857D01*
X178257143Y-128550000D01*
X178342857Y-128507143D01*
X179414286Y-128807143D02*
X179414286Y-129407143D01*
X179028572Y-128807143D02*
X179028572Y-129278571D01*
X179071429Y-129364286D01*
X179157143Y-129407143D01*
X179285715Y-129407143D01*
X179371429Y-129364286D01*
X179414286Y-129321429D01*
X180142858Y-128935714D02*
X179842858Y-128935714D01*
X179842858Y-129407143D02*
X179842858Y-128507143D01*
X180271429Y-128507143D01*
X158900000Y-135407143D02*
X158600000Y-134978571D01*
X158385715Y-135407143D02*
X158385715Y-134507143D01*
X158728572Y-134507143D01*
X158814286Y-134550000D01*
X158857143Y-134592857D01*
X158900000Y-134678571D01*
X158900000Y-134807143D01*
X158857143Y-134892857D01*
X158814286Y-134935714D01*
X158728572Y-134978571D01*
X158385715Y-134978571D01*
X159757143Y-135407143D02*
X159242858Y-135407143D01*
X159500000Y-135407143D02*
X159500000Y-134507143D01*
X159414286Y-134635714D01*
X159328572Y-134721429D01*
X159242858Y-134764286D01*
X160142858Y-135407143D02*
X160142858Y-134507143D01*
X160657143Y-135407143D02*
X160271429Y-134892857D01*
X160657143Y-134507143D02*
X160142858Y-135021429D01*
X142657143Y-126064286D02*
X143342857Y-126064286D01*
X143000000Y-126407143D02*
X143000000Y-125721429D01*
X139064286Y-125550000D02*
X138978572Y-125507143D01*
X138850001Y-125507143D01*
X138721429Y-125550000D01*
X138635715Y-125635714D01*
X138592858Y-125721429D01*
X138550001Y-125892857D01*
X138550001Y-126021429D01*
X138592858Y-126192857D01*
X138635715Y-126278571D01*
X138721429Y-126364286D01*
X138850001Y-126407143D01*
X138935715Y-126407143D01*
X139064286Y-126364286D01*
X139107143Y-126321429D01*
X139107143Y-126021429D01*
X138935715Y-126021429D01*
X139492858Y-126407143D02*
X139492858Y-125507143D01*
X140007143Y-126407143D01*
X140007143Y-125507143D01*
X140435715Y-126407143D02*
X140435715Y-125507143D01*
X140650000Y-125507143D01*
X140778572Y-125550000D01*
X140864286Y-125635714D01*
X140907143Y-125721429D01*
X140950000Y-125892857D01*
X140950000Y-126021429D01*
X140907143Y-126192857D01*
X140864286Y-126278571D01*
X140778572Y-126364286D01*
X140650000Y-126407143D01*
X140435715Y-126407143D01*
X136228570Y-131821429D02*
X136185713Y-131864286D01*
X136057142Y-131907143D01*
X135971428Y-131907143D01*
X135842856Y-131864286D01*
X135757142Y-131778571D01*
X135714285Y-131692857D01*
X135671428Y-131521429D01*
X135671428Y-131392857D01*
X135714285Y-131221429D01*
X135757142Y-131135714D01*
X135842856Y-131050000D01*
X135971428Y-131007143D01*
X136057142Y-131007143D01*
X136185713Y-131050000D01*
X136228570Y-131092857D01*
X136999999Y-131907143D02*
X136999999Y-131435714D01*
X136957142Y-131350000D01*
X136871428Y-131307143D01*
X136699999Y-131307143D01*
X136614285Y-131350000D01*
X136999999Y-131864286D02*
X136914285Y-131907143D01*
X136699999Y-131907143D01*
X136614285Y-131864286D01*
X136571428Y-131778571D01*
X136571428Y-131692857D01*
X136614285Y-131607143D01*
X136699999Y-131564286D01*
X136914285Y-131564286D01*
X136999999Y-131521429D01*
X137428571Y-131307143D02*
X137428571Y-132207143D01*
X137428571Y-131350000D02*
X137514285Y-131307143D01*
X137685714Y-131307143D01*
X137771428Y-131350000D01*
X137814285Y-131392857D01*
X137857142Y-131478571D01*
X137857142Y-131735714D01*
X137814285Y-131821429D01*
X137771428Y-131864286D01*
X137685714Y-131907143D01*
X137514285Y-131907143D01*
X137428571Y-131864286D01*
X138628571Y-131907143D02*
X138628571Y-131435714D01*
X138585714Y-131350000D01*
X138500000Y-131307143D01*
X138328571Y-131307143D01*
X138242857Y-131350000D01*
X138628571Y-131864286D02*
X138542857Y-131907143D01*
X138328571Y-131907143D01*
X138242857Y-131864286D01*
X138200000Y-131778571D01*
X138200000Y-131692857D01*
X138242857Y-131607143D01*
X138328571Y-131564286D01*
X138542857Y-131564286D01*
X138628571Y-131521429D01*
X139442857Y-131864286D02*
X139357143Y-131907143D01*
X139185714Y-131907143D01*
X139100000Y-131864286D01*
X139057143Y-131821429D01*
X139014286Y-131735714D01*
X139014286Y-131478571D01*
X139057143Y-131392857D01*
X139100000Y-131350000D01*
X139185714Y-131307143D01*
X139357143Y-131307143D01*
X139442857Y-131350000D01*
X139828572Y-131907143D02*
X139828572Y-131307143D01*
X139828572Y-131007143D02*
X139785715Y-131050000D01*
X139828572Y-131092857D01*
X139871429Y-131050000D01*
X139828572Y-131007143D01*
X139828572Y-131092857D01*
X140128571Y-131307143D02*
X140471428Y-131307143D01*
X140257143Y-131007143D02*
X140257143Y-131778571D01*
X140300000Y-131864286D01*
X140385714Y-131907143D01*
X140471428Y-131907143D01*
X140900000Y-131907143D02*
X140814286Y-131864286D01*
X140771429Y-131821429D01*
X140728572Y-131735714D01*
X140728572Y-131478571D01*
X140771429Y-131392857D01*
X140814286Y-131350000D01*
X140900000Y-131307143D01*
X141028572Y-131307143D01*
X141114286Y-131350000D01*
X141157143Y-131392857D01*
X141200000Y-131478571D01*
X141200000Y-131735714D01*
X141157143Y-131821429D01*
X141114286Y-131864286D01*
X141028572Y-131907143D01*
X140900000Y-131907143D01*
X141585715Y-131907143D02*
X141585715Y-131307143D01*
X141585715Y-131478571D02*
X141628572Y-131392857D01*
X141671429Y-131350000D01*
X141757143Y-131307143D01*
X141842858Y-131307143D01*
X142828572Y-131907143D02*
X142828572Y-131307143D01*
X142828572Y-131007143D02*
X142785715Y-131050000D01*
X142828572Y-131092857D01*
X142871429Y-131050000D01*
X142828572Y-131007143D01*
X142828572Y-131092857D01*
X143257143Y-131307143D02*
X143257143Y-131907143D01*
X143257143Y-131392857D02*
X143300000Y-131350000D01*
X143385714Y-131307143D01*
X143514286Y-131307143D01*
X143600000Y-131350000D01*
X143642857Y-131435714D01*
X143642857Y-131907143D01*
X144071429Y-131307143D02*
X144071429Y-132207143D01*
X144071429Y-131350000D02*
X144157143Y-131307143D01*
X144328572Y-131307143D01*
X144414286Y-131350000D01*
X144457143Y-131392857D01*
X144500000Y-131478571D01*
X144500000Y-131735714D01*
X144457143Y-131821429D01*
X144414286Y-131864286D01*
X144328572Y-131907143D01*
X144157143Y-131907143D01*
X144071429Y-131864286D01*
X145271429Y-131307143D02*
X145271429Y-131907143D01*
X144885715Y-131307143D02*
X144885715Y-131778571D01*
X144928572Y-131864286D01*
X145014286Y-131907143D01*
X145142858Y-131907143D01*
X145228572Y-131864286D01*
X145271429Y-131821429D01*
X145571429Y-131307143D02*
X145914286Y-131307143D01*
X145700001Y-131007143D02*
X145700001Y-131778571D01*
X145742858Y-131864286D01*
X145828572Y-131907143D01*
X145914286Y-131907143D01*
X130771428Y-131507143D02*
X130857143Y-131507143D01*
X130942857Y-131550000D01*
X130985714Y-131592857D01*
X131028571Y-131678571D01*
X131071428Y-131850000D01*
X131071428Y-132064286D01*
X131028571Y-132235714D01*
X130985714Y-132321429D01*
X130942857Y-132364286D01*
X130857143Y-132407143D01*
X130771428Y-132407143D01*
X130685714Y-132364286D01*
X130642857Y-132321429D01*
X130600000Y-132235714D01*
X130557143Y-132064286D01*
X130557143Y-131850000D01*
X130600000Y-131678571D01*
X130642857Y-131592857D01*
X130685714Y-131550000D01*
X130771428Y-131507143D01*
X131457143Y-132321429D02*
X131500000Y-132364286D01*
X131457143Y-132407143D01*
X131414286Y-132364286D01*
X131457143Y-132321429D01*
X131457143Y-132407143D01*
X132357142Y-132407143D02*
X131842857Y-132407143D01*
X132099999Y-132407143D02*
X132099999Y-131507143D01*
X132014285Y-131635714D01*
X131928571Y-131721429D01*
X131842857Y-131764286D01*
X133128571Y-131807143D02*
X133128571Y-132407143D01*
X132742857Y-131807143D02*
X132742857Y-132278571D01*
X132785714Y-132364286D01*
X132871428Y-132407143D01*
X133000000Y-132407143D01*
X133085714Y-132364286D01*
X133128571Y-132321429D01*
X133857143Y-131935714D02*
X133557143Y-131935714D01*
X133557143Y-132407143D02*
X133557143Y-131507143D01*
X133985714Y-131507143D01*
X137650000Y-121907143D02*
X137350000Y-121478571D01*
X137135715Y-121907143D02*
X137135715Y-121007143D01*
X137478572Y-121007143D01*
X137564286Y-121050000D01*
X137607143Y-121092857D01*
X137650000Y-121178571D01*
X137650000Y-121307143D01*
X137607143Y-121392857D01*
X137564286Y-121435714D01*
X137478572Y-121478571D01*
X137135715Y-121478571D01*
X138507143Y-121907143D02*
X137992858Y-121907143D01*
X138250000Y-121907143D02*
X138250000Y-121007143D01*
X138164286Y-121135714D01*
X138078572Y-121221429D01*
X137992858Y-121264286D01*
X138892858Y-121907143D02*
X138892858Y-121007143D01*
X139407143Y-121907143D02*
X139021429Y-121392857D01*
X139407143Y-121007143D02*
X138892858Y-121521429D01*
X145135714Y-92307143D02*
X145478571Y-92307143D01*
X145264286Y-92907143D02*
X145264286Y-92135714D01*
X145307143Y-92050000D01*
X145392857Y-92007143D01*
X145478571Y-92007143D01*
X145907143Y-92907143D02*
X145821429Y-92864286D01*
X145778572Y-92821429D01*
X145735715Y-92735714D01*
X145735715Y-92478571D01*
X145778572Y-92392857D01*
X145821429Y-92350000D01*
X145907143Y-92307143D01*
X146035715Y-92307143D01*
X146121429Y-92350000D01*
X146164286Y-92392857D01*
X146207143Y-92478571D01*
X146207143Y-92735714D01*
X146164286Y-92821429D01*
X146121429Y-92864286D01*
X146035715Y-92907143D01*
X145907143Y-92907143D01*
X146464286Y-92307143D02*
X146807143Y-92307143D01*
X146592858Y-92007143D02*
X146592858Y-92778571D01*
X146635715Y-92864286D01*
X146721429Y-92907143D01*
X146807143Y-92907143D01*
X147235715Y-92907143D02*
X147150001Y-92864286D01*
X147107144Y-92821429D01*
X147064287Y-92735714D01*
X147064287Y-92478571D01*
X147107144Y-92392857D01*
X147150001Y-92350000D01*
X147235715Y-92307143D01*
X147364287Y-92307143D01*
X147450001Y-92350000D01*
X147492858Y-92392857D01*
X147535715Y-92478571D01*
X147535715Y-92735714D01*
X147492858Y-92821429D01*
X147450001Y-92864286D01*
X147364287Y-92907143D01*
X147235715Y-92907143D01*
X147707144Y-92992857D02*
X148392858Y-92992857D01*
X148607144Y-92907143D02*
X148607144Y-92307143D01*
X148607144Y-92478571D02*
X148650001Y-92392857D01*
X148692858Y-92350000D01*
X148778572Y-92307143D01*
X148864287Y-92307143D01*
X149507144Y-92864286D02*
X149421430Y-92907143D01*
X149250001Y-92907143D01*
X149164287Y-92864286D01*
X149121430Y-92778571D01*
X149121430Y-92435714D01*
X149164287Y-92350000D01*
X149250001Y-92307143D01*
X149421430Y-92307143D01*
X149507144Y-92350000D01*
X149550001Y-92435714D01*
X149550001Y-92521429D01*
X149121430Y-92607143D01*
X149892859Y-92864286D02*
X149978573Y-92907143D01*
X150150001Y-92907143D01*
X150235716Y-92864286D01*
X150278573Y-92778571D01*
X150278573Y-92735714D01*
X150235716Y-92650000D01*
X150150001Y-92607143D01*
X150021430Y-92607143D01*
X149935716Y-92564286D01*
X149892859Y-92478571D01*
X149892859Y-92435714D01*
X149935716Y-92350000D01*
X150021430Y-92307143D01*
X150150001Y-92307143D01*
X150235716Y-92350000D01*
D12*
X132325000Y-126001000D02*
X132325000Y-130999000D01*
X132465000Y-126009000D02*
X132465000Y-130991000D01*
X132605000Y-126025000D02*
X132605000Y-128405000D01*
X132605000Y-128595000D02*
X132605000Y-130975000D01*
X132745000Y-126049000D02*
X132745000Y-128010000D01*
X132745000Y-128990000D02*
X132745000Y-130951000D01*
X132885000Y-126082000D02*
X132885000Y-127843000D01*
X132885000Y-129157000D02*
X132885000Y-130918000D01*
X133025000Y-126123000D02*
X133025000Y-127736000D01*
X133025000Y-129264000D02*
X133025000Y-130877000D01*
X133165000Y-126173000D02*
X133165000Y-127665000D01*
X133165000Y-129335000D02*
X133165000Y-130827000D01*
X133305000Y-126234000D02*
X133305000Y-127621000D01*
X133305000Y-129379000D02*
X133305000Y-130766000D01*
X133445000Y-126304000D02*
X133445000Y-127602000D01*
X133445000Y-129398000D02*
X133445000Y-130696000D01*
X133585000Y-126386000D02*
X133585000Y-127604000D01*
X133585000Y-129396000D02*
X133585000Y-130614000D01*
X133725000Y-126481000D02*
X133725000Y-127629000D01*
X133725000Y-129371000D02*
X133725000Y-130519000D01*
X133865000Y-126592000D02*
X133865000Y-127677000D01*
X133865000Y-129323000D02*
X133865000Y-130408000D01*
X134005000Y-126720000D02*
X134005000Y-127755000D01*
X134005000Y-129245000D02*
X134005000Y-130280000D01*
X134145000Y-126869000D02*
X134145000Y-127872000D01*
X134145000Y-129128000D02*
X134145000Y-130131000D01*
X134285000Y-127048000D02*
X134285000Y-128060000D01*
X134285000Y-128940000D02*
X134285000Y-129952000D01*
X134425000Y-127267000D02*
X134425000Y-129733000D01*
X134565000Y-127556000D02*
X134565000Y-129444000D01*
X134705000Y-128028000D02*
X134705000Y-128972000D01*
X134400000Y-128500000D02*
G75*
G03X134400000Y-128500000I-900000J0D01*
G01*
X134787500Y-128500000D02*
G75*
G03X134787500Y-128500000I-2537500J0D01*
G01*
X181213400Y-132693800D02*
X176215400Y-132693800D01*
X181205400Y-132833800D02*
X176223400Y-132833800D01*
X181189400Y-132973800D02*
X178809400Y-132973800D01*
X178619400Y-132973800D02*
X176239400Y-132973800D01*
X181165400Y-133113800D02*
X179204400Y-133113800D01*
X178224400Y-133113800D02*
X176263400Y-133113800D01*
X181132400Y-133253800D02*
X179371400Y-133253800D01*
X178057400Y-133253800D02*
X176296400Y-133253800D01*
X181091400Y-133393800D02*
X179478400Y-133393800D01*
X177950400Y-133393800D02*
X176337400Y-133393800D01*
X181041400Y-133533800D02*
X179549400Y-133533800D01*
X177879400Y-133533800D02*
X176387400Y-133533800D01*
X180980400Y-133673800D02*
X179593400Y-133673800D01*
X177835400Y-133673800D02*
X176448400Y-133673800D01*
X180910400Y-133813800D02*
X179612400Y-133813800D01*
X177816400Y-133813800D02*
X176518400Y-133813800D01*
X180828400Y-133953800D02*
X179610400Y-133953800D01*
X177818400Y-133953800D02*
X176600400Y-133953800D01*
X180733400Y-134093800D02*
X179585400Y-134093800D01*
X177843400Y-134093800D02*
X176695400Y-134093800D01*
X180622400Y-134233800D02*
X179537400Y-134233800D01*
X177891400Y-134233800D02*
X176806400Y-134233800D01*
X180494400Y-134373800D02*
X179459400Y-134373800D01*
X177969400Y-134373800D02*
X176934400Y-134373800D01*
X180345400Y-134513800D02*
X179342400Y-134513800D01*
X178086400Y-134513800D02*
X177083400Y-134513800D01*
X180166400Y-134653800D02*
X179154400Y-134653800D01*
X178274400Y-134653800D02*
X177262400Y-134653800D01*
X179947400Y-134793800D02*
X177481400Y-134793800D01*
X179658400Y-134933800D02*
X177770400Y-134933800D01*
X179186400Y-135073800D02*
X178242400Y-135073800D01*
X179614400Y-133868800D02*
G75*
G03X179614400Y-133868800I-900000J0D01*
G01*
X181251900Y-132618800D02*
G75*
G03X181251900Y-132618800I-2537500J0D01*
G01*
X144225400Y-112004200D02*
X144225400Y-117002200D01*
X144365400Y-112012200D02*
X144365400Y-116994200D01*
X144505400Y-112028200D02*
X144505400Y-114408200D01*
X144505400Y-114598200D02*
X144505400Y-116978200D01*
X144645400Y-112052200D02*
X144645400Y-114013200D01*
X144645400Y-114993200D02*
X144645400Y-116954200D01*
X144785400Y-112085200D02*
X144785400Y-113846200D01*
X144785400Y-115160200D02*
X144785400Y-116921200D01*
X144925400Y-112126200D02*
X144925400Y-113739200D01*
X144925400Y-115267200D02*
X144925400Y-116880200D01*
X145065400Y-112176200D02*
X145065400Y-113668200D01*
X145065400Y-115338200D02*
X145065400Y-116830200D01*
X145205400Y-112237200D02*
X145205400Y-113624200D01*
X145205400Y-115382200D02*
X145205400Y-116769200D01*
X145345400Y-112307200D02*
X145345400Y-113605200D01*
X145345400Y-115401200D02*
X145345400Y-116699200D01*
X145485400Y-112389200D02*
X145485400Y-113607200D01*
X145485400Y-115399200D02*
X145485400Y-116617200D01*
X145625400Y-112484200D02*
X145625400Y-113632200D01*
X145625400Y-115374200D02*
X145625400Y-116522200D01*
X145765400Y-112595200D02*
X145765400Y-113680200D01*
X145765400Y-115326200D02*
X145765400Y-116411200D01*
X145905400Y-112723200D02*
X145905400Y-113758200D01*
X145905400Y-115248200D02*
X145905400Y-116283200D01*
X146045400Y-112872200D02*
X146045400Y-113875200D01*
X146045400Y-115131200D02*
X146045400Y-116134200D01*
X146185400Y-113051200D02*
X146185400Y-114063200D01*
X146185400Y-114943200D02*
X146185400Y-115955200D01*
X146325400Y-113270200D02*
X146325400Y-115736200D01*
X146465400Y-113559200D02*
X146465400Y-115447200D01*
X146605400Y-114031200D02*
X146605400Y-114975200D01*
X146300400Y-114503200D02*
G75*
G03X146300400Y-114503200I-900000J0D01*
G01*
X146687900Y-114503200D02*
G75*
G03X146687900Y-114503200I-2537500J0D01*
G01*
D13*
X164857808Y-111730535D02*
G75*
G03X165014716Y-108498200I-1078608J1672335D01*
G01*
X162700592Y-111730535D02*
G75*
G02X162543684Y-108498200I1078608J1672335D01*
G01*
X164859037Y-111099330D02*
G75*
G03X164859200Y-109017239I-1079837J1041130D01*
G01*
X162699363Y-111099330D02*
G75*
G02X162699200Y-109017239I1079837J1041130D01*
G01*
X165015200Y-108498200D02*
X164859200Y-108498200D01*
X162699200Y-108498200D02*
X162543200Y-108498200D01*
X119901592Y-117936265D02*
G75*
G03X119744684Y-121168600I1078608J-1672335D01*
G01*
X122058808Y-117936265D02*
G75*
G02X122215716Y-121168600I-1078608J-1672335D01*
G01*
X119900363Y-118567470D02*
G75*
G03X119900200Y-120649561I1079837J-1041130D01*
G01*
X122060037Y-118567470D02*
G75*
G02X122060200Y-120649561I-1079837J-1041130D01*
G01*
X119744200Y-121168600D02*
X119900200Y-121168600D01*
X122060200Y-121168600D02*
X122216200Y-121168600D01*
D12*
X113900000Y-130810000D02*
X122730000Y-130810000D01*
X113900000Y-128270000D02*
X113900000Y-130810000D01*
X122730000Y-128270000D02*
X113900000Y-128270000D01*
X122730000Y-128270000D02*
X122730000Y-130810000D01*
X122730000Y-125730000D02*
X122730000Y-128270000D01*
X125400000Y-127000000D02*
X125400000Y-125450000D01*
X125400000Y-125450000D02*
X124000000Y-125450000D01*
X122730000Y-125730000D02*
X113900000Y-125730000D01*
X113900000Y-125730000D02*
X113900000Y-128270000D01*
X113900000Y-128270000D02*
X122730000Y-128270000D01*
X144044000Y-127177200D02*
X142494000Y-127177200D01*
X138684000Y-127457200D02*
X141224000Y-127457200D01*
X141224000Y-127457200D02*
X141224000Y-129997200D01*
X142494000Y-130277200D02*
X144044000Y-130277200D01*
X144044000Y-130277200D02*
X144044000Y-127177200D01*
X141224000Y-129997200D02*
X138684000Y-129997200D01*
X138684000Y-129997200D02*
X138684000Y-127457200D01*
X186156600Y-116027200D02*
X186156600Y-113995200D01*
X186156600Y-113995200D02*
X189712600Y-113995200D01*
X189712600Y-113995200D02*
X189712600Y-121615200D01*
X189712600Y-121615200D02*
X186156600Y-121615200D01*
X186156600Y-121615200D02*
X186156600Y-119583200D01*
X190728600Y-112725200D02*
X190728600Y-111709200D01*
X190728600Y-123901200D02*
X190728600Y-122885200D01*
X192760600Y-115265200D02*
X191236600Y-115265200D01*
X191236600Y-120345200D02*
X192760600Y-120345200D01*
X191998600Y-115265200D02*
X191998600Y-120345200D01*
X190728600Y-112725200D02*
X190982600Y-112725200D01*
X190982600Y-112725200D02*
X191236600Y-112725200D01*
X191236600Y-112725200D02*
X191236600Y-122885200D01*
X191236600Y-122885200D02*
X190728600Y-122885200D01*
X192760600Y-115265200D02*
X192760600Y-120345200D01*
X178536600Y-111709200D02*
X190728600Y-111709200D01*
X190728600Y-123901200D02*
X178536600Y-123901200D01*
X178536600Y-123901200D02*
X178536600Y-111709200D01*
D14*
G36*
X155921527Y-91289904D02*
X155924622Y-91416783D01*
X155526492Y-91754283D01*
X155437110Y-91824669D01*
X154993574Y-92268449D01*
X154785239Y-92816076D01*
X154732642Y-93678658D01*
X154732632Y-93696248D01*
X154732632Y-95013685D01*
X158753346Y-95013685D01*
X158573250Y-94296125D01*
X158479806Y-93819159D01*
X158594492Y-93781620D01*
X158807462Y-93961915D01*
X159082976Y-94364680D01*
X159080478Y-94577974D01*
X159177733Y-94875735D01*
X159582445Y-95377382D01*
X159910646Y-95700658D01*
X160587323Y-96471049D01*
X160877027Y-97151993D01*
X160882106Y-97236323D01*
X161086626Y-97836449D01*
X161739124Y-98469785D01*
X161956422Y-98626514D01*
X162730227Y-99103924D01*
X163143528Y-99205351D01*
X163183735Y-99052287D01*
X163969351Y-99052287D01*
X164025197Y-99780896D01*
X164141103Y-100723488D01*
X164294179Y-101724977D01*
X164461536Y-102630275D01*
X164620284Y-103284295D01*
X164705601Y-103497545D01*
X164979606Y-103532028D01*
X165410743Y-103234362D01*
X165883145Y-102732196D01*
X166280947Y-102153180D01*
X166488280Y-101624965D01*
X166496842Y-101524138D01*
X166349836Y-100936372D01*
X165972055Y-100247756D01*
X165458356Y-99565703D01*
X164903595Y-98997626D01*
X164402628Y-98650940D01*
X164050313Y-98633057D01*
X163996455Y-98692749D01*
X163969351Y-99052287D01*
X163183735Y-99052287D01*
X163215499Y-98931365D01*
X163132425Y-98661426D01*
X162762348Y-98319668D01*
X162324026Y-98222106D01*
X161835412Y-98126868D01*
X161684211Y-97954737D01*
X161897784Y-97703505D01*
X162459048Y-97687774D01*
X163248824Y-97882328D01*
X164147929Y-98261952D01*
X164744118Y-98602135D01*
X165592151Y-99216895D01*
X166163206Y-99860973D01*
X166527462Y-100672165D01*
X166755094Y-101788269D01*
X166865376Y-102767369D01*
X166916243Y-103463049D01*
X166908808Y-103784822D01*
X166857925Y-103703158D01*
X166618513Y-103110805D01*
X166295334Y-102988847D01*
X165802653Y-103329008D01*
X165553587Y-103577267D01*
X165085872Y-104092553D01*
X164967657Y-104356557D01*
X165166440Y-104492190D01*
X165301349Y-104531137D01*
X165592760Y-104685618D01*
X165765118Y-105038376D01*
X165857263Y-105714272D01*
X165894522Y-106438130D01*
X165987015Y-107479301D01*
X166159859Y-108280245D01*
X166326245Y-108627602D01*
X166634814Y-109174320D01*
X166826033Y-109863395D01*
X166879022Y-110518443D01*
X166772898Y-110963087D01*
X166613717Y-111055790D01*
X166277765Y-111271465D01*
X166229474Y-111473649D01*
X166432177Y-111790575D01*
X166831053Y-111807859D01*
X167201728Y-111809113D01*
X167378019Y-112037049D01*
X167430473Y-112622953D01*
X167432632Y-112927369D01*
X167432632Y-114130527D01*
X166095790Y-114166314D01*
X165291113Y-114164144D01*
X164828937Y-114030846D01*
X164517587Y-113659746D01*
X164351863Y-113328421D01*
X165694737Y-113328421D01*
X165927161Y-113650979D01*
X166363158Y-113729474D01*
X166900754Y-113590020D01*
X167031579Y-113328421D01*
X166799155Y-113005864D01*
X166363158Y-112927369D01*
X165825563Y-113066823D01*
X165694737Y-113328421D01*
X164351863Y-113328421D01*
X164259906Y-113144577D01*
X164032001Y-112604725D01*
X163910411Y-112090053D01*
X163897543Y-111724211D01*
X164892632Y-111724211D01*
X165106651Y-112078680D01*
X165293685Y-112125263D01*
X165648153Y-111911244D01*
X165694737Y-111724211D01*
X165480718Y-111369742D01*
X165293685Y-111323158D01*
X164939216Y-111537178D01*
X164892632Y-111724211D01*
X163897543Y-111724211D01*
X163888115Y-111456198D01*
X163958090Y-110558800D01*
X163981330Y-110361026D01*
X164953868Y-110361026D01*
X165264571Y-110511152D01*
X165529869Y-110521053D01*
X166028426Y-110440505D01*
X166211342Y-110089014D01*
X166229474Y-109718948D01*
X166145441Y-109131832D01*
X165832773Y-108925117D01*
X165694737Y-108916842D01*
X165258127Y-109001137D01*
X165156349Y-109117369D01*
X165090365Y-109511630D01*
X164991482Y-109919474D01*
X164953868Y-110361026D01*
X163981330Y-110361026D01*
X164082591Y-109499316D01*
X164246091Y-108332972D01*
X164420025Y-107333335D01*
X164577877Y-106643407D01*
X164648475Y-106447312D01*
X164670215Y-106376842D01*
X165212123Y-106376842D01*
X165241023Y-106833461D01*
X165324722Y-106873662D01*
X165335377Y-106849826D01*
X165388268Y-106319050D01*
X165345284Y-106047720D01*
X165260176Y-105938687D01*
X165213887Y-106293814D01*
X165212123Y-106376842D01*
X164670215Y-106376842D01*
X164867577Y-105737122D01*
X164828462Y-105088651D01*
X164607475Y-104761638D01*
X164221755Y-104711869D01*
X164007922Y-105160098D01*
X163991903Y-105255897D01*
X163776374Y-105815355D01*
X163641787Y-106015659D01*
X163384806Y-106520137D01*
X163165030Y-107242535D01*
X163158590Y-107272094D01*
X162967011Y-108167345D01*
X162472059Y-107353463D01*
X161625638Y-106371483D01*
X160529762Y-105849330D01*
X159745790Y-105740166D01*
X159058949Y-105764363D01*
X158773082Y-105957745D01*
X158743158Y-106131445D01*
X158872867Y-106432253D01*
X159344249Y-106478261D01*
X159550338Y-106452750D01*
X160244945Y-106472768D01*
X160641119Y-106676000D01*
X160766253Y-107067384D01*
X160891864Y-107872154D01*
X161002594Y-108969192D01*
X161077275Y-110115280D01*
X161155893Y-111347497D01*
X161255121Y-112372692D01*
X161361879Y-113079341D01*
X161457020Y-113353253D01*
X161707642Y-113610449D01*
X161471688Y-113749705D01*
X160786272Y-113761221D01*
X160146842Y-113699282D01*
X159143853Y-113607074D01*
X157846119Y-113532829D01*
X156493609Y-113489430D01*
X156149602Y-113484667D01*
X154951734Y-113488709D01*
X154178588Y-113539244D01*
X153720917Y-113654075D01*
X153469478Y-113851008D01*
X153417206Y-113930000D01*
X153197076Y-114189125D01*
X153136552Y-114039700D01*
X153318085Y-113607676D01*
X153654792Y-113237594D01*
X153901580Y-112960809D01*
X154061877Y-112555569D01*
X154156313Y-111908355D01*
X154167431Y-111681795D01*
X155000000Y-111681795D01*
X155101356Y-111905116D01*
X155469846Y-112051202D01*
X156202100Y-112143933D01*
X157072106Y-112193895D01*
X158153423Y-112244905D01*
X159090497Y-112295237D01*
X159700189Y-112334963D01*
X159745790Y-112338826D01*
X160240995Y-112236779D01*
X160347369Y-111991579D01*
X160124465Y-111664964D01*
X159812632Y-111590527D01*
X159377145Y-111423349D01*
X159277895Y-111189474D01*
X159154194Y-110956071D01*
X158715931Y-110831057D01*
X157862365Y-110789115D01*
X157682076Y-110788421D01*
X156776135Y-110815599D01*
X156314990Y-110911904D01*
X156210768Y-111099499D01*
X156227066Y-111155364D01*
X156194978Y-111405129D01*
X155754007Y-111404328D01*
X155683937Y-111391563D01*
X155156139Y-111384980D01*
X155000011Y-111677683D01*
X155000000Y-111681795D01*
X154167431Y-111681795D01*
X154205521Y-110905649D01*
X154221416Y-110120000D01*
X155267369Y-110120000D01*
X155353436Y-110303143D01*
X155669186Y-110422282D01*
X156300942Y-110489750D01*
X157335024Y-110517879D01*
X158074737Y-110521053D01*
X159356736Y-110508758D01*
X160190712Y-110463650D01*
X160662987Y-110373400D01*
X160859885Y-110225674D01*
X160882106Y-110120000D01*
X160796038Y-109936858D01*
X160480288Y-109817718D01*
X159848532Y-109750250D01*
X158814450Y-109722122D01*
X158074737Y-109718948D01*
X156792739Y-109731243D01*
X155958763Y-109776350D01*
X155486487Y-109866601D01*
X155289589Y-110014327D01*
X155267369Y-110120000D01*
X154221416Y-110120000D01*
X154244751Y-108570004D01*
X155292656Y-108570004D01*
X155358992Y-108808906D01*
X155652681Y-109050527D01*
X156355545Y-109324516D01*
X157541210Y-109445748D01*
X157941053Y-109451579D01*
X159252012Y-109372633D01*
X160088628Y-109139446D01*
X160229425Y-109050527D01*
X160589449Y-108728944D01*
X160523114Y-108490042D01*
X160229425Y-108248421D01*
X159526561Y-107974431D01*
X158340896Y-107853200D01*
X157941053Y-107847369D01*
X156630094Y-107926315D01*
X155793478Y-108159502D01*
X155652681Y-108248421D01*
X155292656Y-108570004D01*
X154244751Y-108570004D01*
X154261669Y-107446316D01*
X153593351Y-107518263D01*
X153207224Y-107509619D01*
X152951339Y-107303065D01*
X152743393Y-106782265D01*
X152552997Y-106047737D01*
X152253790Y-105066233D01*
X151957738Y-104612470D01*
X151820298Y-104582868D01*
X151372683Y-104547634D01*
X150628763Y-104371921D01*
X150145137Y-104223868D01*
X149323676Y-103998939D01*
X148677359Y-103906609D01*
X148463631Y-103928097D01*
X148175446Y-104267100D01*
X147862931Y-104980714D01*
X147573045Y-105913587D01*
X147352746Y-106910368D01*
X147248991Y-107815704D01*
X147246316Y-107955361D01*
X147180409Y-108577909D01*
X146904834Y-108896398D01*
X146302808Y-108982911D01*
X145642106Y-108945564D01*
X145598750Y-109041096D01*
X145942257Y-109322921D01*
X146243061Y-109515464D01*
X146935890Y-110046011D01*
X147102076Y-110483914D01*
X147090335Y-110521053D01*
X146965388Y-110991172D01*
X146801788Y-111793717D01*
X146674393Y-112519549D01*
X146489743Y-113519861D01*
X146335764Y-114109433D01*
X146227042Y-114251103D01*
X146178162Y-113907705D01*
X146176842Y-113787321D01*
X145973354Y-113202498D01*
X145708948Y-112948785D01*
X145418802Y-112743101D01*
X145608406Y-112675038D01*
X145842632Y-112668131D01*
X146327942Y-112508943D01*
X146444211Y-112258948D01*
X146211787Y-111936390D01*
X145775790Y-111857895D01*
X145228352Y-112005070D01*
X145107369Y-112293720D01*
X145014103Y-112556599D01*
X144649625Y-112645452D01*
X143904211Y-112593931D01*
X143124739Y-112549088D01*
X142761707Y-112657864D01*
X142701053Y-112826527D01*
X142937617Y-113114102D01*
X143436316Y-113213529D01*
X143911897Y-113246024D01*
X143895100Y-113340826D01*
X143636842Y-113462106D01*
X143087583Y-113665845D01*
X142737003Y-113655392D01*
X142540755Y-113353431D01*
X142454490Y-112682649D01*
X142442254Y-112020185D01*
X143235790Y-112020185D01*
X143395244Y-112322158D01*
X143658710Y-112287553D01*
X144261009Y-112140521D01*
X144460815Y-112125263D01*
X144789774Y-111908642D01*
X144840000Y-111695605D01*
X144680546Y-111393632D01*
X144417080Y-111428237D01*
X143814781Y-111575269D01*
X143614975Y-111590527D01*
X143286016Y-111807148D01*
X143235790Y-112020185D01*
X142442254Y-112020185D01*
X142433860Y-111565732D01*
X142433685Y-111364597D01*
X142441427Y-110814981D01*
X143866491Y-110814981D01*
X143983576Y-111150857D01*
X144322274Y-111133638D01*
X144462751Y-111036035D01*
X144782501Y-110598526D01*
X145729602Y-110598526D01*
X145924613Y-110971212D01*
X146176842Y-111055790D01*
X146519753Y-110861029D01*
X146592293Y-110765125D01*
X146623527Y-110357368D01*
X146340645Y-110083800D01*
X145952639Y-110116833D01*
X145879297Y-110176914D01*
X145729602Y-110598526D01*
X144782501Y-110598526D01*
X144788589Y-110590197D01*
X144840000Y-110370410D01*
X144688287Y-109929575D01*
X144349634Y-109908505D01*
X144038946Y-110251722D01*
X143866491Y-110814981D01*
X142441427Y-110814981D01*
X142450306Y-110184745D01*
X142515909Y-109413253D01*
X142654103Y-108924347D01*
X142785205Y-108738597D01*
X144661755Y-108738597D01*
X144698456Y-108897547D01*
X144840000Y-108916842D01*
X145060075Y-108819016D01*
X145018246Y-108738597D01*
X144700942Y-108706598D01*
X144661755Y-108738597D01*
X142785205Y-108738597D01*
X142888495Y-108592253D01*
X142968421Y-108515790D01*
X143369676Y-108040589D01*
X143503158Y-107702996D01*
X143524892Y-107662896D01*
X144305263Y-107662896D01*
X144557106Y-108080595D01*
X145311124Y-108319629D01*
X145575263Y-108351090D01*
X145738828Y-108248421D01*
X146444211Y-108248421D01*
X146588582Y-108604227D01*
X146711579Y-108649474D01*
X146948783Y-108432917D01*
X146978948Y-108248421D01*
X146834576Y-107892616D01*
X146711579Y-107847369D01*
X146474376Y-108063926D01*
X146444211Y-108248421D01*
X145738828Y-108248421D01*
X145869873Y-108166165D01*
X145909474Y-107981053D01*
X145800547Y-107622589D01*
X145708948Y-107576349D01*
X145314687Y-107510365D01*
X144906842Y-107411482D01*
X144429949Y-107388225D01*
X144305263Y-107662896D01*
X143524892Y-107662896D01*
X143706370Y-107328068D01*
X144130529Y-106963063D01*
X144664091Y-106338739D01*
X144799810Y-106008777D01*
X145659244Y-106008777D01*
X145743140Y-106237245D01*
X146127738Y-106441355D01*
X146490765Y-106209555D01*
X146874133Y-105503711D01*
X147056712Y-105042159D01*
X147329257Y-104153085D01*
X147316584Y-103618443D01*
X147001210Y-103329782D01*
X146768518Y-103254361D01*
X146484983Y-103427492D01*
X146174030Y-103958976D01*
X145893917Y-104679335D01*
X145702903Y-105419094D01*
X145659244Y-106008777D01*
X144799810Y-106008777D01*
X145131927Y-105201335D01*
X145226632Y-104881444D01*
X145695365Y-103210895D01*
X145099368Y-102761333D01*
X144764422Y-102479813D01*
X144638181Y-102192901D01*
X144707933Y-101733393D01*
X144960541Y-100935360D01*
X145234985Y-100174815D01*
X145457227Y-99674938D01*
X145547926Y-99558948D01*
X145576253Y-99772921D01*
X145478364Y-100160527D01*
X145300987Y-100905349D01*
X145218830Y-101508651D01*
X145253115Y-101993665D01*
X145439055Y-102035952D01*
X145727426Y-101688355D01*
X146069006Y-101003718D01*
X146323114Y-100323155D01*
X146587617Y-99599852D01*
X146795267Y-99162490D01*
X146873196Y-99096705D01*
X146849318Y-99384754D01*
X146680167Y-100027860D01*
X146441929Y-100768736D01*
X146190371Y-101615209D01*
X146074399Y-102252416D01*
X146107027Y-102515967D01*
X146435169Y-102673936D01*
X147150489Y-102949236D01*
X148130867Y-103296219D01*
X148770382Y-103511523D01*
X150031478Y-103904729D01*
X150883918Y-104086087D01*
X151416136Y-104040835D01*
X151716567Y-103754212D01*
X151873647Y-103211457D01*
X151907188Y-102987939D01*
X152050647Y-102383457D01*
X152299753Y-101690071D01*
X152588982Y-101049686D01*
X152852809Y-100604207D01*
X153025710Y-100495538D01*
X153043634Y-100526769D01*
X153025523Y-100942760D01*
X152856660Y-101646189D01*
X152743984Y-101997295D01*
X152523994Y-102798928D01*
X152472849Y-103585992D01*
X152581549Y-104593323D01*
X152632514Y-104906316D01*
X152851928Y-106061677D01*
X153082824Y-106756412D01*
X153400106Y-107060859D01*
X153878681Y-107045354D01*
X154593452Y-106780234D01*
X154617279Y-106770037D01*
X155336917Y-106487454D01*
X155693624Y-106437160D01*
X155800600Y-106608040D01*
X155802106Y-106653712D01*
X156026262Y-106923152D01*
X156564565Y-107050936D01*
X157215761Y-107037920D01*
X157778601Y-106884960D01*
X158037740Y-106644211D01*
X158024987Y-106384459D01*
X157658148Y-106259933D01*
X157063714Y-106229381D01*
X155935790Y-106215604D01*
X156871579Y-105854632D01*
X157628347Y-105570326D01*
X158236061Y-105354498D01*
X158284869Y-105338378D01*
X158492656Y-105198862D01*
X158417700Y-104939461D01*
X158012532Y-104473688D01*
X157573357Y-104042074D01*
X157356142Y-103773823D01*
X158876117Y-103773823D01*
X159196227Y-104074498D01*
X159916730Y-104334717D01*
X160521915Y-104284060D01*
X160755660Y-104092499D01*
X160754698Y-103672515D01*
X160414334Y-103259920D01*
X159899528Y-103039745D01*
X159812632Y-103034737D01*
X159244431Y-103227562D01*
X159028439Y-103414207D01*
X158876117Y-103773823D01*
X157356142Y-103773823D01*
X156591498Y-102829525D01*
X156128569Y-101552082D01*
X156128779Y-101544860D01*
X156967379Y-101544860D01*
X157178322Y-102267713D01*
X157259883Y-102452497D01*
X157568146Y-103054062D01*
X157775661Y-103230178D01*
X158001104Y-103043037D01*
X158110010Y-102898030D01*
X158385726Y-102281424D01*
X158419038Y-101864160D01*
X158148443Y-101338486D01*
X157743812Y-100962842D01*
X157292000Y-100714525D01*
X157068162Y-100811916D01*
X156970618Y-101023346D01*
X156967379Y-101544860D01*
X156128779Y-101544860D01*
X156158637Y-100518420D01*
X158016439Y-100518420D01*
X158315484Y-100866373D01*
X158678856Y-101581834D01*
X158687293Y-102048870D01*
X158656791Y-102461245D01*
X158871548Y-102623339D01*
X159466183Y-102621563D01*
X159568472Y-102614512D01*
X160366902Y-102659257D01*
X161002447Y-102862805D01*
X161060224Y-102900482D01*
X161622106Y-103084244D01*
X162041545Y-102805775D01*
X162218252Y-102135917D01*
X162218948Y-102081989D01*
X162097936Y-101465510D01*
X161786969Y-101315613D01*
X161364150Y-101664789D01*
X161329985Y-101712177D01*
X160990756Y-102008129D01*
X160783927Y-101887401D01*
X160785522Y-101465068D01*
X160925619Y-101100096D01*
X160990777Y-100741860D01*
X160679118Y-100455364D01*
X160287911Y-100274593D01*
X159688662Y-100062600D01*
X159411292Y-100097922D01*
X159320712Y-100293768D01*
X159065239Y-100548067D01*
X158525867Y-100497644D01*
X158041862Y-100395877D01*
X158016439Y-100518420D01*
X156158637Y-100518420D01*
X156169021Y-100161463D01*
X156232687Y-99879065D01*
X156615536Y-98998879D01*
X157174848Y-98558455D01*
X157812068Y-98587965D01*
X158133659Y-98753979D01*
X158031256Y-98958709D01*
X157781567Y-99156749D01*
X157481278Y-99418587D01*
X157584539Y-99525748D01*
X158141579Y-99550444D01*
X158808989Y-99468991D01*
X158979336Y-99195755D01*
X158660699Y-98714392D01*
X158590376Y-98642256D01*
X158313300Y-98322006D01*
X158438425Y-98226777D01*
X158603654Y-98222106D01*
X159302776Y-98391526D01*
X160196754Y-98832126D01*
X161096962Y-99442408D01*
X161480355Y-99769988D01*
X162162886Y-100746103D01*
X162442640Y-101914289D01*
X162320381Y-103115763D01*
X161796872Y-104191741D01*
X161457271Y-104568274D01*
X160755982Y-105218207D01*
X161685828Y-105977110D01*
X162410194Y-106459876D01*
X162869184Y-106517933D01*
X162912907Y-106489332D01*
X163150789Y-106045905D01*
X163362901Y-105225439D01*
X163528388Y-104185607D01*
X163626393Y-103084085D01*
X163636060Y-102078547D01*
X163574219Y-101489700D01*
X163119366Y-100208382D01*
X162272640Y-99263301D01*
X161627825Y-98861368D01*
X160954530Y-98232851D01*
X160614737Y-97420000D01*
X160280825Y-96619255D01*
X159729468Y-96077666D01*
X158873255Y-95752707D01*
X157624774Y-95601853D01*
X156829453Y-95578459D01*
X155617419Y-95604819D01*
X154857299Y-95721828D01*
X154474686Y-95938120D01*
X154028888Y-96192094D01*
X153779548Y-96173209D01*
X153405153Y-96244782D01*
X153184931Y-96628961D01*
X153235491Y-97104936D01*
X153262216Y-97152811D01*
X153577913Y-97291991D01*
X153753803Y-97190360D01*
X154269129Y-97101089D01*
X154866316Y-97289346D01*
X155668421Y-97643938D01*
X154665790Y-97665653D01*
X154008920Y-97715938D01*
X153727871Y-97925528D01*
X153663881Y-98440856D01*
X153663158Y-98590420D01*
X153550813Y-99308897D01*
X153278768Y-99811712D01*
X153262106Y-99826316D01*
X153040184Y-99946162D01*
X152918552Y-99777905D01*
X152868633Y-99230953D01*
X152861053Y-98554950D01*
X152804514Y-97551132D01*
X152650227Y-96876591D01*
X152526842Y-96688255D01*
X151791019Y-96363499D01*
X150796487Y-96229655D01*
X149794078Y-96315421D01*
X149630525Y-96356867D01*
X148849356Y-96714155D01*
X148085478Y-97271948D01*
X147493337Y-97894390D01*
X147227380Y-98445625D01*
X147225208Y-98472654D01*
X147159414Y-98701802D01*
X147069243Y-98556316D01*
X146744624Y-98242748D01*
X146332017Y-98339648D01*
X146036763Y-98776991D01*
X145853240Y-99165340D01*
X145739918Y-99211146D01*
X145766250Y-98917902D01*
X145981337Y-98338319D01*
X146067276Y-98150761D01*
X146684370Y-97321290D01*
X147593235Y-96616079D01*
X148591372Y-96170171D01*
X149167667Y-96083158D01*
X149800808Y-95961050D01*
X150125314Y-95770898D01*
X150487427Y-95598077D01*
X151095254Y-95665678D01*
X151479807Y-95770898D01*
X152366308Y-96010334D01*
X152859711Y-96003698D01*
X153075043Y-95671501D01*
X153127331Y-94934258D01*
X153128421Y-94631669D01*
X153143868Y-94305929D01*
X153691099Y-94305929D01*
X153700320Y-95025766D01*
X153788740Y-95490034D01*
X154006744Y-95787556D01*
X154212501Y-95643970D01*
X154365685Y-95152164D01*
X154425972Y-94405029D01*
X154414594Y-94048354D01*
X154317613Y-93295226D01*
X154162208Y-92822750D01*
X154064211Y-92741053D01*
X153891732Y-92977089D01*
X153761132Y-93560876D01*
X153691099Y-94305929D01*
X153143868Y-94305929D01*
X153172072Y-93711178D01*
X153364733Y-93075088D01*
X153798972Y-92476049D01*
X154028939Y-92225353D01*
X154719496Y-91625992D01*
X155353741Y-91298848D01*
X155535522Y-91270527D01*
X155921527Y-91289904D01*
X155921527Y-91289904D01*
G37*
X155921527Y-91289904D02*
X155924622Y-91416783D01*
X155526492Y-91754283D01*
X155437110Y-91824669D01*
X154993574Y-92268449D01*
X154785239Y-92816076D01*
X154732642Y-93678658D01*
X154732632Y-93696248D01*
X154732632Y-95013685D01*
X158753346Y-95013685D01*
X158573250Y-94296125D01*
X158479806Y-93819159D01*
X158594492Y-93781620D01*
X158807462Y-93961915D01*
X159082976Y-94364680D01*
X159080478Y-94577974D01*
X159177733Y-94875735D01*
X159582445Y-95377382D01*
X159910646Y-95700658D01*
X160587323Y-96471049D01*
X160877027Y-97151993D01*
X160882106Y-97236323D01*
X161086626Y-97836449D01*
X161739124Y-98469785D01*
X161956422Y-98626514D01*
X162730227Y-99103924D01*
X163143528Y-99205351D01*
X163183735Y-99052287D01*
X163969351Y-99052287D01*
X164025197Y-99780896D01*
X164141103Y-100723488D01*
X164294179Y-101724977D01*
X164461536Y-102630275D01*
X164620284Y-103284295D01*
X164705601Y-103497545D01*
X164979606Y-103532028D01*
X165410743Y-103234362D01*
X165883145Y-102732196D01*
X166280947Y-102153180D01*
X166488280Y-101624965D01*
X166496842Y-101524138D01*
X166349836Y-100936372D01*
X165972055Y-100247756D01*
X165458356Y-99565703D01*
X164903595Y-98997626D01*
X164402628Y-98650940D01*
X164050313Y-98633057D01*
X163996455Y-98692749D01*
X163969351Y-99052287D01*
X163183735Y-99052287D01*
X163215499Y-98931365D01*
X163132425Y-98661426D01*
X162762348Y-98319668D01*
X162324026Y-98222106D01*
X161835412Y-98126868D01*
X161684211Y-97954737D01*
X161897784Y-97703505D01*
X162459048Y-97687774D01*
X163248824Y-97882328D01*
X164147929Y-98261952D01*
X164744118Y-98602135D01*
X165592151Y-99216895D01*
X166163206Y-99860973D01*
X166527462Y-100672165D01*
X166755094Y-101788269D01*
X166865376Y-102767369D01*
X166916243Y-103463049D01*
X166908808Y-103784822D01*
X166857925Y-103703158D01*
X166618513Y-103110805D01*
X166295334Y-102988847D01*
X165802653Y-103329008D01*
X165553587Y-103577267D01*
X165085872Y-104092553D01*
X164967657Y-104356557D01*
X165166440Y-104492190D01*
X165301349Y-104531137D01*
X165592760Y-104685618D01*
X165765118Y-105038376D01*
X165857263Y-105714272D01*
X165894522Y-106438130D01*
X165987015Y-107479301D01*
X166159859Y-108280245D01*
X166326245Y-108627602D01*
X166634814Y-109174320D01*
X166826033Y-109863395D01*
X166879022Y-110518443D01*
X166772898Y-110963087D01*
X166613717Y-111055790D01*
X166277765Y-111271465D01*
X166229474Y-111473649D01*
X166432177Y-111790575D01*
X166831053Y-111807859D01*
X167201728Y-111809113D01*
X167378019Y-112037049D01*
X167430473Y-112622953D01*
X167432632Y-112927369D01*
X167432632Y-114130527D01*
X166095790Y-114166314D01*
X165291113Y-114164144D01*
X164828937Y-114030846D01*
X164517587Y-113659746D01*
X164351863Y-113328421D01*
X165694737Y-113328421D01*
X165927161Y-113650979D01*
X166363158Y-113729474D01*
X166900754Y-113590020D01*
X167031579Y-113328421D01*
X166799155Y-113005864D01*
X166363158Y-112927369D01*
X165825563Y-113066823D01*
X165694737Y-113328421D01*
X164351863Y-113328421D01*
X164259906Y-113144577D01*
X164032001Y-112604725D01*
X163910411Y-112090053D01*
X163897543Y-111724211D01*
X164892632Y-111724211D01*
X165106651Y-112078680D01*
X165293685Y-112125263D01*
X165648153Y-111911244D01*
X165694737Y-111724211D01*
X165480718Y-111369742D01*
X165293685Y-111323158D01*
X164939216Y-111537178D01*
X164892632Y-111724211D01*
X163897543Y-111724211D01*
X163888115Y-111456198D01*
X163958090Y-110558800D01*
X163981330Y-110361026D01*
X164953868Y-110361026D01*
X165264571Y-110511152D01*
X165529869Y-110521053D01*
X166028426Y-110440505D01*
X166211342Y-110089014D01*
X166229474Y-109718948D01*
X166145441Y-109131832D01*
X165832773Y-108925117D01*
X165694737Y-108916842D01*
X165258127Y-109001137D01*
X165156349Y-109117369D01*
X165090365Y-109511630D01*
X164991482Y-109919474D01*
X164953868Y-110361026D01*
X163981330Y-110361026D01*
X164082591Y-109499316D01*
X164246091Y-108332972D01*
X164420025Y-107333335D01*
X164577877Y-106643407D01*
X164648475Y-106447312D01*
X164670215Y-106376842D01*
X165212123Y-106376842D01*
X165241023Y-106833461D01*
X165324722Y-106873662D01*
X165335377Y-106849826D01*
X165388268Y-106319050D01*
X165345284Y-106047720D01*
X165260176Y-105938687D01*
X165213887Y-106293814D01*
X165212123Y-106376842D01*
X164670215Y-106376842D01*
X164867577Y-105737122D01*
X164828462Y-105088651D01*
X164607475Y-104761638D01*
X164221755Y-104711869D01*
X164007922Y-105160098D01*
X163991903Y-105255897D01*
X163776374Y-105815355D01*
X163641787Y-106015659D01*
X163384806Y-106520137D01*
X163165030Y-107242535D01*
X163158590Y-107272094D01*
X162967011Y-108167345D01*
X162472059Y-107353463D01*
X161625638Y-106371483D01*
X160529762Y-105849330D01*
X159745790Y-105740166D01*
X159058949Y-105764363D01*
X158773082Y-105957745D01*
X158743158Y-106131445D01*
X158872867Y-106432253D01*
X159344249Y-106478261D01*
X159550338Y-106452750D01*
X160244945Y-106472768D01*
X160641119Y-106676000D01*
X160766253Y-107067384D01*
X160891864Y-107872154D01*
X161002594Y-108969192D01*
X161077275Y-110115280D01*
X161155893Y-111347497D01*
X161255121Y-112372692D01*
X161361879Y-113079341D01*
X161457020Y-113353253D01*
X161707642Y-113610449D01*
X161471688Y-113749705D01*
X160786272Y-113761221D01*
X160146842Y-113699282D01*
X159143853Y-113607074D01*
X157846119Y-113532829D01*
X156493609Y-113489430D01*
X156149602Y-113484667D01*
X154951734Y-113488709D01*
X154178588Y-113539244D01*
X153720917Y-113654075D01*
X153469478Y-113851008D01*
X153417206Y-113930000D01*
X153197076Y-114189125D01*
X153136552Y-114039700D01*
X153318085Y-113607676D01*
X153654792Y-113237594D01*
X153901580Y-112960809D01*
X154061877Y-112555569D01*
X154156313Y-111908355D01*
X154167431Y-111681795D01*
X155000000Y-111681795D01*
X155101356Y-111905116D01*
X155469846Y-112051202D01*
X156202100Y-112143933D01*
X157072106Y-112193895D01*
X158153423Y-112244905D01*
X159090497Y-112295237D01*
X159700189Y-112334963D01*
X159745790Y-112338826D01*
X160240995Y-112236779D01*
X160347369Y-111991579D01*
X160124465Y-111664964D01*
X159812632Y-111590527D01*
X159377145Y-111423349D01*
X159277895Y-111189474D01*
X159154194Y-110956071D01*
X158715931Y-110831057D01*
X157862365Y-110789115D01*
X157682076Y-110788421D01*
X156776135Y-110815599D01*
X156314990Y-110911904D01*
X156210768Y-111099499D01*
X156227066Y-111155364D01*
X156194978Y-111405129D01*
X155754007Y-111404328D01*
X155683937Y-111391563D01*
X155156139Y-111384980D01*
X155000011Y-111677683D01*
X155000000Y-111681795D01*
X154167431Y-111681795D01*
X154205521Y-110905649D01*
X154221416Y-110120000D01*
X155267369Y-110120000D01*
X155353436Y-110303143D01*
X155669186Y-110422282D01*
X156300942Y-110489750D01*
X157335024Y-110517879D01*
X158074737Y-110521053D01*
X159356736Y-110508758D01*
X160190712Y-110463650D01*
X160662987Y-110373400D01*
X160859885Y-110225674D01*
X160882106Y-110120000D01*
X160796038Y-109936858D01*
X160480288Y-109817718D01*
X159848532Y-109750250D01*
X158814450Y-109722122D01*
X158074737Y-109718948D01*
X156792739Y-109731243D01*
X155958763Y-109776350D01*
X155486487Y-109866601D01*
X155289589Y-110014327D01*
X155267369Y-110120000D01*
X154221416Y-110120000D01*
X154244751Y-108570004D01*
X155292656Y-108570004D01*
X155358992Y-108808906D01*
X155652681Y-109050527D01*
X156355545Y-109324516D01*
X157541210Y-109445748D01*
X157941053Y-109451579D01*
X159252012Y-109372633D01*
X160088628Y-109139446D01*
X160229425Y-109050527D01*
X160589449Y-108728944D01*
X160523114Y-108490042D01*
X160229425Y-108248421D01*
X159526561Y-107974431D01*
X158340896Y-107853200D01*
X157941053Y-107847369D01*
X156630094Y-107926315D01*
X155793478Y-108159502D01*
X155652681Y-108248421D01*
X155292656Y-108570004D01*
X154244751Y-108570004D01*
X154261669Y-107446316D01*
X153593351Y-107518263D01*
X153207224Y-107509619D01*
X152951339Y-107303065D01*
X152743393Y-106782265D01*
X152552997Y-106047737D01*
X152253790Y-105066233D01*
X151957738Y-104612470D01*
X151820298Y-104582868D01*
X151372683Y-104547634D01*
X150628763Y-104371921D01*
X150145137Y-104223868D01*
X149323676Y-103998939D01*
X148677359Y-103906609D01*
X148463631Y-103928097D01*
X148175446Y-104267100D01*
X147862931Y-104980714D01*
X147573045Y-105913587D01*
X147352746Y-106910368D01*
X147248991Y-107815704D01*
X147246316Y-107955361D01*
X147180409Y-108577909D01*
X146904834Y-108896398D01*
X146302808Y-108982911D01*
X145642106Y-108945564D01*
X145598750Y-109041096D01*
X145942257Y-109322921D01*
X146243061Y-109515464D01*
X146935890Y-110046011D01*
X147102076Y-110483914D01*
X147090335Y-110521053D01*
X146965388Y-110991172D01*
X146801788Y-111793717D01*
X146674393Y-112519549D01*
X146489743Y-113519861D01*
X146335764Y-114109433D01*
X146227042Y-114251103D01*
X146178162Y-113907705D01*
X146176842Y-113787321D01*
X145973354Y-113202498D01*
X145708948Y-112948785D01*
X145418802Y-112743101D01*
X145608406Y-112675038D01*
X145842632Y-112668131D01*
X146327942Y-112508943D01*
X146444211Y-112258948D01*
X146211787Y-111936390D01*
X145775790Y-111857895D01*
X145228352Y-112005070D01*
X145107369Y-112293720D01*
X145014103Y-112556599D01*
X144649625Y-112645452D01*
X143904211Y-112593931D01*
X143124739Y-112549088D01*
X142761707Y-112657864D01*
X142701053Y-112826527D01*
X142937617Y-113114102D01*
X143436316Y-113213529D01*
X143911897Y-113246024D01*
X143895100Y-113340826D01*
X143636842Y-113462106D01*
X143087583Y-113665845D01*
X142737003Y-113655392D01*
X142540755Y-113353431D01*
X142454490Y-112682649D01*
X142442254Y-112020185D01*
X143235790Y-112020185D01*
X143395244Y-112322158D01*
X143658710Y-112287553D01*
X144261009Y-112140521D01*
X144460815Y-112125263D01*
X144789774Y-111908642D01*
X144840000Y-111695605D01*
X144680546Y-111393632D01*
X144417080Y-111428237D01*
X143814781Y-111575269D01*
X143614975Y-111590527D01*
X143286016Y-111807148D01*
X143235790Y-112020185D01*
X142442254Y-112020185D01*
X142433860Y-111565732D01*
X142433685Y-111364597D01*
X142441427Y-110814981D01*
X143866491Y-110814981D01*
X143983576Y-111150857D01*
X144322274Y-111133638D01*
X144462751Y-111036035D01*
X144782501Y-110598526D01*
X145729602Y-110598526D01*
X145924613Y-110971212D01*
X146176842Y-111055790D01*
X146519753Y-110861029D01*
X146592293Y-110765125D01*
X146623527Y-110357368D01*
X146340645Y-110083800D01*
X145952639Y-110116833D01*
X145879297Y-110176914D01*
X145729602Y-110598526D01*
X144782501Y-110598526D01*
X144788589Y-110590197D01*
X144840000Y-110370410D01*
X144688287Y-109929575D01*
X144349634Y-109908505D01*
X144038946Y-110251722D01*
X143866491Y-110814981D01*
X142441427Y-110814981D01*
X142450306Y-110184745D01*
X142515909Y-109413253D01*
X142654103Y-108924347D01*
X142785205Y-108738597D01*
X144661755Y-108738597D01*
X144698456Y-108897547D01*
X144840000Y-108916842D01*
X145060075Y-108819016D01*
X145018246Y-108738597D01*
X144700942Y-108706598D01*
X144661755Y-108738597D01*
X142785205Y-108738597D01*
X142888495Y-108592253D01*
X142968421Y-108515790D01*
X143369676Y-108040589D01*
X143503158Y-107702996D01*
X143524892Y-107662896D01*
X144305263Y-107662896D01*
X144557106Y-108080595D01*
X145311124Y-108319629D01*
X145575263Y-108351090D01*
X145738828Y-108248421D01*
X146444211Y-108248421D01*
X146588582Y-108604227D01*
X146711579Y-108649474D01*
X146948783Y-108432917D01*
X146978948Y-108248421D01*
X146834576Y-107892616D01*
X146711579Y-107847369D01*
X146474376Y-108063926D01*
X146444211Y-108248421D01*
X145738828Y-108248421D01*
X145869873Y-108166165D01*
X145909474Y-107981053D01*
X145800547Y-107622589D01*
X145708948Y-107576349D01*
X145314687Y-107510365D01*
X144906842Y-107411482D01*
X144429949Y-107388225D01*
X144305263Y-107662896D01*
X143524892Y-107662896D01*
X143706370Y-107328068D01*
X144130529Y-106963063D01*
X144664091Y-106338739D01*
X144799810Y-106008777D01*
X145659244Y-106008777D01*
X145743140Y-106237245D01*
X146127738Y-106441355D01*
X146490765Y-106209555D01*
X146874133Y-105503711D01*
X147056712Y-105042159D01*
X147329257Y-104153085D01*
X147316584Y-103618443D01*
X147001210Y-103329782D01*
X146768518Y-103254361D01*
X146484983Y-103427492D01*
X146174030Y-103958976D01*
X145893917Y-104679335D01*
X145702903Y-105419094D01*
X145659244Y-106008777D01*
X144799810Y-106008777D01*
X145131927Y-105201335D01*
X145226632Y-104881444D01*
X145695365Y-103210895D01*
X145099368Y-102761333D01*
X144764422Y-102479813D01*
X144638181Y-102192901D01*
X144707933Y-101733393D01*
X144960541Y-100935360D01*
X145234985Y-100174815D01*
X145457227Y-99674938D01*
X145547926Y-99558948D01*
X145576253Y-99772921D01*
X145478364Y-100160527D01*
X145300987Y-100905349D01*
X145218830Y-101508651D01*
X145253115Y-101993665D01*
X145439055Y-102035952D01*
X145727426Y-101688355D01*
X146069006Y-101003718D01*
X146323114Y-100323155D01*
X146587617Y-99599852D01*
X146795267Y-99162490D01*
X146873196Y-99096705D01*
X146849318Y-99384754D01*
X146680167Y-100027860D01*
X146441929Y-100768736D01*
X146190371Y-101615209D01*
X146074399Y-102252416D01*
X146107027Y-102515967D01*
X146435169Y-102673936D01*
X147150489Y-102949236D01*
X148130867Y-103296219D01*
X148770382Y-103511523D01*
X150031478Y-103904729D01*
X150883918Y-104086087D01*
X151416136Y-104040835D01*
X151716567Y-103754212D01*
X151873647Y-103211457D01*
X151907188Y-102987939D01*
X152050647Y-102383457D01*
X152299753Y-101690071D01*
X152588982Y-101049686D01*
X152852809Y-100604207D01*
X153025710Y-100495538D01*
X153043634Y-100526769D01*
X153025523Y-100942760D01*
X152856660Y-101646189D01*
X152743984Y-101997295D01*
X152523994Y-102798928D01*
X152472849Y-103585992D01*
X152581549Y-104593323D01*
X152632514Y-104906316D01*
X152851928Y-106061677D01*
X153082824Y-106756412D01*
X153400106Y-107060859D01*
X153878681Y-107045354D01*
X154593452Y-106780234D01*
X154617279Y-106770037D01*
X155336917Y-106487454D01*
X155693624Y-106437160D01*
X155800600Y-106608040D01*
X155802106Y-106653712D01*
X156026262Y-106923152D01*
X156564565Y-107050936D01*
X157215761Y-107037920D01*
X157778601Y-106884960D01*
X158037740Y-106644211D01*
X158024987Y-106384459D01*
X157658148Y-106259933D01*
X157063714Y-106229381D01*
X155935790Y-106215604D01*
X156871579Y-105854632D01*
X157628347Y-105570326D01*
X158236061Y-105354498D01*
X158284869Y-105338378D01*
X158492656Y-105198862D01*
X158417700Y-104939461D01*
X158012532Y-104473688D01*
X157573357Y-104042074D01*
X157356142Y-103773823D01*
X158876117Y-103773823D01*
X159196227Y-104074498D01*
X159916730Y-104334717D01*
X160521915Y-104284060D01*
X160755660Y-104092499D01*
X160754698Y-103672515D01*
X160414334Y-103259920D01*
X159899528Y-103039745D01*
X159812632Y-103034737D01*
X159244431Y-103227562D01*
X159028439Y-103414207D01*
X158876117Y-103773823D01*
X157356142Y-103773823D01*
X156591498Y-102829525D01*
X156128569Y-101552082D01*
X156128779Y-101544860D01*
X156967379Y-101544860D01*
X157178322Y-102267713D01*
X157259883Y-102452497D01*
X157568146Y-103054062D01*
X157775661Y-103230178D01*
X158001104Y-103043037D01*
X158110010Y-102898030D01*
X158385726Y-102281424D01*
X158419038Y-101864160D01*
X158148443Y-101338486D01*
X157743812Y-100962842D01*
X157292000Y-100714525D01*
X157068162Y-100811916D01*
X156970618Y-101023346D01*
X156967379Y-101544860D01*
X156128779Y-101544860D01*
X156158637Y-100518420D01*
X158016439Y-100518420D01*
X158315484Y-100866373D01*
X158678856Y-101581834D01*
X158687293Y-102048870D01*
X158656791Y-102461245D01*
X158871548Y-102623339D01*
X159466183Y-102621563D01*
X159568472Y-102614512D01*
X160366902Y-102659257D01*
X161002447Y-102862805D01*
X161060224Y-102900482D01*
X161622106Y-103084244D01*
X162041545Y-102805775D01*
X162218252Y-102135917D01*
X162218948Y-102081989D01*
X162097936Y-101465510D01*
X161786969Y-101315613D01*
X161364150Y-101664789D01*
X161329985Y-101712177D01*
X160990756Y-102008129D01*
X160783927Y-101887401D01*
X160785522Y-101465068D01*
X160925619Y-101100096D01*
X160990777Y-100741860D01*
X160679118Y-100455364D01*
X160287911Y-100274593D01*
X159688662Y-100062600D01*
X159411292Y-100097922D01*
X159320712Y-100293768D01*
X159065239Y-100548067D01*
X158525867Y-100497644D01*
X158041862Y-100395877D01*
X158016439Y-100518420D01*
X156158637Y-100518420D01*
X156169021Y-100161463D01*
X156232687Y-99879065D01*
X156615536Y-98998879D01*
X157174848Y-98558455D01*
X157812068Y-98587965D01*
X158133659Y-98753979D01*
X158031256Y-98958709D01*
X157781567Y-99156749D01*
X157481278Y-99418587D01*
X157584539Y-99525748D01*
X158141579Y-99550444D01*
X158808989Y-99468991D01*
X158979336Y-99195755D01*
X158660699Y-98714392D01*
X158590376Y-98642256D01*
X158313300Y-98322006D01*
X158438425Y-98226777D01*
X158603654Y-98222106D01*
X159302776Y-98391526D01*
X160196754Y-98832126D01*
X161096962Y-99442408D01*
X161480355Y-99769988D01*
X162162886Y-100746103D01*
X162442640Y-101914289D01*
X162320381Y-103115763D01*
X161796872Y-104191741D01*
X161457271Y-104568274D01*
X160755982Y-105218207D01*
X161685828Y-105977110D01*
X162410194Y-106459876D01*
X162869184Y-106517933D01*
X162912907Y-106489332D01*
X163150789Y-106045905D01*
X163362901Y-105225439D01*
X163528388Y-104185607D01*
X163626393Y-103084085D01*
X163636060Y-102078547D01*
X163574219Y-101489700D01*
X163119366Y-100208382D01*
X162272640Y-99263301D01*
X161627825Y-98861368D01*
X160954530Y-98232851D01*
X160614737Y-97420000D01*
X160280825Y-96619255D01*
X159729468Y-96077666D01*
X158873255Y-95752707D01*
X157624774Y-95601853D01*
X156829453Y-95578459D01*
X155617419Y-95604819D01*
X154857299Y-95721828D01*
X154474686Y-95938120D01*
X154028888Y-96192094D01*
X153779548Y-96173209D01*
X153405153Y-96244782D01*
X153184931Y-96628961D01*
X153235491Y-97104936D01*
X153262216Y-97152811D01*
X153577913Y-97291991D01*
X153753803Y-97190360D01*
X154269129Y-97101089D01*
X154866316Y-97289346D01*
X155668421Y-97643938D01*
X154665790Y-97665653D01*
X154008920Y-97715938D01*
X153727871Y-97925528D01*
X153663881Y-98440856D01*
X153663158Y-98590420D01*
X153550813Y-99308897D01*
X153278768Y-99811712D01*
X153262106Y-99826316D01*
X153040184Y-99946162D01*
X152918552Y-99777905D01*
X152868633Y-99230953D01*
X152861053Y-98554950D01*
X152804514Y-97551132D01*
X152650227Y-96876591D01*
X152526842Y-96688255D01*
X151791019Y-96363499D01*
X150796487Y-96229655D01*
X149794078Y-96315421D01*
X149630525Y-96356867D01*
X148849356Y-96714155D01*
X148085478Y-97271948D01*
X147493337Y-97894390D01*
X147227380Y-98445625D01*
X147225208Y-98472654D01*
X147159414Y-98701802D01*
X147069243Y-98556316D01*
X146744624Y-98242748D01*
X146332017Y-98339648D01*
X146036763Y-98776991D01*
X145853240Y-99165340D01*
X145739918Y-99211146D01*
X145766250Y-98917902D01*
X145981337Y-98338319D01*
X146067276Y-98150761D01*
X146684370Y-97321290D01*
X147593235Y-96616079D01*
X148591372Y-96170171D01*
X149167667Y-96083158D01*
X149800808Y-95961050D01*
X150125314Y-95770898D01*
X150487427Y-95598077D01*
X151095254Y-95665678D01*
X151479807Y-95770898D01*
X152366308Y-96010334D01*
X152859711Y-96003698D01*
X153075043Y-95671501D01*
X153127331Y-94934258D01*
X153128421Y-94631669D01*
X153143868Y-94305929D01*
X153691099Y-94305929D01*
X153700320Y-95025766D01*
X153788740Y-95490034D01*
X154006744Y-95787556D01*
X154212501Y-95643970D01*
X154365685Y-95152164D01*
X154425972Y-94405029D01*
X154414594Y-94048354D01*
X154317613Y-93295226D01*
X154162208Y-92822750D01*
X154064211Y-92741053D01*
X153891732Y-92977089D01*
X153761132Y-93560876D01*
X153691099Y-94305929D01*
X153143868Y-94305929D01*
X153172072Y-93711178D01*
X153364733Y-93075088D01*
X153798972Y-92476049D01*
X154028939Y-92225353D01*
X154719496Y-91625992D01*
X155353741Y-91298848D01*
X155535522Y-91270527D01*
X155921527Y-91289904D01*
G36*
X167031579Y-104647339D02*
X166814894Y-104877141D01*
X166630527Y-104906316D01*
X166273801Y-104849112D01*
X166229474Y-104801237D01*
X166438544Y-104628837D01*
X166630527Y-104542260D01*
X166974805Y-104536703D01*
X167031579Y-104647339D01*
X167031579Y-104647339D01*
G37*
X167031579Y-104647339D02*
X166814894Y-104877141D01*
X166630527Y-104906316D01*
X166273801Y-104849112D01*
X166229474Y-104801237D01*
X166438544Y-104628837D01*
X166630527Y-104542260D01*
X166974805Y-104536703D01*
X167031579Y-104647339D01*
G36*
X154721751Y-102694086D02*
X154732632Y-102767369D01*
X154641410Y-103027786D01*
X154614727Y-103034737D01*
X154386456Y-102847382D01*
X154331579Y-102767369D01*
X154352778Y-102520993D01*
X154449484Y-102500000D01*
X154721751Y-102694086D01*
X154721751Y-102694086D01*
G37*
X154721751Y-102694086D02*
X154732632Y-102767369D01*
X154641410Y-103027786D01*
X154614727Y-103034737D01*
X154386456Y-102847382D01*
X154331579Y-102767369D01*
X154352778Y-102520993D01*
X154449484Y-102500000D01*
X154721751Y-102694086D01*
G36*
X151521145Y-101637387D02*
X151524211Y-101697895D01*
X151318671Y-101954989D01*
X151241063Y-101965263D01*
X151081381Y-101801463D01*
X151123158Y-101697895D01*
X151363417Y-101442830D01*
X151406306Y-101430527D01*
X151521145Y-101637387D01*
X151521145Y-101637387D01*
G37*
X151521145Y-101637387D02*
X151524211Y-101697895D01*
X151318671Y-101954989D01*
X151241063Y-101965263D01*
X151081381Y-101801463D01*
X151123158Y-101697895D01*
X151363417Y-101442830D01*
X151406306Y-101430527D01*
X151521145Y-101637387D01*
G36*
X150184303Y-97359493D02*
X150187369Y-97420000D01*
X149981829Y-97677094D01*
X149904221Y-97687369D01*
X149744539Y-97523569D01*
X149786316Y-97420000D01*
X150026575Y-97164935D01*
X150069464Y-97152632D01*
X150184303Y-97359493D01*
X150184303Y-97359493D01*
G37*
X150184303Y-97359493D02*
X150187369Y-97420000D01*
X149981829Y-97677094D01*
X149904221Y-97687369D01*
X149744539Y-97523569D01*
X149786316Y-97420000D01*
X150026575Y-97164935D01*
X150069464Y-97152632D01*
X150184303Y-97359493D01*
G36*
X157589801Y-96255864D02*
X157540000Y-96350527D01*
X157288082Y-96605864D01*
X157241073Y-96617895D01*
X157222831Y-96445189D01*
X157272632Y-96350527D01*
X157524550Y-96095189D01*
X157571559Y-96083158D01*
X157589801Y-96255864D01*
X157589801Y-96255864D01*
G37*
X157589801Y-96255864D02*
X157540000Y-96350527D01*
X157288082Y-96605864D01*
X157241073Y-96617895D01*
X157222831Y-96445189D01*
X157272632Y-96350527D01*
X157524550Y-96095189D01*
X157571559Y-96083158D01*
X157589801Y-96255864D01*
G36*
X157280818Y-91459786D02*
X157935774Y-91911770D01*
X158651045Y-92520277D01*
X159289776Y-93162157D01*
X159715114Y-93714260D01*
X159812632Y-93977684D01*
X159705243Y-94206426D01*
X159480767Y-94025846D01*
X159374583Y-93810527D01*
X159065970Y-93455706D01*
X158898518Y-93409474D01*
X158542756Y-93211639D01*
X158072808Y-92722745D01*
X157971548Y-92591434D01*
X157413898Y-91981098D01*
X156847455Y-91567088D01*
X156784952Y-91538908D01*
X156203158Y-91304422D01*
X156823032Y-91287474D01*
X157280818Y-91459786D01*
X157280818Y-91459786D01*
G37*
X157280818Y-91459786D02*
X157935774Y-91911770D01*
X158651045Y-92520277D01*
X159289776Y-93162157D01*
X159715114Y-93714260D01*
X159812632Y-93977684D01*
X159705243Y-94206426D01*
X159480767Y-94025846D01*
X159374583Y-93810527D01*
X159065970Y-93455706D01*
X158898518Y-93409474D01*
X158542756Y-93211639D01*
X158072808Y-92722745D01*
X157971548Y-92591434D01*
X157413898Y-91981098D01*
X156847455Y-91567088D01*
X156784952Y-91538908D01*
X156203158Y-91304422D01*
X156823032Y-91287474D01*
X157280818Y-91459786D01*
G36*
X157352842Y-92928211D02*
X157651158Y-93431135D01*
X157550395Y-93820705D01*
X157183509Y-93944211D01*
X156675128Y-93856921D01*
X156515088Y-93765965D01*
X156361964Y-93372795D01*
X156336842Y-93097544D01*
X156512221Y-92686178D01*
X156932506Y-92651965D01*
X157352842Y-92928211D01*
X157352842Y-92928211D01*
G37*
X157352842Y-92928211D02*
X157651158Y-93431135D01*
X157550395Y-93820705D01*
X157183509Y-93944211D01*
X156675128Y-93856921D01*
X156515088Y-93765965D01*
X156361964Y-93372795D01*
X156336842Y-93097544D01*
X156512221Y-92686178D01*
X156932506Y-92651965D01*
X157352842Y-92928211D01*
G36*
X158647680Y-108445169D02*
X159097727Y-108601515D01*
X159144211Y-108649474D01*
X159011008Y-108813767D01*
X158413607Y-108904079D01*
X157941053Y-108916842D01*
X157128544Y-108870977D01*
X156745201Y-108743346D01*
X156737895Y-108649474D01*
X157089001Y-108477486D01*
X157752195Y-108386444D01*
X157941053Y-108382106D01*
X158647680Y-108445169D01*
X158647680Y-108445169D01*
G37*
X158647680Y-108445169D02*
X159097727Y-108601515D01*
X159144211Y-108649474D01*
X159011008Y-108813767D01*
X158413607Y-108904079D01*
X157941053Y-108916842D01*
X157128544Y-108870977D01*
X156745201Y-108743346D01*
X156737895Y-108649474D01*
X157089001Y-108477486D01*
X157752195Y-108386444D01*
X157941053Y-108382106D01*
X158647680Y-108445169D01*
D15*
X169926000Y-129921000D02*
X167894000Y-129921000D01*
X167894000Y-129921000D02*
X167894000Y-118999000D01*
X167894000Y-118999000D02*
X171958000Y-118999000D01*
X171958000Y-118999000D02*
X171958000Y-129921000D01*
X171958000Y-129921000D02*
X169926000Y-129921000D01*
X169926000Y-118999000D02*
X169926000Y-116840000D01*
X169926000Y-132080000D02*
X169926000Y-129921000D01*
X126974600Y-93980000D02*
X126974600Y-91948000D01*
X126974600Y-91948000D02*
X137896600Y-91948000D01*
X137896600Y-91948000D02*
X137896600Y-96012000D01*
X137896600Y-96012000D02*
X126974600Y-96012000D01*
X126974600Y-96012000D02*
X126974600Y-93980000D01*
X137896600Y-93980000D02*
X140055600Y-93980000D01*
X124815600Y-93980000D02*
X126974600Y-93980000D01*
X163677600Y-129260600D02*
X161645600Y-129260600D01*
X161645600Y-129260600D02*
X161645600Y-118338600D01*
X161645600Y-118338600D02*
X165709600Y-118338600D01*
X165709600Y-118338600D02*
X165709600Y-129260600D01*
X165709600Y-129260600D02*
X163677600Y-129260600D01*
X163677600Y-118338600D02*
X163677600Y-116179600D01*
X163677600Y-131419600D02*
X163677600Y-129260600D01*
X169926000Y-110871000D02*
X167894000Y-110871000D01*
X167894000Y-110871000D02*
X167894000Y-99949000D01*
X167894000Y-99949000D02*
X171958000Y-99949000D01*
X171958000Y-99949000D02*
X171958000Y-110871000D01*
X171958000Y-110871000D02*
X169926000Y-110871000D01*
X169926000Y-99949000D02*
X169926000Y-97790000D01*
X169926000Y-113030000D02*
X169926000Y-110871000D01*
X147447000Y-93878400D02*
X147447000Y-91846400D01*
X147447000Y-91846400D02*
X158369000Y-91846400D01*
X158369000Y-91846400D02*
X158369000Y-95910400D01*
X158369000Y-95910400D02*
X147447000Y-95910400D01*
X147447000Y-95910400D02*
X147447000Y-93878400D01*
X158369000Y-93878400D02*
X160528000Y-93878400D01*
X145288000Y-93878400D02*
X147447000Y-93878400D01*
X150952200Y-133908800D02*
X150952200Y-131876800D01*
X150952200Y-131876800D02*
X161874200Y-131876800D01*
X161874200Y-131876800D02*
X161874200Y-135940800D01*
X161874200Y-135940800D02*
X150952200Y-135940800D01*
X150952200Y-135940800D02*
X150952200Y-133908800D01*
X161874200Y-133908800D02*
X164033200Y-133908800D01*
X148793200Y-133908800D02*
X150952200Y-133908800D01*
X129260600Y-120396000D02*
X129260600Y-118364000D01*
X129260600Y-118364000D02*
X140182600Y-118364000D01*
X140182600Y-118364000D02*
X140182600Y-122428000D01*
X140182600Y-122428000D02*
X129260600Y-122428000D01*
X129260600Y-122428000D02*
X129260600Y-120396000D01*
X140182600Y-120396000D02*
X142341600Y-120396000D01*
X127101600Y-120396000D02*
X129260600Y-120396000D01*
X121031000Y-112090200D02*
X118999000Y-112090200D01*
X118999000Y-112090200D02*
X118999000Y-101168200D01*
X118999000Y-101168200D02*
X123063000Y-101168200D01*
X123063000Y-101168200D02*
X123063000Y-112090200D01*
X123063000Y-112090200D02*
X121031000Y-112090200D01*
X121031000Y-101168200D02*
X121031000Y-99009200D01*
X121031000Y-114249200D02*
X121031000Y-112090200D01*
X185033920Y-102039420D02*
X185785760Y-102039420D01*
X185785760Y-102039420D02*
X185785760Y-103040180D01*
X185785760Y-103040180D02*
X185033920Y-103040180D01*
X184536080Y-103040180D02*
X183784240Y-103040180D01*
X183784240Y-103040180D02*
X183784240Y-102039420D01*
X183784240Y-102039420D02*
X184536080Y-102039420D01*
X184536080Y-102039420D02*
X184536080Y-101539040D01*
X184536080Y-101539040D02*
X185033920Y-102039420D01*
X185033920Y-103040180D02*
X184536080Y-103540560D01*
X184536080Y-103540560D02*
X184536080Y-103040180D01*
X186286140Y-102539800D02*
G75*
G03X186286140Y-102539800I-1501140J0D01*
G01*
X179783740Y-107541060D02*
X189786260Y-107541060D01*
X189786260Y-107541060D02*
X189786260Y-97538540D01*
X189786260Y-97538540D02*
X179783740Y-97538540D01*
X179783740Y-97538540D02*
X179783740Y-107541060D01*
X135890000Y-107391200D02*
X131826000Y-107391200D01*
X131826000Y-104851200D02*
X135890000Y-104851200D01*
D16*
X138938000Y-111201200D02*
X128778000Y-111201200D01*
X127762000Y-109423200D02*
X139954000Y-109423200D01*
X138938000Y-101041200D02*
X128778000Y-101041200D01*
X127762000Y-102819200D02*
X139954000Y-102819200D01*
D15*
X130048000Y-106121200D02*
G75*
G03X128778000Y-104851200I-1270000J0D01*
G01*
X128778000Y-107391200D02*
G75*
G03X130048000Y-106121200I0J1270000D01*
G01*
D16*
X128778000Y-107391200D02*
X127762000Y-107391200D01*
X128778000Y-104851200D02*
X127762000Y-104851200D01*
D15*
X131826000Y-104851200D02*
X131826000Y-107391200D01*
X135890000Y-107391200D02*
X135890000Y-104851200D01*
D16*
X138938000Y-101041200D02*
X138938000Y-111201200D01*
X128778000Y-111201200D02*
X128778000Y-101041200D01*
X139954000Y-102819200D02*
X139954000Y-109423200D01*
X127762000Y-109423200D02*
X127762000Y-102819200D01*
D15*
X154032000Y-107270000D02*
X149968000Y-107270000D01*
X149968000Y-104730000D02*
X154032000Y-104730000D01*
D16*
X157080000Y-111080000D02*
X146920000Y-111080000D01*
X145904000Y-109302000D02*
X158096000Y-109302000D01*
X157080000Y-100920000D02*
X146920000Y-100920000D01*
X145904000Y-102698000D02*
X158096000Y-102698000D01*
D15*
X148190000Y-106000000D02*
G75*
G03X146920000Y-104730000I-1270000J0D01*
G01*
X146920000Y-107270000D02*
G75*
G03X148190000Y-106000000I0J1270000D01*
G01*
D16*
X146920000Y-107270000D02*
X145904000Y-107270000D01*
X146920000Y-104730000D02*
X145904000Y-104730000D01*
D15*
X149968000Y-104730000D02*
X149968000Y-107270000D01*
X154032000Y-107270000D02*
X154032000Y-104730000D01*
D16*
X157080000Y-100920000D02*
X157080000Y-111080000D01*
X146920000Y-111080000D02*
X146920000Y-100920000D01*
X158096000Y-102698000D02*
X158096000Y-109302000D01*
X145904000Y-109302000D02*
X145904000Y-102698000D01*
D15*
X155244800Y-123494800D02*
X151180800Y-123494800D01*
X151180800Y-120954800D02*
X155244800Y-120954800D01*
D16*
X158292800Y-127304800D02*
X148132800Y-127304800D01*
X147116800Y-125526800D02*
X159308800Y-125526800D01*
X158292800Y-117144800D02*
X148132800Y-117144800D01*
X147116800Y-118922800D02*
X159308800Y-118922800D01*
D15*
X149402800Y-122224800D02*
G75*
G03X148132800Y-120954800I-1270000J0D01*
G01*
X148132800Y-123494800D02*
G75*
G03X149402800Y-122224800I0J1270000D01*
G01*
D16*
X148132800Y-123494800D02*
X147116800Y-123494800D01*
X148132800Y-120954800D02*
X147116800Y-120954800D01*
D15*
X151180800Y-120954800D02*
X151180800Y-123494800D01*
X155244800Y-123494800D02*
X155244800Y-120954800D01*
D16*
X158292800Y-117144800D02*
X158292800Y-127304800D01*
X148132800Y-127304800D02*
X148132800Y-117144800D01*
X159308800Y-118922800D02*
X159308800Y-125526800D01*
X147116800Y-125526800D02*
X147116800Y-118922800D01*
D12*
X132083334Y-125057143D02*
X132035715Y-125104762D01*
X131892858Y-125152381D01*
X131797620Y-125152381D01*
X131654762Y-125104762D01*
X131559524Y-125009524D01*
X131511905Y-124914286D01*
X131464286Y-124723810D01*
X131464286Y-124580952D01*
X131511905Y-124390476D01*
X131559524Y-124295238D01*
X131654762Y-124200000D01*
X131797620Y-124152381D01*
X131892858Y-124152381D01*
X132035715Y-124200000D01*
X132083334Y-124247619D01*
X133035715Y-125152381D02*
X132464286Y-125152381D01*
X132750000Y-125152381D02*
X132750000Y-124152381D01*
X132654762Y-124295238D01*
X132559524Y-124390476D01*
X132464286Y-124438095D01*
X182871543Y-132785466D02*
X182919162Y-132833085D01*
X182966781Y-132975942D01*
X182966781Y-133071180D01*
X182919162Y-133214038D01*
X182823924Y-133309276D01*
X182728686Y-133356895D01*
X182538210Y-133404514D01*
X182395352Y-133404514D01*
X182204876Y-133356895D01*
X182109638Y-133309276D01*
X182014400Y-133214038D01*
X181966781Y-133071180D01*
X181966781Y-132975942D01*
X182014400Y-132833085D01*
X182062019Y-132785466D01*
X182062019Y-132404514D02*
X182014400Y-132356895D01*
X181966781Y-132261657D01*
X181966781Y-132023561D01*
X182014400Y-131928323D01*
X182062019Y-131880704D01*
X182157257Y-131833085D01*
X182252495Y-131833085D01*
X182395352Y-131880704D01*
X182966781Y-132452133D01*
X182966781Y-131833085D01*
X143983734Y-111060343D02*
X143936115Y-111107962D01*
X143793258Y-111155581D01*
X143698020Y-111155581D01*
X143555162Y-111107962D01*
X143459924Y-111012724D01*
X143412305Y-110917486D01*
X143364686Y-110727010D01*
X143364686Y-110584152D01*
X143412305Y-110393676D01*
X143459924Y-110298438D01*
X143555162Y-110203200D01*
X143698020Y-110155581D01*
X143793258Y-110155581D01*
X143936115Y-110203200D01*
X143983734Y-110250819D01*
X144317067Y-110155581D02*
X144936115Y-110155581D01*
X144602781Y-110536533D01*
X144745639Y-110536533D01*
X144840877Y-110584152D01*
X144888496Y-110631771D01*
X144936115Y-110727010D01*
X144936115Y-110965105D01*
X144888496Y-111060343D01*
X144840877Y-111107962D01*
X144745639Y-111155581D01*
X144459924Y-111155581D01*
X144364686Y-111107962D01*
X144317067Y-111060343D01*
X167191581Y-110796295D02*
X166191581Y-110796295D01*
X166191581Y-110558200D01*
X166239200Y-110415342D01*
X166334438Y-110320104D01*
X166429676Y-110272485D01*
X166620152Y-110224866D01*
X166763010Y-110224866D01*
X166953486Y-110272485D01*
X167048724Y-110320104D01*
X167143962Y-110415342D01*
X167191581Y-110558200D01*
X167191581Y-110796295D01*
X167191581Y-109272485D02*
X167191581Y-109843914D01*
X167191581Y-109558200D02*
X166191581Y-109558200D01*
X166334438Y-109653438D01*
X166429676Y-109748676D01*
X166477295Y-109843914D01*
X118472581Y-120346695D02*
X117472581Y-120346695D01*
X117472581Y-120108600D01*
X117520200Y-119965742D01*
X117615438Y-119870504D01*
X117710676Y-119822885D01*
X117901152Y-119775266D01*
X118044010Y-119775266D01*
X118234486Y-119822885D01*
X118329724Y-119870504D01*
X118424962Y-119965742D01*
X118472581Y-120108600D01*
X118472581Y-120346695D01*
X117567819Y-119394314D02*
X117520200Y-119346695D01*
X117472581Y-119251457D01*
X117472581Y-119013361D01*
X117520200Y-118918123D01*
X117567819Y-118870504D01*
X117663057Y-118822885D01*
X117758295Y-118822885D01*
X117901152Y-118870504D01*
X118472581Y-119441933D01*
X118472581Y-118822885D01*
X128202381Y-127333333D02*
X128916667Y-127333333D01*
X129059524Y-127380953D01*
X129154762Y-127476191D01*
X129202381Y-127619048D01*
X129202381Y-127714286D01*
X129202381Y-126333333D02*
X129202381Y-126904762D01*
X129202381Y-126619048D02*
X128202381Y-126619048D01*
X128345238Y-126714286D01*
X128440476Y-126809524D01*
X128488095Y-126904762D01*
X142160667Y-133279581D02*
X142160667Y-133993867D01*
X142113047Y-134136724D01*
X142017809Y-134231962D01*
X141874952Y-134279581D01*
X141779714Y-134279581D01*
X142589238Y-133374819D02*
X142636857Y-133327200D01*
X142732095Y-133279581D01*
X142970191Y-133279581D01*
X143065429Y-133327200D01*
X143113048Y-133374819D01*
X143160667Y-133470057D01*
X143160667Y-133565295D01*
X143113048Y-133708152D01*
X142541619Y-134279581D01*
X143160667Y-134279581D01*
X177082505Y-113753866D02*
X177653933Y-113753866D01*
X177768219Y-113791962D01*
X177844410Y-113868152D01*
X177882505Y-113982438D01*
X177882505Y-114058628D01*
X177082505Y-113449104D02*
X177082505Y-112953866D01*
X177387267Y-113220533D01*
X177387267Y-113106247D01*
X177425362Y-113030057D01*
X177463457Y-112991961D01*
X177539648Y-112953866D01*
X177730124Y-112953866D01*
X177806314Y-112991961D01*
X177844410Y-113030057D01*
X177882505Y-113106247D01*
X177882505Y-113334819D01*
X177844410Y-113411009D01*
X177806314Y-113449104D01*
D10*
X183996029Y-119590914D02*
X184481743Y-119590914D01*
X184538886Y-119619485D01*
X184567457Y-119648057D01*
X184596029Y-119705200D01*
X184596029Y-119790914D01*
X184567457Y-119848057D01*
X184367457Y-119590914D02*
X184396029Y-119648057D01*
X184396029Y-119762343D01*
X184367457Y-119819485D01*
X184338886Y-119848057D01*
X184281743Y-119876628D01*
X184110314Y-119876628D01*
X184053171Y-119848057D01*
X184024600Y-119819485D01*
X183996029Y-119762343D01*
X183996029Y-119648057D01*
X184024600Y-119590914D01*
X184367457Y-119076628D02*
X184396029Y-119133771D01*
X184396029Y-119248057D01*
X184367457Y-119305200D01*
X184310314Y-119333771D01*
X184081743Y-119333771D01*
X184024600Y-119305200D01*
X183996029Y-119248057D01*
X183996029Y-119133771D01*
X184024600Y-119076628D01*
X184081743Y-119048057D01*
X184138886Y-119048057D01*
X184196029Y-119333771D01*
X184396029Y-118705200D02*
X184367457Y-118762342D01*
X184310314Y-118790914D01*
X183796029Y-118790914D01*
X183996029Y-118219485D02*
X184396029Y-118219485D01*
X183996029Y-118476628D02*
X184310314Y-118476628D01*
X184367457Y-118448056D01*
X184396029Y-118390914D01*
X184396029Y-118305199D01*
X184367457Y-118248056D01*
X184338886Y-118219485D01*
X184396029Y-117933771D02*
X183996029Y-117933771D01*
X183796029Y-117933771D02*
X183824600Y-117962342D01*
X183853171Y-117933771D01*
X183824600Y-117905199D01*
X183796029Y-117933771D01*
X183853171Y-117933771D01*
X184396029Y-117390914D02*
X183796029Y-117390914D01*
X184367457Y-117390914D02*
X184396029Y-117448057D01*
X184396029Y-117562343D01*
X184367457Y-117619485D01*
X184338886Y-117648057D01*
X184281743Y-117676628D01*
X184110314Y-117676628D01*
X184053171Y-117648057D01*
X184024600Y-117619485D01*
X183996029Y-117562343D01*
X183996029Y-117448057D01*
X184024600Y-117390914D01*
X184453171Y-117248057D02*
X184453171Y-116790914D01*
X183996029Y-116390914D02*
X184396029Y-116390914D01*
X183996029Y-116648057D02*
X184310314Y-116648057D01*
X184367457Y-116619485D01*
X184396029Y-116562343D01*
X184396029Y-116476628D01*
X184367457Y-116419485D01*
X184338886Y-116390914D01*
X184396029Y-116105200D02*
X183996029Y-116105200D01*
X183796029Y-116105200D02*
X183824600Y-116133771D01*
X183853171Y-116105200D01*
X183824600Y-116076628D01*
X183796029Y-116105200D01*
X183853171Y-116105200D01*
X183996029Y-115905200D02*
X183996029Y-115676629D01*
X183796029Y-115819486D02*
X184310314Y-115819486D01*
X184367457Y-115790914D01*
X184396029Y-115733772D01*
X184396029Y-115676629D01*
D17*
X169631976Y-121211667D02*
X168966738Y-121635000D01*
X169631976Y-121937381D02*
X168234976Y-121937381D01*
X168234976Y-121453572D01*
X168301500Y-121332619D01*
X168368024Y-121272143D01*
X168501071Y-121211667D01*
X168700643Y-121211667D01*
X168833690Y-121272143D01*
X168900214Y-121332619D01*
X168966738Y-121453572D01*
X168966738Y-121937381D01*
X169631976Y-120002143D02*
X169631976Y-120727857D01*
X169631976Y-120365000D02*
X168234976Y-120365000D01*
X168434548Y-120485952D01*
X168567595Y-120606905D01*
X168634119Y-120727857D01*
X132350933Y-93595976D02*
X131927600Y-92930738D01*
X131625219Y-93595976D02*
X131625219Y-92198976D01*
X132109028Y-92198976D01*
X132229981Y-92265500D01*
X132290457Y-92332024D01*
X132350933Y-92465071D01*
X132350933Y-92664643D01*
X132290457Y-92797690D01*
X132229981Y-92864214D01*
X132109028Y-92930738D01*
X131625219Y-92930738D01*
X132834743Y-92332024D02*
X132895219Y-92265500D01*
X133016171Y-92198976D01*
X133318552Y-92198976D01*
X133439505Y-92265500D01*
X133499981Y-92332024D01*
X133560457Y-92465071D01*
X133560457Y-92598119D01*
X133499981Y-92797690D01*
X132774267Y-93595976D01*
X133560457Y-93595976D01*
X163381976Y-121461667D02*
X162716738Y-121885000D01*
X163381976Y-122187381D02*
X161984976Y-122187381D01*
X161984976Y-121703572D01*
X162051500Y-121582619D01*
X162118024Y-121522143D01*
X162251071Y-121461667D01*
X162450643Y-121461667D01*
X162583690Y-121522143D01*
X162650214Y-121582619D01*
X162716738Y-121703572D01*
X162716738Y-122187381D01*
X161984976Y-121038333D02*
X161984976Y-120252143D01*
X162517167Y-120675476D01*
X162517167Y-120494048D01*
X162583690Y-120373095D01*
X162650214Y-120312619D01*
X162783262Y-120252143D01*
X163115881Y-120252143D01*
X163248929Y-120312619D01*
X163315452Y-120373095D01*
X163381976Y-120494048D01*
X163381976Y-120856905D01*
X163315452Y-120977857D01*
X163248929Y-121038333D01*
X169541976Y-105494667D02*
X168876738Y-105918000D01*
X169541976Y-106220381D02*
X168144976Y-106220381D01*
X168144976Y-105736572D01*
X168211500Y-105615619D01*
X168278024Y-105555143D01*
X168411071Y-105494667D01*
X168610643Y-105494667D01*
X168743690Y-105555143D01*
X168810214Y-105615619D01*
X168876738Y-105736572D01*
X168876738Y-106220381D01*
X168610643Y-104406095D02*
X169541976Y-104406095D01*
X168078452Y-104708476D02*
X169076310Y-105010857D01*
X169076310Y-104224667D01*
X152823333Y-93494376D02*
X152400000Y-92829138D01*
X152097619Y-93494376D02*
X152097619Y-92097376D01*
X152581428Y-92097376D01*
X152702381Y-92163900D01*
X152762857Y-92230424D01*
X152823333Y-92363471D01*
X152823333Y-92563043D01*
X152762857Y-92696090D01*
X152702381Y-92762614D01*
X152581428Y-92829138D01*
X152097619Y-92829138D01*
X153972381Y-92097376D02*
X153367619Y-92097376D01*
X153307143Y-92762614D01*
X153367619Y-92696090D01*
X153488571Y-92629567D01*
X153790952Y-92629567D01*
X153911905Y-92696090D01*
X153972381Y-92762614D01*
X154032857Y-92895662D01*
X154032857Y-93228281D01*
X153972381Y-93361329D01*
X153911905Y-93427852D01*
X153790952Y-93494376D01*
X153488571Y-93494376D01*
X153367619Y-93427852D01*
X153307143Y-93361329D01*
X156328533Y-133524776D02*
X155905200Y-132859538D01*
X155602819Y-133524776D02*
X155602819Y-132127776D01*
X156086628Y-132127776D01*
X156207581Y-132194300D01*
X156268057Y-132260824D01*
X156328533Y-132393871D01*
X156328533Y-132593443D01*
X156268057Y-132726490D01*
X156207581Y-132793014D01*
X156086628Y-132859538D01*
X155602819Y-132859538D01*
X157417105Y-132127776D02*
X157175200Y-132127776D01*
X157054248Y-132194300D01*
X156993771Y-132260824D01*
X156872819Y-132460395D01*
X156812343Y-132726490D01*
X156812343Y-133258681D01*
X156872819Y-133391729D01*
X156933295Y-133458252D01*
X157054248Y-133524776D01*
X157296152Y-133524776D01*
X157417105Y-133458252D01*
X157477581Y-133391729D01*
X157538057Y-133258681D01*
X157538057Y-132926062D01*
X157477581Y-132793014D01*
X157417105Y-132726490D01*
X157296152Y-132659967D01*
X157054248Y-132659967D01*
X156933295Y-132726490D01*
X156872819Y-132793014D01*
X156812343Y-132926062D01*
X134636933Y-120011976D02*
X134213600Y-119346738D01*
X133911219Y-120011976D02*
X133911219Y-118614976D01*
X134395028Y-118614976D01*
X134515981Y-118681500D01*
X134576457Y-118748024D01*
X134636933Y-118881071D01*
X134636933Y-119080643D01*
X134576457Y-119213690D01*
X134515981Y-119280214D01*
X134395028Y-119346738D01*
X133911219Y-119346738D01*
X135060267Y-118614976D02*
X135906933Y-118614976D01*
X135362648Y-120011976D01*
X120646976Y-106713867D02*
X119981738Y-107137200D01*
X120646976Y-107439581D02*
X119249976Y-107439581D01*
X119249976Y-106955772D01*
X119316500Y-106834819D01*
X119383024Y-106774343D01*
X119516071Y-106713867D01*
X119715643Y-106713867D01*
X119848690Y-106774343D01*
X119915214Y-106834819D01*
X119981738Y-106955772D01*
X119981738Y-107439581D01*
X119848690Y-105988152D02*
X119782167Y-106109105D01*
X119715643Y-106169581D01*
X119582595Y-106230057D01*
X119516071Y-106230057D01*
X119383024Y-106169581D01*
X119316500Y-106109105D01*
X119249976Y-105988152D01*
X119249976Y-105746248D01*
X119316500Y-105625295D01*
X119383024Y-105564819D01*
X119516071Y-105504343D01*
X119582595Y-105504343D01*
X119715643Y-105564819D01*
X119782167Y-105625295D01*
X119848690Y-105746248D01*
X119848690Y-105988152D01*
X119915214Y-106109105D01*
X119981738Y-106169581D01*
X120114786Y-106230057D01*
X120380881Y-106230057D01*
X120513929Y-106169581D01*
X120580452Y-106109105D01*
X120646976Y-105988152D01*
X120646976Y-105746248D01*
X120580452Y-105625295D01*
X120513929Y-105564819D01*
X120380881Y-105504343D01*
X120114786Y-105504343D01*
X119981738Y-105564819D01*
X119915214Y-105625295D01*
X119848690Y-105746248D01*
D18*
X192223209Y-103446943D02*
X191497494Y-103954943D01*
X192223209Y-104317800D02*
X190699209Y-104317800D01*
X190699209Y-103737228D01*
X190771780Y-103592086D01*
X190844351Y-103519514D01*
X190989494Y-103446943D01*
X191207209Y-103446943D01*
X191352351Y-103519514D01*
X191424923Y-103592086D01*
X191497494Y-103737228D01*
X191497494Y-104317800D01*
X190699209Y-103011514D02*
X192223209Y-102503514D01*
X190699209Y-101995514D01*
X192223209Y-100689228D02*
X192223209Y-101560085D01*
X192223209Y-101124657D02*
X190699209Y-101124657D01*
X190916923Y-101269800D01*
X191062066Y-101414942D01*
X191134637Y-101560085D01*
X179223489Y-106966657D02*
X177699489Y-106966657D01*
X177699489Y-106386085D01*
X177772060Y-106240943D01*
X177844631Y-106168371D01*
X177989774Y-106095800D01*
X178207489Y-106095800D01*
X178352631Y-106168371D01*
X178425203Y-106240943D01*
X178497774Y-106386085D01*
X178497774Y-106966657D01*
X177699489Y-105152371D02*
X177699489Y-104862085D01*
X177772060Y-104716943D01*
X177917203Y-104571800D01*
X178207489Y-104499228D01*
X178715489Y-104499228D01*
X179005774Y-104571800D01*
X179150917Y-104716943D01*
X179223489Y-104862085D01*
X179223489Y-105152371D01*
X179150917Y-105297514D01*
X179005774Y-105442657D01*
X178715489Y-105515228D01*
X178207489Y-105515228D01*
X177917203Y-105442657D01*
X177772060Y-105297514D01*
X177699489Y-105152371D01*
X177699489Y-104063800D02*
X177699489Y-103192943D01*
X179223489Y-103628372D02*
X177699489Y-103628372D01*
X179368631Y-103047800D02*
X179368631Y-101886657D01*
X177699489Y-100798086D02*
X177699489Y-101523800D01*
X178425203Y-101596371D01*
X178352631Y-101523800D01*
X178280060Y-101378657D01*
X178280060Y-101015800D01*
X178352631Y-100870657D01*
X178425203Y-100798086D01*
X178570346Y-100725514D01*
X178933203Y-100725514D01*
X179078346Y-100798086D01*
X179150917Y-100870657D01*
X179223489Y-101015800D01*
X179223489Y-101378657D01*
X179150917Y-101523800D01*
X179078346Y-101596371D01*
X177699489Y-99782085D02*
X177699489Y-99636942D01*
X177772060Y-99491799D01*
X177844631Y-99419228D01*
X177989774Y-99346657D01*
X178280060Y-99274085D01*
X178642917Y-99274085D01*
X178933203Y-99346657D01*
X179078346Y-99419228D01*
X179150917Y-99491799D01*
X179223489Y-99636942D01*
X179223489Y-99782085D01*
X179150917Y-99927228D01*
X179078346Y-99999799D01*
X178933203Y-100072371D01*
X178642917Y-100144942D01*
X178280060Y-100144942D01*
X177989774Y-100072371D01*
X177844631Y-99999799D01*
X177772060Y-99927228D01*
X177699489Y-99782085D01*
X179223489Y-98620942D02*
X177699489Y-98620942D01*
X178642917Y-98475799D02*
X179223489Y-98040370D01*
X178207489Y-98040370D02*
X178788060Y-98620942D01*
D19*
X132987143Y-98936629D02*
X132987143Y-100170343D01*
X133041571Y-100315486D01*
X133096000Y-100388057D01*
X133204857Y-100460629D01*
X133422571Y-100460629D01*
X133531429Y-100388057D01*
X133585857Y-100315486D01*
X133640286Y-100170343D01*
X133640286Y-98936629D01*
X134783286Y-100460629D02*
X134130143Y-100460629D01*
X134456715Y-100460629D02*
X134456715Y-98936629D01*
X134347858Y-99154343D01*
X134239000Y-99299486D01*
X134130143Y-99372057D01*
D20*
D21*
X131814834Y-113233676D02*
X131814834Y-112109676D01*
X132353691Y-113233676D01*
X132353691Y-112109676D01*
X132802739Y-112644914D02*
X133117072Y-112644914D01*
X133251786Y-113233676D02*
X132802739Y-113233676D01*
X132802739Y-112109676D01*
X133251786Y-112109676D01*
X134104976Y-112109676D02*
X133655929Y-112109676D01*
X133611024Y-112644914D01*
X133655929Y-112591390D01*
X133745738Y-112537867D01*
X133970262Y-112537867D01*
X134060072Y-112591390D01*
X134104976Y-112644914D01*
X134149881Y-112751962D01*
X134149881Y-113019581D01*
X134104976Y-113126629D01*
X134060072Y-113180152D01*
X133970262Y-113233676D01*
X133745738Y-113233676D01*
X133655929Y-113180152D01*
X133611024Y-113126629D01*
X135003071Y-112109676D02*
X134554024Y-112109676D01*
X134509119Y-112644914D01*
X134554024Y-112591390D01*
X134643833Y-112537867D01*
X134868357Y-112537867D01*
X134958167Y-112591390D01*
X135003071Y-112644914D01*
X135047976Y-112751962D01*
X135047976Y-113019581D01*
X135003071Y-113126629D01*
X134958167Y-113180152D01*
X134868357Y-113233676D01*
X134643833Y-113233676D01*
X134554024Y-113180152D01*
X134509119Y-113126629D01*
X135901166Y-112109676D02*
X135452119Y-112109676D01*
X135407214Y-112644914D01*
X135452119Y-112591390D01*
X135541928Y-112537867D01*
X135766452Y-112537867D01*
X135856262Y-112591390D01*
X135901166Y-112644914D01*
X135946071Y-112751962D01*
X135946071Y-113019581D01*
X135901166Y-113126629D01*
X135856262Y-113180152D01*
X135766452Y-113233676D01*
X135541928Y-113233676D01*
X135452119Y-113180152D01*
X135407214Y-113126629D01*
D19*
X151129143Y-98815429D02*
X151129143Y-100049143D01*
X151183571Y-100194286D01*
X151238000Y-100266857D01*
X151346857Y-100339429D01*
X151564571Y-100339429D01*
X151673429Y-100266857D01*
X151727857Y-100194286D01*
X151782286Y-100049143D01*
X151782286Y-98815429D01*
X152272143Y-98960571D02*
X152326572Y-98888000D01*
X152435429Y-98815429D01*
X152707572Y-98815429D01*
X152816429Y-98888000D01*
X152870858Y-98960571D01*
X152925286Y-99105714D01*
X152925286Y-99250857D01*
X152870858Y-99468571D01*
X152217715Y-100339429D01*
X152925286Y-100339429D01*
D20*
D21*
X148206834Y-113258476D02*
X148206834Y-112134476D01*
X148745691Y-113258476D01*
X148745691Y-112134476D01*
X149194739Y-112669714D02*
X149509072Y-112669714D01*
X149643786Y-113258476D02*
X149194739Y-113258476D01*
X149194739Y-112134476D01*
X149643786Y-112134476D01*
X150496976Y-112134476D02*
X150047929Y-112134476D01*
X150003024Y-112669714D01*
X150047929Y-112616190D01*
X150137738Y-112562667D01*
X150362262Y-112562667D01*
X150452072Y-112616190D01*
X150496976Y-112669714D01*
X150541881Y-112776762D01*
X150541881Y-113044381D01*
X150496976Y-113151429D01*
X150452072Y-113204952D01*
X150362262Y-113258476D01*
X150137738Y-113258476D01*
X150047929Y-113204952D01*
X150003024Y-113151429D01*
X151395071Y-112134476D02*
X150946024Y-112134476D01*
X150901119Y-112669714D01*
X150946024Y-112616190D01*
X151035833Y-112562667D01*
X151260357Y-112562667D01*
X151350167Y-112616190D01*
X151395071Y-112669714D01*
X151439976Y-112776762D01*
X151439976Y-113044381D01*
X151395071Y-113151429D01*
X151350167Y-113204952D01*
X151260357Y-113258476D01*
X151035833Y-113258476D01*
X150946024Y-113204952D01*
X150901119Y-113151429D01*
X152293166Y-112134476D02*
X151844119Y-112134476D01*
X151799214Y-112669714D01*
X151844119Y-112616190D01*
X151933928Y-112562667D01*
X152158452Y-112562667D01*
X152248262Y-112616190D01*
X152293166Y-112669714D01*
X152338071Y-112776762D01*
X152338071Y-113044381D01*
X152293166Y-113151429D01*
X152248262Y-113204952D01*
X152158452Y-113258476D01*
X151933928Y-113258476D01*
X151844119Y-113204952D01*
X151799214Y-113151429D01*
D19*
X152341943Y-115040229D02*
X152341943Y-116273943D01*
X152396371Y-116419086D01*
X152450800Y-116491657D01*
X152559657Y-116564229D01*
X152777371Y-116564229D01*
X152886229Y-116491657D01*
X152940657Y-116419086D01*
X152995086Y-116273943D01*
X152995086Y-115040229D01*
X153430515Y-115040229D02*
X154138086Y-115040229D01*
X153757086Y-115620800D01*
X153920372Y-115620800D01*
X154029229Y-115693371D01*
X154083658Y-115765943D01*
X154138086Y-115911086D01*
X154138086Y-116273943D01*
X154083658Y-116419086D01*
X154029229Y-116491657D01*
X153920372Y-116564229D01*
X153593800Y-116564229D01*
X153484943Y-116491657D01*
X153430515Y-116419086D01*
D20*
D21*
X151405881Y-129008476D02*
X150956834Y-129008476D01*
X150956834Y-127884476D01*
X151720215Y-129008476D02*
X151720215Y-127884476D01*
X152034548Y-128687333D01*
X152348881Y-127884476D01*
X152348881Y-129008476D01*
X152708119Y-127884476D02*
X153291881Y-127884476D01*
X152977548Y-128312667D01*
X153112262Y-128312667D01*
X153202072Y-128366190D01*
X153246976Y-128419714D01*
X153291881Y-128526762D01*
X153291881Y-128794381D01*
X153246976Y-128901429D01*
X153202072Y-128954952D01*
X153112262Y-129008476D01*
X152842834Y-129008476D01*
X152753024Y-128954952D01*
X152708119Y-128901429D01*
X154145071Y-127884476D02*
X153696024Y-127884476D01*
X153651119Y-128419714D01*
X153696024Y-128366190D01*
X153785833Y-128312667D01*
X154010357Y-128312667D01*
X154100167Y-128366190D01*
X154145071Y-128419714D01*
X154189976Y-128526762D01*
X154189976Y-128794381D01*
X154145071Y-128901429D01*
X154100167Y-128954952D01*
X154010357Y-129008476D01*
X153785833Y-129008476D01*
X153696024Y-128954952D01*
X153651119Y-128901429D01*
X154728833Y-128366190D02*
X154639024Y-128312667D01*
X154594119Y-128259143D01*
X154549214Y-128152095D01*
X154549214Y-128098571D01*
X154594119Y-127991524D01*
X154639024Y-127938000D01*
X154728833Y-127884476D01*
X154908452Y-127884476D01*
X154998262Y-127938000D01*
X155043166Y-127991524D01*
X155088071Y-128098571D01*
X155088071Y-128152095D01*
X155043166Y-128259143D01*
X154998262Y-128312667D01*
X154908452Y-128366190D01*
X154728833Y-128366190D01*
X154639024Y-128419714D01*
X154594119Y-128473238D01*
X154549214Y-128580286D01*
X154549214Y-128794381D01*
X154594119Y-128901429D01*
X154639024Y-128954952D01*
X154728833Y-129008476D01*
X154908452Y-129008476D01*
X154998262Y-128954952D01*
X155043166Y-128901429D01*
X155088071Y-128794381D01*
X155088071Y-128580286D01*
X155043166Y-128473238D01*
X154998262Y-128419714D01*
X154908452Y-128366190D01*
M02*
