G04 #@! TF.FileFunction,Copper,L1,Top,Signal*
%FSLAX46Y46*%
G04 Gerber Fmt 4.6, Leading zero omitted, Abs format (unit mm)*
G04 Created by KiCad (PCBNEW 4.0.7) date 06/28/18 23:50:01*
%MOMM*%
%LPD*%
G01*
G04 APERTURE LIST*
%ADD10C,0.100000*%
%ADD11R,1.300000X1.300000*%
%ADD12C,1.300000*%
%ADD13R,1.800000X1.800000*%
%ADD14C,1.800000*%
%ADD15R,2.032000X2.032000*%
%ADD16O,2.032000X2.032000*%
%ADD17R,2.500000X3.500000*%
%ADD18O,3.500000X1.750000*%
%ADD19C,1.998980*%
%ADD20C,4.000500*%
%ADD21O,1.501140X2.199640*%
%ADD22C,0.600000*%
%ADD23C,0.350000*%
%ADD24C,0.254000*%
G04 APERTURE END LIST*
D10*
D11*
X131000000Y-128500000D03*
D12*
X133500000Y-128500000D03*
D11*
X178714400Y-131368800D03*
D12*
X178714400Y-133868800D03*
D11*
X142900400Y-114503200D03*
D12*
X145400400Y-114503200D03*
D13*
X163779200Y-108788200D03*
D14*
X163779200Y-111328200D03*
D13*
X120980200Y-120878600D03*
D14*
X120980200Y-118338600D03*
D15*
X124000000Y-127000000D03*
D16*
X124000000Y-129540000D03*
D15*
X142494000Y-128727200D03*
D16*
X139954000Y-128727200D03*
D17*
X186228600Y-117805200D03*
D18*
X181222600Y-122805200D03*
X181222600Y-112805200D03*
X181222600Y-120305200D03*
X181222600Y-115305200D03*
D19*
X169926000Y-132080000D03*
X169926000Y-116840000D03*
X124815600Y-93980000D03*
X140055600Y-93980000D03*
X163677600Y-131419600D03*
X163677600Y-116179600D03*
X169926000Y-113030000D03*
X169926000Y-97790000D03*
X145288000Y-93878400D03*
X160528000Y-93878400D03*
X148793200Y-133908800D03*
X164033200Y-133908800D03*
X127101600Y-120396000D03*
X142341600Y-120396000D03*
X121031000Y-114249200D03*
X121031000Y-99009200D03*
X179783740Y-100040440D03*
X189786260Y-102539800D03*
X179783740Y-105039160D03*
D20*
X184785000Y-102539800D03*
D21*
X130048000Y-109931200D03*
X132588000Y-109931200D03*
X135128000Y-109931200D03*
X137668000Y-109931200D03*
X137668000Y-102311200D03*
X135128000Y-102311200D03*
X132588000Y-102311200D03*
X130048000Y-102311200D03*
X148190000Y-109810000D03*
X150730000Y-109810000D03*
X153270000Y-109810000D03*
X155810000Y-109810000D03*
X155810000Y-102190000D03*
X153270000Y-102190000D03*
X150730000Y-102190000D03*
X148190000Y-102190000D03*
X149402800Y-126034800D03*
X151942800Y-126034800D03*
X154482800Y-126034800D03*
X157022800Y-126034800D03*
X157022800Y-118414800D03*
X154482800Y-118414800D03*
X151942800Y-118414800D03*
X149402800Y-118414800D03*
D22*
X162500000Y-106500000D03*
X154500000Y-114500000D03*
X164500000Y-119500000D03*
X161500000Y-116500000D03*
X157000000Y-115000000D03*
X148500000Y-105000000D03*
X135000000Y-105750000D03*
X163250000Y-105500000D03*
X167250000Y-114000000D03*
X140000000Y-115500000D03*
D23*
X162500000Y-106500000D02*
X154500000Y-114500000D01*
X164500000Y-119500000D02*
X161500000Y-116500000D01*
X142900400Y-114503200D02*
X143000000Y-114500000D01*
X143000000Y-114500000D02*
X148000000Y-119500000D01*
X148000000Y-119500000D02*
X148000000Y-120000000D01*
X148000000Y-120000000D02*
X149500000Y-121500000D01*
X149500000Y-121500000D02*
X149500000Y-126000000D01*
X149500000Y-126000000D02*
X149402800Y-126034800D01*
X163779200Y-111328200D02*
X164000000Y-111500000D01*
X164000000Y-111500000D02*
X163500000Y-112000000D01*
X163500000Y-112000000D02*
X163500000Y-116000000D01*
X163500000Y-116000000D02*
X163677600Y-116179600D01*
X120980200Y-118338600D02*
X121000000Y-118500000D01*
X121000000Y-118500000D02*
X122500000Y-117000000D01*
X122500000Y-117000000D02*
X122500000Y-113000000D01*
X122500000Y-113000000D02*
X121000000Y-111500000D01*
X121000000Y-111500000D02*
X121000000Y-99000000D01*
X121000000Y-99000000D02*
X121031000Y-99009200D01*
X189786260Y-102539800D02*
X190000000Y-102500000D01*
X190000000Y-102500000D02*
X186000000Y-106500000D01*
X186000000Y-106500000D02*
X186000000Y-118000000D01*
X186000000Y-118000000D02*
X186228600Y-117805200D01*
X181222600Y-120305200D02*
X181000000Y-120500000D01*
X181000000Y-120500000D02*
X179000000Y-118500000D01*
X179000000Y-118500000D02*
X179000000Y-114000000D01*
X179000000Y-114000000D02*
X180000000Y-114000000D01*
X180000000Y-114000000D02*
X181000000Y-113000000D01*
X181000000Y-113000000D02*
X181222600Y-112805200D01*
X181222600Y-120305200D02*
X181000000Y-120500000D01*
X181000000Y-120500000D02*
X181000000Y-123000000D01*
X181000000Y-123000000D02*
X181222600Y-122805200D01*
X163677600Y-131419600D02*
X163500000Y-131500000D01*
X163500000Y-131500000D02*
X158500000Y-126500000D01*
X158500000Y-126500000D02*
X158500000Y-116500000D01*
X158500000Y-116500000D02*
X157000000Y-115000000D01*
X160528000Y-93878400D02*
X160500000Y-94000000D01*
X160500000Y-94000000D02*
X153500000Y-101000000D01*
X153500000Y-101000000D02*
X153500000Y-102000000D01*
X153500000Y-102000000D02*
X153270000Y-102190000D01*
X154482800Y-126034800D02*
X154500000Y-126000000D01*
X154500000Y-126000000D02*
X153500000Y-127000000D01*
X153500000Y-127000000D02*
X153500000Y-128000000D01*
X153500000Y-128000000D02*
X149000000Y-132500000D01*
X149000000Y-132500000D02*
X149000000Y-134000000D01*
X149000000Y-134000000D02*
X148793200Y-133908800D01*
X130048000Y-109931200D02*
X130000000Y-110000000D01*
X130000000Y-110000000D02*
X127000000Y-113000000D01*
X127000000Y-113000000D02*
X127000000Y-120500000D01*
X127000000Y-120500000D02*
X127101600Y-120396000D01*
X120980200Y-120878600D02*
X121000000Y-121000000D01*
X121000000Y-121000000D02*
X124000000Y-124000000D01*
X124000000Y-124000000D02*
X124000000Y-127000000D01*
X139954000Y-128727200D02*
X140000000Y-128500000D01*
X140000000Y-128500000D02*
X141000000Y-127500000D01*
X141000000Y-127500000D02*
X141000000Y-127000000D01*
X141000000Y-127000000D02*
X142500000Y-125500000D01*
X142500000Y-125500000D02*
X142500000Y-120500000D01*
X142500000Y-120500000D02*
X142341600Y-120396000D01*
X179783740Y-105039160D02*
X180000000Y-105000000D01*
X180000000Y-105000000D02*
X183500000Y-108500000D01*
X183500000Y-108500000D02*
X183500000Y-114500000D01*
X183500000Y-114500000D02*
X182000000Y-114500000D01*
X182000000Y-114500000D02*
X181000000Y-115500000D01*
X181000000Y-115500000D02*
X181222600Y-115305200D01*
X155810000Y-109810000D02*
X154500000Y-108500000D01*
X154500000Y-108500000D02*
X154500000Y-108000000D01*
X154500000Y-108000000D02*
X153500000Y-108000000D01*
X153500000Y-108000000D02*
X148000000Y-102500000D01*
X148000000Y-102500000D02*
X148000000Y-102000000D01*
X148000000Y-102000000D02*
X148190000Y-102190000D01*
X130048000Y-102311200D02*
X130000000Y-102500000D01*
X130000000Y-102500000D02*
X125500000Y-107000000D01*
X125500000Y-107000000D02*
X125500000Y-128500000D01*
X125500000Y-128500000D02*
X125000000Y-128500000D01*
X125000000Y-128500000D02*
X124000000Y-129500000D01*
X124000000Y-129500000D02*
X124000000Y-129540000D01*
X155810000Y-109810000D02*
X155500000Y-110500000D01*
X155500000Y-110500000D02*
X149500000Y-116500000D01*
X149500000Y-116500000D02*
X149500000Y-118500000D01*
X149500000Y-118500000D02*
X149402800Y-118414800D01*
X169926000Y-113030000D02*
X170000000Y-113000000D01*
X170000000Y-113000000D02*
X168500000Y-114500000D01*
X168500000Y-114500000D02*
X168500000Y-118000000D01*
X168500000Y-118000000D02*
X170000000Y-119500000D01*
X170000000Y-119500000D02*
X170000000Y-132000000D01*
X170000000Y-132000000D02*
X169926000Y-132080000D01*
X148500000Y-105000000D02*
X141500000Y-112000000D01*
X141500000Y-112000000D02*
X141500000Y-116000000D01*
X141500000Y-116000000D02*
X144000000Y-118500000D01*
X144000000Y-118500000D02*
X144000000Y-121500000D01*
X144000000Y-121500000D02*
X143500000Y-122000000D01*
X143500000Y-122000000D02*
X143500000Y-126500000D01*
X143500000Y-126500000D02*
X142500000Y-127500000D01*
X142500000Y-127500000D02*
X142500000Y-128500000D01*
X142500000Y-128500000D02*
X142494000Y-128727200D01*
X145288000Y-93878400D02*
X145500000Y-94000000D01*
X145500000Y-94000000D02*
X150500000Y-99000000D01*
X150500000Y-99000000D02*
X150500000Y-102000000D01*
X150500000Y-102000000D02*
X150730000Y-102190000D01*
X132588000Y-102311200D02*
X132500000Y-102250000D01*
X132500000Y-102250000D02*
X134000000Y-103750000D01*
X134000000Y-103750000D02*
X134000000Y-104000000D01*
X134000000Y-104000000D02*
X135000000Y-105000000D01*
X135000000Y-105000000D02*
X135000000Y-105750000D01*
X163250000Y-105500000D02*
X167250000Y-109500000D01*
X167250000Y-109500000D02*
X167250000Y-114000000D01*
X124815600Y-93980000D02*
X124750000Y-94000000D01*
X124750000Y-94000000D02*
X132500000Y-101750000D01*
X132500000Y-101750000D02*
X132500000Y-102250000D01*
X132500000Y-102250000D02*
X132588000Y-102311200D01*
X140000000Y-112500000D02*
X140000000Y-115500000D01*
X137668000Y-109931200D02*
X137500000Y-110000000D01*
X137500000Y-110000000D02*
X140000000Y-112500000D01*
X140055600Y-93980000D02*
X140000000Y-94000000D01*
X140000000Y-94000000D02*
X135000000Y-99000000D01*
X135000000Y-99000000D02*
X135000000Y-102500000D01*
X135000000Y-102500000D02*
X135128000Y-102311200D01*
X135128000Y-102311200D02*
X135000000Y-102500000D01*
X135000000Y-102500000D02*
X137500000Y-105000000D01*
X137500000Y-105000000D02*
X137500000Y-110000000D01*
X137500000Y-110000000D02*
X137668000Y-109931200D01*
D24*
G36*
X166997954Y-95252046D02*
X167228295Y-95405954D01*
X167500000Y-95460000D01*
X189205908Y-95460000D01*
X192790000Y-99044092D01*
X192790000Y-122705908D01*
X184497954Y-130997954D01*
X184344046Y-131228295D01*
X184290000Y-131500000D01*
X184290000Y-133455908D01*
X179955908Y-137790000D01*
X147544092Y-137790000D01*
X144252046Y-134497954D01*
X144021705Y-134344046D01*
X143750000Y-134290000D01*
X116044092Y-134290000D01*
X113460000Y-131705908D01*
X113460000Y-122794092D01*
X115502043Y-120752048D01*
X115502046Y-120752046D01*
X117002046Y-119252046D01*
X117155954Y-119021705D01*
X117210000Y-118750000D01*
X117210000Y-99332894D01*
X119396226Y-99332894D01*
X119644538Y-99933855D01*
X120103927Y-100394046D01*
X120190000Y-100429787D01*
X120190000Y-111500000D01*
X120251658Y-111809974D01*
X120330016Y-111927244D01*
X120427244Y-112072756D01*
X120969142Y-112614655D01*
X120707306Y-112614426D01*
X120106345Y-112862738D01*
X119646154Y-113322127D01*
X119396794Y-113922653D01*
X119396226Y-114572894D01*
X119644538Y-115173855D01*
X120103927Y-115634046D01*
X120704453Y-115883406D01*
X121354694Y-115883974D01*
X121690000Y-115745428D01*
X121690000Y-116664487D01*
X121473235Y-116881252D01*
X121286870Y-116803867D01*
X120676209Y-116803335D01*
X120111829Y-117036532D01*
X119679649Y-117467957D01*
X119445467Y-118031930D01*
X119444935Y-118642591D01*
X119678132Y-119206971D01*
X119846080Y-119375213D01*
X119844883Y-119375438D01*
X119628759Y-119514510D01*
X119483769Y-119726710D01*
X119432760Y-119978600D01*
X119432760Y-121778600D01*
X119477038Y-122013917D01*
X119616110Y-122230041D01*
X119828310Y-122375031D01*
X120080200Y-122426040D01*
X121280528Y-122426040D01*
X123190000Y-124335513D01*
X123190000Y-125336560D01*
X122984000Y-125336560D01*
X122748683Y-125380838D01*
X122532559Y-125519910D01*
X122387569Y-125732110D01*
X122336560Y-125984000D01*
X122336560Y-128016000D01*
X122380838Y-128251317D01*
X122519910Y-128467441D01*
X122676206Y-128574233D01*
X122474675Y-128875845D01*
X122349000Y-129507655D01*
X122349000Y-129572345D01*
X122474675Y-130204155D01*
X122832567Y-130739778D01*
X123368190Y-131097670D01*
X124000000Y-131223345D01*
X124631810Y-131097670D01*
X125167433Y-130739778D01*
X125525325Y-130204155D01*
X125651000Y-129572345D01*
X125651000Y-129507655D01*
X125607433Y-129288630D01*
X125809974Y-129248342D01*
X126072756Y-129072756D01*
X126248342Y-128809974D01*
X126310000Y-128500000D01*
X126310000Y-127850000D01*
X129702560Y-127850000D01*
X129702560Y-129150000D01*
X129746838Y-129385317D01*
X129885910Y-129601441D01*
X130098110Y-129746431D01*
X130350000Y-129797440D01*
X131650000Y-129797440D01*
X131885317Y-129753162D01*
X132101441Y-129614090D01*
X132246431Y-129401890D01*
X132297440Y-129150000D01*
X132297440Y-128954540D01*
X132409995Y-129226943D01*
X132771155Y-129588735D01*
X133243276Y-129784777D01*
X133754481Y-129785223D01*
X134226943Y-129590005D01*
X134588735Y-129228845D01*
X134784777Y-128756724D01*
X134785223Y-128245519D01*
X134590005Y-127773057D01*
X134228845Y-127411265D01*
X133756724Y-127215223D01*
X133245519Y-127214777D01*
X132773057Y-127409995D01*
X132411265Y-127771155D01*
X132297440Y-128045276D01*
X132297440Y-127850000D01*
X132253162Y-127614683D01*
X132114090Y-127398559D01*
X131901890Y-127253569D01*
X131650000Y-127202560D01*
X130350000Y-127202560D01*
X130114683Y-127246838D01*
X129898559Y-127385910D01*
X129753569Y-127598110D01*
X129702560Y-127850000D01*
X126310000Y-127850000D01*
X126310000Y-121837099D01*
X126775053Y-122030206D01*
X127425294Y-122030774D01*
X128026255Y-121782462D01*
X128486446Y-121323073D01*
X128735806Y-120722547D01*
X128736374Y-120072306D01*
X128488062Y-119471345D01*
X128028673Y-119011154D01*
X127810000Y-118920353D01*
X127810000Y-113335512D01*
X129545466Y-111600047D01*
X130048000Y-111700007D01*
X130578235Y-111594537D01*
X131027746Y-111294183D01*
X131318000Y-110859788D01*
X131608254Y-111294183D01*
X132057765Y-111594537D01*
X132588000Y-111700007D01*
X133118235Y-111594537D01*
X133567746Y-111294183D01*
X133858000Y-110859788D01*
X134148254Y-111294183D01*
X134597765Y-111594537D01*
X135128000Y-111700007D01*
X135658235Y-111594537D01*
X136107746Y-111294183D01*
X136398000Y-110859788D01*
X136688254Y-111294183D01*
X137137765Y-111594537D01*
X137668000Y-111700007D01*
X137990371Y-111635884D01*
X139190000Y-112835513D01*
X139190000Y-115012559D01*
X139065162Y-115313201D01*
X139064838Y-115685167D01*
X139206883Y-116028943D01*
X139469673Y-116292192D01*
X139813201Y-116434838D01*
X140185167Y-116435162D01*
X140528943Y-116293117D01*
X140711963Y-116110416D01*
X140751658Y-116309974D01*
X140874459Y-116493758D01*
X140927244Y-116572756D01*
X143190000Y-118835513D01*
X143190000Y-118978486D01*
X142668147Y-118761794D01*
X142017906Y-118761226D01*
X141416945Y-119009538D01*
X140956754Y-119468927D01*
X140707394Y-120069453D01*
X140706826Y-120719694D01*
X140955138Y-121320655D01*
X141414527Y-121780846D01*
X141690000Y-121895232D01*
X141690000Y-125164487D01*
X140427244Y-126427244D01*
X140251658Y-126690026D01*
X140190000Y-127000000D01*
X140190000Y-127116710D01*
X139986345Y-127076200D01*
X139921655Y-127076200D01*
X139289845Y-127201875D01*
X138754222Y-127559767D01*
X138396330Y-128095390D01*
X138270655Y-128727200D01*
X138396330Y-129359010D01*
X138754222Y-129894633D01*
X139289845Y-130252525D01*
X139921655Y-130378200D01*
X139986345Y-130378200D01*
X140618155Y-130252525D01*
X140920962Y-130050196D01*
X141013910Y-130194641D01*
X141226110Y-130339631D01*
X141478000Y-130390640D01*
X143510000Y-130390640D01*
X143745317Y-130346362D01*
X143961441Y-130207290D01*
X144106431Y-129995090D01*
X144157440Y-129743200D01*
X144157440Y-127711200D01*
X144113162Y-127475883D01*
X143974090Y-127259759D01*
X143921611Y-127223902D01*
X144072757Y-127072756D01*
X144248343Y-126809973D01*
X144310000Y-126500000D01*
X144310000Y-122335512D01*
X144572757Y-122072756D01*
X144748343Y-121809973D01*
X144775766Y-121672103D01*
X144810000Y-121500000D01*
X144810000Y-118500000D01*
X144748342Y-118190026D01*
X144678012Y-118084771D01*
X144572757Y-117927244D01*
X142446152Y-115800640D01*
X143155128Y-115800640D01*
X147190000Y-119835513D01*
X147190000Y-120000000D01*
X147251658Y-120309974D01*
X147393133Y-120521705D01*
X147427244Y-120572756D01*
X148690000Y-121835513D01*
X148690000Y-124493449D01*
X148423054Y-124671817D01*
X148122700Y-125121328D01*
X148017230Y-125651563D01*
X148017230Y-126418037D01*
X148122700Y-126948272D01*
X148423054Y-127397783D01*
X148872565Y-127698137D01*
X149402800Y-127803607D01*
X149933035Y-127698137D01*
X150382546Y-127397783D01*
X150672800Y-126963388D01*
X150963054Y-127397783D01*
X151412565Y-127698137D01*
X151942800Y-127803607D01*
X152473035Y-127698137D01*
X152690000Y-127553165D01*
X152690000Y-127664487D01*
X148427244Y-131927244D01*
X148251658Y-132190026D01*
X148213945Y-132379622D01*
X147868545Y-132522338D01*
X147408354Y-132981727D01*
X147158994Y-133582253D01*
X147158426Y-134232494D01*
X147406738Y-134833455D01*
X147866127Y-135293646D01*
X148466653Y-135543006D01*
X149116894Y-135543574D01*
X149717855Y-135295262D01*
X150178046Y-134835873D01*
X150427406Y-134235347D01*
X150427974Y-133585106D01*
X150179662Y-132984145D01*
X149920741Y-132724772D01*
X154072756Y-128572757D01*
X154225145Y-128344690D01*
X154248342Y-128309974D01*
X154310000Y-128000000D01*
X154310000Y-127769235D01*
X154482800Y-127803607D01*
X155013035Y-127698137D01*
X155462546Y-127397783D01*
X155752800Y-126963388D01*
X156043054Y-127397783D01*
X156492565Y-127698137D01*
X157022800Y-127803607D01*
X157553035Y-127698137D01*
X158002546Y-127397783D01*
X158102572Y-127248084D01*
X162043310Y-131188823D01*
X162042826Y-131743294D01*
X162291138Y-132344255D01*
X162750527Y-132804446D01*
X162803789Y-132826562D01*
X162648354Y-132981727D01*
X162398994Y-133582253D01*
X162398426Y-134232494D01*
X162646738Y-134833455D01*
X163106127Y-135293646D01*
X163706653Y-135543006D01*
X164356894Y-135543574D01*
X164957855Y-135295262D01*
X165418046Y-134835873D01*
X165667406Y-134235347D01*
X165667974Y-133585106D01*
X165419662Y-132984145D01*
X164960273Y-132523954D01*
X164907011Y-132501838D01*
X165062446Y-132346673D01*
X165311806Y-131746147D01*
X165312374Y-131095906D01*
X165064062Y-130494945D01*
X164604673Y-130034754D01*
X164004147Y-129785394D01*
X163353906Y-129784826D01*
X163054182Y-129908669D01*
X159310000Y-126164488D01*
X159310000Y-116500000D01*
X159248342Y-116190026D01*
X159141634Y-116030327D01*
X159072756Y-115927243D01*
X157917430Y-114771917D01*
X157793117Y-114471057D01*
X157530327Y-114207808D01*
X157186799Y-114065162D01*
X156814833Y-114064838D01*
X156471057Y-114206883D01*
X156207808Y-114469673D01*
X156065162Y-114813201D01*
X156064838Y-115185167D01*
X156206883Y-115528943D01*
X156469673Y-115792192D01*
X156772372Y-115917884D01*
X157690000Y-116835513D01*
X157690000Y-116842980D01*
X157553035Y-116751463D01*
X157022800Y-116645993D01*
X156492565Y-116751463D01*
X156043054Y-117051817D01*
X155831926Y-117367792D01*
X155791301Y-117417983D01*
X155785665Y-117437027D01*
X155752800Y-117486212D01*
X155719935Y-117437027D01*
X155714299Y-117417983D01*
X155673674Y-117367792D01*
X155462546Y-117051817D01*
X155013035Y-116751463D01*
X154482800Y-116645993D01*
X153952565Y-116751463D01*
X153503054Y-117051817D01*
X153291926Y-117367792D01*
X153251301Y-117417983D01*
X153245665Y-117437027D01*
X153212800Y-117486212D01*
X153179935Y-117437027D01*
X153174299Y-117417983D01*
X153133674Y-117367792D01*
X152922546Y-117051817D01*
X152473035Y-116751463D01*
X151942800Y-116645993D01*
X151412565Y-116751463D01*
X150963054Y-117051817D01*
X150751926Y-117367792D01*
X150711301Y-117417983D01*
X150705665Y-117437027D01*
X150672800Y-117486212D01*
X150382546Y-117051817D01*
X150310000Y-117003343D01*
X150310000Y-116835512D01*
X155607071Y-111538442D01*
X155810000Y-111578807D01*
X156340235Y-111473337D01*
X156463542Y-111390946D01*
X154271918Y-113582570D01*
X153971057Y-113706883D01*
X153707808Y-113969673D01*
X153565162Y-114313201D01*
X153564838Y-114685167D01*
X153706883Y-115028943D01*
X153969673Y-115292192D01*
X154313201Y-115434838D01*
X154685167Y-115435162D01*
X155028943Y-115293117D01*
X155292192Y-115030327D01*
X155417884Y-114727628D01*
X162231760Y-107913753D01*
X162231760Y-109688200D01*
X162276038Y-109923517D01*
X162415110Y-110139641D01*
X162627310Y-110284631D01*
X162647734Y-110288767D01*
X162478649Y-110457557D01*
X162244467Y-111021530D01*
X162243935Y-111632191D01*
X162477132Y-112196571D01*
X162690000Y-112409812D01*
X162690000Y-114855973D01*
X162292754Y-115252527D01*
X162082149Y-115759721D01*
X162030327Y-115707808D01*
X161686799Y-115565162D01*
X161314833Y-115564838D01*
X160971057Y-115706883D01*
X160707808Y-115969673D01*
X160565162Y-116313201D01*
X160564838Y-116685167D01*
X160706883Y-117028943D01*
X160969673Y-117292192D01*
X161272372Y-117417884D01*
X163582571Y-119728084D01*
X163706883Y-120028943D01*
X163969673Y-120292192D01*
X164313201Y-120434838D01*
X164685167Y-120435162D01*
X165028943Y-120293117D01*
X165292192Y-120030327D01*
X165434838Y-119686799D01*
X165435162Y-119314833D01*
X165293117Y-118971057D01*
X165030327Y-118707808D01*
X164727629Y-118582116D01*
X163959850Y-117814338D01*
X164001294Y-117814374D01*
X164602255Y-117566062D01*
X165062446Y-117106673D01*
X165311806Y-116506147D01*
X165312374Y-115855906D01*
X165064062Y-115254945D01*
X164604673Y-114794754D01*
X164310000Y-114672395D01*
X164310000Y-112769749D01*
X164647571Y-112630268D01*
X165079751Y-112198843D01*
X165313933Y-111634870D01*
X165314465Y-111024209D01*
X165081268Y-110459829D01*
X164913320Y-110291587D01*
X164914517Y-110291362D01*
X165130641Y-110152290D01*
X165275631Y-109940090D01*
X165326640Y-109688200D01*
X165326640Y-108722153D01*
X166440000Y-109835513D01*
X166440000Y-113512559D01*
X166315162Y-113813201D01*
X166314838Y-114185167D01*
X166456883Y-114528943D01*
X166719673Y-114792192D01*
X167063201Y-114934838D01*
X167435167Y-114935162D01*
X167690000Y-114829867D01*
X167690000Y-118000000D01*
X167751658Y-118309974D01*
X167864127Y-118478295D01*
X167927244Y-118572756D01*
X169190000Y-119835513D01*
X169190000Y-130615587D01*
X169001345Y-130693538D01*
X168541154Y-131152927D01*
X168291794Y-131753453D01*
X168291226Y-132403694D01*
X168539538Y-133004655D01*
X168998927Y-133464846D01*
X169599453Y-133714206D01*
X170249694Y-133714774D01*
X170850655Y-133466462D01*
X171310846Y-133007073D01*
X171560206Y-132406547D01*
X171560774Y-131756306D01*
X171312462Y-131155345D01*
X170876678Y-130718800D01*
X177416960Y-130718800D01*
X177416960Y-132018800D01*
X177461238Y-132254117D01*
X177600310Y-132470241D01*
X177812510Y-132615231D01*
X178064400Y-132666240D01*
X178259860Y-132666240D01*
X177987457Y-132778795D01*
X177625665Y-133139955D01*
X177429623Y-133612076D01*
X177429177Y-134123281D01*
X177624395Y-134595743D01*
X177985555Y-134957535D01*
X178457676Y-135153577D01*
X178968881Y-135154023D01*
X179441343Y-134958805D01*
X179803135Y-134597645D01*
X179999177Y-134125524D01*
X179999623Y-133614319D01*
X179804405Y-133141857D01*
X179443245Y-132780065D01*
X179169124Y-132666240D01*
X179364400Y-132666240D01*
X179599717Y-132621962D01*
X179815841Y-132482890D01*
X179960831Y-132270690D01*
X180011840Y-132018800D01*
X180011840Y-130718800D01*
X179967562Y-130483483D01*
X179828490Y-130267359D01*
X179616290Y-130122369D01*
X179364400Y-130071360D01*
X178064400Y-130071360D01*
X177829083Y-130115638D01*
X177612959Y-130254710D01*
X177467969Y-130466910D01*
X177416960Y-130718800D01*
X170876678Y-130718800D01*
X170853073Y-130695154D01*
X170810000Y-130677269D01*
X170810000Y-119500000D01*
X170748342Y-119190026D01*
X170628823Y-119011154D01*
X170572756Y-118927243D01*
X170120174Y-118474661D01*
X170249694Y-118474774D01*
X170850655Y-118226462D01*
X171310846Y-117767073D01*
X171560206Y-117166547D01*
X171560774Y-116516306D01*
X171312462Y-115915345D01*
X170853073Y-115455154D01*
X170252547Y-115205794D01*
X169602306Y-115205226D01*
X169310000Y-115326004D01*
X169310000Y-114835512D01*
X169515971Y-114629541D01*
X169599453Y-114664206D01*
X170249694Y-114664774D01*
X170850655Y-114416462D01*
X171310846Y-113957073D01*
X171560206Y-113356547D01*
X171560774Y-112706306D01*
X171312462Y-112105345D01*
X170853073Y-111645154D01*
X170252547Y-111395794D01*
X169602306Y-111395226D01*
X169001345Y-111643538D01*
X168541154Y-112102927D01*
X168291794Y-112703453D01*
X168291226Y-113353694D01*
X168352500Y-113501988D01*
X168142618Y-113711869D01*
X168060000Y-113511917D01*
X168060000Y-109500000D01*
X167998342Y-109190026D01*
X167871607Y-109000354D01*
X167822756Y-108927243D01*
X164258367Y-105362854D01*
X178148966Y-105362854D01*
X178397278Y-105963815D01*
X178856667Y-106424006D01*
X179457193Y-106673366D01*
X180107434Y-106673934D01*
X180405333Y-106550845D01*
X182690000Y-108835513D01*
X182690000Y-111403742D01*
X182144325Y-111295200D01*
X180300875Y-111295200D01*
X179723023Y-111410142D01*
X179233144Y-111737469D01*
X178905817Y-112227348D01*
X178790875Y-112805200D01*
X178872463Y-113215369D01*
X178690026Y-113251658D01*
X178427244Y-113427244D01*
X178251658Y-113690026D01*
X178190000Y-114000000D01*
X178190000Y-118500000D01*
X178251658Y-118809974D01*
X178330015Y-118927243D01*
X178427244Y-119072756D01*
X178976320Y-119621833D01*
X178905817Y-119727348D01*
X178790875Y-120305200D01*
X178905817Y-120883052D01*
X179233144Y-121372931D01*
X179505929Y-121555200D01*
X179233144Y-121737469D01*
X178905817Y-122227348D01*
X178790875Y-122805200D01*
X178905817Y-123383052D01*
X179233144Y-123872931D01*
X179723023Y-124200258D01*
X180300875Y-124315200D01*
X182144325Y-124315200D01*
X182722177Y-124200258D01*
X183212056Y-123872931D01*
X183539383Y-123383052D01*
X183654325Y-122805200D01*
X183539383Y-122227348D01*
X183212056Y-121737469D01*
X182939271Y-121555200D01*
X183212056Y-121372931D01*
X183539383Y-120883052D01*
X183654325Y-120305200D01*
X183539383Y-119727348D01*
X183212056Y-119237469D01*
X182722177Y-118910142D01*
X182144325Y-118795200D01*
X180440712Y-118795200D01*
X179810000Y-118164488D01*
X179810000Y-116717559D01*
X180300875Y-116815200D01*
X182144325Y-116815200D01*
X182722177Y-116700258D01*
X183212056Y-116372931D01*
X183424357Y-116055200D01*
X184331160Y-116055200D01*
X184331160Y-119555200D01*
X184375438Y-119790517D01*
X184514510Y-120006641D01*
X184726710Y-120151631D01*
X184978600Y-120202640D01*
X187478600Y-120202640D01*
X187713917Y-120158362D01*
X187930041Y-120019290D01*
X188075031Y-119807090D01*
X188126040Y-119555200D01*
X188126040Y-116055200D01*
X188081762Y-115819883D01*
X187942690Y-115603759D01*
X187730490Y-115458769D01*
X187478600Y-115407760D01*
X186810000Y-115407760D01*
X186810000Y-106835512D01*
X189471496Y-104174016D01*
X190109954Y-104174574D01*
X190710915Y-103926262D01*
X191171106Y-103466873D01*
X191420466Y-102866347D01*
X191421034Y-102216106D01*
X191172722Y-101615145D01*
X190713333Y-101154954D01*
X190112807Y-100905594D01*
X189462566Y-100905026D01*
X188861605Y-101153338D01*
X188401414Y-101612727D01*
X188152054Y-102213253D01*
X188151486Y-102863494D01*
X188250752Y-103103736D01*
X185427244Y-105927244D01*
X185251658Y-106190026D01*
X185190000Y-106500000D01*
X185190000Y-115407760D01*
X184978600Y-115407760D01*
X184743283Y-115452038D01*
X184527159Y-115591110D01*
X184382169Y-115803310D01*
X184331160Y-116055200D01*
X183424357Y-116055200D01*
X183539383Y-115883052D01*
X183654325Y-115305200D01*
X183649370Y-115280288D01*
X183809974Y-115248342D01*
X184072756Y-115072756D01*
X184248342Y-114809974D01*
X184310000Y-114500000D01*
X184310000Y-108500000D01*
X184248342Y-108190026D01*
X184121370Y-108000000D01*
X184072756Y-107927243D01*
X181418027Y-105272515D01*
X181418514Y-104715466D01*
X181170202Y-104114505D01*
X180710813Y-103654314D01*
X180110287Y-103404954D01*
X179460046Y-103404386D01*
X178859085Y-103652698D01*
X178398894Y-104112087D01*
X178149534Y-104712613D01*
X178148966Y-105362854D01*
X164258367Y-105362854D01*
X164167430Y-105271918D01*
X164043117Y-104971057D01*
X163780327Y-104707808D01*
X163436799Y-104565162D01*
X163064833Y-104564838D01*
X162721057Y-104706883D01*
X162457808Y-104969673D01*
X162315162Y-105313201D01*
X162314943Y-105564838D01*
X161971057Y-105706883D01*
X161707808Y-105969673D01*
X161582116Y-106272371D01*
X157007709Y-110846778D01*
X157090100Y-110723472D01*
X157195570Y-110193237D01*
X157195570Y-109426763D01*
X157090100Y-108896528D01*
X156789746Y-108447017D01*
X156340235Y-108146663D01*
X155810000Y-108041193D01*
X155310000Y-108140649D01*
X155310000Y-108000000D01*
X155248342Y-107690026D01*
X155072756Y-107427244D01*
X154809974Y-107251658D01*
X154500000Y-107190000D01*
X153835513Y-107190000D01*
X150573113Y-103927600D01*
X150730000Y-103958807D01*
X151260235Y-103853337D01*
X151709746Y-103552983D01*
X152000000Y-103118588D01*
X152290254Y-103552983D01*
X152739765Y-103853337D01*
X153270000Y-103958807D01*
X153800235Y-103853337D01*
X154249746Y-103552983D01*
X154540000Y-103118588D01*
X154572865Y-103167773D01*
X154578501Y-103186817D01*
X154619126Y-103237008D01*
X154830254Y-103552983D01*
X155279765Y-103853337D01*
X155810000Y-103958807D01*
X156340235Y-103853337D01*
X156789746Y-103552983D01*
X157000874Y-103237008D01*
X157041499Y-103186817D01*
X157047135Y-103167773D01*
X157090100Y-103103472D01*
X157139151Y-102856876D01*
X157195570Y-102666250D01*
X157195570Y-102036753D01*
X182145633Y-102036753D01*
X182149740Y-102549225D01*
X182149293Y-103061684D01*
X182153938Y-103072925D01*
X182154035Y-103085087D01*
X182539051Y-104014597D01*
X182544328Y-104017739D01*
X182549641Y-104030599D01*
X183290302Y-104772554D01*
X183306301Y-104779197D01*
X183310203Y-104785749D01*
X183785236Y-104978069D01*
X184258517Y-105174592D01*
X184270679Y-105174603D01*
X184281953Y-105179167D01*
X184794425Y-105175060D01*
X185306884Y-105175507D01*
X185318125Y-105170862D01*
X185330287Y-105170765D01*
X186259797Y-104785749D01*
X186262939Y-104780472D01*
X186275799Y-104775159D01*
X187017754Y-104034498D01*
X187024397Y-104018499D01*
X187030949Y-104014597D01*
X187223269Y-103539564D01*
X187419792Y-103066283D01*
X187419803Y-103054121D01*
X187424367Y-103042847D01*
X187420260Y-102530375D01*
X187420707Y-102017916D01*
X187416062Y-102006675D01*
X187415965Y-101994513D01*
X187030949Y-101065003D01*
X187025672Y-101061861D01*
X187020359Y-101049001D01*
X186279698Y-100307046D01*
X186263699Y-100300403D01*
X186259797Y-100293851D01*
X185784764Y-100101531D01*
X185311483Y-99905008D01*
X185299321Y-99904997D01*
X185288047Y-99900433D01*
X184775575Y-99904540D01*
X184263116Y-99904093D01*
X184251875Y-99908738D01*
X184239713Y-99908835D01*
X183310203Y-100293851D01*
X183307061Y-100299128D01*
X183294201Y-100304441D01*
X182552246Y-101045102D01*
X182545603Y-101061101D01*
X182539051Y-101065003D01*
X182346731Y-101540036D01*
X182150208Y-102013317D01*
X182150197Y-102025479D01*
X182145633Y-102036753D01*
X157195570Y-102036753D01*
X157195570Y-101713750D01*
X157139151Y-101523124D01*
X157090100Y-101276528D01*
X157047135Y-101212227D01*
X157041499Y-101193183D01*
X157000874Y-101142992D01*
X156789746Y-100827017D01*
X156340235Y-100526663D01*
X155810000Y-100421193D01*
X155279765Y-100526663D01*
X154830254Y-100827017D01*
X154619126Y-101142992D01*
X154578501Y-101193183D01*
X154572865Y-101212227D01*
X154540000Y-101261412D01*
X154477555Y-101167957D01*
X155281378Y-100364134D01*
X178148966Y-100364134D01*
X178397278Y-100965095D01*
X178856667Y-101425286D01*
X179457193Y-101674646D01*
X180107434Y-101675214D01*
X180708395Y-101426902D01*
X181168586Y-100967513D01*
X181417946Y-100366987D01*
X181418514Y-99716746D01*
X181170202Y-99115785D01*
X180710813Y-98655594D01*
X180110287Y-98406234D01*
X179460046Y-98405666D01*
X178859085Y-98653978D01*
X178398894Y-99113367D01*
X178149534Y-99713893D01*
X178148966Y-100364134D01*
X155281378Y-100364134D01*
X157531818Y-98113694D01*
X168291226Y-98113694D01*
X168539538Y-98714655D01*
X168998927Y-99174846D01*
X169599453Y-99424206D01*
X170249694Y-99424774D01*
X170850655Y-99176462D01*
X171310846Y-98717073D01*
X171560206Y-98116547D01*
X171560774Y-97466306D01*
X171312462Y-96865345D01*
X170853073Y-96405154D01*
X170252547Y-96155794D01*
X169602306Y-96155226D01*
X169001345Y-96403538D01*
X168541154Y-96862927D01*
X168291794Y-97463453D01*
X168291226Y-98113694D01*
X157531818Y-98113694D01*
X160153019Y-95492494D01*
X160201453Y-95512606D01*
X160851694Y-95513174D01*
X161452655Y-95264862D01*
X161912846Y-94805473D01*
X162162206Y-94204947D01*
X162162774Y-93554706D01*
X161914462Y-92953745D01*
X161455073Y-92493554D01*
X160854547Y-92244194D01*
X160204306Y-92243626D01*
X159603345Y-92491938D01*
X159143154Y-92951327D01*
X158893794Y-93551853D01*
X158893226Y-94202094D01*
X158969002Y-94385485D01*
X152927244Y-100427244D01*
X152879369Y-100498894D01*
X152739765Y-100526663D01*
X152290254Y-100827017D01*
X152000000Y-101261412D01*
X151709746Y-100827017D01*
X151310000Y-100559915D01*
X151310000Y-99000000D01*
X151260272Y-98750000D01*
X151248343Y-98690027D01*
X151072757Y-98427244D01*
X146901155Y-94255643D01*
X146922206Y-94204947D01*
X146922774Y-93554706D01*
X146674462Y-92953745D01*
X146215073Y-92493554D01*
X145614547Y-92244194D01*
X144964306Y-92243626D01*
X144363345Y-92491938D01*
X143903154Y-92951327D01*
X143653794Y-93551853D01*
X143653226Y-94202094D01*
X143901538Y-94803055D01*
X144360927Y-95263246D01*
X144961453Y-95512606D01*
X145611694Y-95513174D01*
X145792821Y-95438334D01*
X149690000Y-99335513D01*
X149690000Y-100917193D01*
X149460000Y-101261412D01*
X149169746Y-100827017D01*
X148720235Y-100526663D01*
X148190000Y-100421193D01*
X147659765Y-100526663D01*
X147210254Y-100827017D01*
X146909900Y-101276528D01*
X146804430Y-101806763D01*
X146804430Y-102573237D01*
X146909900Y-103103472D01*
X147210254Y-103552983D01*
X147659765Y-103853337D01*
X148190000Y-103958807D01*
X148292839Y-103938351D01*
X148419417Y-104064929D01*
X148314833Y-104064838D01*
X147971057Y-104206883D01*
X147707808Y-104469673D01*
X147582116Y-104772371D01*
X140927244Y-111427244D01*
X140751658Y-111690026D01*
X140690000Y-112000000D01*
X140690000Y-112102711D01*
X140646703Y-112037913D01*
X140572757Y-111927244D01*
X139038037Y-110392525D01*
X139053570Y-110314437D01*
X139053570Y-109547963D01*
X138948100Y-109017728D01*
X138647746Y-108568217D01*
X138310000Y-108342542D01*
X138310000Y-105000000D01*
X138248342Y-104690026D01*
X138162561Y-104561646D01*
X138072757Y-104427244D01*
X137715977Y-104070464D01*
X138198235Y-103974537D01*
X138647746Y-103674183D01*
X138858874Y-103358208D01*
X138899499Y-103308017D01*
X138905135Y-103288973D01*
X138948100Y-103224672D01*
X138997151Y-102978076D01*
X139053570Y-102787450D01*
X139053570Y-101834950D01*
X138997151Y-101644324D01*
X138948100Y-101397728D01*
X138905135Y-101333427D01*
X138899499Y-101314383D01*
X138858874Y-101264192D01*
X138647746Y-100948217D01*
X138198235Y-100647863D01*
X137668000Y-100542393D01*
X137137765Y-100647863D01*
X136688254Y-100948217D01*
X136477126Y-101264192D01*
X136436501Y-101314383D01*
X136430865Y-101333427D01*
X136398000Y-101382612D01*
X136107746Y-100948217D01*
X135810000Y-100749269D01*
X135810000Y-99335512D01*
X139589326Y-95556186D01*
X139729053Y-95614206D01*
X140379294Y-95614774D01*
X140980255Y-95366462D01*
X141440446Y-94907073D01*
X141689806Y-94306547D01*
X141690374Y-93656306D01*
X141442062Y-93055345D01*
X140982673Y-92595154D01*
X140382147Y-92345794D01*
X139731906Y-92345226D01*
X139130945Y-92593538D01*
X138670754Y-93052927D01*
X138421394Y-93653453D01*
X138420826Y-94303694D01*
X138458826Y-94395661D01*
X134427244Y-98427244D01*
X134251658Y-98690026D01*
X134190000Y-99000000D01*
X134190000Y-100920323D01*
X134148254Y-100948217D01*
X133858000Y-101382612D01*
X133567746Y-100948217D01*
X133118235Y-100647863D01*
X132588000Y-100542393D01*
X132462808Y-100567295D01*
X126377116Y-94481604D01*
X126449806Y-94306547D01*
X126450374Y-93656306D01*
X126202062Y-93055345D01*
X125742673Y-92595154D01*
X125142147Y-92345794D01*
X124491906Y-92345226D01*
X123890945Y-92593538D01*
X123430754Y-93052927D01*
X123181394Y-93653453D01*
X123180826Y-94303694D01*
X123429138Y-94904655D01*
X123888527Y-95364846D01*
X124489053Y-95614206D01*
X125139294Y-95614774D01*
X125195881Y-95591393D01*
X130171432Y-100566945D01*
X130048000Y-100542393D01*
X129517765Y-100647863D01*
X129068254Y-100948217D01*
X128767900Y-101397728D01*
X128662430Y-101927963D01*
X128662430Y-102692057D01*
X124927244Y-106427244D01*
X124751658Y-106690026D01*
X124690000Y-107000000D01*
X124690000Y-123602711D01*
X124572757Y-123427244D01*
X122527640Y-121382128D01*
X122527640Y-119978600D01*
X122483362Y-119743283D01*
X122344290Y-119527159D01*
X122132090Y-119382169D01*
X122111666Y-119378033D01*
X122280751Y-119209243D01*
X122514933Y-118645270D01*
X122515382Y-118130131D01*
X123072756Y-117572757D01*
X123248325Y-117309999D01*
X123248342Y-117309974D01*
X123310000Y-117000000D01*
X123310000Y-113000000D01*
X123248342Y-112690026D01*
X123121370Y-112500000D01*
X123072756Y-112427243D01*
X121810000Y-111164488D01*
X121810000Y-100455845D01*
X121955655Y-100395662D01*
X122415846Y-99936273D01*
X122665206Y-99335747D01*
X122665774Y-98685506D01*
X122417462Y-98084545D01*
X121958073Y-97624354D01*
X121357547Y-97374994D01*
X120707306Y-97374426D01*
X120106345Y-97622738D01*
X119646154Y-98082127D01*
X119396794Y-98682653D01*
X119396226Y-99332894D01*
X117210000Y-99332894D01*
X117210000Y-98044092D01*
X123544091Y-91710000D01*
X163455908Y-91710000D01*
X166997954Y-95252046D01*
X166997954Y-95252046D01*
G37*
X166997954Y-95252046D02*
X167228295Y-95405954D01*
X167500000Y-95460000D01*
X189205908Y-95460000D01*
X192790000Y-99044092D01*
X192790000Y-122705908D01*
X184497954Y-130997954D01*
X184344046Y-131228295D01*
X184290000Y-131500000D01*
X184290000Y-133455908D01*
X179955908Y-137790000D01*
X147544092Y-137790000D01*
X144252046Y-134497954D01*
X144021705Y-134344046D01*
X143750000Y-134290000D01*
X116044092Y-134290000D01*
X113460000Y-131705908D01*
X113460000Y-122794092D01*
X115502043Y-120752048D01*
X115502046Y-120752046D01*
X117002046Y-119252046D01*
X117155954Y-119021705D01*
X117210000Y-118750000D01*
X117210000Y-99332894D01*
X119396226Y-99332894D01*
X119644538Y-99933855D01*
X120103927Y-100394046D01*
X120190000Y-100429787D01*
X120190000Y-111500000D01*
X120251658Y-111809974D01*
X120330016Y-111927244D01*
X120427244Y-112072756D01*
X120969142Y-112614655D01*
X120707306Y-112614426D01*
X120106345Y-112862738D01*
X119646154Y-113322127D01*
X119396794Y-113922653D01*
X119396226Y-114572894D01*
X119644538Y-115173855D01*
X120103927Y-115634046D01*
X120704453Y-115883406D01*
X121354694Y-115883974D01*
X121690000Y-115745428D01*
X121690000Y-116664487D01*
X121473235Y-116881252D01*
X121286870Y-116803867D01*
X120676209Y-116803335D01*
X120111829Y-117036532D01*
X119679649Y-117467957D01*
X119445467Y-118031930D01*
X119444935Y-118642591D01*
X119678132Y-119206971D01*
X119846080Y-119375213D01*
X119844883Y-119375438D01*
X119628759Y-119514510D01*
X119483769Y-119726710D01*
X119432760Y-119978600D01*
X119432760Y-121778600D01*
X119477038Y-122013917D01*
X119616110Y-122230041D01*
X119828310Y-122375031D01*
X120080200Y-122426040D01*
X121280528Y-122426040D01*
X123190000Y-124335513D01*
X123190000Y-125336560D01*
X122984000Y-125336560D01*
X122748683Y-125380838D01*
X122532559Y-125519910D01*
X122387569Y-125732110D01*
X122336560Y-125984000D01*
X122336560Y-128016000D01*
X122380838Y-128251317D01*
X122519910Y-128467441D01*
X122676206Y-128574233D01*
X122474675Y-128875845D01*
X122349000Y-129507655D01*
X122349000Y-129572345D01*
X122474675Y-130204155D01*
X122832567Y-130739778D01*
X123368190Y-131097670D01*
X124000000Y-131223345D01*
X124631810Y-131097670D01*
X125167433Y-130739778D01*
X125525325Y-130204155D01*
X125651000Y-129572345D01*
X125651000Y-129507655D01*
X125607433Y-129288630D01*
X125809974Y-129248342D01*
X126072756Y-129072756D01*
X126248342Y-128809974D01*
X126310000Y-128500000D01*
X126310000Y-127850000D01*
X129702560Y-127850000D01*
X129702560Y-129150000D01*
X129746838Y-129385317D01*
X129885910Y-129601441D01*
X130098110Y-129746431D01*
X130350000Y-129797440D01*
X131650000Y-129797440D01*
X131885317Y-129753162D01*
X132101441Y-129614090D01*
X132246431Y-129401890D01*
X132297440Y-129150000D01*
X132297440Y-128954540D01*
X132409995Y-129226943D01*
X132771155Y-129588735D01*
X133243276Y-129784777D01*
X133754481Y-129785223D01*
X134226943Y-129590005D01*
X134588735Y-129228845D01*
X134784777Y-128756724D01*
X134785223Y-128245519D01*
X134590005Y-127773057D01*
X134228845Y-127411265D01*
X133756724Y-127215223D01*
X133245519Y-127214777D01*
X132773057Y-127409995D01*
X132411265Y-127771155D01*
X132297440Y-128045276D01*
X132297440Y-127850000D01*
X132253162Y-127614683D01*
X132114090Y-127398559D01*
X131901890Y-127253569D01*
X131650000Y-127202560D01*
X130350000Y-127202560D01*
X130114683Y-127246838D01*
X129898559Y-127385910D01*
X129753569Y-127598110D01*
X129702560Y-127850000D01*
X126310000Y-127850000D01*
X126310000Y-121837099D01*
X126775053Y-122030206D01*
X127425294Y-122030774D01*
X128026255Y-121782462D01*
X128486446Y-121323073D01*
X128735806Y-120722547D01*
X128736374Y-120072306D01*
X128488062Y-119471345D01*
X128028673Y-119011154D01*
X127810000Y-118920353D01*
X127810000Y-113335512D01*
X129545466Y-111600047D01*
X130048000Y-111700007D01*
X130578235Y-111594537D01*
X131027746Y-111294183D01*
X131318000Y-110859788D01*
X131608254Y-111294183D01*
X132057765Y-111594537D01*
X132588000Y-111700007D01*
X133118235Y-111594537D01*
X133567746Y-111294183D01*
X133858000Y-110859788D01*
X134148254Y-111294183D01*
X134597765Y-111594537D01*
X135128000Y-111700007D01*
X135658235Y-111594537D01*
X136107746Y-111294183D01*
X136398000Y-110859788D01*
X136688254Y-111294183D01*
X137137765Y-111594537D01*
X137668000Y-111700007D01*
X137990371Y-111635884D01*
X139190000Y-112835513D01*
X139190000Y-115012559D01*
X139065162Y-115313201D01*
X139064838Y-115685167D01*
X139206883Y-116028943D01*
X139469673Y-116292192D01*
X139813201Y-116434838D01*
X140185167Y-116435162D01*
X140528943Y-116293117D01*
X140711963Y-116110416D01*
X140751658Y-116309974D01*
X140874459Y-116493758D01*
X140927244Y-116572756D01*
X143190000Y-118835513D01*
X143190000Y-118978486D01*
X142668147Y-118761794D01*
X142017906Y-118761226D01*
X141416945Y-119009538D01*
X140956754Y-119468927D01*
X140707394Y-120069453D01*
X140706826Y-120719694D01*
X140955138Y-121320655D01*
X141414527Y-121780846D01*
X141690000Y-121895232D01*
X141690000Y-125164487D01*
X140427244Y-126427244D01*
X140251658Y-126690026D01*
X140190000Y-127000000D01*
X140190000Y-127116710D01*
X139986345Y-127076200D01*
X139921655Y-127076200D01*
X139289845Y-127201875D01*
X138754222Y-127559767D01*
X138396330Y-128095390D01*
X138270655Y-128727200D01*
X138396330Y-129359010D01*
X138754222Y-129894633D01*
X139289845Y-130252525D01*
X139921655Y-130378200D01*
X139986345Y-130378200D01*
X140618155Y-130252525D01*
X140920962Y-130050196D01*
X141013910Y-130194641D01*
X141226110Y-130339631D01*
X141478000Y-130390640D01*
X143510000Y-130390640D01*
X143745317Y-130346362D01*
X143961441Y-130207290D01*
X144106431Y-129995090D01*
X144157440Y-129743200D01*
X144157440Y-127711200D01*
X144113162Y-127475883D01*
X143974090Y-127259759D01*
X143921611Y-127223902D01*
X144072757Y-127072756D01*
X144248343Y-126809973D01*
X144310000Y-126500000D01*
X144310000Y-122335512D01*
X144572757Y-122072756D01*
X144748343Y-121809973D01*
X144775766Y-121672103D01*
X144810000Y-121500000D01*
X144810000Y-118500000D01*
X144748342Y-118190026D01*
X144678012Y-118084771D01*
X144572757Y-117927244D01*
X142446152Y-115800640D01*
X143155128Y-115800640D01*
X147190000Y-119835513D01*
X147190000Y-120000000D01*
X147251658Y-120309974D01*
X147393133Y-120521705D01*
X147427244Y-120572756D01*
X148690000Y-121835513D01*
X148690000Y-124493449D01*
X148423054Y-124671817D01*
X148122700Y-125121328D01*
X148017230Y-125651563D01*
X148017230Y-126418037D01*
X148122700Y-126948272D01*
X148423054Y-127397783D01*
X148872565Y-127698137D01*
X149402800Y-127803607D01*
X149933035Y-127698137D01*
X150382546Y-127397783D01*
X150672800Y-126963388D01*
X150963054Y-127397783D01*
X151412565Y-127698137D01*
X151942800Y-127803607D01*
X152473035Y-127698137D01*
X152690000Y-127553165D01*
X152690000Y-127664487D01*
X148427244Y-131927244D01*
X148251658Y-132190026D01*
X148213945Y-132379622D01*
X147868545Y-132522338D01*
X147408354Y-132981727D01*
X147158994Y-133582253D01*
X147158426Y-134232494D01*
X147406738Y-134833455D01*
X147866127Y-135293646D01*
X148466653Y-135543006D01*
X149116894Y-135543574D01*
X149717855Y-135295262D01*
X150178046Y-134835873D01*
X150427406Y-134235347D01*
X150427974Y-133585106D01*
X150179662Y-132984145D01*
X149920741Y-132724772D01*
X154072756Y-128572757D01*
X154225145Y-128344690D01*
X154248342Y-128309974D01*
X154310000Y-128000000D01*
X154310000Y-127769235D01*
X154482800Y-127803607D01*
X155013035Y-127698137D01*
X155462546Y-127397783D01*
X155752800Y-126963388D01*
X156043054Y-127397783D01*
X156492565Y-127698137D01*
X157022800Y-127803607D01*
X157553035Y-127698137D01*
X158002546Y-127397783D01*
X158102572Y-127248084D01*
X162043310Y-131188823D01*
X162042826Y-131743294D01*
X162291138Y-132344255D01*
X162750527Y-132804446D01*
X162803789Y-132826562D01*
X162648354Y-132981727D01*
X162398994Y-133582253D01*
X162398426Y-134232494D01*
X162646738Y-134833455D01*
X163106127Y-135293646D01*
X163706653Y-135543006D01*
X164356894Y-135543574D01*
X164957855Y-135295262D01*
X165418046Y-134835873D01*
X165667406Y-134235347D01*
X165667974Y-133585106D01*
X165419662Y-132984145D01*
X164960273Y-132523954D01*
X164907011Y-132501838D01*
X165062446Y-132346673D01*
X165311806Y-131746147D01*
X165312374Y-131095906D01*
X165064062Y-130494945D01*
X164604673Y-130034754D01*
X164004147Y-129785394D01*
X163353906Y-129784826D01*
X163054182Y-129908669D01*
X159310000Y-126164488D01*
X159310000Y-116500000D01*
X159248342Y-116190026D01*
X159141634Y-116030327D01*
X159072756Y-115927243D01*
X157917430Y-114771917D01*
X157793117Y-114471057D01*
X157530327Y-114207808D01*
X157186799Y-114065162D01*
X156814833Y-114064838D01*
X156471057Y-114206883D01*
X156207808Y-114469673D01*
X156065162Y-114813201D01*
X156064838Y-115185167D01*
X156206883Y-115528943D01*
X156469673Y-115792192D01*
X156772372Y-115917884D01*
X157690000Y-116835513D01*
X157690000Y-116842980D01*
X157553035Y-116751463D01*
X157022800Y-116645993D01*
X156492565Y-116751463D01*
X156043054Y-117051817D01*
X155831926Y-117367792D01*
X155791301Y-117417983D01*
X155785665Y-117437027D01*
X155752800Y-117486212D01*
X155719935Y-117437027D01*
X155714299Y-117417983D01*
X155673674Y-117367792D01*
X155462546Y-117051817D01*
X155013035Y-116751463D01*
X154482800Y-116645993D01*
X153952565Y-116751463D01*
X153503054Y-117051817D01*
X153291926Y-117367792D01*
X153251301Y-117417983D01*
X153245665Y-117437027D01*
X153212800Y-117486212D01*
X153179935Y-117437027D01*
X153174299Y-117417983D01*
X153133674Y-117367792D01*
X152922546Y-117051817D01*
X152473035Y-116751463D01*
X151942800Y-116645993D01*
X151412565Y-116751463D01*
X150963054Y-117051817D01*
X150751926Y-117367792D01*
X150711301Y-117417983D01*
X150705665Y-117437027D01*
X150672800Y-117486212D01*
X150382546Y-117051817D01*
X150310000Y-117003343D01*
X150310000Y-116835512D01*
X155607071Y-111538442D01*
X155810000Y-111578807D01*
X156340235Y-111473337D01*
X156463542Y-111390946D01*
X154271918Y-113582570D01*
X153971057Y-113706883D01*
X153707808Y-113969673D01*
X153565162Y-114313201D01*
X153564838Y-114685167D01*
X153706883Y-115028943D01*
X153969673Y-115292192D01*
X154313201Y-115434838D01*
X154685167Y-115435162D01*
X155028943Y-115293117D01*
X155292192Y-115030327D01*
X155417884Y-114727628D01*
X162231760Y-107913753D01*
X162231760Y-109688200D01*
X162276038Y-109923517D01*
X162415110Y-110139641D01*
X162627310Y-110284631D01*
X162647734Y-110288767D01*
X162478649Y-110457557D01*
X162244467Y-111021530D01*
X162243935Y-111632191D01*
X162477132Y-112196571D01*
X162690000Y-112409812D01*
X162690000Y-114855973D01*
X162292754Y-115252527D01*
X162082149Y-115759721D01*
X162030327Y-115707808D01*
X161686799Y-115565162D01*
X161314833Y-115564838D01*
X160971057Y-115706883D01*
X160707808Y-115969673D01*
X160565162Y-116313201D01*
X160564838Y-116685167D01*
X160706883Y-117028943D01*
X160969673Y-117292192D01*
X161272372Y-117417884D01*
X163582571Y-119728084D01*
X163706883Y-120028943D01*
X163969673Y-120292192D01*
X164313201Y-120434838D01*
X164685167Y-120435162D01*
X165028943Y-120293117D01*
X165292192Y-120030327D01*
X165434838Y-119686799D01*
X165435162Y-119314833D01*
X165293117Y-118971057D01*
X165030327Y-118707808D01*
X164727629Y-118582116D01*
X163959850Y-117814338D01*
X164001294Y-117814374D01*
X164602255Y-117566062D01*
X165062446Y-117106673D01*
X165311806Y-116506147D01*
X165312374Y-115855906D01*
X165064062Y-115254945D01*
X164604673Y-114794754D01*
X164310000Y-114672395D01*
X164310000Y-112769749D01*
X164647571Y-112630268D01*
X165079751Y-112198843D01*
X165313933Y-111634870D01*
X165314465Y-111024209D01*
X165081268Y-110459829D01*
X164913320Y-110291587D01*
X164914517Y-110291362D01*
X165130641Y-110152290D01*
X165275631Y-109940090D01*
X165326640Y-109688200D01*
X165326640Y-108722153D01*
X166440000Y-109835513D01*
X166440000Y-113512559D01*
X166315162Y-113813201D01*
X166314838Y-114185167D01*
X166456883Y-114528943D01*
X166719673Y-114792192D01*
X167063201Y-114934838D01*
X167435167Y-114935162D01*
X167690000Y-114829867D01*
X167690000Y-118000000D01*
X167751658Y-118309974D01*
X167864127Y-118478295D01*
X167927244Y-118572756D01*
X169190000Y-119835513D01*
X169190000Y-130615587D01*
X169001345Y-130693538D01*
X168541154Y-131152927D01*
X168291794Y-131753453D01*
X168291226Y-132403694D01*
X168539538Y-133004655D01*
X168998927Y-133464846D01*
X169599453Y-133714206D01*
X170249694Y-133714774D01*
X170850655Y-133466462D01*
X171310846Y-133007073D01*
X171560206Y-132406547D01*
X171560774Y-131756306D01*
X171312462Y-131155345D01*
X170876678Y-130718800D01*
X177416960Y-130718800D01*
X177416960Y-132018800D01*
X177461238Y-132254117D01*
X177600310Y-132470241D01*
X177812510Y-132615231D01*
X178064400Y-132666240D01*
X178259860Y-132666240D01*
X177987457Y-132778795D01*
X177625665Y-133139955D01*
X177429623Y-133612076D01*
X177429177Y-134123281D01*
X177624395Y-134595743D01*
X177985555Y-134957535D01*
X178457676Y-135153577D01*
X178968881Y-135154023D01*
X179441343Y-134958805D01*
X179803135Y-134597645D01*
X179999177Y-134125524D01*
X179999623Y-133614319D01*
X179804405Y-133141857D01*
X179443245Y-132780065D01*
X179169124Y-132666240D01*
X179364400Y-132666240D01*
X179599717Y-132621962D01*
X179815841Y-132482890D01*
X179960831Y-132270690D01*
X180011840Y-132018800D01*
X180011840Y-130718800D01*
X179967562Y-130483483D01*
X179828490Y-130267359D01*
X179616290Y-130122369D01*
X179364400Y-130071360D01*
X178064400Y-130071360D01*
X177829083Y-130115638D01*
X177612959Y-130254710D01*
X177467969Y-130466910D01*
X177416960Y-130718800D01*
X170876678Y-130718800D01*
X170853073Y-130695154D01*
X170810000Y-130677269D01*
X170810000Y-119500000D01*
X170748342Y-119190026D01*
X170628823Y-119011154D01*
X170572756Y-118927243D01*
X170120174Y-118474661D01*
X170249694Y-118474774D01*
X170850655Y-118226462D01*
X171310846Y-117767073D01*
X171560206Y-117166547D01*
X171560774Y-116516306D01*
X171312462Y-115915345D01*
X170853073Y-115455154D01*
X170252547Y-115205794D01*
X169602306Y-115205226D01*
X169310000Y-115326004D01*
X169310000Y-114835512D01*
X169515971Y-114629541D01*
X169599453Y-114664206D01*
X170249694Y-114664774D01*
X170850655Y-114416462D01*
X171310846Y-113957073D01*
X171560206Y-113356547D01*
X171560774Y-112706306D01*
X171312462Y-112105345D01*
X170853073Y-111645154D01*
X170252547Y-111395794D01*
X169602306Y-111395226D01*
X169001345Y-111643538D01*
X168541154Y-112102927D01*
X168291794Y-112703453D01*
X168291226Y-113353694D01*
X168352500Y-113501988D01*
X168142618Y-113711869D01*
X168060000Y-113511917D01*
X168060000Y-109500000D01*
X167998342Y-109190026D01*
X167871607Y-109000354D01*
X167822756Y-108927243D01*
X164258367Y-105362854D01*
X178148966Y-105362854D01*
X178397278Y-105963815D01*
X178856667Y-106424006D01*
X179457193Y-106673366D01*
X180107434Y-106673934D01*
X180405333Y-106550845D01*
X182690000Y-108835513D01*
X182690000Y-111403742D01*
X182144325Y-111295200D01*
X180300875Y-111295200D01*
X179723023Y-111410142D01*
X179233144Y-111737469D01*
X178905817Y-112227348D01*
X178790875Y-112805200D01*
X178872463Y-113215369D01*
X178690026Y-113251658D01*
X178427244Y-113427244D01*
X178251658Y-113690026D01*
X178190000Y-114000000D01*
X178190000Y-118500000D01*
X178251658Y-118809974D01*
X178330015Y-118927243D01*
X178427244Y-119072756D01*
X178976320Y-119621833D01*
X178905817Y-119727348D01*
X178790875Y-120305200D01*
X178905817Y-120883052D01*
X179233144Y-121372931D01*
X179505929Y-121555200D01*
X179233144Y-121737469D01*
X178905817Y-122227348D01*
X178790875Y-122805200D01*
X178905817Y-123383052D01*
X179233144Y-123872931D01*
X179723023Y-124200258D01*
X180300875Y-124315200D01*
X182144325Y-124315200D01*
X182722177Y-124200258D01*
X183212056Y-123872931D01*
X183539383Y-123383052D01*
X183654325Y-122805200D01*
X183539383Y-122227348D01*
X183212056Y-121737469D01*
X182939271Y-121555200D01*
X183212056Y-121372931D01*
X183539383Y-120883052D01*
X183654325Y-120305200D01*
X183539383Y-119727348D01*
X183212056Y-119237469D01*
X182722177Y-118910142D01*
X182144325Y-118795200D01*
X180440712Y-118795200D01*
X179810000Y-118164488D01*
X179810000Y-116717559D01*
X180300875Y-116815200D01*
X182144325Y-116815200D01*
X182722177Y-116700258D01*
X183212056Y-116372931D01*
X183424357Y-116055200D01*
X184331160Y-116055200D01*
X184331160Y-119555200D01*
X184375438Y-119790517D01*
X184514510Y-120006641D01*
X184726710Y-120151631D01*
X184978600Y-120202640D01*
X187478600Y-120202640D01*
X187713917Y-120158362D01*
X187930041Y-120019290D01*
X188075031Y-119807090D01*
X188126040Y-119555200D01*
X188126040Y-116055200D01*
X188081762Y-115819883D01*
X187942690Y-115603759D01*
X187730490Y-115458769D01*
X187478600Y-115407760D01*
X186810000Y-115407760D01*
X186810000Y-106835512D01*
X189471496Y-104174016D01*
X190109954Y-104174574D01*
X190710915Y-103926262D01*
X191171106Y-103466873D01*
X191420466Y-102866347D01*
X191421034Y-102216106D01*
X191172722Y-101615145D01*
X190713333Y-101154954D01*
X190112807Y-100905594D01*
X189462566Y-100905026D01*
X188861605Y-101153338D01*
X188401414Y-101612727D01*
X188152054Y-102213253D01*
X188151486Y-102863494D01*
X188250752Y-103103736D01*
X185427244Y-105927244D01*
X185251658Y-106190026D01*
X185190000Y-106500000D01*
X185190000Y-115407760D01*
X184978600Y-115407760D01*
X184743283Y-115452038D01*
X184527159Y-115591110D01*
X184382169Y-115803310D01*
X184331160Y-116055200D01*
X183424357Y-116055200D01*
X183539383Y-115883052D01*
X183654325Y-115305200D01*
X183649370Y-115280288D01*
X183809974Y-115248342D01*
X184072756Y-115072756D01*
X184248342Y-114809974D01*
X184310000Y-114500000D01*
X184310000Y-108500000D01*
X184248342Y-108190026D01*
X184121370Y-108000000D01*
X184072756Y-107927243D01*
X181418027Y-105272515D01*
X181418514Y-104715466D01*
X181170202Y-104114505D01*
X180710813Y-103654314D01*
X180110287Y-103404954D01*
X179460046Y-103404386D01*
X178859085Y-103652698D01*
X178398894Y-104112087D01*
X178149534Y-104712613D01*
X178148966Y-105362854D01*
X164258367Y-105362854D01*
X164167430Y-105271918D01*
X164043117Y-104971057D01*
X163780327Y-104707808D01*
X163436799Y-104565162D01*
X163064833Y-104564838D01*
X162721057Y-104706883D01*
X162457808Y-104969673D01*
X162315162Y-105313201D01*
X162314943Y-105564838D01*
X161971057Y-105706883D01*
X161707808Y-105969673D01*
X161582116Y-106272371D01*
X157007709Y-110846778D01*
X157090100Y-110723472D01*
X157195570Y-110193237D01*
X157195570Y-109426763D01*
X157090100Y-108896528D01*
X156789746Y-108447017D01*
X156340235Y-108146663D01*
X155810000Y-108041193D01*
X155310000Y-108140649D01*
X155310000Y-108000000D01*
X155248342Y-107690026D01*
X155072756Y-107427244D01*
X154809974Y-107251658D01*
X154500000Y-107190000D01*
X153835513Y-107190000D01*
X150573113Y-103927600D01*
X150730000Y-103958807D01*
X151260235Y-103853337D01*
X151709746Y-103552983D01*
X152000000Y-103118588D01*
X152290254Y-103552983D01*
X152739765Y-103853337D01*
X153270000Y-103958807D01*
X153800235Y-103853337D01*
X154249746Y-103552983D01*
X154540000Y-103118588D01*
X154572865Y-103167773D01*
X154578501Y-103186817D01*
X154619126Y-103237008D01*
X154830254Y-103552983D01*
X155279765Y-103853337D01*
X155810000Y-103958807D01*
X156340235Y-103853337D01*
X156789746Y-103552983D01*
X157000874Y-103237008D01*
X157041499Y-103186817D01*
X157047135Y-103167773D01*
X157090100Y-103103472D01*
X157139151Y-102856876D01*
X157195570Y-102666250D01*
X157195570Y-102036753D01*
X182145633Y-102036753D01*
X182149740Y-102549225D01*
X182149293Y-103061684D01*
X182153938Y-103072925D01*
X182154035Y-103085087D01*
X182539051Y-104014597D01*
X182544328Y-104017739D01*
X182549641Y-104030599D01*
X183290302Y-104772554D01*
X183306301Y-104779197D01*
X183310203Y-104785749D01*
X183785236Y-104978069D01*
X184258517Y-105174592D01*
X184270679Y-105174603D01*
X184281953Y-105179167D01*
X184794425Y-105175060D01*
X185306884Y-105175507D01*
X185318125Y-105170862D01*
X185330287Y-105170765D01*
X186259797Y-104785749D01*
X186262939Y-104780472D01*
X186275799Y-104775159D01*
X187017754Y-104034498D01*
X187024397Y-104018499D01*
X187030949Y-104014597D01*
X187223269Y-103539564D01*
X187419792Y-103066283D01*
X187419803Y-103054121D01*
X187424367Y-103042847D01*
X187420260Y-102530375D01*
X187420707Y-102017916D01*
X187416062Y-102006675D01*
X187415965Y-101994513D01*
X187030949Y-101065003D01*
X187025672Y-101061861D01*
X187020359Y-101049001D01*
X186279698Y-100307046D01*
X186263699Y-100300403D01*
X186259797Y-100293851D01*
X185784764Y-100101531D01*
X185311483Y-99905008D01*
X185299321Y-99904997D01*
X185288047Y-99900433D01*
X184775575Y-99904540D01*
X184263116Y-99904093D01*
X184251875Y-99908738D01*
X184239713Y-99908835D01*
X183310203Y-100293851D01*
X183307061Y-100299128D01*
X183294201Y-100304441D01*
X182552246Y-101045102D01*
X182545603Y-101061101D01*
X182539051Y-101065003D01*
X182346731Y-101540036D01*
X182150208Y-102013317D01*
X182150197Y-102025479D01*
X182145633Y-102036753D01*
X157195570Y-102036753D01*
X157195570Y-101713750D01*
X157139151Y-101523124D01*
X157090100Y-101276528D01*
X157047135Y-101212227D01*
X157041499Y-101193183D01*
X157000874Y-101142992D01*
X156789746Y-100827017D01*
X156340235Y-100526663D01*
X155810000Y-100421193D01*
X155279765Y-100526663D01*
X154830254Y-100827017D01*
X154619126Y-101142992D01*
X154578501Y-101193183D01*
X154572865Y-101212227D01*
X154540000Y-101261412D01*
X154477555Y-101167957D01*
X155281378Y-100364134D01*
X178148966Y-100364134D01*
X178397278Y-100965095D01*
X178856667Y-101425286D01*
X179457193Y-101674646D01*
X180107434Y-101675214D01*
X180708395Y-101426902D01*
X181168586Y-100967513D01*
X181417946Y-100366987D01*
X181418514Y-99716746D01*
X181170202Y-99115785D01*
X180710813Y-98655594D01*
X180110287Y-98406234D01*
X179460046Y-98405666D01*
X178859085Y-98653978D01*
X178398894Y-99113367D01*
X178149534Y-99713893D01*
X178148966Y-100364134D01*
X155281378Y-100364134D01*
X157531818Y-98113694D01*
X168291226Y-98113694D01*
X168539538Y-98714655D01*
X168998927Y-99174846D01*
X169599453Y-99424206D01*
X170249694Y-99424774D01*
X170850655Y-99176462D01*
X171310846Y-98717073D01*
X171560206Y-98116547D01*
X171560774Y-97466306D01*
X171312462Y-96865345D01*
X170853073Y-96405154D01*
X170252547Y-96155794D01*
X169602306Y-96155226D01*
X169001345Y-96403538D01*
X168541154Y-96862927D01*
X168291794Y-97463453D01*
X168291226Y-98113694D01*
X157531818Y-98113694D01*
X160153019Y-95492494D01*
X160201453Y-95512606D01*
X160851694Y-95513174D01*
X161452655Y-95264862D01*
X161912846Y-94805473D01*
X162162206Y-94204947D01*
X162162774Y-93554706D01*
X161914462Y-92953745D01*
X161455073Y-92493554D01*
X160854547Y-92244194D01*
X160204306Y-92243626D01*
X159603345Y-92491938D01*
X159143154Y-92951327D01*
X158893794Y-93551853D01*
X158893226Y-94202094D01*
X158969002Y-94385485D01*
X152927244Y-100427244D01*
X152879369Y-100498894D01*
X152739765Y-100526663D01*
X152290254Y-100827017D01*
X152000000Y-101261412D01*
X151709746Y-100827017D01*
X151310000Y-100559915D01*
X151310000Y-99000000D01*
X151260272Y-98750000D01*
X151248343Y-98690027D01*
X151072757Y-98427244D01*
X146901155Y-94255643D01*
X146922206Y-94204947D01*
X146922774Y-93554706D01*
X146674462Y-92953745D01*
X146215073Y-92493554D01*
X145614547Y-92244194D01*
X144964306Y-92243626D01*
X144363345Y-92491938D01*
X143903154Y-92951327D01*
X143653794Y-93551853D01*
X143653226Y-94202094D01*
X143901538Y-94803055D01*
X144360927Y-95263246D01*
X144961453Y-95512606D01*
X145611694Y-95513174D01*
X145792821Y-95438334D01*
X149690000Y-99335513D01*
X149690000Y-100917193D01*
X149460000Y-101261412D01*
X149169746Y-100827017D01*
X148720235Y-100526663D01*
X148190000Y-100421193D01*
X147659765Y-100526663D01*
X147210254Y-100827017D01*
X146909900Y-101276528D01*
X146804430Y-101806763D01*
X146804430Y-102573237D01*
X146909900Y-103103472D01*
X147210254Y-103552983D01*
X147659765Y-103853337D01*
X148190000Y-103958807D01*
X148292839Y-103938351D01*
X148419417Y-104064929D01*
X148314833Y-104064838D01*
X147971057Y-104206883D01*
X147707808Y-104469673D01*
X147582116Y-104772371D01*
X140927244Y-111427244D01*
X140751658Y-111690026D01*
X140690000Y-112000000D01*
X140690000Y-112102711D01*
X140646703Y-112037913D01*
X140572757Y-111927244D01*
X139038037Y-110392525D01*
X139053570Y-110314437D01*
X139053570Y-109547963D01*
X138948100Y-109017728D01*
X138647746Y-108568217D01*
X138310000Y-108342542D01*
X138310000Y-105000000D01*
X138248342Y-104690026D01*
X138162561Y-104561646D01*
X138072757Y-104427244D01*
X137715977Y-104070464D01*
X138198235Y-103974537D01*
X138647746Y-103674183D01*
X138858874Y-103358208D01*
X138899499Y-103308017D01*
X138905135Y-103288973D01*
X138948100Y-103224672D01*
X138997151Y-102978076D01*
X139053570Y-102787450D01*
X139053570Y-101834950D01*
X138997151Y-101644324D01*
X138948100Y-101397728D01*
X138905135Y-101333427D01*
X138899499Y-101314383D01*
X138858874Y-101264192D01*
X138647746Y-100948217D01*
X138198235Y-100647863D01*
X137668000Y-100542393D01*
X137137765Y-100647863D01*
X136688254Y-100948217D01*
X136477126Y-101264192D01*
X136436501Y-101314383D01*
X136430865Y-101333427D01*
X136398000Y-101382612D01*
X136107746Y-100948217D01*
X135810000Y-100749269D01*
X135810000Y-99335512D01*
X139589326Y-95556186D01*
X139729053Y-95614206D01*
X140379294Y-95614774D01*
X140980255Y-95366462D01*
X141440446Y-94907073D01*
X141689806Y-94306547D01*
X141690374Y-93656306D01*
X141442062Y-93055345D01*
X140982673Y-92595154D01*
X140382147Y-92345794D01*
X139731906Y-92345226D01*
X139130945Y-92593538D01*
X138670754Y-93052927D01*
X138421394Y-93653453D01*
X138420826Y-94303694D01*
X138458826Y-94395661D01*
X134427244Y-98427244D01*
X134251658Y-98690026D01*
X134190000Y-99000000D01*
X134190000Y-100920323D01*
X134148254Y-100948217D01*
X133858000Y-101382612D01*
X133567746Y-100948217D01*
X133118235Y-100647863D01*
X132588000Y-100542393D01*
X132462808Y-100567295D01*
X126377116Y-94481604D01*
X126449806Y-94306547D01*
X126450374Y-93656306D01*
X126202062Y-93055345D01*
X125742673Y-92595154D01*
X125142147Y-92345794D01*
X124491906Y-92345226D01*
X123890945Y-92593538D01*
X123430754Y-93052927D01*
X123181394Y-93653453D01*
X123180826Y-94303694D01*
X123429138Y-94904655D01*
X123888527Y-95364846D01*
X124489053Y-95614206D01*
X125139294Y-95614774D01*
X125195881Y-95591393D01*
X130171432Y-100566945D01*
X130048000Y-100542393D01*
X129517765Y-100647863D01*
X129068254Y-100948217D01*
X128767900Y-101397728D01*
X128662430Y-101927963D01*
X128662430Y-102692057D01*
X124927244Y-106427244D01*
X124751658Y-106690026D01*
X124690000Y-107000000D01*
X124690000Y-123602711D01*
X124572757Y-123427244D01*
X122527640Y-121382128D01*
X122527640Y-119978600D01*
X122483362Y-119743283D01*
X122344290Y-119527159D01*
X122132090Y-119382169D01*
X122111666Y-119378033D01*
X122280751Y-119209243D01*
X122514933Y-118645270D01*
X122515382Y-118130131D01*
X123072756Y-117572757D01*
X123248325Y-117309999D01*
X123248342Y-117309974D01*
X123310000Y-117000000D01*
X123310000Y-113000000D01*
X123248342Y-112690026D01*
X123121370Y-112500000D01*
X123072756Y-112427243D01*
X121810000Y-111164488D01*
X121810000Y-100455845D01*
X121955655Y-100395662D01*
X122415846Y-99936273D01*
X122665206Y-99335747D01*
X122665774Y-98685506D01*
X122417462Y-98084545D01*
X121958073Y-97624354D01*
X121357547Y-97374994D01*
X120707306Y-97374426D01*
X120106345Y-97622738D01*
X119646154Y-98082127D01*
X119396794Y-98682653D01*
X119396226Y-99332894D01*
X117210000Y-99332894D01*
X117210000Y-98044092D01*
X123544091Y-91710000D01*
X163455908Y-91710000D01*
X166997954Y-95252046D01*
G36*
X155785665Y-119392573D02*
X155791301Y-119411617D01*
X155831926Y-119461808D01*
X156043054Y-119777783D01*
X156492565Y-120078137D01*
X157022800Y-120183607D01*
X157553035Y-120078137D01*
X157690000Y-119986620D01*
X157690000Y-124462980D01*
X157553035Y-124371463D01*
X157022800Y-124265993D01*
X156492565Y-124371463D01*
X156043054Y-124671817D01*
X155752800Y-125106212D01*
X155462546Y-124671817D01*
X155013035Y-124371463D01*
X154482800Y-124265993D01*
X153952565Y-124371463D01*
X153503054Y-124671817D01*
X153212800Y-125106212D01*
X152922546Y-124671817D01*
X152473035Y-124371463D01*
X151942800Y-124265993D01*
X151412565Y-124371463D01*
X150963054Y-124671817D01*
X150672800Y-125106212D01*
X150382546Y-124671817D01*
X150310000Y-124623343D01*
X150310000Y-121500000D01*
X150248342Y-121190026D01*
X150143706Y-121033428D01*
X150072756Y-120927243D01*
X149310824Y-120165312D01*
X149402800Y-120183607D01*
X149933035Y-120078137D01*
X150382546Y-119777783D01*
X150672800Y-119343388D01*
X150705665Y-119392573D01*
X150711301Y-119411617D01*
X150751926Y-119461808D01*
X150963054Y-119777783D01*
X151412565Y-120078137D01*
X151942800Y-120183607D01*
X152473035Y-120078137D01*
X152922546Y-119777783D01*
X153133674Y-119461808D01*
X153174299Y-119411617D01*
X153179935Y-119392573D01*
X153212800Y-119343388D01*
X153245665Y-119392573D01*
X153251301Y-119411617D01*
X153291926Y-119461808D01*
X153503054Y-119777783D01*
X153952565Y-120078137D01*
X154482800Y-120183607D01*
X155013035Y-120078137D01*
X155462546Y-119777783D01*
X155673674Y-119461808D01*
X155714299Y-119411617D01*
X155719935Y-119392573D01*
X155752800Y-119343388D01*
X155785665Y-119392573D01*
X155785665Y-119392573D01*
G37*
X155785665Y-119392573D02*
X155791301Y-119411617D01*
X155831926Y-119461808D01*
X156043054Y-119777783D01*
X156492565Y-120078137D01*
X157022800Y-120183607D01*
X157553035Y-120078137D01*
X157690000Y-119986620D01*
X157690000Y-124462980D01*
X157553035Y-124371463D01*
X157022800Y-124265993D01*
X156492565Y-124371463D01*
X156043054Y-124671817D01*
X155752800Y-125106212D01*
X155462546Y-124671817D01*
X155013035Y-124371463D01*
X154482800Y-124265993D01*
X153952565Y-124371463D01*
X153503054Y-124671817D01*
X153212800Y-125106212D01*
X152922546Y-124671817D01*
X152473035Y-124371463D01*
X151942800Y-124265993D01*
X151412565Y-124371463D01*
X150963054Y-124671817D01*
X150672800Y-125106212D01*
X150382546Y-124671817D01*
X150310000Y-124623343D01*
X150310000Y-121500000D01*
X150248342Y-121190026D01*
X150143706Y-121033428D01*
X150072756Y-120927243D01*
X149310824Y-120165312D01*
X149402800Y-120183607D01*
X149933035Y-120078137D01*
X150382546Y-119777783D01*
X150672800Y-119343388D01*
X150705665Y-119392573D01*
X150711301Y-119411617D01*
X150751926Y-119461808D01*
X150963054Y-119777783D01*
X151412565Y-120078137D01*
X151942800Y-120183607D01*
X152473035Y-120078137D01*
X152922546Y-119777783D01*
X153133674Y-119461808D01*
X153174299Y-119411617D01*
X153179935Y-119392573D01*
X153212800Y-119343388D01*
X153245665Y-119392573D01*
X153251301Y-119411617D01*
X153291926Y-119461808D01*
X153503054Y-119777783D01*
X153952565Y-120078137D01*
X154482800Y-120183607D01*
X155013035Y-120078137D01*
X155462546Y-119777783D01*
X155673674Y-119461808D01*
X155714299Y-119411617D01*
X155719935Y-119392573D01*
X155752800Y-119343388D01*
X155785665Y-119392573D01*
G36*
X152596726Y-108242239D02*
X152290254Y-108447017D01*
X152000000Y-108881412D01*
X151709746Y-108447017D01*
X151260235Y-108146663D01*
X150730000Y-108041193D01*
X150199765Y-108146663D01*
X149750254Y-108447017D01*
X149460000Y-108881412D01*
X149169746Y-108447017D01*
X148720235Y-108146663D01*
X148190000Y-108041193D01*
X147659765Y-108146663D01*
X147210254Y-108447017D01*
X146909900Y-108896528D01*
X146804430Y-109426763D01*
X146804430Y-110193237D01*
X146909900Y-110723472D01*
X147210254Y-111172983D01*
X147659765Y-111473337D01*
X148190000Y-111578807D01*
X148720235Y-111473337D01*
X149169746Y-111172983D01*
X149460000Y-110738588D01*
X149750254Y-111172983D01*
X150199765Y-111473337D01*
X150730000Y-111578807D01*
X151260235Y-111473337D01*
X151709746Y-111172983D01*
X152000000Y-110738588D01*
X152290254Y-111172983D01*
X152739765Y-111473337D01*
X153270000Y-111578807D01*
X153277091Y-111577397D01*
X148927244Y-115927244D01*
X148751658Y-116190026D01*
X148690000Y-116500000D01*
X148690000Y-116873449D01*
X148423054Y-117051817D01*
X148122700Y-117501328D01*
X148017230Y-118031563D01*
X148017230Y-118371717D01*
X145433742Y-115788230D01*
X145654881Y-115788423D01*
X146127343Y-115593205D01*
X146489135Y-115232045D01*
X146685177Y-114759924D01*
X146685623Y-114248719D01*
X146490405Y-113776257D01*
X146129245Y-113414465D01*
X145657124Y-113218423D01*
X145145919Y-113217977D01*
X144673457Y-113413195D01*
X144311665Y-113774355D01*
X144197840Y-114048476D01*
X144197840Y-113853200D01*
X144153562Y-113617883D01*
X144014490Y-113401759D01*
X143802290Y-113256769D01*
X143550400Y-113205760D01*
X142310000Y-113205760D01*
X142310000Y-112335512D01*
X148728084Y-105917429D01*
X149028943Y-105793117D01*
X149292192Y-105530327D01*
X149434838Y-105186799D01*
X149434931Y-105080443D01*
X152596726Y-108242239D01*
X152596726Y-108242239D01*
G37*
X152596726Y-108242239D02*
X152290254Y-108447017D01*
X152000000Y-108881412D01*
X151709746Y-108447017D01*
X151260235Y-108146663D01*
X150730000Y-108041193D01*
X150199765Y-108146663D01*
X149750254Y-108447017D01*
X149460000Y-108881412D01*
X149169746Y-108447017D01*
X148720235Y-108146663D01*
X148190000Y-108041193D01*
X147659765Y-108146663D01*
X147210254Y-108447017D01*
X146909900Y-108896528D01*
X146804430Y-109426763D01*
X146804430Y-110193237D01*
X146909900Y-110723472D01*
X147210254Y-111172983D01*
X147659765Y-111473337D01*
X148190000Y-111578807D01*
X148720235Y-111473337D01*
X149169746Y-111172983D01*
X149460000Y-110738588D01*
X149750254Y-111172983D01*
X150199765Y-111473337D01*
X150730000Y-111578807D01*
X151260235Y-111473337D01*
X151709746Y-111172983D01*
X152000000Y-110738588D01*
X152290254Y-111172983D01*
X152739765Y-111473337D01*
X153270000Y-111578807D01*
X153277091Y-111577397D01*
X148927244Y-115927244D01*
X148751658Y-116190026D01*
X148690000Y-116500000D01*
X148690000Y-116873449D01*
X148423054Y-117051817D01*
X148122700Y-117501328D01*
X148017230Y-118031563D01*
X148017230Y-118371717D01*
X145433742Y-115788230D01*
X145654881Y-115788423D01*
X146127343Y-115593205D01*
X146489135Y-115232045D01*
X146685177Y-114759924D01*
X146685623Y-114248719D01*
X146490405Y-113776257D01*
X146129245Y-113414465D01*
X145657124Y-113218423D01*
X145145919Y-113217977D01*
X144673457Y-113413195D01*
X144311665Y-113774355D01*
X144197840Y-114048476D01*
X144197840Y-113853200D01*
X144153562Y-113617883D01*
X144014490Y-113401759D01*
X143802290Y-113256769D01*
X143550400Y-113205760D01*
X142310000Y-113205760D01*
X142310000Y-112335512D01*
X148728084Y-105917429D01*
X149028943Y-105793117D01*
X149292192Y-105530327D01*
X149434838Y-105186799D01*
X149434931Y-105080443D01*
X152596726Y-108242239D01*
G36*
X131608254Y-103674183D02*
X132057765Y-103974537D01*
X132588000Y-104080007D01*
X133085530Y-103981042D01*
X133211233Y-104106746D01*
X133251658Y-104309974D01*
X133283765Y-104358025D01*
X133427244Y-104572756D01*
X134168595Y-105314108D01*
X134065162Y-105563201D01*
X134064838Y-105935167D01*
X134206883Y-106278943D01*
X134469673Y-106542192D01*
X134813201Y-106684838D01*
X135185167Y-106685162D01*
X135528943Y-106543117D01*
X135792192Y-106280327D01*
X135934838Y-105936799D01*
X135935162Y-105564833D01*
X135810000Y-105261917D01*
X135810000Y-105000000D01*
X135803968Y-104969673D01*
X135748343Y-104690027D01*
X135572757Y-104427244D01*
X135209340Y-104063827D01*
X135383644Y-104029156D01*
X136690000Y-105335513D01*
X136690000Y-108567050D01*
X136688254Y-108568217D01*
X136398000Y-109002612D01*
X136107746Y-108568217D01*
X135658235Y-108267863D01*
X135128000Y-108162393D01*
X134597765Y-108267863D01*
X134148254Y-108568217D01*
X133858000Y-109002612D01*
X133567746Y-108568217D01*
X133118235Y-108267863D01*
X132588000Y-108162393D01*
X132057765Y-108267863D01*
X131608254Y-108568217D01*
X131318000Y-109002612D01*
X131027746Y-108568217D01*
X130578235Y-108267863D01*
X130048000Y-108162393D01*
X129517765Y-108267863D01*
X129068254Y-108568217D01*
X128767900Y-109017728D01*
X128662430Y-109547963D01*
X128662430Y-110192057D01*
X126427245Y-112427243D01*
X126427244Y-112427244D01*
X126310000Y-112602711D01*
X126310000Y-107335512D01*
X129645557Y-103999956D01*
X130048000Y-104080007D01*
X130578235Y-103974537D01*
X131027746Y-103674183D01*
X131318000Y-103239788D01*
X131608254Y-103674183D01*
X131608254Y-103674183D01*
G37*
X131608254Y-103674183D02*
X132057765Y-103974537D01*
X132588000Y-104080007D01*
X133085530Y-103981042D01*
X133211233Y-104106746D01*
X133251658Y-104309974D01*
X133283765Y-104358025D01*
X133427244Y-104572756D01*
X134168595Y-105314108D01*
X134065162Y-105563201D01*
X134064838Y-105935167D01*
X134206883Y-106278943D01*
X134469673Y-106542192D01*
X134813201Y-106684838D01*
X135185167Y-106685162D01*
X135528943Y-106543117D01*
X135792192Y-106280327D01*
X135934838Y-105936799D01*
X135935162Y-105564833D01*
X135810000Y-105261917D01*
X135810000Y-105000000D01*
X135803968Y-104969673D01*
X135748343Y-104690027D01*
X135572757Y-104427244D01*
X135209340Y-104063827D01*
X135383644Y-104029156D01*
X136690000Y-105335513D01*
X136690000Y-108567050D01*
X136688254Y-108568217D01*
X136398000Y-109002612D01*
X136107746Y-108568217D01*
X135658235Y-108267863D01*
X135128000Y-108162393D01*
X134597765Y-108267863D01*
X134148254Y-108568217D01*
X133858000Y-109002612D01*
X133567746Y-108568217D01*
X133118235Y-108267863D01*
X132588000Y-108162393D01*
X132057765Y-108267863D01*
X131608254Y-108568217D01*
X131318000Y-109002612D01*
X131027746Y-108568217D01*
X130578235Y-108267863D01*
X130048000Y-108162393D01*
X129517765Y-108267863D01*
X129068254Y-108568217D01*
X128767900Y-109017728D01*
X128662430Y-109547963D01*
X128662430Y-110192057D01*
X126427245Y-112427243D01*
X126427244Y-112427244D01*
X126310000Y-112602711D01*
X126310000Y-107335512D01*
X129645557Y-103999956D01*
X130048000Y-104080007D01*
X130578235Y-103974537D01*
X131027746Y-103674183D01*
X131318000Y-103239788D01*
X131608254Y-103674183D01*
G36*
X163845248Y-107240760D02*
X163081391Y-107240760D01*
X163292192Y-107030327D01*
X163392719Y-106788232D01*
X163845248Y-107240760D01*
X163845248Y-107240760D01*
G37*
X163845248Y-107240760D02*
X163081391Y-107240760D01*
X163292192Y-107030327D01*
X163392719Y-106788232D01*
X163845248Y-107240760D01*
M02*
