G04 #@! TF.FileFunction,Legend,Top*
%FSLAX46Y46*%
G04 Gerber Fmt 4.6, Leading zero omitted, Abs format (unit mm)*
G04 Created by KiCad (PCBNEW 4.0.7) date 06/25/18 20:53:05*
%MOMM*%
%LPD*%
G01*
G04 APERTURE LIST*
%ADD10C,0.100000*%
%ADD11C,0.250000*%
%ADD12C,0.300000*%
%ADD13C,0.150000*%
%ADD14C,0.120000*%
%ADD15C,0.010000*%
%ADD16C,0.254000*%
%ADD17C,0.381000*%
%ADD18C,0.203200*%
%ADD19C,0.304800*%
%ADD20C,0.285750*%
%ADD21C,0.287020*%
G04 APERTURE END LIST*
D10*
D11*
X39158304Y-20964181D02*
X39158304Y-19964181D01*
X39396399Y-19964181D01*
X39539257Y-20011800D01*
X39634495Y-20107038D01*
X39682114Y-20202276D01*
X39729733Y-20392752D01*
X39729733Y-20535610D01*
X39682114Y-20726086D01*
X39634495Y-20821324D01*
X39539257Y-20916562D01*
X39396399Y-20964181D01*
X39158304Y-20964181D01*
X40301161Y-20964181D02*
X40205923Y-20916562D01*
X40158304Y-20868943D01*
X40110685Y-20773705D01*
X40110685Y-20487990D01*
X40158304Y-20392752D01*
X40205923Y-20345133D01*
X40301161Y-20297514D01*
X40444019Y-20297514D01*
X40539257Y-20345133D01*
X40586876Y-20392752D01*
X40634495Y-20487990D01*
X40634495Y-20773705D01*
X40586876Y-20868943D01*
X40539257Y-20916562D01*
X40444019Y-20964181D01*
X40301161Y-20964181D01*
X41205923Y-20964181D02*
X41110685Y-20916562D01*
X41063066Y-20868943D01*
X41015447Y-20773705D01*
X41015447Y-20487990D01*
X41063066Y-20392752D01*
X41110685Y-20345133D01*
X41205923Y-20297514D01*
X41348781Y-20297514D01*
X41444019Y-20345133D01*
X41491638Y-20392752D01*
X41539257Y-20487990D01*
X41539257Y-20773705D01*
X41491638Y-20868943D01*
X41444019Y-20916562D01*
X41348781Y-20964181D01*
X41205923Y-20964181D01*
X41967828Y-20964181D02*
X41967828Y-20297514D01*
X41967828Y-20487990D02*
X42015447Y-20392752D01*
X42063066Y-20345133D01*
X42158304Y-20297514D01*
X42253543Y-20297514D01*
X42586876Y-20868943D02*
X42634495Y-20916562D01*
X42586876Y-20964181D01*
X42539257Y-20916562D01*
X42586876Y-20868943D01*
X42586876Y-20964181D01*
X42586876Y-20345133D02*
X42634495Y-20392752D01*
X42586876Y-20440371D01*
X42539257Y-20392752D01*
X42586876Y-20345133D01*
X42586876Y-20440371D01*
X43824971Y-20964181D02*
X43824971Y-19964181D01*
X44158305Y-20678467D01*
X44491638Y-19964181D01*
X44491638Y-20964181D01*
X44967828Y-20964181D02*
X44967828Y-20297514D01*
X44967828Y-19964181D02*
X44920209Y-20011800D01*
X44967828Y-20059419D01*
X45015447Y-20011800D01*
X44967828Y-19964181D01*
X44967828Y-20059419D01*
X45872590Y-20916562D02*
X45777352Y-20964181D01*
X45586875Y-20964181D01*
X45491637Y-20916562D01*
X45444018Y-20868943D01*
X45396399Y-20773705D01*
X45396399Y-20487990D01*
X45444018Y-20392752D01*
X45491637Y-20345133D01*
X45586875Y-20297514D01*
X45777352Y-20297514D01*
X45872590Y-20345133D01*
X46301161Y-20964181D02*
X46301161Y-19964181D01*
X46729733Y-20964181D02*
X46729733Y-20440371D01*
X46682114Y-20345133D01*
X46586876Y-20297514D01*
X46444018Y-20297514D01*
X46348780Y-20345133D01*
X46301161Y-20392752D01*
X47205923Y-20964181D02*
X47205923Y-20297514D01*
X47205923Y-19964181D02*
X47158304Y-20011800D01*
X47205923Y-20059419D01*
X47253542Y-20011800D01*
X47205923Y-19964181D01*
X47205923Y-20059419D01*
X48063066Y-20916562D02*
X47967828Y-20964181D01*
X47777351Y-20964181D01*
X47682113Y-20916562D01*
X47634494Y-20821324D01*
X47634494Y-20440371D01*
X47682113Y-20345133D01*
X47777351Y-20297514D01*
X47967828Y-20297514D01*
X48063066Y-20345133D01*
X48110685Y-20440371D01*
X48110685Y-20535610D01*
X47634494Y-20630848D01*
X48682113Y-20964181D02*
X48586875Y-20916562D01*
X48539256Y-20821324D01*
X48539256Y-19964181D01*
X49824971Y-20440371D02*
X50158305Y-20440371D01*
X50301162Y-20964181D02*
X49824971Y-20964181D01*
X49824971Y-19964181D01*
X50301162Y-19964181D01*
X50729733Y-20964181D02*
X50729733Y-20297514D01*
X50729733Y-20487990D02*
X50777352Y-20392752D01*
X50824971Y-20345133D01*
X50920209Y-20297514D01*
X51015448Y-20297514D01*
X51777353Y-20964181D02*
X51777353Y-20440371D01*
X51729734Y-20345133D01*
X51634496Y-20297514D01*
X51444019Y-20297514D01*
X51348781Y-20345133D01*
X51777353Y-20916562D02*
X51682115Y-20964181D01*
X51444019Y-20964181D01*
X51348781Y-20916562D01*
X51301162Y-20821324D01*
X51301162Y-20726086D01*
X51348781Y-20630848D01*
X51444019Y-20583229D01*
X51682115Y-20583229D01*
X51777353Y-20535610D01*
X52205924Y-20916562D02*
X52301162Y-20964181D01*
X52491638Y-20964181D01*
X52586877Y-20916562D01*
X52634496Y-20821324D01*
X52634496Y-20773705D01*
X52586877Y-20678467D01*
X52491638Y-20630848D01*
X52348781Y-20630848D01*
X52253543Y-20583229D01*
X52205924Y-20487990D01*
X52205924Y-20440371D01*
X52253543Y-20345133D01*
X52348781Y-20297514D01*
X52491638Y-20297514D01*
X52586877Y-20345133D01*
X53063067Y-20964181D02*
X53063067Y-20297514D01*
X53063067Y-20392752D02*
X53110686Y-20345133D01*
X53205924Y-20297514D01*
X53348782Y-20297514D01*
X53444020Y-20345133D01*
X53491639Y-20440371D01*
X53491639Y-20964181D01*
X53491639Y-20440371D02*
X53539258Y-20345133D01*
X53634496Y-20297514D01*
X53777353Y-20297514D01*
X53872591Y-20345133D01*
X53920210Y-20440371D01*
X53920210Y-20964181D01*
X54824972Y-20297514D02*
X54824972Y-20964181D01*
X54396400Y-20297514D02*
X54396400Y-20821324D01*
X54444019Y-20916562D01*
X54539257Y-20964181D01*
X54682115Y-20964181D01*
X54777353Y-20916562D01*
X54824972Y-20868943D01*
X55253543Y-20916562D02*
X55348781Y-20964181D01*
X55539257Y-20964181D01*
X55634496Y-20916562D01*
X55682115Y-20821324D01*
X55682115Y-20773705D01*
X55634496Y-20678467D01*
X55539257Y-20630848D01*
X55396400Y-20630848D01*
X55301162Y-20583229D01*
X55253543Y-20487990D01*
X55253543Y-20440371D01*
X55301162Y-20345133D01*
X55396400Y-20297514D01*
X55539257Y-20297514D01*
X55634496Y-20345133D01*
X39110685Y-22714181D02*
X39110685Y-21714181D01*
X39539257Y-22714181D02*
X39539257Y-22190371D01*
X39491638Y-22095133D01*
X39396400Y-22047514D01*
X39253542Y-22047514D01*
X39158304Y-22095133D01*
X39110685Y-22142752D01*
X39872590Y-22047514D02*
X40253542Y-22047514D01*
X40015447Y-21714181D02*
X40015447Y-22571324D01*
X40063066Y-22666562D01*
X40158304Y-22714181D01*
X40253542Y-22714181D01*
X40444019Y-22047514D02*
X40824971Y-22047514D01*
X40586876Y-21714181D02*
X40586876Y-22571324D01*
X40634495Y-22666562D01*
X40729733Y-22714181D01*
X40824971Y-22714181D01*
X41158305Y-22047514D02*
X41158305Y-23047514D01*
X41158305Y-22095133D02*
X41253543Y-22047514D01*
X41444020Y-22047514D01*
X41539258Y-22095133D01*
X41586877Y-22142752D01*
X41634496Y-22237990D01*
X41634496Y-22523705D01*
X41586877Y-22618943D01*
X41539258Y-22666562D01*
X41444020Y-22714181D01*
X41253543Y-22714181D01*
X41158305Y-22666562D01*
X42063067Y-22618943D02*
X42110686Y-22666562D01*
X42063067Y-22714181D01*
X42015448Y-22666562D01*
X42063067Y-22618943D01*
X42063067Y-22714181D01*
X42063067Y-22095133D02*
X42110686Y-22142752D01*
X42063067Y-22190371D01*
X42015448Y-22142752D01*
X42063067Y-22095133D01*
X42063067Y-22190371D01*
X43253543Y-21666562D02*
X42396400Y-22952276D01*
X44301162Y-21666562D02*
X43444019Y-22952276D01*
X45015448Y-22666562D02*
X44920210Y-22714181D01*
X44729733Y-22714181D01*
X44634495Y-22666562D01*
X44586876Y-22571324D01*
X44586876Y-22190371D01*
X44634495Y-22095133D01*
X44729733Y-22047514D01*
X44920210Y-22047514D01*
X45015448Y-22095133D01*
X45063067Y-22190371D01*
X45063067Y-22285610D01*
X44586876Y-22380848D01*
X45920210Y-22714181D02*
X45920210Y-22190371D01*
X45872591Y-22095133D01*
X45777353Y-22047514D01*
X45586876Y-22047514D01*
X45491638Y-22095133D01*
X45920210Y-22666562D02*
X45824972Y-22714181D01*
X45586876Y-22714181D01*
X45491638Y-22666562D01*
X45444019Y-22571324D01*
X45444019Y-22476086D01*
X45491638Y-22380848D01*
X45586876Y-22333229D01*
X45824972Y-22333229D01*
X45920210Y-22285610D01*
X46348781Y-22666562D02*
X46444019Y-22714181D01*
X46634495Y-22714181D01*
X46729734Y-22666562D01*
X46777353Y-22571324D01*
X46777353Y-22523705D01*
X46729734Y-22428467D01*
X46634495Y-22380848D01*
X46491638Y-22380848D01*
X46396400Y-22333229D01*
X46348781Y-22237990D01*
X46348781Y-22190371D01*
X46396400Y-22095133D01*
X46491638Y-22047514D01*
X46634495Y-22047514D01*
X46729734Y-22095133D01*
X47110686Y-22047514D02*
X47348781Y-22714181D01*
X47586877Y-22047514D02*
X47348781Y-22714181D01*
X47253543Y-22952276D01*
X47205924Y-22999895D01*
X47110686Y-23047514D01*
X48110686Y-22714181D02*
X48015448Y-22666562D01*
X47967829Y-22571324D01*
X47967829Y-21714181D01*
X48920211Y-22714181D02*
X48920211Y-22190371D01*
X48872592Y-22095133D01*
X48777354Y-22047514D01*
X48586877Y-22047514D01*
X48491639Y-22095133D01*
X48920211Y-22666562D02*
X48824973Y-22714181D01*
X48586877Y-22714181D01*
X48491639Y-22666562D01*
X48444020Y-22571324D01*
X48444020Y-22476086D01*
X48491639Y-22380848D01*
X48586877Y-22333229D01*
X48824973Y-22333229D01*
X48920211Y-22285610D01*
X49396401Y-22714181D02*
X49396401Y-21714181D01*
X49396401Y-22095133D02*
X49491639Y-22047514D01*
X49682116Y-22047514D01*
X49777354Y-22095133D01*
X49824973Y-22142752D01*
X49872592Y-22237990D01*
X49872592Y-22523705D01*
X49824973Y-22618943D01*
X49777354Y-22666562D01*
X49682116Y-22714181D01*
X49491639Y-22714181D01*
X49396401Y-22666562D01*
X50729735Y-22047514D02*
X50729735Y-22714181D01*
X50491639Y-21666562D02*
X50253544Y-22380848D01*
X50872592Y-22380848D01*
X51253544Y-22714181D02*
X51253544Y-21714181D01*
X51348782Y-22333229D02*
X51634497Y-22714181D01*
X51634497Y-22047514D02*
X51253544Y-22428467D01*
X52063068Y-22714181D02*
X52063068Y-22047514D01*
X52063068Y-21714181D02*
X52015449Y-21761800D01*
X52063068Y-21809419D01*
X52110687Y-21761800D01*
X52063068Y-21714181D01*
X52063068Y-21809419D01*
X52967830Y-22714181D02*
X52967830Y-21714181D01*
X52967830Y-22666562D02*
X52872592Y-22714181D01*
X52682115Y-22714181D01*
X52586877Y-22666562D01*
X52539258Y-22618943D01*
X52491639Y-22523705D01*
X52491639Y-22237990D01*
X52539258Y-22142752D01*
X52586877Y-22095133D01*
X52682115Y-22047514D01*
X52872592Y-22047514D01*
X52967830Y-22095133D01*
X53396401Y-22666562D02*
X53491639Y-22714181D01*
X53682115Y-22714181D01*
X53777354Y-22666562D01*
X53824973Y-22571324D01*
X53824973Y-22523705D01*
X53777354Y-22428467D01*
X53682115Y-22380848D01*
X53539258Y-22380848D01*
X53444020Y-22333229D01*
X53396401Y-22237990D01*
X53396401Y-22190371D01*
X53444020Y-22095133D01*
X53539258Y-22047514D01*
X53682115Y-22047514D01*
X53777354Y-22095133D01*
X54253544Y-22618943D02*
X54301163Y-22666562D01*
X54253544Y-22714181D01*
X54205925Y-22666562D01*
X54253544Y-22618943D01*
X54253544Y-22714181D01*
X54729734Y-22047514D02*
X54729734Y-22714181D01*
X54729734Y-22142752D02*
X54777353Y-22095133D01*
X54872591Y-22047514D01*
X55015449Y-22047514D01*
X55110687Y-22095133D01*
X55158306Y-22190371D01*
X55158306Y-22714181D01*
X55777353Y-22714181D02*
X55682115Y-22666562D01*
X55634496Y-22571324D01*
X55634496Y-21714181D01*
D12*
X41142971Y-66437400D02*
X41857257Y-66437400D01*
X41000114Y-66865971D02*
X41500114Y-65365971D01*
X42000114Y-66865971D01*
X42285828Y-65865971D02*
X42857257Y-65865971D01*
X42500114Y-65365971D02*
X42500114Y-66651686D01*
X42571542Y-66794543D01*
X42714400Y-66865971D01*
X42857257Y-66865971D01*
X44000114Y-66865971D02*
X44000114Y-66080257D01*
X43928685Y-65937400D01*
X43785828Y-65865971D01*
X43500114Y-65865971D01*
X43357257Y-65937400D01*
X44000114Y-66794543D02*
X43857257Y-66865971D01*
X43500114Y-66865971D01*
X43357257Y-66794543D01*
X43285828Y-66651686D01*
X43285828Y-66508829D01*
X43357257Y-66365971D01*
X43500114Y-66294543D01*
X43857257Y-66294543D01*
X44000114Y-66223114D01*
X44714400Y-66865971D02*
X44714400Y-65865971D01*
X44714400Y-66151686D02*
X44785828Y-66008829D01*
X44857257Y-65937400D01*
X45000114Y-65865971D01*
X45142971Y-65865971D01*
X45642971Y-66865971D02*
X45642971Y-65865971D01*
X45642971Y-65365971D02*
X45571542Y-65437400D01*
X45642971Y-65508829D01*
X45714399Y-65437400D01*
X45642971Y-65365971D01*
X45642971Y-65508829D01*
X47500114Y-66865971D02*
X47500114Y-65365971D01*
X48071542Y-65365971D01*
X48214400Y-65437400D01*
X48285828Y-65508829D01*
X48357257Y-65651686D01*
X48357257Y-65865971D01*
X48285828Y-66008829D01*
X48214400Y-66080257D01*
X48071542Y-66151686D01*
X47500114Y-66151686D01*
X49642971Y-65865971D02*
X49642971Y-66865971D01*
X49000114Y-65865971D02*
X49000114Y-66651686D01*
X49071542Y-66794543D01*
X49214400Y-66865971D01*
X49428685Y-66865971D01*
X49571542Y-66794543D01*
X49642971Y-66723114D01*
X50357257Y-65865971D02*
X50357257Y-66865971D01*
X50357257Y-66008829D02*
X50428685Y-65937400D01*
X50571543Y-65865971D01*
X50785828Y-65865971D01*
X50928685Y-65937400D01*
X51000114Y-66080257D01*
X51000114Y-66865971D01*
X51714400Y-66865971D02*
X51714400Y-65365971D01*
X51857257Y-66294543D02*
X52285828Y-66865971D01*
X52285828Y-65865971D02*
X51714400Y-66437400D01*
X54928686Y-66723114D02*
X54857257Y-66794543D01*
X54642971Y-66865971D01*
X54500114Y-66865971D01*
X54285829Y-66794543D01*
X54142971Y-66651686D01*
X54071543Y-66508829D01*
X54000114Y-66223114D01*
X54000114Y-66008829D01*
X54071543Y-65723114D01*
X54142971Y-65580257D01*
X54285829Y-65437400D01*
X54500114Y-65365971D01*
X54642971Y-65365971D01*
X54857257Y-65437400D01*
X54928686Y-65508829D01*
X55785829Y-66865971D02*
X55642971Y-66794543D01*
X55571543Y-66723114D01*
X55500114Y-66580257D01*
X55500114Y-66151686D01*
X55571543Y-66008829D01*
X55642971Y-65937400D01*
X55785829Y-65865971D01*
X56000114Y-65865971D01*
X56142971Y-65937400D01*
X56214400Y-66008829D01*
X56285829Y-66151686D01*
X56285829Y-66580257D01*
X56214400Y-66723114D01*
X56142971Y-66794543D01*
X56000114Y-66865971D01*
X55785829Y-66865971D01*
X56928686Y-65865971D02*
X56928686Y-66865971D01*
X56928686Y-66008829D02*
X57000114Y-65937400D01*
X57142972Y-65865971D01*
X57357257Y-65865971D01*
X57500114Y-65937400D01*
X57571543Y-66080257D01*
X57571543Y-66865971D01*
X58214400Y-66794543D02*
X58357257Y-66865971D01*
X58642972Y-66865971D01*
X58785829Y-66794543D01*
X58857257Y-66651686D01*
X58857257Y-66580257D01*
X58785829Y-66437400D01*
X58642972Y-66365971D01*
X58428686Y-66365971D01*
X58285829Y-66294543D01*
X58214400Y-66151686D01*
X58214400Y-66080257D01*
X58285829Y-65937400D01*
X58428686Y-65865971D01*
X58642972Y-65865971D01*
X58785829Y-65937400D01*
X59714401Y-66865971D02*
X59571543Y-66794543D01*
X59500115Y-66723114D01*
X59428686Y-66580257D01*
X59428686Y-66151686D01*
X59500115Y-66008829D01*
X59571543Y-65937400D01*
X59714401Y-65865971D01*
X59928686Y-65865971D01*
X60071543Y-65937400D01*
X60142972Y-66008829D01*
X60214401Y-66151686D01*
X60214401Y-66580257D01*
X60142972Y-66723114D01*
X60071543Y-66794543D01*
X59928686Y-66865971D01*
X59714401Y-66865971D01*
X61071544Y-66865971D02*
X60928686Y-66794543D01*
X60857258Y-66651686D01*
X60857258Y-65365971D01*
X62214400Y-66794543D02*
X62071543Y-66865971D01*
X61785829Y-66865971D01*
X61642972Y-66794543D01*
X61571543Y-66651686D01*
X61571543Y-66080257D01*
X61642972Y-65937400D01*
X61785829Y-65865971D01*
X62071543Y-65865971D01*
X62214400Y-65937400D01*
X62285829Y-66080257D01*
X62285829Y-66223114D01*
X61571543Y-66365971D01*
X39857260Y-67915971D02*
X40357260Y-69415971D01*
X40857260Y-67915971D01*
X41928688Y-69344543D02*
X41785831Y-69415971D01*
X41500117Y-69415971D01*
X41357260Y-69344543D01*
X41285831Y-69201686D01*
X41285831Y-68630257D01*
X41357260Y-68487400D01*
X41500117Y-68415971D01*
X41785831Y-68415971D01*
X41928688Y-68487400D01*
X42000117Y-68630257D01*
X42000117Y-68773114D01*
X41285831Y-68915971D01*
X42642974Y-69415971D02*
X42642974Y-68415971D01*
X42642974Y-68701686D02*
X42714402Y-68558829D01*
X42785831Y-68487400D01*
X42928688Y-68415971D01*
X43071545Y-68415971D01*
X43500116Y-69344543D02*
X43642973Y-69415971D01*
X43928688Y-69415971D01*
X44071545Y-69344543D01*
X44142973Y-69201686D01*
X44142973Y-69130257D01*
X44071545Y-68987400D01*
X43928688Y-68915971D01*
X43714402Y-68915971D01*
X43571545Y-68844543D01*
X43500116Y-68701686D01*
X43500116Y-68630257D01*
X43571545Y-68487400D01*
X43714402Y-68415971D01*
X43928688Y-68415971D01*
X44071545Y-68487400D01*
X44785831Y-69415971D02*
X44785831Y-68415971D01*
X44785831Y-67915971D02*
X44714402Y-67987400D01*
X44785831Y-68058829D01*
X44857259Y-67987400D01*
X44785831Y-67915971D01*
X44785831Y-68058829D01*
X46071545Y-69344543D02*
X45928688Y-69415971D01*
X45642974Y-69415971D01*
X45500117Y-69344543D01*
X45428688Y-69201686D01*
X45428688Y-68630257D01*
X45500117Y-68487400D01*
X45642974Y-68415971D01*
X45928688Y-68415971D01*
X46071545Y-68487400D01*
X46142974Y-68630257D01*
X46142974Y-68773114D01*
X45428688Y-68915971D01*
X47857259Y-68058829D02*
X47928688Y-67987400D01*
X48071545Y-67915971D01*
X48428688Y-67915971D01*
X48571545Y-67987400D01*
X48642974Y-68058829D01*
X48714402Y-68201686D01*
X48714402Y-68344543D01*
X48642974Y-68558829D01*
X47785831Y-69415971D01*
X48714402Y-69415971D01*
X49642973Y-67915971D02*
X49785830Y-67915971D01*
X49928687Y-67987400D01*
X50000116Y-68058829D01*
X50071545Y-68201686D01*
X50142973Y-68487400D01*
X50142973Y-68844543D01*
X50071545Y-69130257D01*
X50000116Y-69273114D01*
X49928687Y-69344543D01*
X49785830Y-69415971D01*
X49642973Y-69415971D01*
X49500116Y-69344543D01*
X49428687Y-69273114D01*
X49357259Y-69130257D01*
X49285830Y-68844543D01*
X49285830Y-68487400D01*
X49357259Y-68201686D01*
X49428687Y-68058829D01*
X49500116Y-67987400D01*
X49642973Y-67915971D01*
X51571544Y-69415971D02*
X50714401Y-69415971D01*
X51142973Y-69415971D02*
X51142973Y-67915971D01*
X51000116Y-68130257D01*
X50857258Y-68273114D01*
X50714401Y-68344543D01*
X52428687Y-68558829D02*
X52285829Y-68487400D01*
X52214401Y-68415971D01*
X52142972Y-68273114D01*
X52142972Y-68201686D01*
X52214401Y-68058829D01*
X52285829Y-67987400D01*
X52428687Y-67915971D01*
X52714401Y-67915971D01*
X52857258Y-67987400D01*
X52928687Y-68058829D01*
X53000115Y-68201686D01*
X53000115Y-68273114D01*
X52928687Y-68415971D01*
X52857258Y-68487400D01*
X52714401Y-68558829D01*
X52428687Y-68558829D01*
X52285829Y-68630257D01*
X52214401Y-68701686D01*
X52142972Y-68844543D01*
X52142972Y-69130257D01*
X52214401Y-69273114D01*
X52285829Y-69344543D01*
X52428687Y-69415971D01*
X52714401Y-69415971D01*
X52857258Y-69344543D01*
X52928687Y-69273114D01*
X53000115Y-69130257D01*
X53000115Y-68844543D01*
X52928687Y-68701686D01*
X52857258Y-68630257D01*
X52714401Y-68558829D01*
X53928686Y-67915971D02*
X54071543Y-67915971D01*
X54214400Y-67987400D01*
X54285829Y-68058829D01*
X54357258Y-68201686D01*
X54428686Y-68487400D01*
X54428686Y-68844543D01*
X54357258Y-69130257D01*
X54285829Y-69273114D01*
X54214400Y-69344543D01*
X54071543Y-69415971D01*
X53928686Y-69415971D01*
X53785829Y-69344543D01*
X53714400Y-69273114D01*
X53642972Y-69130257D01*
X53571543Y-68844543D01*
X53571543Y-68487400D01*
X53642972Y-68201686D01*
X53714400Y-68058829D01*
X53785829Y-67987400D01*
X53928686Y-67915971D01*
X55714400Y-67915971D02*
X55428686Y-67915971D01*
X55285829Y-67987400D01*
X55214400Y-68058829D01*
X55071543Y-68273114D01*
X55000114Y-68558829D01*
X55000114Y-69130257D01*
X55071543Y-69273114D01*
X55142971Y-69344543D01*
X55285829Y-69415971D01*
X55571543Y-69415971D01*
X55714400Y-69344543D01*
X55785829Y-69273114D01*
X55857257Y-69130257D01*
X55857257Y-68773114D01*
X55785829Y-68630257D01*
X55714400Y-68558829D01*
X55571543Y-68487400D01*
X55285829Y-68487400D01*
X55142971Y-68558829D01*
X55071543Y-68630257D01*
X55000114Y-68773114D01*
X56428685Y-68058829D02*
X56500114Y-67987400D01*
X56642971Y-67915971D01*
X57000114Y-67915971D01*
X57142971Y-67987400D01*
X57214400Y-68058829D01*
X57285828Y-68201686D01*
X57285828Y-68344543D01*
X57214400Y-68558829D01*
X56357257Y-69415971D01*
X57285828Y-69415971D01*
X58642971Y-67915971D02*
X57928685Y-67915971D01*
X57857256Y-68630257D01*
X57928685Y-68558829D01*
X58071542Y-68487400D01*
X58428685Y-68487400D01*
X58571542Y-68558829D01*
X58642971Y-68630257D01*
X58714399Y-68773114D01*
X58714399Y-69130257D01*
X58642971Y-69273114D01*
X58571542Y-69344543D01*
X58428685Y-69415971D01*
X58071542Y-69415971D01*
X57928685Y-69344543D01*
X57857256Y-69273114D01*
X60785827Y-67915971D02*
X60928684Y-67915971D01*
X61071541Y-67987400D01*
X61142970Y-68058829D01*
X61214399Y-68201686D01*
X61285827Y-68487400D01*
X61285827Y-68844543D01*
X61214399Y-69130257D01*
X61142970Y-69273114D01*
X61071541Y-69344543D01*
X60928684Y-69415971D01*
X60785827Y-69415971D01*
X60642970Y-69344543D01*
X60571541Y-69273114D01*
X60500113Y-69130257D01*
X60428684Y-68844543D01*
X60428684Y-68487400D01*
X60500113Y-68201686D01*
X60571541Y-68058829D01*
X60642970Y-67987400D01*
X60785827Y-67915971D01*
X61928684Y-69273114D02*
X62000112Y-69344543D01*
X61928684Y-69415971D01*
X61857255Y-69344543D01*
X61928684Y-69273114D01*
X61928684Y-69415971D01*
X63285827Y-67915971D02*
X63000113Y-67915971D01*
X62857256Y-67987400D01*
X62785827Y-68058829D01*
X62642970Y-68273114D01*
X62571541Y-68558829D01*
X62571541Y-69130257D01*
X62642970Y-69273114D01*
X62714398Y-69344543D01*
X62857256Y-69415971D01*
X63142970Y-69415971D01*
X63285827Y-69344543D01*
X63357256Y-69273114D01*
X63428684Y-69130257D01*
X63428684Y-68773114D01*
X63357256Y-68630257D01*
X63285827Y-68558829D01*
X63142970Y-68487400D01*
X62857256Y-68487400D01*
X62714398Y-68558829D01*
X62642970Y-68630257D01*
X62571541Y-68773114D01*
D13*
X34243400Y-54803400D02*
X34243400Y-59801400D01*
X34383400Y-54811400D02*
X34383400Y-59793400D01*
X34523400Y-54827400D02*
X34523400Y-57207400D01*
X34523400Y-57397400D02*
X34523400Y-59777400D01*
X34663400Y-54851400D02*
X34663400Y-56812400D01*
X34663400Y-57792400D02*
X34663400Y-59753400D01*
X34803400Y-54884400D02*
X34803400Y-56645400D01*
X34803400Y-57959400D02*
X34803400Y-59720400D01*
X34943400Y-54925400D02*
X34943400Y-56538400D01*
X34943400Y-58066400D02*
X34943400Y-59679400D01*
X35083400Y-54975400D02*
X35083400Y-56467400D01*
X35083400Y-58137400D02*
X35083400Y-59629400D01*
X35223400Y-55036400D02*
X35223400Y-56423400D01*
X35223400Y-58181400D02*
X35223400Y-59568400D01*
X35363400Y-55106400D02*
X35363400Y-56404400D01*
X35363400Y-58200400D02*
X35363400Y-59498400D01*
X35503400Y-55188400D02*
X35503400Y-56406400D01*
X35503400Y-58198400D02*
X35503400Y-59416400D01*
X35643400Y-55283400D02*
X35643400Y-56431400D01*
X35643400Y-58173400D02*
X35643400Y-59321400D01*
X35783400Y-55394400D02*
X35783400Y-56479400D01*
X35783400Y-58125400D02*
X35783400Y-59210400D01*
X35923400Y-55522400D02*
X35923400Y-56557400D01*
X35923400Y-58047400D02*
X35923400Y-59082400D01*
X36063400Y-55671400D02*
X36063400Y-56674400D01*
X36063400Y-57930400D02*
X36063400Y-58933400D01*
X36203400Y-55850400D02*
X36203400Y-56862400D01*
X36203400Y-57742400D02*
X36203400Y-58754400D01*
X36343400Y-56069400D02*
X36343400Y-58535400D01*
X36483400Y-56358400D02*
X36483400Y-58246400D01*
X36623400Y-56830400D02*
X36623400Y-57774400D01*
X36318400Y-57302400D02*
G75*
G03X36318400Y-57302400I-900000J0D01*
G01*
X36705900Y-57302400D02*
G75*
G03X36705900Y-57302400I-2537500J0D01*
G01*
X65223000Y-55940600D02*
X65223000Y-50942600D01*
X65083000Y-55932600D02*
X65083000Y-50950600D01*
X64943000Y-55916600D02*
X64943000Y-53536600D01*
X64943000Y-53346600D02*
X64943000Y-50966600D01*
X64803000Y-55892600D02*
X64803000Y-53931600D01*
X64803000Y-52951600D02*
X64803000Y-50990600D01*
X64663000Y-55859600D02*
X64663000Y-54098600D01*
X64663000Y-52784600D02*
X64663000Y-51023600D01*
X64523000Y-55818600D02*
X64523000Y-54205600D01*
X64523000Y-52677600D02*
X64523000Y-51064600D01*
X64383000Y-55768600D02*
X64383000Y-54276600D01*
X64383000Y-52606600D02*
X64383000Y-51114600D01*
X64243000Y-55707600D02*
X64243000Y-54320600D01*
X64243000Y-52562600D02*
X64243000Y-51175600D01*
X64103000Y-55637600D02*
X64103000Y-54339600D01*
X64103000Y-52543600D02*
X64103000Y-51245600D01*
X63963000Y-55555600D02*
X63963000Y-54337600D01*
X63963000Y-52545600D02*
X63963000Y-51327600D01*
X63823000Y-55460600D02*
X63823000Y-54312600D01*
X63823000Y-52570600D02*
X63823000Y-51422600D01*
X63683000Y-55349600D02*
X63683000Y-54264600D01*
X63683000Y-52618600D02*
X63683000Y-51533600D01*
X63543000Y-55221600D02*
X63543000Y-54186600D01*
X63543000Y-52696600D02*
X63543000Y-51661600D01*
X63403000Y-55072600D02*
X63403000Y-54069600D01*
X63403000Y-52813600D02*
X63403000Y-51810600D01*
X63263000Y-54893600D02*
X63263000Y-53881600D01*
X63263000Y-53001600D02*
X63263000Y-51989600D01*
X63123000Y-54674600D02*
X63123000Y-52208600D01*
X62983000Y-54385600D02*
X62983000Y-52497600D01*
X62843000Y-53913600D02*
X62843000Y-52969600D01*
X64948000Y-53441600D02*
G75*
G03X64948000Y-53441600I-900000J0D01*
G01*
X67835500Y-53441600D02*
G75*
G03X67835500Y-53441600I-2537500J0D01*
G01*
X94390600Y-43322600D02*
X94390600Y-48320600D01*
X94530600Y-43330600D02*
X94530600Y-48312600D01*
X94670600Y-43346600D02*
X94670600Y-45726600D01*
X94670600Y-45916600D02*
X94670600Y-48296600D01*
X94810600Y-43370600D02*
X94810600Y-45331600D01*
X94810600Y-46311600D02*
X94810600Y-48272600D01*
X94950600Y-43403600D02*
X94950600Y-45164600D01*
X94950600Y-46478600D02*
X94950600Y-48239600D01*
X95090600Y-43444600D02*
X95090600Y-45057600D01*
X95090600Y-46585600D02*
X95090600Y-48198600D01*
X95230600Y-43494600D02*
X95230600Y-44986600D01*
X95230600Y-46656600D02*
X95230600Y-48148600D01*
X95370600Y-43555600D02*
X95370600Y-44942600D01*
X95370600Y-46700600D02*
X95370600Y-48087600D01*
X95510600Y-43625600D02*
X95510600Y-44923600D01*
X95510600Y-46719600D02*
X95510600Y-48017600D01*
X95650600Y-43707600D02*
X95650600Y-44925600D01*
X95650600Y-46717600D02*
X95650600Y-47935600D01*
X95790600Y-43802600D02*
X95790600Y-44950600D01*
X95790600Y-46692600D02*
X95790600Y-47840600D01*
X95930600Y-43913600D02*
X95930600Y-44998600D01*
X95930600Y-46644600D02*
X95930600Y-47729600D01*
X96070600Y-44041600D02*
X96070600Y-45076600D01*
X96070600Y-46566600D02*
X96070600Y-47601600D01*
X96210600Y-44190600D02*
X96210600Y-45193600D01*
X96210600Y-46449600D02*
X96210600Y-47452600D01*
X96350600Y-44369600D02*
X96350600Y-45381600D01*
X96350600Y-46261600D02*
X96350600Y-47273600D01*
X96490600Y-44588600D02*
X96490600Y-47054600D01*
X96630600Y-44877600D02*
X96630600Y-46765600D01*
X96770600Y-45349600D02*
X96770600Y-46293600D01*
X96465600Y-45821600D02*
G75*
G03X96465600Y-45821600I-900000J0D01*
G01*
X96853100Y-45821600D02*
G75*
G03X96853100Y-45821600I-2537500J0D01*
G01*
D14*
X36740208Y-50999135D02*
G75*
G03X36897116Y-47766800I-1078608J1672335D01*
G01*
X34582992Y-50999135D02*
G75*
G02X34426084Y-47766800I1078608J1672335D01*
G01*
X36741437Y-50367930D02*
G75*
G03X36741600Y-48285839I-1079837J1041130D01*
G01*
X34581763Y-50367930D02*
G75*
G02X34581600Y-48285839I1079837J1041130D01*
G01*
X36897600Y-47766800D02*
X36741600Y-47766800D01*
X34581600Y-47766800D02*
X34425600Y-47766800D01*
X90470735Y-28791792D02*
G75*
G03X87238400Y-28634884I-1672335J-1078608D01*
G01*
X90470735Y-30949008D02*
G75*
G02X87238400Y-31105916I-1672335J1078608D01*
G01*
X89839530Y-28790563D02*
G75*
G03X87757439Y-28790400I-1041130J-1079837D01*
G01*
X89839530Y-30950237D02*
G75*
G02X87757439Y-30950400I-1041130J1079837D01*
G01*
X87238400Y-28634400D02*
X87238400Y-28790400D01*
X87238400Y-30950400D02*
X87238400Y-31106400D01*
D13*
X24190000Y-43027600D02*
X33020000Y-43027600D01*
X24190000Y-40487600D02*
X24190000Y-43027600D01*
X33020000Y-40487600D02*
X24190000Y-40487600D01*
X33020000Y-40487600D02*
X33020000Y-43027600D01*
X33020000Y-37947600D02*
X33020000Y-40487600D01*
X35690000Y-39217600D02*
X35690000Y-37667600D01*
X35690000Y-37667600D02*
X34290000Y-37667600D01*
X33020000Y-37947600D02*
X24190000Y-37947600D01*
X24190000Y-37947600D02*
X24190000Y-40487600D01*
X24190000Y-40487600D02*
X33020000Y-40487600D01*
X78104400Y-35890800D02*
X79654400Y-35890800D01*
X83464400Y-35610800D02*
X80924400Y-35610800D01*
X80924400Y-35610800D02*
X80924400Y-33070800D01*
X79654400Y-32790800D02*
X78104400Y-32790800D01*
X78104400Y-32790800D02*
X78104400Y-35890800D01*
X80924400Y-33070800D02*
X83464400Y-33070800D01*
X83464400Y-33070800D02*
X83464400Y-35610800D01*
X82651600Y-62839600D02*
X84683600Y-62839600D01*
X84683600Y-62839600D02*
X84683600Y-66395600D01*
X84683600Y-66395600D02*
X77063600Y-66395600D01*
X77063600Y-66395600D02*
X77063600Y-62839600D01*
X77063600Y-62839600D02*
X79095600Y-62839600D01*
X85953600Y-67411600D02*
X86969600Y-67411600D01*
X74777600Y-67411600D02*
X75793600Y-67411600D01*
X83413600Y-69443600D02*
X83413600Y-67919600D01*
X78333600Y-67919600D02*
X78333600Y-69443600D01*
X83413600Y-68681600D02*
X78333600Y-68681600D01*
X85953600Y-67411600D02*
X85953600Y-67665600D01*
X85953600Y-67665600D02*
X85953600Y-67919600D01*
X85953600Y-67919600D02*
X75793600Y-67919600D01*
X75793600Y-67919600D02*
X75793600Y-67411600D01*
X83413600Y-69443600D02*
X78333600Y-69443600D01*
X86969600Y-55219600D02*
X86969600Y-67411600D01*
X74777600Y-67411600D02*
X74777600Y-55219600D01*
X74777600Y-55219600D02*
X86969600Y-55219600D01*
D15*
G36*
X70060327Y-29226704D02*
X70063422Y-29353583D01*
X69665292Y-29691083D01*
X69575910Y-29761469D01*
X69132374Y-30205249D01*
X68924039Y-30752876D01*
X68871442Y-31615458D01*
X68871432Y-31633048D01*
X68871432Y-32950485D01*
X72892146Y-32950485D01*
X72712050Y-32232925D01*
X72618606Y-31755959D01*
X72733292Y-31718420D01*
X72946262Y-31898715D01*
X73221776Y-32301480D01*
X73219278Y-32514774D01*
X73316533Y-32812535D01*
X73721245Y-33314182D01*
X74049446Y-33637458D01*
X74726123Y-34407849D01*
X75015827Y-35088793D01*
X75020906Y-35173123D01*
X75225426Y-35773249D01*
X75877924Y-36406585D01*
X76095222Y-36563314D01*
X76869027Y-37040724D01*
X77282328Y-37142151D01*
X77322535Y-36989087D01*
X78108151Y-36989087D01*
X78163997Y-37717696D01*
X78279903Y-38660288D01*
X78432979Y-39661777D01*
X78600336Y-40567075D01*
X78759084Y-41221095D01*
X78844401Y-41434345D01*
X79118406Y-41468828D01*
X79549543Y-41171162D01*
X80021945Y-40668996D01*
X80419747Y-40089980D01*
X80627080Y-39561765D01*
X80635642Y-39460938D01*
X80488636Y-38873172D01*
X80110855Y-38184556D01*
X79597156Y-37502503D01*
X79042395Y-36934426D01*
X78541428Y-36587740D01*
X78189113Y-36569857D01*
X78135255Y-36629549D01*
X78108151Y-36989087D01*
X77322535Y-36989087D01*
X77354299Y-36868165D01*
X77271225Y-36598226D01*
X76901148Y-36256468D01*
X76462826Y-36158906D01*
X75974212Y-36063668D01*
X75823011Y-35891537D01*
X76036584Y-35640305D01*
X76597848Y-35624574D01*
X77387624Y-35819128D01*
X78286729Y-36198752D01*
X78882918Y-36538935D01*
X79730951Y-37153695D01*
X80302006Y-37797773D01*
X80666262Y-38608965D01*
X80893894Y-39725069D01*
X81004176Y-40704169D01*
X81055043Y-41399849D01*
X81047608Y-41721622D01*
X80996725Y-41639958D01*
X80757313Y-41047605D01*
X80434134Y-40925647D01*
X79941453Y-41265808D01*
X79692387Y-41514067D01*
X79224672Y-42029353D01*
X79106457Y-42293357D01*
X79305240Y-42428990D01*
X79440149Y-42467937D01*
X79731560Y-42622418D01*
X79903918Y-42975176D01*
X79996063Y-43651072D01*
X80033322Y-44374930D01*
X80125815Y-45416101D01*
X80298659Y-46217045D01*
X80465045Y-46564402D01*
X80773614Y-47111120D01*
X80964833Y-47800195D01*
X81017822Y-48455243D01*
X80911698Y-48899887D01*
X80752517Y-48992590D01*
X80416565Y-49208265D01*
X80368274Y-49410449D01*
X80570977Y-49727375D01*
X80969853Y-49744659D01*
X81340528Y-49745913D01*
X81516819Y-49973849D01*
X81569273Y-50559753D01*
X81571432Y-50864169D01*
X81571432Y-52067327D01*
X80234590Y-52103114D01*
X79429913Y-52100944D01*
X78967737Y-51967646D01*
X78656387Y-51596546D01*
X78490663Y-51265221D01*
X79833537Y-51265221D01*
X80065961Y-51587779D01*
X80501958Y-51666274D01*
X81039554Y-51526820D01*
X81170379Y-51265221D01*
X80937955Y-50942664D01*
X80501958Y-50864169D01*
X79964363Y-51003623D01*
X79833537Y-51265221D01*
X78490663Y-51265221D01*
X78398706Y-51081377D01*
X78170801Y-50541525D01*
X78049211Y-50026853D01*
X78036343Y-49661011D01*
X79031432Y-49661011D01*
X79245451Y-50015480D01*
X79432485Y-50062063D01*
X79786953Y-49848044D01*
X79833537Y-49661011D01*
X79619518Y-49306542D01*
X79432485Y-49259958D01*
X79078016Y-49473978D01*
X79031432Y-49661011D01*
X78036343Y-49661011D01*
X78026915Y-49392998D01*
X78096890Y-48495600D01*
X78120130Y-48297826D01*
X79092668Y-48297826D01*
X79403371Y-48447952D01*
X79668669Y-48457853D01*
X80167226Y-48377305D01*
X80350142Y-48025814D01*
X80368274Y-47655748D01*
X80284241Y-47068632D01*
X79971573Y-46861917D01*
X79833537Y-46853642D01*
X79396927Y-46937937D01*
X79295149Y-47054169D01*
X79229165Y-47448430D01*
X79130282Y-47856274D01*
X79092668Y-48297826D01*
X78120130Y-48297826D01*
X78221391Y-47436116D01*
X78384891Y-46269772D01*
X78558825Y-45270135D01*
X78716677Y-44580207D01*
X78787275Y-44384112D01*
X78809015Y-44313642D01*
X79350923Y-44313642D01*
X79379823Y-44770261D01*
X79463522Y-44810462D01*
X79474177Y-44786626D01*
X79527068Y-44255850D01*
X79484084Y-43984520D01*
X79398976Y-43875487D01*
X79352687Y-44230614D01*
X79350923Y-44313642D01*
X78809015Y-44313642D01*
X79006377Y-43673922D01*
X78967262Y-43025451D01*
X78746275Y-42698438D01*
X78360555Y-42648669D01*
X78146722Y-43096898D01*
X78130703Y-43192697D01*
X77915174Y-43752155D01*
X77780587Y-43952459D01*
X77523606Y-44456937D01*
X77303830Y-45179335D01*
X77297390Y-45208894D01*
X77105811Y-46104145D01*
X76610859Y-45290263D01*
X75764438Y-44308283D01*
X74668562Y-43786130D01*
X73884590Y-43676966D01*
X73197749Y-43701163D01*
X72911882Y-43894545D01*
X72881958Y-44068245D01*
X73011667Y-44369053D01*
X73483049Y-44415061D01*
X73689138Y-44389550D01*
X74383745Y-44409568D01*
X74779919Y-44612800D01*
X74905053Y-45004184D01*
X75030664Y-45808954D01*
X75141394Y-46905992D01*
X75216075Y-48052080D01*
X75294693Y-49284297D01*
X75393921Y-50309492D01*
X75500679Y-51016141D01*
X75595820Y-51290053D01*
X75846442Y-51547249D01*
X75610488Y-51686505D01*
X74925072Y-51698021D01*
X74285642Y-51636082D01*
X73282653Y-51543874D01*
X71984919Y-51469629D01*
X70632409Y-51426230D01*
X70288402Y-51421467D01*
X69090534Y-51425509D01*
X68317388Y-51476044D01*
X67859717Y-51590875D01*
X67608278Y-51787808D01*
X67556006Y-51866800D01*
X67335876Y-52125925D01*
X67275352Y-51976500D01*
X67456885Y-51544476D01*
X67793592Y-51174394D01*
X68040380Y-50897609D01*
X68200677Y-50492369D01*
X68295113Y-49845155D01*
X68306231Y-49618595D01*
X69138800Y-49618595D01*
X69240156Y-49841916D01*
X69608646Y-49988002D01*
X70340900Y-50080733D01*
X71210906Y-50130695D01*
X72292223Y-50181705D01*
X73229297Y-50232037D01*
X73838989Y-50271763D01*
X73884590Y-50275626D01*
X74379795Y-50173579D01*
X74486169Y-49928379D01*
X74263265Y-49601764D01*
X73951432Y-49527327D01*
X73515945Y-49360149D01*
X73416695Y-49126274D01*
X73292994Y-48892871D01*
X72854731Y-48767857D01*
X72001165Y-48725915D01*
X71820876Y-48725221D01*
X70914935Y-48752399D01*
X70453790Y-48848704D01*
X70349568Y-49036299D01*
X70365866Y-49092164D01*
X70333778Y-49341929D01*
X69892807Y-49341128D01*
X69822737Y-49328363D01*
X69294939Y-49321780D01*
X69138811Y-49614483D01*
X69138800Y-49618595D01*
X68306231Y-49618595D01*
X68344321Y-48842449D01*
X68360216Y-48056800D01*
X69406169Y-48056800D01*
X69492236Y-48239943D01*
X69807986Y-48359082D01*
X70439742Y-48426550D01*
X71473824Y-48454679D01*
X72213537Y-48457853D01*
X73495536Y-48445558D01*
X74329512Y-48400450D01*
X74801787Y-48310200D01*
X74998685Y-48162474D01*
X75020906Y-48056800D01*
X74934838Y-47873658D01*
X74619088Y-47754518D01*
X73987332Y-47687050D01*
X72953250Y-47658922D01*
X72213537Y-47655748D01*
X70931539Y-47668043D01*
X70097563Y-47713150D01*
X69625287Y-47803401D01*
X69428389Y-47951127D01*
X69406169Y-48056800D01*
X68360216Y-48056800D01*
X68383551Y-46506804D01*
X69431456Y-46506804D01*
X69497792Y-46745706D01*
X69791481Y-46987327D01*
X70494345Y-47261316D01*
X71680010Y-47382548D01*
X72079853Y-47388379D01*
X73390812Y-47309433D01*
X74227428Y-47076246D01*
X74368225Y-46987327D01*
X74728249Y-46665744D01*
X74661914Y-46426842D01*
X74368225Y-46185221D01*
X73665361Y-45911231D01*
X72479696Y-45790000D01*
X72079853Y-45784169D01*
X70768894Y-45863115D01*
X69932278Y-46096302D01*
X69791481Y-46185221D01*
X69431456Y-46506804D01*
X68383551Y-46506804D01*
X68400469Y-45383116D01*
X67732151Y-45455063D01*
X67346024Y-45446419D01*
X67090139Y-45239865D01*
X66882193Y-44719065D01*
X66691797Y-43984537D01*
X66392590Y-43003033D01*
X66096538Y-42549270D01*
X65959098Y-42519668D01*
X65511483Y-42484434D01*
X64767563Y-42308721D01*
X64283937Y-42160668D01*
X63462476Y-41935739D01*
X62816159Y-41843409D01*
X62602431Y-41864897D01*
X62314246Y-42203900D01*
X62001731Y-42917514D01*
X61711845Y-43850387D01*
X61491546Y-44847168D01*
X61387791Y-45752504D01*
X61385116Y-45892161D01*
X61319209Y-46514709D01*
X61043634Y-46833198D01*
X60441608Y-46919711D01*
X59780906Y-46882364D01*
X59737550Y-46977896D01*
X60081057Y-47259721D01*
X60381861Y-47452264D01*
X61074690Y-47982811D01*
X61240876Y-48420714D01*
X61229135Y-48457853D01*
X61104188Y-48927972D01*
X60940588Y-49730517D01*
X60813193Y-50456349D01*
X60628543Y-51456661D01*
X60474564Y-52046233D01*
X60365842Y-52187903D01*
X60316962Y-51844505D01*
X60315642Y-51724121D01*
X60112154Y-51139298D01*
X59847748Y-50885585D01*
X59557602Y-50679901D01*
X59747206Y-50611838D01*
X59981432Y-50604931D01*
X60466742Y-50445743D01*
X60583011Y-50195748D01*
X60350587Y-49873190D01*
X59914590Y-49794695D01*
X59367152Y-49941870D01*
X59246169Y-50230520D01*
X59152903Y-50493399D01*
X58788425Y-50582252D01*
X58043011Y-50530731D01*
X57263539Y-50485888D01*
X56900507Y-50594664D01*
X56839853Y-50763327D01*
X57076417Y-51050902D01*
X57575116Y-51150329D01*
X58050697Y-51182824D01*
X58033900Y-51277626D01*
X57775642Y-51398906D01*
X57226383Y-51602645D01*
X56875803Y-51592192D01*
X56679555Y-51290231D01*
X56593290Y-50619449D01*
X56581054Y-49956985D01*
X57374590Y-49956985D01*
X57534044Y-50258958D01*
X57797510Y-50224353D01*
X58399809Y-50077321D01*
X58599615Y-50062063D01*
X58928574Y-49845442D01*
X58978800Y-49632405D01*
X58819346Y-49330432D01*
X58555880Y-49365037D01*
X57953581Y-49512069D01*
X57753775Y-49527327D01*
X57424816Y-49743948D01*
X57374590Y-49956985D01*
X56581054Y-49956985D01*
X56572660Y-49502532D01*
X56572485Y-49301397D01*
X56580227Y-48751781D01*
X58005291Y-48751781D01*
X58122376Y-49087657D01*
X58461074Y-49070438D01*
X58601551Y-48972835D01*
X58921301Y-48535326D01*
X59868402Y-48535326D01*
X60063413Y-48908012D01*
X60315642Y-48992590D01*
X60658553Y-48797829D01*
X60731093Y-48701925D01*
X60762327Y-48294168D01*
X60479445Y-48020600D01*
X60091439Y-48053633D01*
X60018097Y-48113714D01*
X59868402Y-48535326D01*
X58921301Y-48535326D01*
X58927389Y-48526997D01*
X58978800Y-48307210D01*
X58827087Y-47866375D01*
X58488434Y-47845305D01*
X58177746Y-48188522D01*
X58005291Y-48751781D01*
X56580227Y-48751781D01*
X56589106Y-48121545D01*
X56654709Y-47350053D01*
X56792903Y-46861147D01*
X56924005Y-46675397D01*
X58800555Y-46675397D01*
X58837256Y-46834347D01*
X58978800Y-46853642D01*
X59198875Y-46755816D01*
X59157046Y-46675397D01*
X58839742Y-46643398D01*
X58800555Y-46675397D01*
X56924005Y-46675397D01*
X57027295Y-46529053D01*
X57107221Y-46452590D01*
X57508476Y-45977389D01*
X57641958Y-45639796D01*
X57663692Y-45599696D01*
X58444063Y-45599696D01*
X58695906Y-46017395D01*
X59449924Y-46256429D01*
X59714063Y-46287890D01*
X59877628Y-46185221D01*
X60583011Y-46185221D01*
X60727382Y-46541027D01*
X60850379Y-46586274D01*
X61087583Y-46369717D01*
X61117748Y-46185221D01*
X60973376Y-45829416D01*
X60850379Y-45784169D01*
X60613176Y-46000726D01*
X60583011Y-46185221D01*
X59877628Y-46185221D01*
X60008673Y-46102965D01*
X60048274Y-45917853D01*
X59939347Y-45559389D01*
X59847748Y-45513149D01*
X59453487Y-45447165D01*
X59045642Y-45348282D01*
X58568749Y-45325025D01*
X58444063Y-45599696D01*
X57663692Y-45599696D01*
X57845170Y-45264868D01*
X58269329Y-44899863D01*
X58802891Y-44275539D01*
X58938610Y-43945577D01*
X59798044Y-43945577D01*
X59881940Y-44174045D01*
X60266538Y-44378155D01*
X60629565Y-44146355D01*
X61012933Y-43440511D01*
X61195512Y-42978959D01*
X61468057Y-42089885D01*
X61455384Y-41555243D01*
X61140010Y-41266582D01*
X60907318Y-41191161D01*
X60623783Y-41364292D01*
X60312830Y-41895776D01*
X60032717Y-42616135D01*
X59841703Y-43355894D01*
X59798044Y-43945577D01*
X58938610Y-43945577D01*
X59270727Y-43138135D01*
X59365432Y-42818244D01*
X59834165Y-41147695D01*
X59238168Y-40698133D01*
X58903222Y-40416613D01*
X58776981Y-40129701D01*
X58846733Y-39670193D01*
X59099341Y-38872160D01*
X59373785Y-38111615D01*
X59596027Y-37611738D01*
X59686726Y-37495748D01*
X59715053Y-37709721D01*
X59617164Y-38097327D01*
X59439787Y-38842149D01*
X59357630Y-39445451D01*
X59391915Y-39930465D01*
X59577855Y-39972752D01*
X59866226Y-39625155D01*
X60207806Y-38940518D01*
X60461914Y-38259955D01*
X60726417Y-37536652D01*
X60934067Y-37099290D01*
X61011996Y-37033505D01*
X60988118Y-37321554D01*
X60818967Y-37964660D01*
X60580729Y-38705536D01*
X60329171Y-39552009D01*
X60213199Y-40189216D01*
X60245827Y-40452767D01*
X60573969Y-40610736D01*
X61289289Y-40886036D01*
X62269667Y-41233019D01*
X62909182Y-41448323D01*
X64170278Y-41841529D01*
X65022718Y-42022887D01*
X65554936Y-41977635D01*
X65855367Y-41691012D01*
X66012447Y-41148257D01*
X66045988Y-40924739D01*
X66189447Y-40320257D01*
X66438553Y-39626871D01*
X66727782Y-38986486D01*
X66991609Y-38541007D01*
X67164510Y-38432338D01*
X67182434Y-38463569D01*
X67164323Y-38879560D01*
X66995460Y-39582989D01*
X66882784Y-39934095D01*
X66662794Y-40735728D01*
X66611649Y-41522792D01*
X66720349Y-42530123D01*
X66771314Y-42843116D01*
X66990728Y-43998477D01*
X67221624Y-44693212D01*
X67538906Y-44997659D01*
X68017481Y-44982154D01*
X68732252Y-44717034D01*
X68756079Y-44706837D01*
X69475717Y-44424254D01*
X69832424Y-44373960D01*
X69939400Y-44544840D01*
X69940906Y-44590512D01*
X70165062Y-44859952D01*
X70703365Y-44987736D01*
X71354561Y-44974720D01*
X71917401Y-44821760D01*
X72176540Y-44581011D01*
X72163787Y-44321259D01*
X71796948Y-44196733D01*
X71202514Y-44166181D01*
X70074590Y-44152404D01*
X71010379Y-43791432D01*
X71767147Y-43507126D01*
X72374861Y-43291298D01*
X72423669Y-43275178D01*
X72631456Y-43135662D01*
X72556500Y-42876261D01*
X72151332Y-42410488D01*
X71712157Y-41978874D01*
X71494942Y-41710623D01*
X73014917Y-41710623D01*
X73335027Y-42011298D01*
X74055530Y-42271517D01*
X74660715Y-42220860D01*
X74894460Y-42029299D01*
X74893498Y-41609315D01*
X74553134Y-41196720D01*
X74038328Y-40976545D01*
X73951432Y-40971537D01*
X73383231Y-41164362D01*
X73167239Y-41351007D01*
X73014917Y-41710623D01*
X71494942Y-41710623D01*
X70730298Y-40766325D01*
X70267369Y-39488882D01*
X70267579Y-39481660D01*
X71106179Y-39481660D01*
X71317122Y-40204513D01*
X71398683Y-40389297D01*
X71706946Y-40990862D01*
X71914461Y-41166978D01*
X72139904Y-40979837D01*
X72248810Y-40834830D01*
X72524526Y-40218224D01*
X72557838Y-39800960D01*
X72287243Y-39275286D01*
X71882612Y-38899642D01*
X71430800Y-38651325D01*
X71206962Y-38748716D01*
X71109418Y-38960146D01*
X71106179Y-39481660D01*
X70267579Y-39481660D01*
X70297437Y-38455220D01*
X72155239Y-38455220D01*
X72454284Y-38803173D01*
X72817656Y-39518634D01*
X72826093Y-39985670D01*
X72795591Y-40398045D01*
X73010348Y-40560139D01*
X73604983Y-40558363D01*
X73707272Y-40551312D01*
X74505702Y-40596057D01*
X75141247Y-40799605D01*
X75199024Y-40837282D01*
X75760906Y-41021044D01*
X76180345Y-40742575D01*
X76357052Y-40072717D01*
X76357748Y-40018789D01*
X76236736Y-39402310D01*
X75925769Y-39252413D01*
X75502950Y-39601589D01*
X75468785Y-39648977D01*
X75129556Y-39944929D01*
X74922727Y-39824201D01*
X74924322Y-39401868D01*
X75064419Y-39036896D01*
X75129577Y-38678660D01*
X74817918Y-38392164D01*
X74426711Y-38211393D01*
X73827462Y-37999400D01*
X73550092Y-38034722D01*
X73459512Y-38230568D01*
X73204039Y-38484867D01*
X72664667Y-38434444D01*
X72180662Y-38332677D01*
X72155239Y-38455220D01*
X70297437Y-38455220D01*
X70307821Y-38098263D01*
X70371487Y-37815865D01*
X70754336Y-36935679D01*
X71313648Y-36495255D01*
X71950868Y-36524765D01*
X72272459Y-36690779D01*
X72170056Y-36895509D01*
X71920367Y-37093549D01*
X71620078Y-37355387D01*
X71723339Y-37462548D01*
X72280379Y-37487244D01*
X72947789Y-37405791D01*
X73118136Y-37132555D01*
X72799499Y-36651192D01*
X72729176Y-36579056D01*
X72452100Y-36258806D01*
X72577225Y-36163577D01*
X72742454Y-36158906D01*
X73441576Y-36328326D01*
X74335554Y-36768926D01*
X75235762Y-37379208D01*
X75619155Y-37706788D01*
X76301686Y-38682903D01*
X76581440Y-39851089D01*
X76459181Y-41052563D01*
X75935672Y-42128541D01*
X75596071Y-42505074D01*
X74894782Y-43155007D01*
X75824628Y-43913910D01*
X76548994Y-44396676D01*
X77007984Y-44454733D01*
X77051707Y-44426132D01*
X77289589Y-43982705D01*
X77501701Y-43162239D01*
X77667188Y-42122407D01*
X77765193Y-41020885D01*
X77774860Y-40015347D01*
X77713019Y-39426500D01*
X77258166Y-38145182D01*
X76411440Y-37200101D01*
X75766625Y-36798168D01*
X75093330Y-36169651D01*
X74753537Y-35356800D01*
X74419625Y-34556055D01*
X73868268Y-34014466D01*
X73012055Y-33689507D01*
X71763574Y-33538653D01*
X70968253Y-33515259D01*
X69756219Y-33541619D01*
X68996099Y-33658628D01*
X68613486Y-33874920D01*
X68167688Y-34128894D01*
X67918348Y-34110009D01*
X67543953Y-34181582D01*
X67323731Y-34565761D01*
X67374291Y-35041736D01*
X67401016Y-35089611D01*
X67716713Y-35228791D01*
X67892603Y-35127160D01*
X68407929Y-35037889D01*
X69005116Y-35226146D01*
X69807221Y-35580738D01*
X68804590Y-35602453D01*
X68147720Y-35652738D01*
X67866671Y-35862328D01*
X67802681Y-36377656D01*
X67801958Y-36527220D01*
X67689613Y-37245697D01*
X67417568Y-37748512D01*
X67400906Y-37763116D01*
X67178984Y-37882962D01*
X67057352Y-37714705D01*
X67007433Y-37167753D01*
X66999853Y-36491750D01*
X66943314Y-35487932D01*
X66789027Y-34813391D01*
X66665642Y-34625055D01*
X65929819Y-34300299D01*
X64935287Y-34166455D01*
X63932878Y-34252221D01*
X63769325Y-34293667D01*
X62988156Y-34650955D01*
X62224278Y-35208748D01*
X61632137Y-35831190D01*
X61366180Y-36382425D01*
X61364008Y-36409454D01*
X61298214Y-36638602D01*
X61208043Y-36493116D01*
X60883424Y-36179548D01*
X60470817Y-36276448D01*
X60175563Y-36713791D01*
X59992040Y-37102140D01*
X59878718Y-37147946D01*
X59905050Y-36854702D01*
X60120137Y-36275119D01*
X60206076Y-36087561D01*
X60823170Y-35258090D01*
X61732035Y-34552879D01*
X62730172Y-34106971D01*
X63306467Y-34019958D01*
X63939608Y-33897850D01*
X64264114Y-33707698D01*
X64626227Y-33534877D01*
X65234054Y-33602478D01*
X65618607Y-33707698D01*
X66505108Y-33947134D01*
X66998511Y-33940498D01*
X67213843Y-33608301D01*
X67266131Y-32871058D01*
X67267221Y-32568469D01*
X67282668Y-32242729D01*
X67829899Y-32242729D01*
X67839120Y-32962566D01*
X67927540Y-33426834D01*
X68145544Y-33724356D01*
X68351301Y-33580770D01*
X68504485Y-33088964D01*
X68564772Y-32341829D01*
X68553394Y-31985154D01*
X68456413Y-31232026D01*
X68301008Y-30759550D01*
X68203011Y-30677853D01*
X68030532Y-30913889D01*
X67899932Y-31497676D01*
X67829899Y-32242729D01*
X67282668Y-32242729D01*
X67310872Y-31647978D01*
X67503533Y-31011888D01*
X67937772Y-30412849D01*
X68167739Y-30162153D01*
X68858296Y-29562792D01*
X69492541Y-29235648D01*
X69674322Y-29207327D01*
X70060327Y-29226704D01*
X70060327Y-29226704D01*
G37*
X70060327Y-29226704D02*
X70063422Y-29353583D01*
X69665292Y-29691083D01*
X69575910Y-29761469D01*
X69132374Y-30205249D01*
X68924039Y-30752876D01*
X68871442Y-31615458D01*
X68871432Y-31633048D01*
X68871432Y-32950485D01*
X72892146Y-32950485D01*
X72712050Y-32232925D01*
X72618606Y-31755959D01*
X72733292Y-31718420D01*
X72946262Y-31898715D01*
X73221776Y-32301480D01*
X73219278Y-32514774D01*
X73316533Y-32812535D01*
X73721245Y-33314182D01*
X74049446Y-33637458D01*
X74726123Y-34407849D01*
X75015827Y-35088793D01*
X75020906Y-35173123D01*
X75225426Y-35773249D01*
X75877924Y-36406585D01*
X76095222Y-36563314D01*
X76869027Y-37040724D01*
X77282328Y-37142151D01*
X77322535Y-36989087D01*
X78108151Y-36989087D01*
X78163997Y-37717696D01*
X78279903Y-38660288D01*
X78432979Y-39661777D01*
X78600336Y-40567075D01*
X78759084Y-41221095D01*
X78844401Y-41434345D01*
X79118406Y-41468828D01*
X79549543Y-41171162D01*
X80021945Y-40668996D01*
X80419747Y-40089980D01*
X80627080Y-39561765D01*
X80635642Y-39460938D01*
X80488636Y-38873172D01*
X80110855Y-38184556D01*
X79597156Y-37502503D01*
X79042395Y-36934426D01*
X78541428Y-36587740D01*
X78189113Y-36569857D01*
X78135255Y-36629549D01*
X78108151Y-36989087D01*
X77322535Y-36989087D01*
X77354299Y-36868165D01*
X77271225Y-36598226D01*
X76901148Y-36256468D01*
X76462826Y-36158906D01*
X75974212Y-36063668D01*
X75823011Y-35891537D01*
X76036584Y-35640305D01*
X76597848Y-35624574D01*
X77387624Y-35819128D01*
X78286729Y-36198752D01*
X78882918Y-36538935D01*
X79730951Y-37153695D01*
X80302006Y-37797773D01*
X80666262Y-38608965D01*
X80893894Y-39725069D01*
X81004176Y-40704169D01*
X81055043Y-41399849D01*
X81047608Y-41721622D01*
X80996725Y-41639958D01*
X80757313Y-41047605D01*
X80434134Y-40925647D01*
X79941453Y-41265808D01*
X79692387Y-41514067D01*
X79224672Y-42029353D01*
X79106457Y-42293357D01*
X79305240Y-42428990D01*
X79440149Y-42467937D01*
X79731560Y-42622418D01*
X79903918Y-42975176D01*
X79996063Y-43651072D01*
X80033322Y-44374930D01*
X80125815Y-45416101D01*
X80298659Y-46217045D01*
X80465045Y-46564402D01*
X80773614Y-47111120D01*
X80964833Y-47800195D01*
X81017822Y-48455243D01*
X80911698Y-48899887D01*
X80752517Y-48992590D01*
X80416565Y-49208265D01*
X80368274Y-49410449D01*
X80570977Y-49727375D01*
X80969853Y-49744659D01*
X81340528Y-49745913D01*
X81516819Y-49973849D01*
X81569273Y-50559753D01*
X81571432Y-50864169D01*
X81571432Y-52067327D01*
X80234590Y-52103114D01*
X79429913Y-52100944D01*
X78967737Y-51967646D01*
X78656387Y-51596546D01*
X78490663Y-51265221D01*
X79833537Y-51265221D01*
X80065961Y-51587779D01*
X80501958Y-51666274D01*
X81039554Y-51526820D01*
X81170379Y-51265221D01*
X80937955Y-50942664D01*
X80501958Y-50864169D01*
X79964363Y-51003623D01*
X79833537Y-51265221D01*
X78490663Y-51265221D01*
X78398706Y-51081377D01*
X78170801Y-50541525D01*
X78049211Y-50026853D01*
X78036343Y-49661011D01*
X79031432Y-49661011D01*
X79245451Y-50015480D01*
X79432485Y-50062063D01*
X79786953Y-49848044D01*
X79833537Y-49661011D01*
X79619518Y-49306542D01*
X79432485Y-49259958D01*
X79078016Y-49473978D01*
X79031432Y-49661011D01*
X78036343Y-49661011D01*
X78026915Y-49392998D01*
X78096890Y-48495600D01*
X78120130Y-48297826D01*
X79092668Y-48297826D01*
X79403371Y-48447952D01*
X79668669Y-48457853D01*
X80167226Y-48377305D01*
X80350142Y-48025814D01*
X80368274Y-47655748D01*
X80284241Y-47068632D01*
X79971573Y-46861917D01*
X79833537Y-46853642D01*
X79396927Y-46937937D01*
X79295149Y-47054169D01*
X79229165Y-47448430D01*
X79130282Y-47856274D01*
X79092668Y-48297826D01*
X78120130Y-48297826D01*
X78221391Y-47436116D01*
X78384891Y-46269772D01*
X78558825Y-45270135D01*
X78716677Y-44580207D01*
X78787275Y-44384112D01*
X78809015Y-44313642D01*
X79350923Y-44313642D01*
X79379823Y-44770261D01*
X79463522Y-44810462D01*
X79474177Y-44786626D01*
X79527068Y-44255850D01*
X79484084Y-43984520D01*
X79398976Y-43875487D01*
X79352687Y-44230614D01*
X79350923Y-44313642D01*
X78809015Y-44313642D01*
X79006377Y-43673922D01*
X78967262Y-43025451D01*
X78746275Y-42698438D01*
X78360555Y-42648669D01*
X78146722Y-43096898D01*
X78130703Y-43192697D01*
X77915174Y-43752155D01*
X77780587Y-43952459D01*
X77523606Y-44456937D01*
X77303830Y-45179335D01*
X77297390Y-45208894D01*
X77105811Y-46104145D01*
X76610859Y-45290263D01*
X75764438Y-44308283D01*
X74668562Y-43786130D01*
X73884590Y-43676966D01*
X73197749Y-43701163D01*
X72911882Y-43894545D01*
X72881958Y-44068245D01*
X73011667Y-44369053D01*
X73483049Y-44415061D01*
X73689138Y-44389550D01*
X74383745Y-44409568D01*
X74779919Y-44612800D01*
X74905053Y-45004184D01*
X75030664Y-45808954D01*
X75141394Y-46905992D01*
X75216075Y-48052080D01*
X75294693Y-49284297D01*
X75393921Y-50309492D01*
X75500679Y-51016141D01*
X75595820Y-51290053D01*
X75846442Y-51547249D01*
X75610488Y-51686505D01*
X74925072Y-51698021D01*
X74285642Y-51636082D01*
X73282653Y-51543874D01*
X71984919Y-51469629D01*
X70632409Y-51426230D01*
X70288402Y-51421467D01*
X69090534Y-51425509D01*
X68317388Y-51476044D01*
X67859717Y-51590875D01*
X67608278Y-51787808D01*
X67556006Y-51866800D01*
X67335876Y-52125925D01*
X67275352Y-51976500D01*
X67456885Y-51544476D01*
X67793592Y-51174394D01*
X68040380Y-50897609D01*
X68200677Y-50492369D01*
X68295113Y-49845155D01*
X68306231Y-49618595D01*
X69138800Y-49618595D01*
X69240156Y-49841916D01*
X69608646Y-49988002D01*
X70340900Y-50080733D01*
X71210906Y-50130695D01*
X72292223Y-50181705D01*
X73229297Y-50232037D01*
X73838989Y-50271763D01*
X73884590Y-50275626D01*
X74379795Y-50173579D01*
X74486169Y-49928379D01*
X74263265Y-49601764D01*
X73951432Y-49527327D01*
X73515945Y-49360149D01*
X73416695Y-49126274D01*
X73292994Y-48892871D01*
X72854731Y-48767857D01*
X72001165Y-48725915D01*
X71820876Y-48725221D01*
X70914935Y-48752399D01*
X70453790Y-48848704D01*
X70349568Y-49036299D01*
X70365866Y-49092164D01*
X70333778Y-49341929D01*
X69892807Y-49341128D01*
X69822737Y-49328363D01*
X69294939Y-49321780D01*
X69138811Y-49614483D01*
X69138800Y-49618595D01*
X68306231Y-49618595D01*
X68344321Y-48842449D01*
X68360216Y-48056800D01*
X69406169Y-48056800D01*
X69492236Y-48239943D01*
X69807986Y-48359082D01*
X70439742Y-48426550D01*
X71473824Y-48454679D01*
X72213537Y-48457853D01*
X73495536Y-48445558D01*
X74329512Y-48400450D01*
X74801787Y-48310200D01*
X74998685Y-48162474D01*
X75020906Y-48056800D01*
X74934838Y-47873658D01*
X74619088Y-47754518D01*
X73987332Y-47687050D01*
X72953250Y-47658922D01*
X72213537Y-47655748D01*
X70931539Y-47668043D01*
X70097563Y-47713150D01*
X69625287Y-47803401D01*
X69428389Y-47951127D01*
X69406169Y-48056800D01*
X68360216Y-48056800D01*
X68383551Y-46506804D01*
X69431456Y-46506804D01*
X69497792Y-46745706D01*
X69791481Y-46987327D01*
X70494345Y-47261316D01*
X71680010Y-47382548D01*
X72079853Y-47388379D01*
X73390812Y-47309433D01*
X74227428Y-47076246D01*
X74368225Y-46987327D01*
X74728249Y-46665744D01*
X74661914Y-46426842D01*
X74368225Y-46185221D01*
X73665361Y-45911231D01*
X72479696Y-45790000D01*
X72079853Y-45784169D01*
X70768894Y-45863115D01*
X69932278Y-46096302D01*
X69791481Y-46185221D01*
X69431456Y-46506804D01*
X68383551Y-46506804D01*
X68400469Y-45383116D01*
X67732151Y-45455063D01*
X67346024Y-45446419D01*
X67090139Y-45239865D01*
X66882193Y-44719065D01*
X66691797Y-43984537D01*
X66392590Y-43003033D01*
X66096538Y-42549270D01*
X65959098Y-42519668D01*
X65511483Y-42484434D01*
X64767563Y-42308721D01*
X64283937Y-42160668D01*
X63462476Y-41935739D01*
X62816159Y-41843409D01*
X62602431Y-41864897D01*
X62314246Y-42203900D01*
X62001731Y-42917514D01*
X61711845Y-43850387D01*
X61491546Y-44847168D01*
X61387791Y-45752504D01*
X61385116Y-45892161D01*
X61319209Y-46514709D01*
X61043634Y-46833198D01*
X60441608Y-46919711D01*
X59780906Y-46882364D01*
X59737550Y-46977896D01*
X60081057Y-47259721D01*
X60381861Y-47452264D01*
X61074690Y-47982811D01*
X61240876Y-48420714D01*
X61229135Y-48457853D01*
X61104188Y-48927972D01*
X60940588Y-49730517D01*
X60813193Y-50456349D01*
X60628543Y-51456661D01*
X60474564Y-52046233D01*
X60365842Y-52187903D01*
X60316962Y-51844505D01*
X60315642Y-51724121D01*
X60112154Y-51139298D01*
X59847748Y-50885585D01*
X59557602Y-50679901D01*
X59747206Y-50611838D01*
X59981432Y-50604931D01*
X60466742Y-50445743D01*
X60583011Y-50195748D01*
X60350587Y-49873190D01*
X59914590Y-49794695D01*
X59367152Y-49941870D01*
X59246169Y-50230520D01*
X59152903Y-50493399D01*
X58788425Y-50582252D01*
X58043011Y-50530731D01*
X57263539Y-50485888D01*
X56900507Y-50594664D01*
X56839853Y-50763327D01*
X57076417Y-51050902D01*
X57575116Y-51150329D01*
X58050697Y-51182824D01*
X58033900Y-51277626D01*
X57775642Y-51398906D01*
X57226383Y-51602645D01*
X56875803Y-51592192D01*
X56679555Y-51290231D01*
X56593290Y-50619449D01*
X56581054Y-49956985D01*
X57374590Y-49956985D01*
X57534044Y-50258958D01*
X57797510Y-50224353D01*
X58399809Y-50077321D01*
X58599615Y-50062063D01*
X58928574Y-49845442D01*
X58978800Y-49632405D01*
X58819346Y-49330432D01*
X58555880Y-49365037D01*
X57953581Y-49512069D01*
X57753775Y-49527327D01*
X57424816Y-49743948D01*
X57374590Y-49956985D01*
X56581054Y-49956985D01*
X56572660Y-49502532D01*
X56572485Y-49301397D01*
X56580227Y-48751781D01*
X58005291Y-48751781D01*
X58122376Y-49087657D01*
X58461074Y-49070438D01*
X58601551Y-48972835D01*
X58921301Y-48535326D01*
X59868402Y-48535326D01*
X60063413Y-48908012D01*
X60315642Y-48992590D01*
X60658553Y-48797829D01*
X60731093Y-48701925D01*
X60762327Y-48294168D01*
X60479445Y-48020600D01*
X60091439Y-48053633D01*
X60018097Y-48113714D01*
X59868402Y-48535326D01*
X58921301Y-48535326D01*
X58927389Y-48526997D01*
X58978800Y-48307210D01*
X58827087Y-47866375D01*
X58488434Y-47845305D01*
X58177746Y-48188522D01*
X58005291Y-48751781D01*
X56580227Y-48751781D01*
X56589106Y-48121545D01*
X56654709Y-47350053D01*
X56792903Y-46861147D01*
X56924005Y-46675397D01*
X58800555Y-46675397D01*
X58837256Y-46834347D01*
X58978800Y-46853642D01*
X59198875Y-46755816D01*
X59157046Y-46675397D01*
X58839742Y-46643398D01*
X58800555Y-46675397D01*
X56924005Y-46675397D01*
X57027295Y-46529053D01*
X57107221Y-46452590D01*
X57508476Y-45977389D01*
X57641958Y-45639796D01*
X57663692Y-45599696D01*
X58444063Y-45599696D01*
X58695906Y-46017395D01*
X59449924Y-46256429D01*
X59714063Y-46287890D01*
X59877628Y-46185221D01*
X60583011Y-46185221D01*
X60727382Y-46541027D01*
X60850379Y-46586274D01*
X61087583Y-46369717D01*
X61117748Y-46185221D01*
X60973376Y-45829416D01*
X60850379Y-45784169D01*
X60613176Y-46000726D01*
X60583011Y-46185221D01*
X59877628Y-46185221D01*
X60008673Y-46102965D01*
X60048274Y-45917853D01*
X59939347Y-45559389D01*
X59847748Y-45513149D01*
X59453487Y-45447165D01*
X59045642Y-45348282D01*
X58568749Y-45325025D01*
X58444063Y-45599696D01*
X57663692Y-45599696D01*
X57845170Y-45264868D01*
X58269329Y-44899863D01*
X58802891Y-44275539D01*
X58938610Y-43945577D01*
X59798044Y-43945577D01*
X59881940Y-44174045D01*
X60266538Y-44378155D01*
X60629565Y-44146355D01*
X61012933Y-43440511D01*
X61195512Y-42978959D01*
X61468057Y-42089885D01*
X61455384Y-41555243D01*
X61140010Y-41266582D01*
X60907318Y-41191161D01*
X60623783Y-41364292D01*
X60312830Y-41895776D01*
X60032717Y-42616135D01*
X59841703Y-43355894D01*
X59798044Y-43945577D01*
X58938610Y-43945577D01*
X59270727Y-43138135D01*
X59365432Y-42818244D01*
X59834165Y-41147695D01*
X59238168Y-40698133D01*
X58903222Y-40416613D01*
X58776981Y-40129701D01*
X58846733Y-39670193D01*
X59099341Y-38872160D01*
X59373785Y-38111615D01*
X59596027Y-37611738D01*
X59686726Y-37495748D01*
X59715053Y-37709721D01*
X59617164Y-38097327D01*
X59439787Y-38842149D01*
X59357630Y-39445451D01*
X59391915Y-39930465D01*
X59577855Y-39972752D01*
X59866226Y-39625155D01*
X60207806Y-38940518D01*
X60461914Y-38259955D01*
X60726417Y-37536652D01*
X60934067Y-37099290D01*
X61011996Y-37033505D01*
X60988118Y-37321554D01*
X60818967Y-37964660D01*
X60580729Y-38705536D01*
X60329171Y-39552009D01*
X60213199Y-40189216D01*
X60245827Y-40452767D01*
X60573969Y-40610736D01*
X61289289Y-40886036D01*
X62269667Y-41233019D01*
X62909182Y-41448323D01*
X64170278Y-41841529D01*
X65022718Y-42022887D01*
X65554936Y-41977635D01*
X65855367Y-41691012D01*
X66012447Y-41148257D01*
X66045988Y-40924739D01*
X66189447Y-40320257D01*
X66438553Y-39626871D01*
X66727782Y-38986486D01*
X66991609Y-38541007D01*
X67164510Y-38432338D01*
X67182434Y-38463569D01*
X67164323Y-38879560D01*
X66995460Y-39582989D01*
X66882784Y-39934095D01*
X66662794Y-40735728D01*
X66611649Y-41522792D01*
X66720349Y-42530123D01*
X66771314Y-42843116D01*
X66990728Y-43998477D01*
X67221624Y-44693212D01*
X67538906Y-44997659D01*
X68017481Y-44982154D01*
X68732252Y-44717034D01*
X68756079Y-44706837D01*
X69475717Y-44424254D01*
X69832424Y-44373960D01*
X69939400Y-44544840D01*
X69940906Y-44590512D01*
X70165062Y-44859952D01*
X70703365Y-44987736D01*
X71354561Y-44974720D01*
X71917401Y-44821760D01*
X72176540Y-44581011D01*
X72163787Y-44321259D01*
X71796948Y-44196733D01*
X71202514Y-44166181D01*
X70074590Y-44152404D01*
X71010379Y-43791432D01*
X71767147Y-43507126D01*
X72374861Y-43291298D01*
X72423669Y-43275178D01*
X72631456Y-43135662D01*
X72556500Y-42876261D01*
X72151332Y-42410488D01*
X71712157Y-41978874D01*
X71494942Y-41710623D01*
X73014917Y-41710623D01*
X73335027Y-42011298D01*
X74055530Y-42271517D01*
X74660715Y-42220860D01*
X74894460Y-42029299D01*
X74893498Y-41609315D01*
X74553134Y-41196720D01*
X74038328Y-40976545D01*
X73951432Y-40971537D01*
X73383231Y-41164362D01*
X73167239Y-41351007D01*
X73014917Y-41710623D01*
X71494942Y-41710623D01*
X70730298Y-40766325D01*
X70267369Y-39488882D01*
X70267579Y-39481660D01*
X71106179Y-39481660D01*
X71317122Y-40204513D01*
X71398683Y-40389297D01*
X71706946Y-40990862D01*
X71914461Y-41166978D01*
X72139904Y-40979837D01*
X72248810Y-40834830D01*
X72524526Y-40218224D01*
X72557838Y-39800960D01*
X72287243Y-39275286D01*
X71882612Y-38899642D01*
X71430800Y-38651325D01*
X71206962Y-38748716D01*
X71109418Y-38960146D01*
X71106179Y-39481660D01*
X70267579Y-39481660D01*
X70297437Y-38455220D01*
X72155239Y-38455220D01*
X72454284Y-38803173D01*
X72817656Y-39518634D01*
X72826093Y-39985670D01*
X72795591Y-40398045D01*
X73010348Y-40560139D01*
X73604983Y-40558363D01*
X73707272Y-40551312D01*
X74505702Y-40596057D01*
X75141247Y-40799605D01*
X75199024Y-40837282D01*
X75760906Y-41021044D01*
X76180345Y-40742575D01*
X76357052Y-40072717D01*
X76357748Y-40018789D01*
X76236736Y-39402310D01*
X75925769Y-39252413D01*
X75502950Y-39601589D01*
X75468785Y-39648977D01*
X75129556Y-39944929D01*
X74922727Y-39824201D01*
X74924322Y-39401868D01*
X75064419Y-39036896D01*
X75129577Y-38678660D01*
X74817918Y-38392164D01*
X74426711Y-38211393D01*
X73827462Y-37999400D01*
X73550092Y-38034722D01*
X73459512Y-38230568D01*
X73204039Y-38484867D01*
X72664667Y-38434444D01*
X72180662Y-38332677D01*
X72155239Y-38455220D01*
X70297437Y-38455220D01*
X70307821Y-38098263D01*
X70371487Y-37815865D01*
X70754336Y-36935679D01*
X71313648Y-36495255D01*
X71950868Y-36524765D01*
X72272459Y-36690779D01*
X72170056Y-36895509D01*
X71920367Y-37093549D01*
X71620078Y-37355387D01*
X71723339Y-37462548D01*
X72280379Y-37487244D01*
X72947789Y-37405791D01*
X73118136Y-37132555D01*
X72799499Y-36651192D01*
X72729176Y-36579056D01*
X72452100Y-36258806D01*
X72577225Y-36163577D01*
X72742454Y-36158906D01*
X73441576Y-36328326D01*
X74335554Y-36768926D01*
X75235762Y-37379208D01*
X75619155Y-37706788D01*
X76301686Y-38682903D01*
X76581440Y-39851089D01*
X76459181Y-41052563D01*
X75935672Y-42128541D01*
X75596071Y-42505074D01*
X74894782Y-43155007D01*
X75824628Y-43913910D01*
X76548994Y-44396676D01*
X77007984Y-44454733D01*
X77051707Y-44426132D01*
X77289589Y-43982705D01*
X77501701Y-43162239D01*
X77667188Y-42122407D01*
X77765193Y-41020885D01*
X77774860Y-40015347D01*
X77713019Y-39426500D01*
X77258166Y-38145182D01*
X76411440Y-37200101D01*
X75766625Y-36798168D01*
X75093330Y-36169651D01*
X74753537Y-35356800D01*
X74419625Y-34556055D01*
X73868268Y-34014466D01*
X73012055Y-33689507D01*
X71763574Y-33538653D01*
X70968253Y-33515259D01*
X69756219Y-33541619D01*
X68996099Y-33658628D01*
X68613486Y-33874920D01*
X68167688Y-34128894D01*
X67918348Y-34110009D01*
X67543953Y-34181582D01*
X67323731Y-34565761D01*
X67374291Y-35041736D01*
X67401016Y-35089611D01*
X67716713Y-35228791D01*
X67892603Y-35127160D01*
X68407929Y-35037889D01*
X69005116Y-35226146D01*
X69807221Y-35580738D01*
X68804590Y-35602453D01*
X68147720Y-35652738D01*
X67866671Y-35862328D01*
X67802681Y-36377656D01*
X67801958Y-36527220D01*
X67689613Y-37245697D01*
X67417568Y-37748512D01*
X67400906Y-37763116D01*
X67178984Y-37882962D01*
X67057352Y-37714705D01*
X67007433Y-37167753D01*
X66999853Y-36491750D01*
X66943314Y-35487932D01*
X66789027Y-34813391D01*
X66665642Y-34625055D01*
X65929819Y-34300299D01*
X64935287Y-34166455D01*
X63932878Y-34252221D01*
X63769325Y-34293667D01*
X62988156Y-34650955D01*
X62224278Y-35208748D01*
X61632137Y-35831190D01*
X61366180Y-36382425D01*
X61364008Y-36409454D01*
X61298214Y-36638602D01*
X61208043Y-36493116D01*
X60883424Y-36179548D01*
X60470817Y-36276448D01*
X60175563Y-36713791D01*
X59992040Y-37102140D01*
X59878718Y-37147946D01*
X59905050Y-36854702D01*
X60120137Y-36275119D01*
X60206076Y-36087561D01*
X60823170Y-35258090D01*
X61732035Y-34552879D01*
X62730172Y-34106971D01*
X63306467Y-34019958D01*
X63939608Y-33897850D01*
X64264114Y-33707698D01*
X64626227Y-33534877D01*
X65234054Y-33602478D01*
X65618607Y-33707698D01*
X66505108Y-33947134D01*
X66998511Y-33940498D01*
X67213843Y-33608301D01*
X67266131Y-32871058D01*
X67267221Y-32568469D01*
X67282668Y-32242729D01*
X67829899Y-32242729D01*
X67839120Y-32962566D01*
X67927540Y-33426834D01*
X68145544Y-33724356D01*
X68351301Y-33580770D01*
X68504485Y-33088964D01*
X68564772Y-32341829D01*
X68553394Y-31985154D01*
X68456413Y-31232026D01*
X68301008Y-30759550D01*
X68203011Y-30677853D01*
X68030532Y-30913889D01*
X67899932Y-31497676D01*
X67829899Y-32242729D01*
X67282668Y-32242729D01*
X67310872Y-31647978D01*
X67503533Y-31011888D01*
X67937772Y-30412849D01*
X68167739Y-30162153D01*
X68858296Y-29562792D01*
X69492541Y-29235648D01*
X69674322Y-29207327D01*
X70060327Y-29226704D01*
G36*
X81170379Y-42584139D02*
X80953694Y-42813941D01*
X80769327Y-42843116D01*
X80412601Y-42785912D01*
X80368274Y-42738037D01*
X80577344Y-42565637D01*
X80769327Y-42479060D01*
X81113605Y-42473503D01*
X81170379Y-42584139D01*
X81170379Y-42584139D01*
G37*
X81170379Y-42584139D02*
X80953694Y-42813941D01*
X80769327Y-42843116D01*
X80412601Y-42785912D01*
X80368274Y-42738037D01*
X80577344Y-42565637D01*
X80769327Y-42479060D01*
X81113605Y-42473503D01*
X81170379Y-42584139D01*
G36*
X68860551Y-40630886D02*
X68871432Y-40704169D01*
X68780210Y-40964586D01*
X68753527Y-40971537D01*
X68525256Y-40784182D01*
X68470379Y-40704169D01*
X68491578Y-40457793D01*
X68588284Y-40436800D01*
X68860551Y-40630886D01*
X68860551Y-40630886D01*
G37*
X68860551Y-40630886D02*
X68871432Y-40704169D01*
X68780210Y-40964586D01*
X68753527Y-40971537D01*
X68525256Y-40784182D01*
X68470379Y-40704169D01*
X68491578Y-40457793D01*
X68588284Y-40436800D01*
X68860551Y-40630886D01*
G36*
X65659945Y-39574187D02*
X65663011Y-39634695D01*
X65457471Y-39891789D01*
X65379863Y-39902063D01*
X65220181Y-39738263D01*
X65261958Y-39634695D01*
X65502217Y-39379630D01*
X65545106Y-39367327D01*
X65659945Y-39574187D01*
X65659945Y-39574187D01*
G37*
X65659945Y-39574187D02*
X65663011Y-39634695D01*
X65457471Y-39891789D01*
X65379863Y-39902063D01*
X65220181Y-39738263D01*
X65261958Y-39634695D01*
X65502217Y-39379630D01*
X65545106Y-39367327D01*
X65659945Y-39574187D01*
G36*
X64323103Y-35296293D02*
X64326169Y-35356800D01*
X64120629Y-35613894D01*
X64043021Y-35624169D01*
X63883339Y-35460369D01*
X63925116Y-35356800D01*
X64165375Y-35101735D01*
X64208264Y-35089432D01*
X64323103Y-35296293D01*
X64323103Y-35296293D01*
G37*
X64323103Y-35296293D02*
X64326169Y-35356800D01*
X64120629Y-35613894D01*
X64043021Y-35624169D01*
X63883339Y-35460369D01*
X63925116Y-35356800D01*
X64165375Y-35101735D01*
X64208264Y-35089432D01*
X64323103Y-35296293D01*
G36*
X71728601Y-34192664D02*
X71678800Y-34287327D01*
X71426882Y-34542664D01*
X71379873Y-34554695D01*
X71361631Y-34381989D01*
X71411432Y-34287327D01*
X71663350Y-34031989D01*
X71710359Y-34019958D01*
X71728601Y-34192664D01*
X71728601Y-34192664D01*
G37*
X71728601Y-34192664D02*
X71678800Y-34287327D01*
X71426882Y-34542664D01*
X71379873Y-34554695D01*
X71361631Y-34381989D01*
X71411432Y-34287327D01*
X71663350Y-34031989D01*
X71710359Y-34019958D01*
X71728601Y-34192664D01*
G36*
X71419618Y-29396586D02*
X72074574Y-29848570D01*
X72789845Y-30457077D01*
X73428576Y-31098957D01*
X73853914Y-31651060D01*
X73951432Y-31914484D01*
X73844043Y-32143226D01*
X73619567Y-31962646D01*
X73513383Y-31747327D01*
X73204770Y-31392506D01*
X73037318Y-31346274D01*
X72681556Y-31148439D01*
X72211608Y-30659545D01*
X72110348Y-30528234D01*
X71552698Y-29917898D01*
X70986255Y-29503888D01*
X70923752Y-29475708D01*
X70341958Y-29241222D01*
X70961832Y-29224274D01*
X71419618Y-29396586D01*
X71419618Y-29396586D01*
G37*
X71419618Y-29396586D02*
X72074574Y-29848570D01*
X72789845Y-30457077D01*
X73428576Y-31098957D01*
X73853914Y-31651060D01*
X73951432Y-31914484D01*
X73844043Y-32143226D01*
X73619567Y-31962646D01*
X73513383Y-31747327D01*
X73204770Y-31392506D01*
X73037318Y-31346274D01*
X72681556Y-31148439D01*
X72211608Y-30659545D01*
X72110348Y-30528234D01*
X71552698Y-29917898D01*
X70986255Y-29503888D01*
X70923752Y-29475708D01*
X70341958Y-29241222D01*
X70961832Y-29224274D01*
X71419618Y-29396586D01*
G36*
X71491642Y-30865011D02*
X71789958Y-31367935D01*
X71689195Y-31757505D01*
X71322309Y-31881011D01*
X70813928Y-31793721D01*
X70653888Y-31702765D01*
X70500764Y-31309595D01*
X70475642Y-31034344D01*
X70651021Y-30622978D01*
X71071306Y-30588765D01*
X71491642Y-30865011D01*
X71491642Y-30865011D01*
G37*
X71491642Y-30865011D02*
X71789958Y-31367935D01*
X71689195Y-31757505D01*
X71322309Y-31881011D01*
X70813928Y-31793721D01*
X70653888Y-31702765D01*
X70500764Y-31309595D01*
X70475642Y-31034344D01*
X70651021Y-30622978D01*
X71071306Y-30588765D01*
X71491642Y-30865011D01*
G36*
X72786480Y-46381969D02*
X73236527Y-46538315D01*
X73283011Y-46586274D01*
X73149808Y-46750567D01*
X72552407Y-46840879D01*
X72079853Y-46853642D01*
X71267344Y-46807777D01*
X70884001Y-46680146D01*
X70876695Y-46586274D01*
X71227801Y-46414286D01*
X71890995Y-46323244D01*
X72079853Y-46318906D01*
X72786480Y-46381969D01*
X72786480Y-46381969D01*
G37*
X72786480Y-46381969D02*
X73236527Y-46538315D01*
X73283011Y-46586274D01*
X73149808Y-46750567D01*
X72552407Y-46840879D01*
X72079853Y-46853642D01*
X71267344Y-46807777D01*
X70884001Y-46680146D01*
X70876695Y-46586274D01*
X71227801Y-46414286D01*
X71890995Y-46323244D01*
X72079853Y-46318906D01*
X72786480Y-46381969D01*
D16*
X42494200Y-32207200D02*
X42494200Y-30175200D01*
X42494200Y-30175200D02*
X53416200Y-30175200D01*
X53416200Y-30175200D02*
X53416200Y-34239200D01*
X53416200Y-34239200D02*
X42494200Y-34239200D01*
X42494200Y-34239200D02*
X42494200Y-32207200D01*
X53416200Y-32207200D02*
X55575200Y-32207200D01*
X40335200Y-32207200D02*
X42494200Y-32207200D01*
X64846200Y-29768800D02*
X64846200Y-27736800D01*
X64846200Y-27736800D02*
X75768200Y-27736800D01*
X75768200Y-27736800D02*
X75768200Y-31800800D01*
X75768200Y-31800800D02*
X64846200Y-31800800D01*
X64846200Y-31800800D02*
X64846200Y-29768800D01*
X75768200Y-29768800D02*
X77927200Y-29768800D01*
X62687200Y-29768800D02*
X64846200Y-29768800D01*
X53162200Y-53644800D02*
X53162200Y-55676800D01*
X53162200Y-55676800D02*
X42240200Y-55676800D01*
X42240200Y-55676800D02*
X42240200Y-51612800D01*
X42240200Y-51612800D02*
X53162200Y-51612800D01*
X53162200Y-51612800D02*
X53162200Y-53644800D01*
X42240200Y-53644800D02*
X40081200Y-53644800D01*
X55321200Y-53644800D02*
X53162200Y-53644800D01*
X42494200Y-25400000D02*
X42494200Y-23368000D01*
X42494200Y-23368000D02*
X53416200Y-23368000D01*
X53416200Y-23368000D02*
X53416200Y-27432000D01*
X53416200Y-27432000D02*
X42494200Y-27432000D01*
X42494200Y-27432000D02*
X42494200Y-25400000D01*
X53416200Y-25400000D02*
X55575200Y-25400000D01*
X40335200Y-25400000D02*
X42494200Y-25400000D01*
X65659000Y-21894800D02*
X65659000Y-19862800D01*
X65659000Y-19862800D02*
X76581000Y-19862800D01*
X76581000Y-19862800D02*
X76581000Y-23926800D01*
X76581000Y-23926800D02*
X65659000Y-23926800D01*
X65659000Y-23926800D02*
X65659000Y-21894800D01*
X76581000Y-21894800D02*
X78740000Y-21894800D01*
X63500000Y-21894800D02*
X65659000Y-21894800D01*
X69723000Y-63804800D02*
X69723000Y-65836800D01*
X69723000Y-65836800D02*
X58801000Y-65836800D01*
X58801000Y-65836800D02*
X58801000Y-61772800D01*
X58801000Y-61772800D02*
X69723000Y-61772800D01*
X69723000Y-61772800D02*
X69723000Y-63804800D01*
X58801000Y-63804800D02*
X56642000Y-63804800D01*
X71882000Y-63804800D02*
X69723000Y-63804800D01*
X41833800Y-59944000D02*
X41833800Y-57912000D01*
X41833800Y-57912000D02*
X52755800Y-57912000D01*
X52755800Y-57912000D02*
X52755800Y-61976000D01*
X52755800Y-61976000D02*
X41833800Y-61976000D01*
X41833800Y-61976000D02*
X41833800Y-59944000D01*
X52755800Y-59944000D02*
X54914800Y-59944000D01*
X39674800Y-59944000D02*
X41833800Y-59944000D01*
X101041200Y-43510200D02*
X99009200Y-43510200D01*
X99009200Y-43510200D02*
X99009200Y-32588200D01*
X99009200Y-32588200D02*
X103073200Y-32588200D01*
X103073200Y-32588200D02*
X103073200Y-43510200D01*
X103073200Y-43510200D02*
X101041200Y-43510200D01*
X101041200Y-32588200D02*
X101041200Y-30429200D01*
X101041200Y-45669200D02*
X101041200Y-43510200D01*
X99001580Y-60802520D02*
X99001580Y-61554360D01*
X99001580Y-61554360D02*
X98000820Y-61554360D01*
X98000820Y-61554360D02*
X98000820Y-60802520D01*
X98000820Y-60304680D02*
X98000820Y-59552840D01*
X98000820Y-59552840D02*
X99001580Y-59552840D01*
X99001580Y-59552840D02*
X99001580Y-60304680D01*
X99001580Y-60304680D02*
X99501960Y-60304680D01*
X99501960Y-60304680D02*
X99001580Y-60802520D01*
X98000820Y-60802520D02*
X97500440Y-60304680D01*
X97500440Y-60304680D02*
X98000820Y-60304680D01*
X100002340Y-60553600D02*
G75*
G03X100002340Y-60553600I-1501140J0D01*
G01*
X93499940Y-55552340D02*
X93499940Y-65554860D01*
X93499940Y-65554860D02*
X103502460Y-65554860D01*
X103502460Y-65554860D02*
X103502460Y-55552340D01*
X103502460Y-55552340D02*
X93499940Y-55552340D01*
X50647600Y-43840400D02*
X46583600Y-43840400D01*
X46583600Y-41300400D02*
X50647600Y-41300400D01*
D17*
X53695600Y-47650400D02*
X43535600Y-47650400D01*
X42519600Y-45872400D02*
X54711600Y-45872400D01*
X53695600Y-37490400D02*
X43535600Y-37490400D01*
X42519600Y-39268400D02*
X54711600Y-39268400D01*
D16*
X44805600Y-42570400D02*
G75*
G03X43535600Y-41300400I-1270000J0D01*
G01*
X43535600Y-43840400D02*
G75*
G03X44805600Y-42570400I0J1270000D01*
G01*
D17*
X43535600Y-43840400D02*
X42519600Y-43840400D01*
X43535600Y-41300400D02*
X42519600Y-41300400D01*
D16*
X46583600Y-41300400D02*
X46583600Y-43840400D01*
X50647600Y-43840400D02*
X50647600Y-41300400D01*
D17*
X53695600Y-37490400D02*
X53695600Y-47650400D01*
X43535600Y-47650400D02*
X43535600Y-37490400D01*
X54711600Y-39268400D02*
X54711600Y-45872400D01*
X42519600Y-45872400D02*
X42519600Y-39268400D01*
D16*
X67331701Y-43726710D02*
X63267701Y-43726710D01*
X63267701Y-41186710D02*
X67331701Y-41186710D01*
D17*
X70379701Y-47536710D02*
X60219701Y-47536710D01*
X59203701Y-45758710D02*
X71395701Y-45758710D01*
X70379701Y-37376710D02*
X60219701Y-37376710D01*
X59203701Y-39154710D02*
X71395701Y-39154710D01*
D16*
X61489701Y-42456710D02*
G75*
G03X60219701Y-41186710I-1270000J0D01*
G01*
X60219701Y-43726710D02*
G75*
G03X61489701Y-42456710I0J1270000D01*
G01*
D17*
X60219701Y-43726710D02*
X59203701Y-43726710D01*
X60219701Y-41186710D02*
X59203701Y-41186710D01*
D16*
X63267701Y-41186710D02*
X63267701Y-43726710D01*
X67331701Y-43726710D02*
X67331701Y-41186710D01*
D17*
X70379701Y-37376710D02*
X70379701Y-47536710D01*
X60219701Y-47536710D02*
X60219701Y-37376710D01*
X71395701Y-39154710D02*
X71395701Y-45758710D01*
X59203701Y-45758710D02*
X59203701Y-39154710D01*
D16*
X80822800Y-41503600D02*
X84886800Y-41503600D01*
X84886800Y-44043600D02*
X80822800Y-44043600D01*
D17*
X77774800Y-37693600D02*
X87934800Y-37693600D01*
X88950800Y-39471600D02*
X76758800Y-39471600D01*
X77774800Y-47853600D02*
X87934800Y-47853600D01*
X88950800Y-46075600D02*
X76758800Y-46075600D01*
D16*
X86664800Y-42773600D02*
G75*
G03X87934800Y-44043600I1270000J0D01*
G01*
X87934800Y-41503600D02*
G75*
G03X86664800Y-42773600I0J-1270000D01*
G01*
D17*
X87934800Y-41503600D02*
X88950800Y-41503600D01*
X87934800Y-44043600D02*
X88950800Y-44043600D01*
D16*
X84886800Y-44043600D02*
X84886800Y-41503600D01*
X80822800Y-41503600D02*
X80822800Y-44043600D01*
D17*
X77774800Y-47853600D02*
X77774800Y-37693600D01*
X87934800Y-37693600D02*
X87934800Y-47853600D01*
X76758800Y-46075600D02*
X76758800Y-39471600D01*
X88950800Y-39471600D02*
X88950800Y-46075600D01*
D13*
X34001734Y-53859543D02*
X33954115Y-53907162D01*
X33811258Y-53954781D01*
X33716020Y-53954781D01*
X33573162Y-53907162D01*
X33477924Y-53811924D01*
X33430305Y-53716686D01*
X33382686Y-53526210D01*
X33382686Y-53383352D01*
X33430305Y-53192876D01*
X33477924Y-53097638D01*
X33573162Y-53002400D01*
X33716020Y-52954781D01*
X33811258Y-52954781D01*
X33954115Y-53002400D01*
X34001734Y-53050019D01*
X34954115Y-53954781D02*
X34382686Y-53954781D01*
X34668400Y-53954781D02*
X34668400Y-52954781D01*
X34573162Y-53097638D01*
X34477924Y-53192876D01*
X34382686Y-53240495D01*
X65131334Y-57598743D02*
X65083715Y-57646362D01*
X64940858Y-57693981D01*
X64845620Y-57693981D01*
X64702762Y-57646362D01*
X64607524Y-57551124D01*
X64559905Y-57455886D01*
X64512286Y-57265410D01*
X64512286Y-57122552D01*
X64559905Y-56932076D01*
X64607524Y-56836838D01*
X64702762Y-56741600D01*
X64845620Y-56693981D01*
X64940858Y-56693981D01*
X65083715Y-56741600D01*
X65131334Y-56789219D01*
X65512286Y-56789219D02*
X65559905Y-56741600D01*
X65655143Y-56693981D01*
X65893239Y-56693981D01*
X65988477Y-56741600D01*
X66036096Y-56789219D01*
X66083715Y-56884457D01*
X66083715Y-56979695D01*
X66036096Y-57122552D01*
X65464667Y-57693981D01*
X66083715Y-57693981D01*
X94148934Y-42378743D02*
X94101315Y-42426362D01*
X93958458Y-42473981D01*
X93863220Y-42473981D01*
X93720362Y-42426362D01*
X93625124Y-42331124D01*
X93577505Y-42235886D01*
X93529886Y-42045410D01*
X93529886Y-41902552D01*
X93577505Y-41712076D01*
X93625124Y-41616838D01*
X93720362Y-41521600D01*
X93863220Y-41473981D01*
X93958458Y-41473981D01*
X94101315Y-41521600D01*
X94148934Y-41569219D01*
X94482267Y-41473981D02*
X95101315Y-41473981D01*
X94767981Y-41854933D01*
X94910839Y-41854933D01*
X95006077Y-41902552D01*
X95053696Y-41950171D01*
X95101315Y-42045410D01*
X95101315Y-42283505D01*
X95053696Y-42378743D01*
X95006077Y-42426362D01*
X94910839Y-42473981D01*
X94625124Y-42473981D01*
X94529886Y-42426362D01*
X94482267Y-42378743D01*
X39073981Y-50064895D02*
X38073981Y-50064895D01*
X38073981Y-49826800D01*
X38121600Y-49683942D01*
X38216838Y-49588704D01*
X38312076Y-49541085D01*
X38502552Y-49493466D01*
X38645410Y-49493466D01*
X38835886Y-49541085D01*
X38931124Y-49588704D01*
X39026362Y-49683942D01*
X39073981Y-49826800D01*
X39073981Y-50064895D01*
X39073981Y-48541085D02*
X39073981Y-49112514D01*
X39073981Y-48826800D02*
X38073981Y-48826800D01*
X38216838Y-48922038D01*
X38312076Y-49017276D01*
X38359695Y-49112514D01*
X88060305Y-27362781D02*
X88060305Y-26362781D01*
X88298400Y-26362781D01*
X88441258Y-26410400D01*
X88536496Y-26505638D01*
X88584115Y-26600876D01*
X88631734Y-26791352D01*
X88631734Y-26934210D01*
X88584115Y-27124686D01*
X88536496Y-27219924D01*
X88441258Y-27315162D01*
X88298400Y-27362781D01*
X88060305Y-27362781D01*
X89012686Y-26458019D02*
X89060305Y-26410400D01*
X89155543Y-26362781D01*
X89393639Y-26362781D01*
X89488877Y-26410400D01*
X89536496Y-26458019D01*
X89584115Y-26553257D01*
X89584115Y-26648495D01*
X89536496Y-26791352D01*
X88965067Y-27362781D01*
X89584115Y-27362781D01*
X38492381Y-39550933D02*
X39206667Y-39550933D01*
X39349524Y-39598553D01*
X39444762Y-39693791D01*
X39492381Y-39836648D01*
X39492381Y-39931886D01*
X39492381Y-38550933D02*
X39492381Y-39122362D01*
X39492381Y-38836648D02*
X38492381Y-38836648D01*
X38635238Y-38931886D01*
X38730476Y-39027124D01*
X38778095Y-39122362D01*
X79321067Y-28693181D02*
X79321067Y-29407467D01*
X79273447Y-29550324D01*
X79178209Y-29645562D01*
X79035352Y-29693181D01*
X78940114Y-29693181D01*
X79749638Y-28788419D02*
X79797257Y-28740800D01*
X79892495Y-28693181D01*
X80130591Y-28693181D01*
X80225829Y-28740800D01*
X80273448Y-28788419D01*
X80321067Y-28883657D01*
X80321067Y-28978895D01*
X80273448Y-29121752D01*
X79702019Y-29693181D01*
X80321067Y-29693181D01*
X84924934Y-53765505D02*
X84924934Y-54336933D01*
X84886838Y-54451219D01*
X84810648Y-54527410D01*
X84696362Y-54565505D01*
X84620172Y-54565505D01*
X85229696Y-53765505D02*
X85724934Y-53765505D01*
X85458267Y-54070267D01*
X85572553Y-54070267D01*
X85648743Y-54108362D01*
X85686839Y-54146457D01*
X85724934Y-54222648D01*
X85724934Y-54413124D01*
X85686839Y-54489314D01*
X85648743Y-54527410D01*
X85572553Y-54565505D01*
X85343981Y-54565505D01*
X85267791Y-54527410D01*
X85229696Y-54489314D01*
D10*
X79087886Y-60679029D02*
X79087886Y-61164743D01*
X79059315Y-61221886D01*
X79030743Y-61250457D01*
X78973600Y-61279029D01*
X78887886Y-61279029D01*
X78830743Y-61250457D01*
X79087886Y-61050457D02*
X79030743Y-61079029D01*
X78916457Y-61079029D01*
X78859315Y-61050457D01*
X78830743Y-61021886D01*
X78802172Y-60964743D01*
X78802172Y-60793314D01*
X78830743Y-60736171D01*
X78859315Y-60707600D01*
X78916457Y-60679029D01*
X79030743Y-60679029D01*
X79087886Y-60707600D01*
X79602172Y-61050457D02*
X79545029Y-61079029D01*
X79430743Y-61079029D01*
X79373600Y-61050457D01*
X79345029Y-60993314D01*
X79345029Y-60764743D01*
X79373600Y-60707600D01*
X79430743Y-60679029D01*
X79545029Y-60679029D01*
X79602172Y-60707600D01*
X79630743Y-60764743D01*
X79630743Y-60821886D01*
X79345029Y-60879029D01*
X79973600Y-61079029D02*
X79916458Y-61050457D01*
X79887886Y-60993314D01*
X79887886Y-60479029D01*
X80459315Y-60679029D02*
X80459315Y-61079029D01*
X80202172Y-60679029D02*
X80202172Y-60993314D01*
X80230744Y-61050457D01*
X80287886Y-61079029D01*
X80373601Y-61079029D01*
X80430744Y-61050457D01*
X80459315Y-61021886D01*
X80745029Y-61079029D02*
X80745029Y-60679029D01*
X80745029Y-60479029D02*
X80716458Y-60507600D01*
X80745029Y-60536171D01*
X80773601Y-60507600D01*
X80745029Y-60479029D01*
X80745029Y-60536171D01*
X81287886Y-61079029D02*
X81287886Y-60479029D01*
X81287886Y-61050457D02*
X81230743Y-61079029D01*
X81116457Y-61079029D01*
X81059315Y-61050457D01*
X81030743Y-61021886D01*
X81002172Y-60964743D01*
X81002172Y-60793314D01*
X81030743Y-60736171D01*
X81059315Y-60707600D01*
X81116457Y-60679029D01*
X81230743Y-60679029D01*
X81287886Y-60707600D01*
X81430743Y-61136171D02*
X81887886Y-61136171D01*
X82287886Y-60679029D02*
X82287886Y-61079029D01*
X82030743Y-60679029D02*
X82030743Y-60993314D01*
X82059315Y-61050457D01*
X82116457Y-61079029D01*
X82202172Y-61079029D01*
X82259315Y-61050457D01*
X82287886Y-61021886D01*
X82573600Y-61079029D02*
X82573600Y-60679029D01*
X82573600Y-60479029D02*
X82545029Y-60507600D01*
X82573600Y-60536171D01*
X82602172Y-60507600D01*
X82573600Y-60479029D01*
X82573600Y-60536171D01*
X82773600Y-60679029D02*
X83002171Y-60679029D01*
X82859314Y-60479029D02*
X82859314Y-60993314D01*
X82887886Y-61050457D01*
X82945028Y-61079029D01*
X83002171Y-61079029D01*
D18*
X47870533Y-31823176D02*
X47447200Y-31157938D01*
X47144819Y-31823176D02*
X47144819Y-30426176D01*
X47628628Y-30426176D01*
X47749581Y-30492700D01*
X47810057Y-30559224D01*
X47870533Y-30692271D01*
X47870533Y-30891843D01*
X47810057Y-31024890D01*
X47749581Y-31091414D01*
X47628628Y-31157938D01*
X47144819Y-31157938D01*
X49080057Y-31823176D02*
X48354343Y-31823176D01*
X48717200Y-31823176D02*
X48717200Y-30426176D01*
X48596248Y-30625748D01*
X48475295Y-30758795D01*
X48354343Y-30825319D01*
X70222533Y-29384776D02*
X69799200Y-28719538D01*
X69496819Y-29384776D02*
X69496819Y-27987776D01*
X69980628Y-27987776D01*
X70101581Y-28054300D01*
X70162057Y-28120824D01*
X70222533Y-28253871D01*
X70222533Y-28453443D01*
X70162057Y-28586490D01*
X70101581Y-28653014D01*
X69980628Y-28719538D01*
X69496819Y-28719538D01*
X70706343Y-28120824D02*
X70766819Y-28054300D01*
X70887771Y-27987776D01*
X71190152Y-27987776D01*
X71311105Y-28054300D01*
X71371581Y-28120824D01*
X71432057Y-28253871D01*
X71432057Y-28386919D01*
X71371581Y-28586490D01*
X70645867Y-29384776D01*
X71432057Y-29384776D01*
X47362533Y-55292776D02*
X46939200Y-54627538D01*
X46636819Y-55292776D02*
X46636819Y-53895776D01*
X47120628Y-53895776D01*
X47241581Y-53962300D01*
X47302057Y-54028824D01*
X47362533Y-54161871D01*
X47362533Y-54361443D01*
X47302057Y-54494490D01*
X47241581Y-54561014D01*
X47120628Y-54627538D01*
X46636819Y-54627538D01*
X47785867Y-53895776D02*
X48572057Y-53895776D01*
X48148724Y-54427967D01*
X48330152Y-54427967D01*
X48451105Y-54494490D01*
X48511581Y-54561014D01*
X48572057Y-54694062D01*
X48572057Y-55026681D01*
X48511581Y-55159729D01*
X48451105Y-55226252D01*
X48330152Y-55292776D01*
X47967295Y-55292776D01*
X47846343Y-55226252D01*
X47785867Y-55159729D01*
X47870533Y-25015976D02*
X47447200Y-24350738D01*
X47144819Y-25015976D02*
X47144819Y-23618976D01*
X47628628Y-23618976D01*
X47749581Y-23685500D01*
X47810057Y-23752024D01*
X47870533Y-23885071D01*
X47870533Y-24084643D01*
X47810057Y-24217690D01*
X47749581Y-24284214D01*
X47628628Y-24350738D01*
X47144819Y-24350738D01*
X48959105Y-24084643D02*
X48959105Y-25015976D01*
X48656724Y-23552452D02*
X48354343Y-24550310D01*
X49140533Y-24550310D01*
X71035333Y-21510776D02*
X70612000Y-20845538D01*
X70309619Y-21510776D02*
X70309619Y-20113776D01*
X70793428Y-20113776D01*
X70914381Y-20180300D01*
X70974857Y-20246824D01*
X71035333Y-20379871D01*
X71035333Y-20579443D01*
X70974857Y-20712490D01*
X70914381Y-20779014D01*
X70793428Y-20845538D01*
X70309619Y-20845538D01*
X72184381Y-20113776D02*
X71579619Y-20113776D01*
X71519143Y-20779014D01*
X71579619Y-20712490D01*
X71700571Y-20645967D01*
X72002952Y-20645967D01*
X72123905Y-20712490D01*
X72184381Y-20779014D01*
X72244857Y-20912062D01*
X72244857Y-21244681D01*
X72184381Y-21377729D01*
X72123905Y-21444252D01*
X72002952Y-21510776D01*
X71700571Y-21510776D01*
X71579619Y-21444252D01*
X71519143Y-21377729D01*
X63923333Y-65452776D02*
X63500000Y-64787538D01*
X63197619Y-65452776D02*
X63197619Y-64055776D01*
X63681428Y-64055776D01*
X63802381Y-64122300D01*
X63862857Y-64188824D01*
X63923333Y-64321871D01*
X63923333Y-64521443D01*
X63862857Y-64654490D01*
X63802381Y-64721014D01*
X63681428Y-64787538D01*
X63197619Y-64787538D01*
X65011905Y-64055776D02*
X64770000Y-64055776D01*
X64649048Y-64122300D01*
X64588571Y-64188824D01*
X64467619Y-64388395D01*
X64407143Y-64654490D01*
X64407143Y-65186681D01*
X64467619Y-65319729D01*
X64528095Y-65386252D01*
X64649048Y-65452776D01*
X64890952Y-65452776D01*
X65011905Y-65386252D01*
X65072381Y-65319729D01*
X65132857Y-65186681D01*
X65132857Y-64854062D01*
X65072381Y-64721014D01*
X65011905Y-64654490D01*
X64890952Y-64587967D01*
X64649048Y-64587967D01*
X64528095Y-64654490D01*
X64467619Y-64721014D01*
X64407143Y-64854062D01*
X47210133Y-59559976D02*
X46786800Y-58894738D01*
X46484419Y-59559976D02*
X46484419Y-58162976D01*
X46968228Y-58162976D01*
X47089181Y-58229500D01*
X47149657Y-58296024D01*
X47210133Y-58429071D01*
X47210133Y-58628643D01*
X47149657Y-58761690D01*
X47089181Y-58828214D01*
X46968228Y-58894738D01*
X46484419Y-58894738D01*
X47633467Y-58162976D02*
X48480133Y-58162976D01*
X47935848Y-59559976D01*
X100657176Y-38133867D02*
X99991938Y-38557200D01*
X100657176Y-38859581D02*
X99260176Y-38859581D01*
X99260176Y-38375772D01*
X99326700Y-38254819D01*
X99393224Y-38194343D01*
X99526271Y-38133867D01*
X99725843Y-38133867D01*
X99858890Y-38194343D01*
X99925414Y-38254819D01*
X99991938Y-38375772D01*
X99991938Y-38859581D01*
X99858890Y-37408152D02*
X99792367Y-37529105D01*
X99725843Y-37589581D01*
X99592795Y-37650057D01*
X99526271Y-37650057D01*
X99393224Y-37589581D01*
X99326700Y-37529105D01*
X99260176Y-37408152D01*
X99260176Y-37166248D01*
X99326700Y-37045295D01*
X99393224Y-36984819D01*
X99526271Y-36924343D01*
X99592795Y-36924343D01*
X99725843Y-36984819D01*
X99792367Y-37045295D01*
X99858890Y-37166248D01*
X99858890Y-37408152D01*
X99925414Y-37529105D01*
X99991938Y-37589581D01*
X100124986Y-37650057D01*
X100391081Y-37650057D01*
X100524129Y-37589581D01*
X100590652Y-37529105D01*
X100657176Y-37408152D01*
X100657176Y-37166248D01*
X100590652Y-37045295D01*
X100524129Y-36984819D01*
X100391081Y-36924343D01*
X100124986Y-36924343D01*
X99991938Y-36984819D01*
X99925414Y-37045295D01*
X99858890Y-37166248D01*
D19*
X97594057Y-67991809D02*
X97086057Y-67266094D01*
X96723200Y-67991809D02*
X96723200Y-66467809D01*
X97303772Y-66467809D01*
X97448914Y-66540380D01*
X97521486Y-66612951D01*
X97594057Y-66758094D01*
X97594057Y-66975809D01*
X97521486Y-67120951D01*
X97448914Y-67193523D01*
X97303772Y-67266094D01*
X96723200Y-67266094D01*
X98029486Y-66467809D02*
X98537486Y-67991809D01*
X99045486Y-66467809D01*
X100351772Y-67991809D02*
X99480915Y-67991809D01*
X99916343Y-67991809D02*
X99916343Y-66467809D01*
X99771200Y-66685523D01*
X99626058Y-66830666D01*
X99480915Y-66903237D01*
X94074343Y-54992089D02*
X94074343Y-53468089D01*
X94654915Y-53468089D01*
X94800057Y-53540660D01*
X94872629Y-53613231D01*
X94945200Y-53758374D01*
X94945200Y-53976089D01*
X94872629Y-54121231D01*
X94800057Y-54193803D01*
X94654915Y-54266374D01*
X94074343Y-54266374D01*
X95888629Y-53468089D02*
X96178915Y-53468089D01*
X96324057Y-53540660D01*
X96469200Y-53685803D01*
X96541772Y-53976089D01*
X96541772Y-54484089D01*
X96469200Y-54774374D01*
X96324057Y-54919517D01*
X96178915Y-54992089D01*
X95888629Y-54992089D01*
X95743486Y-54919517D01*
X95598343Y-54774374D01*
X95525772Y-54484089D01*
X95525772Y-53976089D01*
X95598343Y-53685803D01*
X95743486Y-53540660D01*
X95888629Y-53468089D01*
X96977200Y-53468089D02*
X97848057Y-53468089D01*
X97412628Y-54992089D02*
X97412628Y-53468089D01*
X97993200Y-55137231D02*
X99154343Y-55137231D01*
X100242914Y-53468089D02*
X99517200Y-53468089D01*
X99444629Y-54193803D01*
X99517200Y-54121231D01*
X99662343Y-54048660D01*
X100025200Y-54048660D01*
X100170343Y-54121231D01*
X100242914Y-54193803D01*
X100315486Y-54338946D01*
X100315486Y-54701803D01*
X100242914Y-54846946D01*
X100170343Y-54919517D01*
X100025200Y-54992089D01*
X99662343Y-54992089D01*
X99517200Y-54919517D01*
X99444629Y-54846946D01*
X101258915Y-53468089D02*
X101404058Y-53468089D01*
X101549201Y-53540660D01*
X101621772Y-53613231D01*
X101694343Y-53758374D01*
X101766915Y-54048660D01*
X101766915Y-54411517D01*
X101694343Y-54701803D01*
X101621772Y-54846946D01*
X101549201Y-54919517D01*
X101404058Y-54992089D01*
X101258915Y-54992089D01*
X101113772Y-54919517D01*
X101041201Y-54846946D01*
X100968629Y-54701803D01*
X100896058Y-54411517D01*
X100896058Y-54048660D01*
X100968629Y-53758374D01*
X101041201Y-53613231D01*
X101113772Y-53540660D01*
X101258915Y-53468089D01*
X102420058Y-54992089D02*
X102420058Y-53468089D01*
X102565201Y-54411517D02*
X103000630Y-54992089D01*
X103000630Y-53976089D02*
X102420058Y-54556660D01*
D20*
X47744743Y-35385829D02*
X47744743Y-36619543D01*
X47799171Y-36764686D01*
X47853600Y-36837257D01*
X47962457Y-36909829D01*
X48180171Y-36909829D01*
X48289029Y-36837257D01*
X48343457Y-36764686D01*
X48397886Y-36619543D01*
X48397886Y-35385829D01*
X49540886Y-36909829D02*
X48887743Y-36909829D01*
X49214315Y-36909829D02*
X49214315Y-35385829D01*
X49105458Y-35603543D01*
X48996600Y-35748686D01*
X48887743Y-35821257D01*
D21*
D20*
X46139101Y-49863829D02*
X46139101Y-48339829D01*
X46792244Y-49863829D01*
X46792244Y-48339829D01*
X47336530Y-49065543D02*
X47717530Y-49065543D01*
X47880816Y-49863829D02*
X47336530Y-49863829D01*
X47336530Y-48339829D01*
X47880816Y-48339829D01*
X48914959Y-48339829D02*
X48370673Y-48339829D01*
X48316244Y-49065543D01*
X48370673Y-48992971D01*
X48479530Y-48920400D01*
X48751673Y-48920400D01*
X48860530Y-48992971D01*
X48914959Y-49065543D01*
X48969387Y-49210686D01*
X48969387Y-49573543D01*
X48914959Y-49718686D01*
X48860530Y-49791257D01*
X48751673Y-49863829D01*
X48479530Y-49863829D01*
X48370673Y-49791257D01*
X48316244Y-49718686D01*
X50003530Y-48339829D02*
X49459244Y-48339829D01*
X49404815Y-49065543D01*
X49459244Y-48992971D01*
X49568101Y-48920400D01*
X49840244Y-48920400D01*
X49949101Y-48992971D01*
X50003530Y-49065543D01*
X50057958Y-49210686D01*
X50057958Y-49573543D01*
X50003530Y-49718686D01*
X49949101Y-49791257D01*
X49840244Y-49863829D01*
X49568101Y-49863829D01*
X49459244Y-49791257D01*
X49404815Y-49718686D01*
X51092101Y-48339829D02*
X50547815Y-48339829D01*
X50493386Y-49065543D01*
X50547815Y-48992971D01*
X50656672Y-48920400D01*
X50928815Y-48920400D01*
X51037672Y-48992971D01*
X51092101Y-49065543D01*
X51146529Y-49210686D01*
X51146529Y-49573543D01*
X51092101Y-49718686D01*
X51037672Y-49791257D01*
X50928815Y-49863829D01*
X50656672Y-49863829D01*
X50547815Y-49791257D01*
X50493386Y-49718686D01*
D21*
D20*
X64428844Y-35272139D02*
X64428844Y-36505853D01*
X64483272Y-36650996D01*
X64537701Y-36723567D01*
X64646558Y-36796139D01*
X64864272Y-36796139D01*
X64973130Y-36723567D01*
X65027558Y-36650996D01*
X65081987Y-36505853D01*
X65081987Y-35272139D01*
X65571844Y-35417281D02*
X65626273Y-35344710D01*
X65735130Y-35272139D01*
X66007273Y-35272139D01*
X66116130Y-35344710D01*
X66170559Y-35417281D01*
X66224987Y-35562424D01*
X66224987Y-35707567D01*
X66170559Y-35925281D01*
X65517416Y-36796139D01*
X66224987Y-36796139D01*
D21*
D20*
X62823202Y-49750139D02*
X62823202Y-48226139D01*
X63476345Y-49750139D01*
X63476345Y-48226139D01*
X64020631Y-48951853D02*
X64401631Y-48951853D01*
X64564917Y-49750139D02*
X64020631Y-49750139D01*
X64020631Y-48226139D01*
X64564917Y-48226139D01*
X65599060Y-48226139D02*
X65054774Y-48226139D01*
X65000345Y-48951853D01*
X65054774Y-48879281D01*
X65163631Y-48806710D01*
X65435774Y-48806710D01*
X65544631Y-48879281D01*
X65599060Y-48951853D01*
X65653488Y-49096996D01*
X65653488Y-49459853D01*
X65599060Y-49604996D01*
X65544631Y-49677567D01*
X65435774Y-49750139D01*
X65163631Y-49750139D01*
X65054774Y-49677567D01*
X65000345Y-49604996D01*
X66687631Y-48226139D02*
X66143345Y-48226139D01*
X66088916Y-48951853D01*
X66143345Y-48879281D01*
X66252202Y-48806710D01*
X66524345Y-48806710D01*
X66633202Y-48879281D01*
X66687631Y-48951853D01*
X66742059Y-49096996D01*
X66742059Y-49459853D01*
X66687631Y-49604996D01*
X66633202Y-49677567D01*
X66524345Y-49750139D01*
X66252202Y-49750139D01*
X66143345Y-49677567D01*
X66088916Y-49604996D01*
X67776202Y-48226139D02*
X67231916Y-48226139D01*
X67177487Y-48951853D01*
X67231916Y-48879281D01*
X67340773Y-48806710D01*
X67612916Y-48806710D01*
X67721773Y-48879281D01*
X67776202Y-48951853D01*
X67830630Y-49096996D01*
X67830630Y-49459853D01*
X67776202Y-49604996D01*
X67721773Y-49677567D01*
X67612916Y-49750139D01*
X67340773Y-49750139D01*
X67231916Y-49677567D01*
X67177487Y-49604996D01*
D21*
D20*
X81983943Y-48289029D02*
X81983943Y-49522743D01*
X82038371Y-49667886D01*
X82092800Y-49740457D01*
X82201657Y-49813029D01*
X82419371Y-49813029D01*
X82528229Y-49740457D01*
X82582657Y-49667886D01*
X82637086Y-49522743D01*
X82637086Y-48289029D01*
X83072515Y-48289029D02*
X83780086Y-48289029D01*
X83399086Y-48869600D01*
X83562372Y-48869600D01*
X83671229Y-48942171D01*
X83725658Y-49014743D01*
X83780086Y-49159886D01*
X83780086Y-49522743D01*
X83725658Y-49667886D01*
X83671229Y-49740457D01*
X83562372Y-49813029D01*
X83235800Y-49813029D01*
X83126943Y-49740457D01*
X83072515Y-49667886D01*
D21*
D20*
X80922587Y-36859029D02*
X80378301Y-36859029D01*
X80378301Y-35335029D01*
X81303587Y-36859029D02*
X81303587Y-35335029D01*
X81684587Y-36423600D01*
X82065587Y-35335029D01*
X82065587Y-36859029D01*
X82501016Y-35335029D02*
X83208587Y-35335029D01*
X82827587Y-35915600D01*
X82990873Y-35915600D01*
X83099730Y-35988171D01*
X83154159Y-36060743D01*
X83208587Y-36205886D01*
X83208587Y-36568743D01*
X83154159Y-36713886D01*
X83099730Y-36786457D01*
X82990873Y-36859029D01*
X82664301Y-36859029D01*
X82555444Y-36786457D01*
X82501016Y-36713886D01*
X84242730Y-35335029D02*
X83698444Y-35335029D01*
X83644015Y-36060743D01*
X83698444Y-35988171D01*
X83807301Y-35915600D01*
X84079444Y-35915600D01*
X84188301Y-35988171D01*
X84242730Y-36060743D01*
X84297158Y-36205886D01*
X84297158Y-36568743D01*
X84242730Y-36713886D01*
X84188301Y-36786457D01*
X84079444Y-36859029D01*
X83807301Y-36859029D01*
X83698444Y-36786457D01*
X83644015Y-36713886D01*
X84950301Y-35988171D02*
X84841443Y-35915600D01*
X84787015Y-35843029D01*
X84732586Y-35697886D01*
X84732586Y-35625314D01*
X84787015Y-35480171D01*
X84841443Y-35407600D01*
X84950301Y-35335029D01*
X85168015Y-35335029D01*
X85276872Y-35407600D01*
X85331301Y-35480171D01*
X85385729Y-35625314D01*
X85385729Y-35697886D01*
X85331301Y-35843029D01*
X85276872Y-35915600D01*
X85168015Y-35988171D01*
X84950301Y-35988171D01*
X84841443Y-36060743D01*
X84787015Y-36133314D01*
X84732586Y-36278457D01*
X84732586Y-36568743D01*
X84787015Y-36713886D01*
X84841443Y-36786457D01*
X84950301Y-36859029D01*
X85168015Y-36859029D01*
X85276872Y-36786457D01*
X85331301Y-36713886D01*
X85385729Y-36568743D01*
X85385729Y-36278457D01*
X85331301Y-36133314D01*
X85276872Y-36060743D01*
X85168015Y-35988171D01*
D21*
M02*
